<svg xmlns="http://www.w3.org/2000/svg" xmlns:xlink="http://www.w3.org/1999/xlink" width="459" zoomAndPan="magnify" viewBox="0 0 344.25 121.500001" height="162" preserveAspectRatio="xMidYMid meet" version="1.0"><defs><g/></defs><g fill="#304732" fill-opacity="1"><g transform="translate(10.844999, 27.177089)"><g><path d="M 1.75 -15.84375 L 8.171875 -15.84375 C 9.691406 -15.84375 10.90625 -15.472656 11.8125 -14.734375 C 12.71875 -13.992188 13.171875 -13.003906 13.171875 -11.765625 C 13.171875 -10.953125 12.957031 -10.242188 12.53125 -9.640625 C 12.101562 -9.035156 11.507812 -8.578125 10.75 -8.265625 C 11.707031 -7.972656 12.457031 -7.488281 13 -6.8125 C 13.550781 -6.144531 13.828125 -5.359375 13.828125 -4.453125 C 13.828125 -3.097656 13.332031 -2.015625 12.34375 -1.203125 C 11.363281 -0.398438 10.0625 0 8.4375 0 L 1.75 0 Z M 8.078125 -14.328125 L 3.484375 -14.328125 L 3.484375 -8.9375 L 8.078125 -8.9375 C 9.109375 -8.9375 9.925781 -9.179688 10.53125 -9.671875 C 11.144531 -10.171875 11.453125 -10.828125 11.453125 -11.640625 C 11.453125 -12.453125 11.144531 -13.101562 10.53125 -13.59375 C 9.925781 -14.082031 9.109375 -14.328125 8.078125 -14.328125 Z M 8.3125 -1.515625 C 9.4375 -1.515625 10.34375 -1.785156 11.03125 -2.328125 C 11.71875 -2.867188 12.0625 -3.59375 12.0625 -4.5 C 12.0625 -5.40625 11.71875 -6.128906 11.03125 -6.671875 C 10.34375 -7.222656 9.4375 -7.5 8.3125 -7.5 L 3.484375 -7.5 L 3.484375 -1.515625 Z M 8.3125 -1.515625 "/></g></g></g><g fill="#304732" fill-opacity="1"><g transform="translate(28.588585, 27.177089)"><g><path d="M 6.359375 0 L 6.359375 -6.453125 L 0.0625 -15.84375 L 2.109375 -15.84375 L 7.296875 -7.984375 L 12.453125 -15.84375 L 14.421875 -15.84375 L 8.109375 -6.390625 L 8.109375 0 Z M 6.359375 0 "/></g></g></g><g fill="#304732" fill-opacity="1"><g transform="translate(45.924836, 27.177089)"><g/></g></g><g fill="#304732" fill-opacity="1"><g transform="translate(53.666192, 27.177089)"><g><path d="M 0.09375 0 L 6.671875 -15.84375 L 8.78125 -15.84375 L 15.28125 0 L 13.375 0 L 11.390625 -4.984375 L 3.921875 -4.984375 L 1.90625 0 Z M 4.53125 -6.46875 L 10.78125 -6.46875 L 7.671875 -14.21875 Z M 4.53125 -6.46875 "/></g></g></g><g fill="#304732" fill-opacity="1"><g transform="translate(71.90763, 27.177089)"><g><path d="M 1.75 0 L 1.75 -15.84375 L 8.625 -15.84375 C 10.164062 -15.84375 11.40625 -15.421875 12.34375 -14.578125 C 13.28125 -13.742188 13.75 -12.644531 13.75 -11.28125 C 13.75 -9.90625 13.273438 -8.789062 12.328125 -7.9375 C 11.378906 -7.09375 10.144531 -6.671875 8.625 -6.671875 L 3.484375 -6.671875 L 3.484375 0 Z M 8.484375 -14.28125 L 3.484375 -14.28125 L 3.484375 -8.203125 L 8.484375 -8.203125 C 9.554688 -8.203125 10.410156 -8.472656 11.046875 -9.015625 C 11.679688 -9.566406 12 -10.3125 12 -11.25 C 12 -12.1875 11.679688 -12.925781 11.046875 -13.46875 C 10.410156 -14.007812 9.554688 -14.28125 8.484375 -14.28125 Z M 8.484375 -14.28125 "/></g></g></g><g fill="#304732" fill-opacity="1"><g transform="translate(89.424928, 27.177089)"><g><path d="M 1.75 0 L 1.75 -15.84375 L 8.625 -15.84375 C 10.164062 -15.84375 11.40625 -15.421875 12.34375 -14.578125 C 13.28125 -13.742188 13.75 -12.644531 13.75 -11.28125 C 13.75 -9.90625 13.273438 -8.789062 12.328125 -7.9375 C 11.378906 -7.09375 10.144531 -6.671875 8.625 -6.671875 L 3.484375 -6.671875 L 3.484375 0 Z M 8.484375 -14.28125 L 3.484375 -14.28125 L 3.484375 -8.203125 L 8.484375 -8.203125 C 9.554688 -8.203125 10.410156 -8.472656 11.046875 -9.015625 C 11.679688 -9.566406 12 -10.3125 12 -11.25 C 12 -12.1875 11.679688 -12.925781 11.046875 -13.46875 C 10.410156 -14.007812 9.554688 -14.28125 8.484375 -14.28125 Z M 8.484375 -14.28125 "/></g></g></g><g fill="#304732" fill-opacity="1"><g transform="translate(106.942226, 27.177089)"><g><path d="M 17.3125 -7.921875 C 17.3125 -6.785156 17.097656 -5.71875 16.671875 -4.71875 C 16.253906 -3.71875 15.679688 -2.847656 14.953125 -2.109375 C 14.222656 -1.378906 13.359375 -0.800781 12.359375 -0.375 C 11.367188 0.0390625 10.304688 0.25 9.171875 0.25 C 8.035156 0.25 6.960938 0.0390625 5.953125 -0.375 C 4.953125 -0.800781 4.085938 -1.378906 3.359375 -2.109375 C 2.628906 -2.847656 2.050781 -3.71875 1.625 -4.71875 C 1.207031 -5.71875 1 -6.785156 1 -7.921875 C 1 -9.054688 1.207031 -10.125 1.625 -11.125 C 2.050781 -12.132812 2.628906 -13.003906 3.359375 -13.734375 C 4.085938 -14.460938 4.953125 -15.035156 5.953125 -15.453125 C 6.960938 -15.878906 8.035156 -16.09375 9.171875 -16.09375 C 10.304688 -16.09375 11.367188 -15.878906 12.359375 -15.453125 C 13.359375 -15.035156 14.222656 -14.460938 14.953125 -13.734375 C 15.679688 -13.003906 16.253906 -12.132812 16.671875 -11.125 C 17.097656 -10.125 17.3125 -9.054688 17.3125 -7.921875 Z M 15.546875 -7.921875 C 15.546875 -8.847656 15.378906 -9.710938 15.046875 -10.515625 C 14.722656 -11.328125 14.273438 -12.019531 13.703125 -12.59375 C 13.140625 -13.175781 12.460938 -13.632812 11.671875 -13.96875 C 10.890625 -14.3125 10.054688 -14.484375 9.171875 -14.484375 C 8.265625 -14.484375 7.414062 -14.3125 6.625 -13.96875 C 5.84375 -13.632812 5.171875 -13.175781 4.609375 -12.59375 C 4.046875 -12.019531 3.597656 -11.328125 3.265625 -10.515625 C 2.929688 -9.710938 2.765625 -8.847656 2.765625 -7.921875 C 2.765625 -7.003906 2.929688 -6.144531 3.265625 -5.34375 C 3.597656 -4.539062 4.046875 -3.84375 4.609375 -3.25 C 5.171875 -2.664062 5.84375 -2.203125 6.625 -1.859375 C 7.414062 -1.523438 8.265625 -1.359375 9.171875 -1.359375 C 10.054688 -1.359375 10.890625 -1.523438 11.671875 -1.859375 C 12.460938 -2.203125 13.140625 -2.664062 13.703125 -3.25 C 14.273438 -3.84375 14.722656 -4.539062 15.046875 -5.34375 C 15.378906 -6.144531 15.546875 -7.003906 15.546875 -7.921875 Z M 15.546875 -7.921875 "/></g></g></g><g fill="#304732" fill-opacity="1"><g transform="translate(128.125499, 27.177089)"><g><path d="M 1.75 0 L 1.75 -15.84375 L 3.484375 -15.84375 L 3.484375 0 Z M 1.75 0 "/></g></g></g><g fill="#304732" fill-opacity="1"><g transform="translate(136.228934, 27.177089)"><g><path d="M 1.75 -15.84375 L 3.484375 -15.84375 L 13.015625 -2.984375 L 13.015625 -15.84375 L 14.671875 -15.84375 L 14.671875 0 L 13.125 0 L 3.390625 -13.203125 L 3.390625 0 L 1.75 0 Z M 1.75 -15.84375 "/></g></g></g><g fill="#304732" fill-opacity="1"><g transform="translate(155.511327, 27.177089)"><g><path d="M 0.390625 -14.28125 L 0.390625 -15.84375 L 13.578125 -15.84375 L 13.578125 -14.28125 L 7.859375 -14.28125 L 7.859375 0 L 6.109375 0 L 6.109375 -14.28125 Z M 0.390625 -14.28125 "/></g></g></g><g fill="#304732" fill-opacity="1"><g transform="translate(172.34974, 27.177089)"><g><path d="M 9.578125 -1.125 L 3.375 -13.828125 L 3.375 0 L 1.75 0 L 1.75 -15.84375 L 4.1875 -15.84375 L 9.59375 -4.59375 L 14.984375 -15.84375 L 17.4375 -15.84375 L 17.4375 0 L 15.78125 0 L 15.78125 -13.859375 Z M 9.578125 -1.125 "/></g></g></g><g fill="#304732" fill-opacity="1"><g transform="translate(194.392929, 27.177089)"><g><path d="M 1.75 0 L 1.75 -15.84375 L 13.09375 -15.84375 L 13.09375 -14.3125 L 3.484375 -14.3125 L 3.484375 -8.765625 L 9.765625 -8.765625 L 9.765625 -7.25 L 3.484375 -7.25 L 3.484375 -1.546875 L 13.171875 -1.546875 L 13.171875 0 Z M 1.75 0 "/></g></g></g><g fill="#304732" fill-opacity="1"><g transform="translate(211.208708, 27.177089)"><g><path d="M 1.75 -15.84375 L 3.484375 -15.84375 L 13.015625 -2.984375 L 13.015625 -15.84375 L 14.671875 -15.84375 L 14.671875 0 L 13.125 0 L 3.390625 -13.203125 L 3.390625 0 L 1.75 0 Z M 1.75 -15.84375 "/></g></g></g><g fill="#304732" fill-opacity="1"><g transform="translate(230.491088, 27.177089)"><g><path d="M 0.390625 -14.28125 L 0.390625 -15.84375 L 13.578125 -15.84375 L 13.578125 -14.28125 L 7.859375 -14.28125 L 7.859375 0 L 6.109375 0 L 6.109375 -14.28125 Z M 0.390625 -14.28125 "/></g></g></g><g fill="#304732" fill-opacity="1"><g transform="translate(247.329501, 27.177089)"><g/></g></g><g fill="#304732" fill-opacity="1"><g transform="translate(255.07086, 27.177089)"><g><path d="M 17.3125 -7.921875 C 17.3125 -6.785156 17.097656 -5.71875 16.671875 -4.71875 C 16.253906 -3.71875 15.679688 -2.847656 14.953125 -2.109375 C 14.222656 -1.378906 13.359375 -0.800781 12.359375 -0.375 C 11.367188 0.0390625 10.304688 0.25 9.171875 0.25 C 8.035156 0.25 6.960938 0.0390625 5.953125 -0.375 C 4.953125 -0.800781 4.085938 -1.378906 3.359375 -2.109375 C 2.628906 -2.847656 2.050781 -3.71875 1.625 -4.71875 C 1.207031 -5.71875 1 -6.785156 1 -7.921875 C 1 -9.054688 1.207031 -10.125 1.625 -11.125 C 2.050781 -12.132812 2.628906 -13.003906 3.359375 -13.734375 C 4.085938 -14.460938 4.953125 -15.035156 5.953125 -15.453125 C 6.960938 -15.878906 8.035156 -16.09375 9.171875 -16.09375 C 10.304688 -16.09375 11.367188 -15.878906 12.359375 -15.453125 C 13.359375 -15.035156 14.222656 -14.460938 14.953125 -13.734375 C 15.679688 -13.003906 16.253906 -12.132812 16.671875 -11.125 C 17.097656 -10.125 17.3125 -9.054688 17.3125 -7.921875 Z M 15.546875 -7.921875 C 15.546875 -8.847656 15.378906 -9.710938 15.046875 -10.515625 C 14.722656 -11.328125 14.273438 -12.019531 13.703125 -12.59375 C 13.140625 -13.175781 12.460938 -13.632812 11.671875 -13.96875 C 10.890625 -14.3125 10.054688 -14.484375 9.171875 -14.484375 C 8.265625 -14.484375 7.414062 -14.3125 6.625 -13.96875 C 5.84375 -13.632812 5.171875 -13.175781 4.609375 -12.59375 C 4.046875 -12.019531 3.597656 -11.328125 3.265625 -10.515625 C 2.929688 -9.710938 2.765625 -8.847656 2.765625 -7.921875 C 2.765625 -7.003906 2.929688 -6.144531 3.265625 -5.34375 C 3.597656 -4.539062 4.046875 -3.84375 4.609375 -3.25 C 5.171875 -2.664062 5.84375 -2.203125 6.625 -1.859375 C 7.414062 -1.523438 8.265625 -1.359375 9.171875 -1.359375 C 10.054688 -1.359375 10.890625 -1.523438 11.671875 -1.859375 C 12.460938 -2.203125 13.140625 -2.664062 13.703125 -3.25 C 14.273438 -3.84375 14.722656 -4.539062 15.046875 -5.34375 C 15.378906 -6.144531 15.546875 -7.003906 15.546875 -7.921875 Z M 15.546875 -7.921875 "/></g></g></g><g fill="#304732" fill-opacity="1"><g transform="translate(276.254132, 27.177089)"><g><path d="M 1.75 -15.84375 L 3.484375 -15.84375 L 13.015625 -2.984375 L 13.015625 -15.84375 L 14.671875 -15.84375 L 14.671875 0 L 13.125 0 L 3.390625 -13.203125 L 3.390625 0 L 1.75 0 Z M 1.75 -15.84375 "/></g></g></g><g fill="#304732" fill-opacity="1"><g transform="translate(295.536512, 27.177089)"><g><path d="M 1.75 0 L 1.75 -15.84375 L 3.484375 -15.84375 L 3.484375 -1.5625 L 12.921875 -1.5625 L 12.921875 0 Z M 1.75 0 "/></g></g></g><g fill="#304732" fill-opacity="1"><g transform="translate(312.080741, 27.177089)"><g><path d="M 6.359375 0 L 6.359375 -6.453125 L 0.0625 -15.84375 L 2.109375 -15.84375 L 7.296875 -7.984375 L 12.453125 -15.84375 L 14.421875 -15.84375 L 8.109375 -6.390625 L 8.109375 0 Z M 6.359375 0 "/></g></g></g><g fill="#304732" fill-opacity="1"><g transform="translate(11.914882, 108.690708)"><g><path d="M 11.4375 -1.25 C 10.78125 -0.757812 10.09375 -0.390625 9.375 -0.140625 C 8.664062 0.0976562 7.882812 0.21875 7.03125 0.21875 C 6.175781 0.21875 5.375 0.0625 4.625 -0.25 C 3.882812 -0.570312 3.242188 -1.007812 2.703125 -1.5625 C 2.160156 -2.113281 1.726562 -2.757812 1.40625 -3.5 C 1.09375 -4.25 0.9375 -5.054688 0.9375 -5.921875 C 0.9375 -6.773438 1.085938 -7.566406 1.390625 -8.296875 C 1.703125 -9.035156 2.117188 -9.679688 2.640625 -10.234375 C 3.160156 -10.785156 3.773438 -11.21875 4.484375 -11.53125 C 5.203125 -11.851562 5.960938 -12.015625 6.765625 -12.015625 C 7.554688 -12.015625 8.289062 -11.851562 8.96875 -11.53125 C 9.65625 -11.21875 10.242188 -10.785156 10.734375 -10.234375 C 11.234375 -9.679688 11.628906 -9.035156 11.921875 -8.296875 C 12.210938 -7.566406 12.359375 -6.773438 12.359375 -5.921875 L 12.359375 -5.375 L 2.671875 -5.375 C 2.796875 -4.21875 3.273438 -3.253906 4.109375 -2.484375 C 4.941406 -1.710938 5.941406 -1.328125 7.109375 -1.328125 C 7.710938 -1.328125 8.304688 -1.421875 8.890625 -1.609375 C 9.472656 -1.796875 9.960938 -2.0625 10.359375 -2.40625 Z M 6.71875 -10.46875 C 5.695312 -10.46875 4.8125 -10.125 4.0625 -9.4375 C 3.320312 -8.75 2.875 -7.859375 2.71875 -6.765625 L 10.609375 -6.765625 C 10.453125 -7.804688 10.007812 -8.679688 9.28125 -9.390625 C 8.550781 -10.109375 7.695312 -10.46875 6.71875 -10.46875 Z M 6.71875 -10.46875 "/></g></g></g><g fill="#304732" fill-opacity="1"><g transform="translate(28.174374, 108.690708)"><g><path d="M 5.21875 0.21875 C 3.925781 0.21875 2.875 -0.109375 2.0625 -0.765625 C 1.25 -1.429688 0.84375 -2.289062 0.84375 -3.34375 C 0.84375 -4.445312 1.265625 -5.320312 2.109375 -5.96875 C 2.960938 -6.625 4.113281 -6.953125 5.5625 -6.953125 C 6.195312 -6.953125 6.804688 -6.878906 7.390625 -6.734375 C 7.984375 -6.597656 8.53125 -6.40625 9.03125 -6.15625 L 9.03125 -7.71875 C 9.03125 -8.65625 8.765625 -9.363281 8.234375 -9.84375 C 7.703125 -10.320312 6.921875 -10.5625 5.890625 -10.5625 C 5.316406 -10.5625 4.734375 -10.476562 4.140625 -10.3125 C 3.546875 -10.15625 2.894531 -9.894531 2.1875 -9.53125 L 1.53125 -10.875 C 2.382812 -11.28125 3.171875 -11.578125 3.890625 -11.765625 C 4.617188 -11.960938 5.34375 -12.0625 6.0625 -12.0625 C 7.5625 -12.0625 8.710938 -11.707031 9.515625 -11 C 10.328125 -10.289062 10.734375 -9.273438 10.734375 -7.953125 L 10.734375 0 L 9.03125 0 L 9.03125 -1.15625 C 8.5 -0.695312 7.914062 -0.351562 7.28125 -0.125 C 6.644531 0.101562 5.957031 0.21875 5.21875 0.21875 Z M 2.53125 -3.390625 C 2.53125 -2.734375 2.804688 -2.195312 3.359375 -1.78125 C 3.921875 -1.363281 4.640625 -1.15625 5.515625 -1.15625 C 6.222656 -1.15625 6.867188 -1.265625 7.453125 -1.484375 C 8.035156 -1.703125 8.5625 -2.050781 9.03125 -2.53125 L 9.03125 -4.75 C 8.550781 -5.070312 8.03125 -5.304688 7.46875 -5.453125 C 6.90625 -5.609375 6.285156 -5.6875 5.609375 -5.6875 C 4.671875 -5.6875 3.921875 -5.476562 3.359375 -5.0625 C 2.804688 -4.644531 2.53125 -4.085938 2.53125 -3.390625 Z M 2.53125 -3.390625 "/></g></g></g><g fill="#304732" fill-opacity="1"><g transform="translate(43.301223, 108.690708)"><g><path d="M 1.484375 0 L 1.484375 -11.828125 L 3.234375 -11.828125 L 3.234375 -10.140625 C 3.578125 -10.753906 4.03125 -11.226562 4.59375 -11.5625 C 5.164062 -11.90625 5.8125 -12.078125 6.53125 -12.078125 C 6.75 -12.078125 6.945312 -12.066406 7.125 -12.046875 C 7.300781 -12.023438 7.472656 -11.984375 7.640625 -11.921875 L 7.640625 -10.3125 C 7.441406 -10.375 7.238281 -10.421875 7.03125 -10.453125 C 6.820312 -10.492188 6.617188 -10.515625 6.421875 -10.515625 C 5.691406 -10.515625 5.050781 -10.304688 4.5 -9.890625 C 3.957031 -9.472656 3.535156 -8.875 3.234375 -8.09375 L 3.234375 0 Z M 1.484375 0 "/></g></g></g><g fill="#304732" fill-opacity="1"><g transform="translate(54.416617, 108.690708)"><g><path d="M 3.234375 -16.921875 L 3.234375 0 L 1.484375 0 L 1.484375 -16.515625 Z M 3.234375 -16.921875 "/></g></g></g><g fill="#304732" fill-opacity="1"><g transform="translate(62.086876, 108.690708)"><g><path d="M 4.25 1.53125 L 4.9375 -0.03125 L 0.125 -11.828125 L 2.046875 -11.828125 L 5.875 -2.125 L 10 -11.828125 L 11.890625 -11.828125 L 6.015625 1.765625 C 5.515625 2.898438 4.957031 3.71875 4.34375 4.21875 C 3.726562 4.726562 2.945312 4.984375 2 4.984375 C 1.78125 4.984375 1.570312 4.96875 1.375 4.9375 C 1.175781 4.914062 1.015625 4.890625 0.890625 4.859375 L 0.890625 3.28125 C 1.046875 3.3125 1.195312 3.332031 1.34375 3.34375 C 1.5 3.363281 1.679688 3.375 1.890625 3.375 C 2.421875 3.375 2.875 3.222656 3.25 2.921875 C 3.632812 2.628906 3.96875 2.164062 4.25 1.53125 Z M 4.25 1.53125 "/></g></g></g><g fill="#304732" fill-opacity="1"><g transform="translate(77.072148, 108.690708)"><g><path d="M 4.25 1.53125 L 4.9375 -0.03125 L 0.125 -11.828125 L 2.046875 -11.828125 L 5.875 -2.125 L 10 -11.828125 L 11.890625 -11.828125 L 6.015625 1.765625 C 5.515625 2.898438 4.957031 3.71875 4.34375 4.21875 C 3.726562 4.726562 2.945312 4.984375 2 4.984375 C 1.78125 4.984375 1.570312 4.96875 1.375 4.9375 C 1.175781 4.914062 1.015625 4.890625 0.890625 4.859375 L 0.890625 3.28125 C 1.046875 3.3125 1.195312 3.332031 1.34375 3.34375 C 1.5 3.363281 1.679688 3.375 1.890625 3.375 C 2.421875 3.375 2.875 3.222656 3.25 2.921875 C 3.632812 2.628906 3.96875 2.164062 4.25 1.53125 Z M 4.25 1.53125 "/></g></g></g><g fill="#304732" fill-opacity="1"><g transform="translate(92.05742, 108.690708)"><g><path d="M 11.4375 -1.25 C 10.78125 -0.757812 10.09375 -0.390625 9.375 -0.140625 C 8.664062 0.0976562 7.882812 0.21875 7.03125 0.21875 C 6.175781 0.21875 5.375 0.0625 4.625 -0.25 C 3.882812 -0.570312 3.242188 -1.007812 2.703125 -1.5625 C 2.160156 -2.113281 1.726562 -2.757812 1.40625 -3.5 C 1.09375 -4.25 0.9375 -5.054688 0.9375 -5.921875 C 0.9375 -6.773438 1.085938 -7.566406 1.390625 -8.296875 C 1.703125 -9.035156 2.117188 -9.679688 2.640625 -10.234375 C 3.160156 -10.785156 3.773438 -11.21875 4.484375 -11.53125 C 5.203125 -11.851562 5.960938 -12.015625 6.765625 -12.015625 C 7.554688 -12.015625 8.289062 -11.851562 8.96875 -11.53125 C 9.65625 -11.21875 10.242188 -10.785156 10.734375 -10.234375 C 11.234375 -9.679688 11.628906 -9.035156 11.921875 -8.296875 C 12.210938 -7.566406 12.359375 -6.773438 12.359375 -5.921875 L 12.359375 -5.375 L 2.671875 -5.375 C 2.796875 -4.21875 3.273438 -3.253906 4.109375 -2.484375 C 4.941406 -1.710938 5.941406 -1.328125 7.109375 -1.328125 C 7.710938 -1.328125 8.304688 -1.421875 8.890625 -1.609375 C 9.472656 -1.796875 9.960938 -2.0625 10.359375 -2.40625 Z M 6.71875 -10.46875 C 5.695312 -10.46875 4.8125 -10.125 4.0625 -9.4375 C 3.320312 -8.75 2.875 -7.859375 2.71875 -6.765625 L 10.609375 -6.765625 C 10.453125 -7.804688 10.007812 -8.679688 9.28125 -9.390625 C 8.550781 -10.109375 7.695312 -10.46875 6.71875 -10.46875 Z M 6.71875 -10.46875 "/></g></g></g><g fill="#304732" fill-opacity="1"><g transform="translate(108.316912, 108.690708)"><g><path d="M 5.21875 0.21875 C 3.925781 0.21875 2.875 -0.109375 2.0625 -0.765625 C 1.25 -1.429688 0.84375 -2.289062 0.84375 -3.34375 C 0.84375 -4.445312 1.265625 -5.320312 2.109375 -5.96875 C 2.960938 -6.625 4.113281 -6.953125 5.5625 -6.953125 C 6.195312 -6.953125 6.804688 -6.878906 7.390625 -6.734375 C 7.984375 -6.597656 8.53125 -6.40625 9.03125 -6.15625 L 9.03125 -7.71875 C 9.03125 -8.65625 8.765625 -9.363281 8.234375 -9.84375 C 7.703125 -10.320312 6.921875 -10.5625 5.890625 -10.5625 C 5.316406 -10.5625 4.734375 -10.476562 4.140625 -10.3125 C 3.546875 -10.15625 2.894531 -9.894531 2.1875 -9.53125 L 1.53125 -10.875 C 2.382812 -11.28125 3.171875 -11.578125 3.890625 -11.765625 C 4.617188 -11.960938 5.34375 -12.0625 6.0625 -12.0625 C 7.5625 -12.0625 8.710938 -11.707031 9.515625 -11 C 10.328125 -10.289062 10.734375 -9.273438 10.734375 -7.953125 L 10.734375 0 L 9.03125 0 L 9.03125 -1.15625 C 8.5 -0.695312 7.914062 -0.351562 7.28125 -0.125 C 6.644531 0.101562 5.957031 0.21875 5.21875 0.21875 Z M 2.53125 -3.390625 C 2.53125 -2.734375 2.804688 -2.195312 3.359375 -1.78125 C 3.921875 -1.363281 4.640625 -1.15625 5.515625 -1.15625 C 6.222656 -1.15625 6.867188 -1.265625 7.453125 -1.484375 C 8.035156 -1.703125 8.5625 -2.050781 9.03125 -2.53125 L 9.03125 -4.75 C 8.550781 -5.070312 8.03125 -5.304688 7.46875 -5.453125 C 6.90625 -5.609375 6.285156 -5.6875 5.609375 -5.6875 C 4.671875 -5.6875 3.921875 -5.476562 3.359375 -5.0625 C 2.804688 -4.644531 2.53125 -4.085938 2.53125 -3.390625 Z M 2.53125 -3.390625 "/></g></g></g><g fill="#304732" fill-opacity="1"><g transform="translate(123.443762, 108.690708)"><g><path d="M 1.484375 0 L 1.484375 -11.828125 L 3.234375 -11.828125 L 3.234375 -10.140625 C 3.578125 -10.753906 4.03125 -11.226562 4.59375 -11.5625 C 5.164062 -11.90625 5.8125 -12.078125 6.53125 -12.078125 C 6.75 -12.078125 6.945312 -12.066406 7.125 -12.046875 C 7.300781 -12.023438 7.472656 -11.984375 7.640625 -11.921875 L 7.640625 -10.3125 C 7.441406 -10.375 7.238281 -10.421875 7.03125 -10.453125 C 6.820312 -10.492188 6.617188 -10.515625 6.421875 -10.515625 C 5.691406 -10.515625 5.050781 -10.304688 4.5 -9.890625 C 3.957031 -9.472656 3.535156 -8.875 3.234375 -8.09375 L 3.234375 0 Z M 1.484375 0 "/></g></g></g><g fill="#304732" fill-opacity="1"><g transform="translate(134.559156, 108.690708)"><g><path d="M 0.28125 -1.625 L 1.34375 -2.765625 C 1.875 -2.253906 2.472656 -1.859375 3.140625 -1.578125 C 3.816406 -1.304688 4.5 -1.171875 5.1875 -1.171875 C 6.132812 -1.171875 6.90625 -1.367188 7.5 -1.765625 C 8.101562 -2.160156 8.40625 -2.671875 8.40625 -3.296875 C 8.40625 -3.804688 8.226562 -4.207031 7.875 -4.5 C 7.519531 -4.789062 6.960938 -4.988281 6.203125 -5.09375 L 4.15625 -5.375 C 2.976562 -5.550781 2.097656 -5.898438 1.515625 -6.421875 C 0.941406 -6.953125 0.65625 -7.664062 0.65625 -8.5625 C 0.65625 -9.550781 1.070312 -10.375 1.90625 -11.03125 C 2.738281 -11.6875 3.800781 -12.015625 5.09375 -12.015625 C 5.945312 -12.015625 6.753906 -11.882812 7.515625 -11.625 C 8.273438 -11.375 9.019531 -10.984375 9.75 -10.453125 L 8.828125 -9.265625 C 8.160156 -9.710938 7.515625 -10.046875 6.890625 -10.265625 C 6.273438 -10.484375 5.644531 -10.59375 5 -10.59375 C 4.195312 -10.59375 3.539062 -10.410156 3.03125 -10.046875 C 2.519531 -9.691406 2.265625 -9.222656 2.265625 -8.640625 C 2.265625 -8.128906 2.4375 -7.734375 2.78125 -7.453125 C 3.125 -7.179688 3.679688 -6.992188 4.453125 -6.890625 L 6.515625 -6.609375 C 7.691406 -6.453125 8.570312 -6.101562 9.15625 -5.5625 C 9.75 -5.019531 10.046875 -4.296875 10.046875 -3.390625 C 10.046875 -2.890625 9.921875 -2.414062 9.671875 -1.96875 C 9.429688 -1.519531 9.09375 -1.132812 8.65625 -0.8125 C 8.226562 -0.488281 7.722656 -0.234375 7.140625 -0.046875 C 6.566406 0.128906 5.941406 0.21875 5.265625 0.21875 C 4.285156 0.21875 3.367188 0.0546875 2.515625 -0.265625 C 1.660156 -0.585938 0.914062 -1.039062 0.28125 -1.625 Z M 0.28125 -1.625 "/></g></g></g><g fill="#304732" fill-opacity="1"><g transform="translate(148.034232, 108.690708)"><g><path d="M 11.4375 -1.25 C 10.78125 -0.757812 10.09375 -0.390625 9.375 -0.140625 C 8.664062 0.0976562 7.882812 0.21875 7.03125 0.21875 C 6.175781 0.21875 5.375 0.0625 4.625 -0.25 C 3.882812 -0.570312 3.242188 -1.007812 2.703125 -1.5625 C 2.160156 -2.113281 1.726562 -2.757812 1.40625 -3.5 C 1.09375 -4.25 0.9375 -5.054688 0.9375 -5.921875 C 0.9375 -6.773438 1.085938 -7.566406 1.390625 -8.296875 C 1.703125 -9.035156 2.117188 -9.679688 2.640625 -10.234375 C 3.160156 -10.785156 3.773438 -11.21875 4.484375 -11.53125 C 5.203125 -11.851562 5.960938 -12.015625 6.765625 -12.015625 C 7.554688 -12.015625 8.289062 -11.851562 8.96875 -11.53125 C 9.65625 -11.21875 10.242188 -10.785156 10.734375 -10.234375 C 11.234375 -9.679688 11.628906 -9.035156 11.921875 -8.296875 C 12.210938 -7.566406 12.359375 -6.773438 12.359375 -5.921875 L 12.359375 -5.375 L 2.671875 -5.375 C 2.796875 -4.21875 3.273438 -3.253906 4.109375 -2.484375 C 4.941406 -1.710938 5.941406 -1.328125 7.109375 -1.328125 C 7.710938 -1.328125 8.304688 -1.421875 8.890625 -1.609375 C 9.472656 -1.796875 9.960938 -2.0625 10.359375 -2.40625 Z M 6.71875 -10.46875 C 5.695312 -10.46875 4.8125 -10.125 4.0625 -9.4375 C 3.320312 -8.75 2.875 -7.859375 2.71875 -6.765625 L 10.609375 -6.765625 C 10.453125 -7.804688 10.007812 -8.679688 9.28125 -9.390625 C 8.550781 -10.109375 7.695312 -10.46875 6.71875 -10.46875 Z M 6.71875 -10.46875 "/></g></g></g><g fill="#304732" fill-opacity="1"><g transform="translate(164.293724, 108.690708)"><g><path d="M 4.25 1.53125 L 4.9375 -0.03125 L 0.125 -11.828125 L 2.046875 -11.828125 L 5.875 -2.125 L 10 -11.828125 L 11.890625 -11.828125 L 6.015625 1.765625 C 5.515625 2.898438 4.957031 3.71875 4.34375 4.21875 C 3.726562 4.726562 2.945312 4.984375 2 4.984375 C 1.78125 4.984375 1.570312 4.96875 1.375 4.9375 C 1.175781 4.914062 1.015625 4.890625 0.890625 4.859375 L 0.890625 3.28125 C 1.046875 3.3125 1.195312 3.332031 1.34375 3.34375 C 1.5 3.363281 1.679688 3.375 1.890625 3.375 C 2.421875 3.375 2.875 3.222656 3.25 2.921875 C 3.632812 2.628906 3.96875 2.164062 4.25 1.53125 Z M 4.25 1.53125 "/></g></g></g><g fill="#304732" fill-opacity="1"><g transform="translate(179.278996, 108.690708)"><g><path d="M 11.4375 -1.25 C 10.78125 -0.757812 10.09375 -0.390625 9.375 -0.140625 C 8.664062 0.0976562 7.882812 0.21875 7.03125 0.21875 C 6.175781 0.21875 5.375 0.0625 4.625 -0.25 C 3.882812 -0.570312 3.242188 -1.007812 2.703125 -1.5625 C 2.160156 -2.113281 1.726562 -2.757812 1.40625 -3.5 C 1.09375 -4.25 0.9375 -5.054688 0.9375 -5.921875 C 0.9375 -6.773438 1.085938 -7.566406 1.390625 -8.296875 C 1.703125 -9.035156 2.117188 -9.679688 2.640625 -10.234375 C 3.160156 -10.785156 3.773438 -11.21875 4.484375 -11.53125 C 5.203125 -11.851562 5.960938 -12.015625 6.765625 -12.015625 C 7.554688 -12.015625 8.289062 -11.851562 8.96875 -11.53125 C 9.65625 -11.21875 10.242188 -10.785156 10.734375 -10.234375 C 11.234375 -9.679688 11.628906 -9.035156 11.921875 -8.296875 C 12.210938 -7.566406 12.359375 -6.773438 12.359375 -5.921875 L 12.359375 -5.375 L 2.671875 -5.375 C 2.796875 -4.21875 3.273438 -3.253906 4.109375 -2.484375 C 4.941406 -1.710938 5.941406 -1.328125 7.109375 -1.328125 C 7.710938 -1.328125 8.304688 -1.421875 8.890625 -1.609375 C 9.472656 -1.796875 9.960938 -2.0625 10.359375 -2.40625 Z M 6.71875 -10.46875 C 5.695312 -10.46875 4.8125 -10.125 4.0625 -9.4375 C 3.320312 -8.75 2.875 -7.859375 2.71875 -6.765625 L 10.609375 -6.765625 C 10.453125 -7.804688 10.007812 -8.679688 9.28125 -9.390625 C 8.550781 -10.109375 7.695312 -10.46875 6.71875 -10.46875 Z M 6.71875 -10.46875 "/></g></g></g><g fill="#304732" fill-opacity="1"><g transform="translate(195.538488, 108.690708)"><g><path d="M 7 -1.375 C 7.632812 -1.375 8.242188 -1.5 8.828125 -1.75 C 9.410156 -2 9.953125 -2.367188 10.453125 -2.859375 L 11.53125 -1.671875 C 10.90625 -1.078125 10.195312 -0.613281 9.40625 -0.28125 C 8.625 0.0507812 7.804688 0.21875 6.953125 0.21875 C 6.117188 0.21875 5.332031 0.0625 4.59375 -0.25 C 3.851562 -0.570312 3.21875 -1.007812 2.6875 -1.5625 C 2.15625 -2.113281 1.726562 -2.765625 1.40625 -3.515625 C 1.09375 -4.265625 0.9375 -5.066406 0.9375 -5.921875 C 0.9375 -6.773438 1.09375 -7.570312 1.40625 -8.3125 C 1.726562 -9.0625 2.15625 -9.710938 2.6875 -10.265625 C 3.21875 -10.816406 3.851562 -11.253906 4.59375 -11.578125 C 5.332031 -11.898438 6.117188 -12.0625 6.953125 -12.0625 C 7.804688 -12.0625 8.640625 -11.894531 9.453125 -11.5625 C 10.265625 -11.226562 10.972656 -10.769531 11.578125 -10.1875 L 10.46875 -8.921875 C 10 -9.410156 9.457031 -9.785156 8.84375 -10.046875 C 8.226562 -10.316406 7.609375 -10.453125 6.984375 -10.453125 C 6.390625 -10.453125 5.820312 -10.332031 5.28125 -10.09375 C 4.75 -9.863281 4.289062 -9.539062 3.90625 -9.125 C 3.519531 -8.71875 3.21875 -8.238281 3 -7.6875 C 2.78125 -7.132812 2.671875 -6.546875 2.671875 -5.921875 C 2.671875 -5.273438 2.78125 -4.671875 3 -4.109375 C 3.226562 -3.554688 3.535156 -3.078125 3.921875 -2.671875 C 4.304688 -2.273438 4.765625 -1.957031 5.296875 -1.71875 C 5.835938 -1.488281 6.40625 -1.375 7 -1.375 Z M 7 -1.375 "/></g></g></g><g fill="#304732" fill-opacity="1"><g transform="translate(210.594533, 108.690708)"><g><path d="M 5.21875 0.21875 C 3.925781 0.21875 2.875 -0.109375 2.0625 -0.765625 C 1.25 -1.429688 0.84375 -2.289062 0.84375 -3.34375 C 0.84375 -4.445312 1.265625 -5.320312 2.109375 -5.96875 C 2.960938 -6.625 4.113281 -6.953125 5.5625 -6.953125 C 6.195312 -6.953125 6.804688 -6.878906 7.390625 -6.734375 C 7.984375 -6.597656 8.53125 -6.40625 9.03125 -6.15625 L 9.03125 -7.71875 C 9.03125 -8.65625 8.765625 -9.363281 8.234375 -9.84375 C 7.703125 -10.320312 6.921875 -10.5625 5.890625 -10.5625 C 5.316406 -10.5625 4.734375 -10.476562 4.140625 -10.3125 C 3.546875 -10.15625 2.894531 -9.894531 2.1875 -9.53125 L 1.53125 -10.875 C 2.382812 -11.28125 3.171875 -11.578125 3.890625 -11.765625 C 4.617188 -11.960938 5.34375 -12.0625 6.0625 -12.0625 C 7.5625 -12.0625 8.710938 -11.707031 9.515625 -11 C 10.328125 -10.289062 10.734375 -9.273438 10.734375 -7.953125 L 10.734375 0 L 9.03125 0 L 9.03125 -1.15625 C 8.5 -0.695312 7.914062 -0.351562 7.28125 -0.125 C 6.644531 0.101562 5.957031 0.21875 5.21875 0.21875 Z M 2.53125 -3.390625 C 2.53125 -2.734375 2.804688 -2.195312 3.359375 -1.78125 C 3.921875 -1.363281 4.640625 -1.15625 5.515625 -1.15625 C 6.222656 -1.15625 6.867188 -1.265625 7.453125 -1.484375 C 8.035156 -1.703125 8.5625 -2.050781 9.03125 -2.53125 L 9.03125 -4.75 C 8.550781 -5.070312 8.03125 -5.304688 7.46875 -5.453125 C 6.90625 -5.609375 6.285156 -5.6875 5.609375 -5.6875 C 4.671875 -5.6875 3.921875 -5.476562 3.359375 -5.0625 C 2.804688 -4.644531 2.53125 -4.085938 2.53125 -3.390625 Z M 2.53125 -3.390625 "/></g></g></g><g fill="#304732" fill-opacity="1"><g transform="translate(225.721372, 108.690708)"><g><path d="M 1.484375 0 L 1.484375 -11.828125 L 3.234375 -11.828125 L 3.234375 -10.140625 C 3.578125 -10.753906 4.03125 -11.226562 4.59375 -11.5625 C 5.164062 -11.90625 5.8125 -12.078125 6.53125 -12.078125 C 6.75 -12.078125 6.945312 -12.066406 7.125 -12.046875 C 7.300781 -12.023438 7.472656 -11.984375 7.640625 -11.921875 L 7.640625 -10.3125 C 7.441406 -10.375 7.238281 -10.421875 7.03125 -10.453125 C 6.820312 -10.492188 6.617188 -10.515625 6.421875 -10.515625 C 5.691406 -10.515625 5.050781 -10.304688 4.5 -9.890625 C 3.957031 -9.472656 3.535156 -8.875 3.234375 -8.09375 L 3.234375 0 Z M 1.484375 0 "/></g></g></g><g fill="#304732" fill-opacity="1"><g transform="translate(236.836766, 108.690708)"><g><path d="M 11.4375 -1.25 C 10.78125 -0.757812 10.09375 -0.390625 9.375 -0.140625 C 8.664062 0.0976562 7.882812 0.21875 7.03125 0.21875 C 6.175781 0.21875 5.375 0.0625 4.625 -0.25 C 3.882812 -0.570312 3.242188 -1.007812 2.703125 -1.5625 C 2.160156 -2.113281 1.726562 -2.757812 1.40625 -3.5 C 1.09375 -4.25 0.9375 -5.054688 0.9375 -5.921875 C 0.9375 -6.773438 1.085938 -7.566406 1.390625 -8.296875 C 1.703125 -9.035156 2.117188 -9.679688 2.640625 -10.234375 C 3.160156 -10.785156 3.773438 -11.21875 4.484375 -11.53125 C 5.203125 -11.851562 5.960938 -12.015625 6.765625 -12.015625 C 7.554688 -12.015625 8.289062 -11.851562 8.96875 -11.53125 C 9.65625 -11.21875 10.242188 -10.785156 10.734375 -10.234375 C 11.234375 -9.679688 11.628906 -9.035156 11.921875 -8.296875 C 12.210938 -7.566406 12.359375 -6.773438 12.359375 -5.921875 L 12.359375 -5.375 L 2.671875 -5.375 C 2.796875 -4.21875 3.273438 -3.253906 4.109375 -2.484375 C 4.941406 -1.710938 5.941406 -1.328125 7.109375 -1.328125 C 7.710938 -1.328125 8.304688 -1.421875 8.890625 -1.609375 C 9.472656 -1.796875 9.960938 -2.0625 10.359375 -2.40625 Z M 6.71875 -10.46875 C 5.695312 -10.46875 4.8125 -10.125 4.0625 -9.4375 C 3.320312 -8.75 2.875 -7.859375 2.71875 -6.765625 L 10.609375 -6.765625 C 10.453125 -7.804688 10.007812 -8.679688 9.28125 -9.390625 C 8.550781 -10.109375 7.695312 -10.46875 6.71875 -10.46875 Z M 6.71875 -10.46875 "/></g></g></g><g fill="#304732" fill-opacity="1"><g transform="translate(253.096246, 108.690708)"><g><path d="M 2.328125 -2.265625 C 2.660156 -2.265625 2.941406 -2.144531 3.171875 -1.90625 C 3.410156 -1.675781 3.53125 -1.394531 3.53125 -1.0625 C 3.53125 -0.726562 3.410156 -0.441406 3.171875 -0.203125 C 2.941406 0.0234375 2.660156 0.140625 2.328125 0.140625 C 2.003906 0.140625 1.722656 0.0234375 1.484375 -0.203125 C 1.242188 -0.441406 1.125 -0.726562 1.125 -1.0625 C 1.125 -1.394531 1.242188 -1.675781 1.484375 -1.90625 C 1.722656 -2.144531 2.003906 -2.265625 2.328125 -2.265625 Z M 2.328125 -2.265625 "/></g></g></g><g fill="#304732" fill-opacity="1"><g transform="translate(260.719294, 108.690708)"><g><path d="M 7 -1.375 C 7.632812 -1.375 8.242188 -1.5 8.828125 -1.75 C 9.410156 -2 9.953125 -2.367188 10.453125 -2.859375 L 11.53125 -1.671875 C 10.90625 -1.078125 10.195312 -0.613281 9.40625 -0.28125 C 8.625 0.0507812 7.804688 0.21875 6.953125 0.21875 C 6.117188 0.21875 5.332031 0.0625 4.59375 -0.25 C 3.851562 -0.570312 3.21875 -1.007812 2.6875 -1.5625 C 2.15625 -2.113281 1.726562 -2.765625 1.40625 -3.515625 C 1.09375 -4.265625 0.9375 -5.066406 0.9375 -5.921875 C 0.9375 -6.773438 1.09375 -7.570312 1.40625 -8.3125 C 1.726562 -9.0625 2.15625 -9.710938 2.6875 -10.265625 C 3.21875 -10.816406 3.851562 -11.253906 4.59375 -11.578125 C 5.332031 -11.898438 6.117188 -12.0625 6.953125 -12.0625 C 7.804688 -12.0625 8.640625 -11.894531 9.453125 -11.5625 C 10.265625 -11.226562 10.972656 -10.769531 11.578125 -10.1875 L 10.46875 -8.921875 C 10 -9.410156 9.457031 -9.785156 8.84375 -10.046875 C 8.226562 -10.316406 7.609375 -10.453125 6.984375 -10.453125 C 6.390625 -10.453125 5.820312 -10.332031 5.28125 -10.09375 C 4.75 -9.863281 4.289062 -9.539062 3.90625 -9.125 C 3.519531 -8.71875 3.21875 -8.238281 3 -7.6875 C 2.78125 -7.132812 2.671875 -6.546875 2.671875 -5.921875 C 2.671875 -5.273438 2.78125 -4.671875 3 -4.109375 C 3.226562 -3.554688 3.535156 -3.078125 3.921875 -2.671875 C 4.304688 -2.273438 4.765625 -1.957031 5.296875 -1.71875 C 5.835938 -1.488281 6.40625 -1.375 7 -1.375 Z M 7 -1.375 "/></g></g></g><g fill="#304732" fill-opacity="1"><g transform="translate(275.775339, 108.690708)"><g><path d="M 0.9375 -5.921875 C 0.9375 -6.773438 1.09375 -7.578125 1.40625 -8.328125 C 1.726562 -9.085938 2.160156 -9.738281 2.703125 -10.28125 C 3.242188 -10.832031 3.882812 -11.265625 4.625 -11.578125 C 5.363281 -11.898438 6.148438 -12.0625 6.984375 -12.0625 C 7.816406 -12.0625 8.597656 -11.898438 9.328125 -11.578125 C 10.054688 -11.265625 10.691406 -10.832031 11.234375 -10.28125 C 11.785156 -9.738281 12.21875 -9.085938 12.53125 -8.328125 C 12.84375 -7.578125 13 -6.773438 13 -5.921875 C 13 -5.054688 12.84375 -4.242188 12.53125 -3.484375 C 12.21875 -2.734375 11.785156 -2.082031 11.234375 -1.53125 C 10.691406 -0.976562 10.054688 -0.546875 9.328125 -0.234375 C 8.597656 0.078125 7.816406 0.234375 6.984375 0.234375 C 6.148438 0.234375 5.363281 0.078125 4.625 -0.234375 C 3.882812 -0.546875 3.242188 -0.976562 2.703125 -1.53125 C 2.160156 -2.082031 1.726562 -2.734375 1.40625 -3.484375 C 1.09375 -4.242188 0.9375 -5.054688 0.9375 -5.921875 Z M 6.984375 -1.328125 C 7.578125 -1.328125 8.140625 -1.441406 8.671875 -1.671875 C 9.203125 -1.910156 9.65625 -2.238281 10.03125 -2.65625 C 10.414062 -3.070312 10.71875 -3.554688 10.9375 -4.109375 C 11.164062 -4.671875 11.28125 -5.273438 11.28125 -5.921875 C 11.28125 -6.566406 11.164062 -7.164062 10.9375 -7.71875 C 10.71875 -8.28125 10.414062 -8.765625 10.03125 -9.171875 C 9.65625 -9.585938 9.203125 -9.910156 8.671875 -10.140625 C 8.140625 -10.378906 7.578125 -10.5 6.984375 -10.5 C 6.390625 -10.5 5.828125 -10.378906 5.296875 -10.140625 C 4.765625 -9.910156 4.304688 -9.585938 3.921875 -9.171875 C 3.535156 -8.765625 3.226562 -8.28125 3 -7.71875 C 2.78125 -7.164062 2.671875 -6.566406 2.671875 -5.921875 C 2.671875 -5.273438 2.78125 -4.671875 3 -4.109375 C 3.21875 -3.554688 3.519531 -3.070312 3.90625 -2.65625 C 4.289062 -2.238281 4.75 -1.910156 5.28125 -1.671875 C 5.820312 -1.441406 6.390625 -1.328125 6.984375 -1.328125 Z M 6.984375 -1.328125 "/></g></g></g><g fill="#304732" fill-opacity="1"><g transform="translate(292.671946, 108.690708)"><g><path d="M 2.328125 -2.265625 C 2.660156 -2.265625 2.941406 -2.144531 3.171875 -1.90625 C 3.410156 -1.675781 3.53125 -1.394531 3.53125 -1.0625 C 3.53125 -0.726562 3.410156 -0.441406 3.171875 -0.203125 C 2.941406 0.0234375 2.660156 0.140625 2.328125 0.140625 C 2.003906 0.140625 1.722656 0.0234375 1.484375 -0.203125 C 1.242188 -0.441406 1.125 -0.726562 1.125 -1.0625 C 1.125 -1.394531 1.242188 -1.675781 1.484375 -1.90625 C 1.722656 -2.144531 2.003906 -2.265625 2.328125 -2.265625 Z M 2.328125 -2.265625 "/></g></g></g><g fill="#304732" fill-opacity="1"><g transform="translate(300.294994, 108.690708)"><g><path d="M 3.15625 -11.828125 L 3.15625 -4.6875 C 3.15625 -3.65625 3.453125 -2.832031 4.046875 -2.21875 C 4.648438 -1.601562 5.457031 -1.296875 6.46875 -1.296875 C 7.175781 -1.296875 7.804688 -1.457031 8.359375 -1.78125 C 8.921875 -2.101562 9.375 -2.554688 9.71875 -3.140625 L 9.71875 -11.828125 L 11.46875 -11.828125 L 11.46875 0 L 9.71875 0 L 9.71875 -1.375 C 9.257812 -0.832031 8.71875 -0.425781 8.09375 -0.15625 C 7.476562 0.101562 6.785156 0.234375 6.015625 0.234375 C 4.660156 0.234375 3.554688 -0.1875 2.703125 -1.03125 C 1.859375 -1.882812 1.4375 -2.988281 1.4375 -4.34375 L 1.4375 -11.828125 Z M 3.15625 -11.828125 "/></g></g></g><g fill="#304732" fill-opacity="1"><g transform="translate(316.200526, 108.690708)"><g><path d="M 1.484375 0 L 1.484375 -16.515625 L 3.234375 -16.921875 L 3.234375 -6.484375 L 9.40625 -11.828125 L 11.53125 -11.828125 L 5.046875 -6.203125 L 11.84375 0 L 9.46875 0 L 3.234375 -5.65625 L 3.234375 0 Z M 1.484375 0 "/></g></g></g><g fill="#304732" fill-opacity="1"><g transform="translate(10.577529, 73.388982)"><g><path d="M 13.390625 0.40625 C 11.679688 0.40625 10.117188 0.046875 8.703125 -0.671875 C 7.285156 -1.390625 6.066406 -2.390625 5.046875 -3.671875 C 4.035156 -4.953125 3.242188 -6.492188 2.671875 -8.296875 C 2.109375 -10.097656 1.828125 -12.066406 1.828125 -14.203125 C 1.828125 -16.335938 2.109375 -18.304688 2.671875 -20.109375 C 3.242188 -21.910156 4.035156 -23.453125 5.046875 -24.734375 C 6.066406 -26.015625 7.289062 -27.015625 8.71875 -27.734375 C 10.15625 -28.453125 11.710938 -28.8125 13.390625 -28.8125 C 15.097656 -28.8125 16.660156 -28.453125 18.078125 -27.734375 C 19.492188 -27.015625 20.71875 -26.015625 21.75 -24.734375 C 22.78125 -23.453125 23.578125 -21.910156 24.140625 -20.109375 C 24.710938 -18.304688 25 -16.335938 25 -14.203125 C 25 -12.066406 24.710938 -10.097656 24.140625 -8.296875 C 23.578125 -6.492188 22.78125 -4.953125 21.75 -3.671875 C 20.71875 -2.390625 19.492188 -1.390625 18.078125 -0.671875 C 16.660156 0.046875 15.097656 0.40625 13.390625 0.40625 Z M 13.390625 -2.265625 C 16.015625 -2.265625 18.109375 -3.347656 19.671875 -5.515625 C 21.242188 -7.679688 22.03125 -10.578125 22.03125 -14.203125 C 22.03125 -17.828125 21.242188 -20.726562 19.671875 -22.90625 C 18.109375 -25.082031 16.015625 -26.171875 13.390625 -26.171875 C 10.796875 -26.171875 8.710938 -25.082031 7.140625 -22.90625 C 5.566406 -20.726562 4.78125 -17.828125 4.78125 -14.203125 C 4.78125 -10.578125 5.566406 -7.679688 7.140625 -5.515625 C 8.710938 -3.347656 10.796875 -2.265625 13.390625 -2.265625 Z M 13.390625 -2.265625 "/></g></g></g><g fill="#304732" fill-opacity="1"><g transform="translate(40.883752, 73.388982)"><g><path d="M 3.734375 0 L 18.546875 -25.765625 L 0.609375 -25.765625 L 0.609375 -28.40625 L 21.90625 -28.40625 L 21.90625 -26.125 L 7.140625 0 Z M 3.734375 0 "/></g></g></g><g fill="#304732" fill-opacity="1"><g transform="translate(66.889544, 73.388982)"><g><path d="M 2.640625 -14.40625 L 3.28125 -28.40625 L 19.96875 -28.40625 L 19.96875 -25.8125 L 5.796875 -25.8125 L 5.390625 -16.515625 C 6.316406 -16.867188 7.269531 -17.132812 8.25 -17.3125 C 9.238281 -17.488281 10.25 -17.578125 11.28125 -17.578125 C 14.28125 -17.578125 16.726562 -16.765625 18.625 -15.140625 C 20.519531 -13.515625 21.46875 -11.429688 21.46875 -8.890625 C 21.46875 -6.128906 20.515625 -3.890625 18.609375 -2.171875 C 16.703125 -0.453125 14.207031 0.40625 11.125 0.40625 C 9.175781 0.40625 7.347656 0.0820312 5.640625 -0.5625 C 3.929688 -1.21875 2.390625 -2.179688 1.015625 -3.453125 L 2.875 -5.4375 C 4.175781 -4.300781 5.472656 -3.46875 6.765625 -2.9375 C 8.066406 -2.414062 9.53125 -2.15625 11.15625 -2.15625 C 13.320312 -2.15625 15.082031 -2.769531 16.4375 -4 C 17.789062 -5.226562 18.46875 -6.816406 18.46875 -8.765625 C 18.46875 -10.628906 17.75 -12.148438 16.3125 -13.328125 C 14.875 -14.503906 13.019531 -15.09375 10.75 -15.09375 C 9.695312 -15.09375 8.632812 -14.984375 7.5625 -14.765625 C 6.5 -14.554688 5.4375 -14.234375 4.375 -13.796875 Z M 2.640625 -14.40625 "/></g></g></g><g fill="#304732" fill-opacity="1"><g transform="translate(93.42275, 73.388982)"><g><path d="M 20.203125 -28.40625 L 20.203125 -10.140625 L 23.609375 -10.140625 L 23.609375 -7.59375 L 20.203125 -7.59375 L 20.203125 0 L 17.25 0 L 17.25 -7.59375 L 1.09375 -7.59375 L 1.09375 -9.9375 L 17.046875 -28.40625 Z M 4.75 -10.140625 L 17.25 -10.140625 L 17.25 -24.625 Z M 4.75 -10.140625 "/></g></g></g><g fill="#304732" fill-opacity="1"><g transform="translate(122.025033, 73.388982)"><g><path d="M 21.59375 -7.75 C 21.59375 -6.582031 21.332031 -5.5 20.8125 -4.5 C 20.300781 -3.5 19.59375 -2.632812 18.6875 -1.90625 C 17.78125 -1.175781 16.691406 -0.609375 15.421875 -0.203125 C 14.148438 0.203125 12.769531 0.40625 11.28125 0.40625 C 9.25 0.40625 7.351562 0.0664062 5.59375 -0.609375 C 3.84375 -1.285156 2.273438 -2.285156 0.890625 -3.609375 L 2.875 -5.5625 C 4.125 -4.394531 5.414062 -3.539062 6.75 -3 C 8.09375 -2.457031 9.601562 -2.1875 11.28125 -2.1875 C 13.414062 -2.1875 15.164062 -2.710938 16.53125 -3.765625 C 17.894531 -4.828125 18.578125 -6.179688 18.578125 -7.828125 C 18.578125 -9.367188 17.90625 -10.625 16.5625 -11.59375 C 15.226562 -12.570312 13.492188 -13.0625 11.359375 -13.0625 L 8.96875 -13.0625 L 8.96875 -15.546875 L 11.203125 -15.546875 C 12.984375 -15.546875 14.472656 -16.078125 15.671875 -17.140625 C 16.878906 -18.210938 17.484375 -19.53125 17.484375 -21.09375 C 17.484375 -22.5625 16.867188 -23.78125 15.640625 -24.75 C 14.410156 -25.726562 12.890625 -26.21875 11.078125 -26.21875 C 9.566406 -26.21875 8.203125 -25.953125 6.984375 -25.421875 C 5.765625 -24.890625 4.519531 -24.003906 3.25 -22.765625 L 1.265625 -24.75 C 2.640625 -26.101562 4.15625 -27.125 5.8125 -27.8125 C 7.476562 -28.5 9.257812 -28.84375 11.15625 -28.84375 C 12.476562 -28.84375 13.710938 -28.644531 14.859375 -28.25 C 16.015625 -27.863281 17 -27.332031 17.8125 -26.65625 C 18.625 -25.976562 19.265625 -25.171875 19.734375 -24.234375 C 20.210938 -23.304688 20.453125 -22.289062 20.453125 -21.1875 C 20.453125 -19.75 20.019531 -18.445312 19.15625 -17.28125 C 18.289062 -16.125 17.097656 -15.234375 15.578125 -14.609375 C 17.367188 -14.097656 18.816406 -13.234375 19.921875 -12.015625 C 21.035156 -10.796875 21.59375 -9.375 21.59375 -7.75 Z M 21.59375 -7.75 "/></g></g></g><g fill="#304732" fill-opacity="1"><g transform="translate(149.126212, 73.388982)"><g/></g></g><g fill="#304732" fill-opacity="1"><g transform="translate(161.338138, 73.388982)"><g><path d="M 20.203125 -28.40625 L 20.203125 -10.140625 L 23.609375 -10.140625 L 23.609375 -7.59375 L 20.203125 -7.59375 L 20.203125 0 L 17.25 0 L 17.25 -7.59375 L 1.09375 -7.59375 L 1.09375 -9.9375 L 17.046875 -28.40625 Z M 4.75 -10.140625 L 17.25 -10.140625 L 17.25 -24.625 Z M 4.75 -10.140625 "/></g></g></g><g fill="#304732" fill-opacity="1"><g transform="translate(189.940421, 73.388982)"><g><path d="M 13.390625 0.40625 C 11.679688 0.40625 10.117188 0.046875 8.703125 -0.671875 C 7.285156 -1.390625 6.066406 -2.390625 5.046875 -3.671875 C 4.035156 -4.953125 3.242188 -6.492188 2.671875 -8.296875 C 2.109375 -10.097656 1.828125 -12.066406 1.828125 -14.203125 C 1.828125 -16.335938 2.109375 -18.304688 2.671875 -20.109375 C 3.242188 -21.910156 4.035156 -23.453125 5.046875 -24.734375 C 6.066406 -26.015625 7.289062 -27.015625 8.71875 -27.734375 C 10.15625 -28.453125 11.710938 -28.8125 13.390625 -28.8125 C 15.097656 -28.8125 16.660156 -28.453125 18.078125 -27.734375 C 19.492188 -27.015625 20.71875 -26.015625 21.75 -24.734375 C 22.78125 -23.453125 23.578125 -21.910156 24.140625 -20.109375 C 24.710938 -18.304688 25 -16.335938 25 -14.203125 C 25 -12.066406 24.710938 -10.097656 24.140625 -8.296875 C 23.578125 -6.492188 22.78125 -4.953125 21.75 -3.671875 C 20.71875 -2.390625 19.492188 -1.390625 18.078125 -0.671875 C 16.660156 0.046875 15.097656 0.40625 13.390625 0.40625 Z M 13.390625 -2.265625 C 16.015625 -2.265625 18.109375 -3.347656 19.671875 -5.515625 C 21.242188 -7.679688 22.03125 -10.578125 22.03125 -14.203125 C 22.03125 -17.828125 21.242188 -20.726562 19.671875 -22.90625 C 18.109375 -25.082031 16.015625 -26.171875 13.390625 -26.171875 C 10.796875 -26.171875 8.710938 -25.082031 7.140625 -22.90625 C 5.566406 -20.726562 4.78125 -17.828125 4.78125 -14.203125 C 4.78125 -10.578125 5.566406 -7.679688 7.140625 -5.515625 C 8.710938 -3.347656 10.796875 -2.265625 13.390625 -2.265625 Z M 13.390625 -2.265625 "/></g></g></g><g fill="#304732" fill-opacity="1"><g transform="translate(220.246644, 73.388982)"><g><path d="M 2.640625 -14.40625 L 3.28125 -28.40625 L 19.96875 -28.40625 L 19.96875 -25.8125 L 5.796875 -25.8125 L 5.390625 -16.515625 C 6.316406 -16.867188 7.269531 -17.132812 8.25 -17.3125 C 9.238281 -17.488281 10.25 -17.578125 11.28125 -17.578125 C 14.28125 -17.578125 16.726562 -16.765625 18.625 -15.140625 C 20.519531 -13.515625 21.46875 -11.429688 21.46875 -8.890625 C 21.46875 -6.128906 20.515625 -3.890625 18.609375 -2.171875 C 16.703125 -0.453125 14.207031 0.40625 11.125 0.40625 C 9.175781 0.40625 7.347656 0.0820312 5.640625 -0.5625 C 3.929688 -1.21875 2.390625 -2.179688 1.015625 -3.453125 L 2.875 -5.4375 C 4.175781 -4.300781 5.472656 -3.46875 6.765625 -2.9375 C 8.066406 -2.414062 9.53125 -2.15625 11.15625 -2.15625 C 13.320312 -2.15625 15.082031 -2.769531 16.4375 -4 C 17.789062 -5.226562 18.46875 -6.816406 18.46875 -8.765625 C 18.46875 -10.628906 17.75 -12.148438 16.3125 -13.328125 C 14.875 -14.503906 13.019531 -15.09375 10.75 -15.09375 C 9.695312 -15.09375 8.632812 -14.984375 7.5625 -14.765625 C 6.5 -14.554688 5.4375 -14.234375 4.375 -13.796875 Z M 2.640625 -14.40625 "/></g></g></g><g fill="#304732" fill-opacity="1"><g transform="translate(246.77985, 73.388982)"><g><path d="M 11.53125 -28.765625 C 13.207031 -28.765625 14.75 -28.429688 16.15625 -27.765625 C 17.5625 -27.109375 18.769531 -26.179688 19.78125 -24.984375 C 20.789062 -23.796875 21.578125 -22.367188 22.140625 -20.703125 C 22.710938 -19.046875 23 -17.21875 23 -15.21875 C 23 -12.863281 22.679688 -10.71875 22.046875 -8.78125 C 21.410156 -6.851562 20.519531 -5.210938 19.375 -3.859375 C 18.226562 -2.503906 16.84375 -1.453125 15.21875 -0.703125 C 13.59375 0.0351562 11.789062 0.40625 9.8125 0.40625 C 8.570312 0.40625 7.351562 0.242188 6.15625 -0.078125 C 4.96875 -0.398438 3.914062 -0.859375 3 -1.453125 L 4.46875 -3.78125 C 5.300781 -3.289062 6.191406 -2.914062 7.140625 -2.65625 C 8.085938 -2.394531 9.019531 -2.265625 9.9375 -2.265625 C 13 -2.265625 15.421875 -3.367188 17.203125 -5.578125 C 18.992188 -7.785156 19.941406 -10.820312 20.046875 -14.6875 C 18.992188 -13.445312 17.695312 -12.457031 16.15625 -11.71875 C 14.613281 -10.988281 13.03125 -10.625 11.40625 -10.625 C 10 -10.625 8.691406 -10.847656 7.484375 -11.296875 C 6.285156 -11.742188 5.242188 -12.359375 4.359375 -13.140625 C 3.484375 -13.929688 2.800781 -14.875 2.3125 -15.96875 C 1.820312 -17.0625 1.578125 -18.242188 1.578125 -19.515625 C 1.578125 -20.835938 1.828125 -22.066406 2.328125 -23.203125 C 2.828125 -24.347656 3.515625 -25.332031 4.390625 -26.15625 C 5.273438 -26.976562 6.328125 -27.617188 7.546875 -28.078125 C 8.765625 -28.535156 10.09375 -28.765625 11.53125 -28.765625 Z M 11.9375 -13.109375 C 13.414062 -13.109375 14.859375 -13.476562 16.265625 -14.21875 C 17.671875 -14.96875 18.890625 -16.003906 19.921875 -17.328125 C 19.597656 -19.972656 18.675781 -22.109375 17.15625 -23.734375 C 15.644531 -25.359375 13.78125 -26.171875 11.5625 -26.171875 C 9.5625 -26.171875 7.894531 -25.539062 6.5625 -24.28125 C 5.238281 -23.03125 4.578125 -21.46875 4.578125 -19.59375 C 4.578125 -17.675781 5.257812 -16.113281 6.625 -14.90625 C 8 -13.707031 9.769531 -13.109375 11.9375 -13.109375 Z M 11.9375 -13.109375 "/></g></g></g><g fill="#304732" fill-opacity="1"><g transform="translate(275.098136, 73.388982)"><g><path d="M 13.3125 0.359375 C 11.632812 0.359375 10.09375 0.03125 8.6875 -0.625 C 7.28125 -1.289062 6.066406 -2.21875 5.046875 -3.40625 C 4.035156 -4.59375 3.242188 -6.019531 2.671875 -7.6875 C 2.109375 -9.351562 1.828125 -11.1875 1.828125 -13.1875 C 1.828125 -15.539062 2.144531 -17.679688 2.78125 -19.609375 C 3.414062 -21.546875 4.304688 -23.191406 5.453125 -24.546875 C 6.609375 -25.898438 7.992188 -26.945312 9.609375 -27.6875 C 11.234375 -28.4375 13.035156 -28.8125 15.015625 -28.8125 C 16.253906 -28.8125 17.46875 -28.648438 18.65625 -28.328125 C 19.851562 -28.003906 20.910156 -27.539062 21.828125 -26.9375 L 20.375 -24.625 C 19.53125 -25.113281 18.632812 -25.484375 17.6875 -25.734375 C 16.738281 -25.992188 15.804688 -26.125 14.890625 -26.125 C 11.835938 -26.125 9.414062 -25.019531 7.625 -22.8125 C 5.84375 -20.613281 4.894531 -17.582031 4.78125 -13.71875 C 5.84375 -14.957031 7.144531 -15.941406 8.6875 -16.671875 C 10.226562 -17.398438 11.8125 -17.765625 13.4375 -17.765625 C 14.84375 -17.765625 16.144531 -17.539062 17.34375 -17.09375 C 18.550781 -16.65625 19.59375 -16.039062 20.46875 -15.25 C 21.351562 -14.46875 22.035156 -13.53125 22.515625 -12.4375 C 23.003906 -11.34375 23.25 -10.160156 23.25 -8.890625 C 23.25 -7.554688 23 -6.320312 22.5 -5.1875 C 22 -4.050781 21.304688 -3.070312 20.421875 -2.25 C 19.546875 -1.425781 18.5 -0.785156 17.28125 -0.328125 C 16.0625 0.128906 14.738281 0.359375 13.3125 0.359375 Z M 12.90625 -15.296875 C 11.414062 -15.296875 9.96875 -14.921875 8.5625 -14.171875 C 7.15625 -13.429688 5.9375 -12.398438 4.90625 -11.078125 C 5.226562 -8.421875 6.144531 -6.28125 7.65625 -4.65625 C 9.175781 -3.039062 11.046875 -2.234375 13.265625 -2.234375 C 15.265625 -2.234375 16.925781 -2.859375 18.25 -4.109375 C 19.582031 -5.367188 20.25 -6.9375 20.25 -8.8125 C 20.25 -10.726562 19.566406 -12.285156 18.203125 -13.484375 C 16.835938 -14.691406 15.070312 -15.296875 12.90625 -15.296875 Z M 12.90625 -15.296875 "/></g></g></g><g fill="#304732" fill-opacity="1"><g transform="translate(303.416421, 73.388982)"><g><path d="M 12.453125 0.40625 C 10.941406 0.40625 9.53125 0.203125 8.21875 -0.203125 C 6.90625 -0.609375 5.78125 -1.171875 4.84375 -1.890625 C 3.914062 -2.609375 3.1875 -3.457031 2.65625 -4.4375 C 2.125 -5.425781 1.859375 -6.503906 1.859375 -7.671875 C 1.859375 -9.316406 2.425781 -10.796875 3.5625 -12.109375 C 4.707031 -13.421875 6.1875 -14.363281 8 -14.9375 C 6.507812 -15.5 5.300781 -16.363281 4.375 -17.53125 C 3.457031 -18.695312 3 -20.007812 3 -21.46875 C 3 -22.519531 3.242188 -23.5 3.734375 -24.40625 C 4.222656 -25.3125 4.882812 -26.085938 5.71875 -26.734375 C 6.5625 -27.390625 7.554688 -27.90625 8.703125 -28.28125 C 9.847656 -28.65625 11.097656 -28.84375 12.453125 -28.84375 C 13.804688 -28.84375 15.0625 -28.65625 16.21875 -28.28125 C 17.382812 -27.90625 18.382812 -27.390625 19.21875 -26.734375 C 20.0625 -26.085938 20.726562 -25.3125 21.21875 -24.40625 C 21.707031 -23.5 21.953125 -22.519531 21.953125 -21.46875 C 21.953125 -20.007812 21.488281 -18.695312 20.5625 -17.53125 C 19.644531 -16.363281 18.445312 -15.5 16.96875 -14.9375 C 18.78125 -14.363281 20.253906 -13.421875 21.390625 -12.109375 C 22.523438 -10.796875 23.09375 -9.316406 23.09375 -7.671875 C 23.09375 -6.503906 22.828125 -5.425781 22.296875 -4.4375 C 21.765625 -3.457031 21.023438 -2.609375 20.078125 -1.890625 C 19.140625 -1.171875 18.019531 -0.609375 16.71875 -0.203125 C 15.414062 0.203125 13.992188 0.40625 12.453125 0.40625 Z M 12.453125 -16.234375 C 14.296875 -16.234375 15.851562 -16.722656 17.125 -17.703125 C 18.394531 -18.691406 19.03125 -19.90625 19.03125 -21.34375 C 19.03125 -22.78125 18.398438 -24 17.140625 -25 C 15.878906 -26 14.316406 -26.5 12.453125 -26.5 C 10.617188 -26.5 9.070312 -26 7.8125 -25 C 6.550781 -24 5.921875 -22.78125 5.921875 -21.34375 C 5.921875 -19.90625 6.550781 -18.691406 7.8125 -17.703125 C 9.070312 -16.722656 10.617188 -16.234375 12.453125 -16.234375 Z M 12.453125 -2.03125 C 14.617188 -2.03125 16.4375 -2.585938 17.90625 -3.703125 C 19.382812 -4.828125 20.125 -6.21875 20.125 -7.875 C 20.125 -9.5 19.382812 -10.863281 17.90625 -11.96875 C 16.4375 -13.082031 14.617188 -13.640625 12.453125 -13.640625 C 10.296875 -13.640625 8.476562 -13.082031 7 -11.96875 C 5.519531 -10.863281 4.78125 -9.5 4.78125 -7.875 C 4.78125 -6.21875 5.519531 -4.828125 7 -3.703125 C 8.476562 -2.585938 10.296875 -2.03125 12.453125 -2.03125 Z M 12.453125 -2.03125 "/></g></g></g></svg>