<svg xmlns="http://www.w3.org/2000/svg" xmlns:xlink="http://www.w3.org/1999/xlink" width="139" zoomAndPan="magnify" viewBox="0 0 104.25 104.249996" height="139" preserveAspectRatio="xMidYMid meet" version="1.0"><defs><clipPath id="cc41058442"><path d="M 0.164062 0.3125 L 102.777344 0.3125 L 102.777344 102.925781 L 0.164062 102.925781 Z M 0.164062 0.3125 " clip-rule="nonzero"/></clipPath><clipPath id="3f92b59838"><path d="M 51.472656 0.3125 C 23.136719 0.3125 0.164062 23.28125 0.164062 51.617188 C 0.164062 79.953125 23.136719 102.925781 51.472656 102.925781 C 79.808594 102.925781 102.777344 79.953125 102.777344 51.617188 C 102.777344 23.28125 79.808594 0.3125 51.472656 0.3125 Z M 51.472656 0.3125 " clip-rule="nonzero"/></clipPath><clipPath id="5ac080be04"><path d="M 33.25 33.398438 L 69.691406 33.398438 L 69.691406 69.839844 L 33.25 69.839844 Z M 33.25 33.398438 " clip-rule="nonzero"/></clipPath><clipPath id="67cd0d2434"><path d="M 51.472656 33.398438 C 41.410156 33.398438 33.25 41.554688 33.25 51.617188 C 33.25 61.679688 41.410156 69.839844 51.472656 69.839844 C 61.535156 69.839844 69.691406 61.679688 69.691406 51.617188 C 69.691406 41.554688 61.535156 33.398438 51.472656 33.398438 Z M 51.472656 33.398438 " clip-rule="nonzero"/></clipPath></defs><g clip-path="url(#cc41058442)"><g clip-path="url(#3f92b59838)"><path fill="#e3efe9" d="M 0.164062 0.3125 L 102.777344 0.3125 L 102.777344 102.925781 L 0.164062 102.925781 Z M 0.164062 0.3125 " fill-opacity="1" fill-rule="nonzero"/></g></g><g clip-path="url(#5ac080be04)"><g clip-path="url(#67cd0d2434)"><path fill="#304732" d="M 33.25 33.398438 L 69.691406 33.398438 L 69.691406 69.839844 L 33.25 69.839844 Z M 33.25 33.398438 " fill-opacity="1" fill-rule="nonzero"/></g></g></svg>