<svg xmlns="http://www.w3.org/2000/svg" xmlns:xlink="http://www.w3.org/1999/xlink" width="353" zoomAndPan="magnify" viewBox="0 0 264.75 207.000001" height="276" preserveAspectRatio="xMidYMid meet" version="1.0"><defs><g/></defs><g fill="#304732" fill-opacity="1"><g transform="translate(22.350941, 169.995343)"><g><path d="M 9.328125 -1.375 C 10.316406 -1.375 11.257812 -1.566406 12.15625 -1.953125 C 13.050781 -2.335938 13.804688 -2.875 14.421875 -3.5625 L 15.5625 -2.375 C 14.769531 -1.550781 13.828125 -0.90625 12.734375 -0.4375 C 11.640625 0.0195312 10.488281 0.25 9.28125 0.25 C 8.125 0.25 7.039062 0.0351562 6.03125 -0.390625 C 5.019531 -0.816406 4.140625 -1.394531 3.390625 -2.125 C 2.648438 -2.863281 2.066406 -3.738281 1.640625 -4.75 C 1.210938 -5.769531 1 -6.847656 1 -7.984375 C 1 -9.128906 1.210938 -10.207031 1.640625 -11.21875 C 2.066406 -12.226562 2.648438 -13.097656 3.390625 -13.828125 C 4.140625 -14.566406 5.019531 -15.148438 6.03125 -15.578125 C 7.039062 -16.003906 8.125 -16.21875 9.28125 -16.21875 C 10.507812 -16.21875 11.675781 -15.984375 12.78125 -15.515625 C 13.882812 -15.054688 14.828125 -14.414062 15.609375 -13.59375 L 14.4375 -12.359375 C 13.8125 -13.054688 13.039062 -13.601562 12.125 -14 C 11.207031 -14.394531 10.257812 -14.59375 9.28125 -14.59375 C 8.375 -14.59375 7.519531 -14.421875 6.71875 -14.078125 C 5.914062 -13.742188 5.222656 -13.28125 4.640625 -12.6875 C 4.066406 -12.101562 3.613281 -11.40625 3.28125 -10.59375 C 2.945312 -9.78125 2.78125 -8.910156 2.78125 -7.984375 C 2.78125 -7.054688 2.945312 -6.1875 3.28125 -5.375 C 3.613281 -4.5625 4.070312 -3.859375 4.65625 -3.265625 C 5.25 -2.679688 5.941406 -2.21875 6.734375 -1.875 C 7.535156 -1.539062 8.398438 -1.375 9.328125 -1.375 Z M 9.328125 -1.375 "/></g></g></g><g fill="#304732" fill-opacity="1"><g transform="translate(43.831776, 169.995343)"><g><path d="M 1.75 0 L 1.75 -15.96875 L 3.515625 -15.96875 L 3.515625 -8.828125 L 12.796875 -8.828125 L 12.796875 -15.96875 L 14.546875 -15.96875 L 14.546875 0 L 12.796875 0 L 12.796875 -7.25 L 3.515625 -7.25 L 3.515625 0 Z M 1.75 0 "/></g></g></g><g fill="#304732" fill-opacity="1"><g transform="translate(65.153005, 169.995343)"><g><path d="M 1.75 0 L 1.75 -15.96875 L 3.515625 -15.96875 L 3.515625 0 Z M 1.75 0 "/></g></g></g><g fill="#304732" fill-opacity="1"><g transform="translate(75.43902, 169.995343)"><g><path d="M 1.75 0 L 1.75 -15.96875 L 3.515625 -15.96875 L 3.515625 -1.578125 L 13.03125 -1.578125 L 13.03125 0 Z M 1.75 0 "/></g></g></g><g fill="#304732" fill-opacity="1"><g transform="translate(94.22945, 169.995343)"><g><path d="M 1.75 0 L 1.75 -15.96875 L 7.03125 -15.96875 C 8.226562 -15.96875 9.34375 -15.765625 10.375 -15.359375 C 11.414062 -14.960938 12.304688 -14.410156 13.046875 -13.703125 C 13.796875 -13.003906 14.378906 -12.164062 14.796875 -11.1875 C 15.210938 -10.207031 15.421875 -9.140625 15.421875 -7.984375 C 15.421875 -6.828125 15.210938 -5.757812 14.796875 -4.78125 C 14.378906 -3.800781 13.800781 -2.957031 13.0625 -2.25 C 12.320312 -1.550781 11.429688 -1 10.390625 -0.59375 C 9.359375 -0.195312 8.238281 0 7.03125 0 Z M 7.125 -14.375 L 3.515625 -14.375 L 3.515625 -1.59375 L 7.125 -1.59375 C 8.03125 -1.59375 8.882812 -1.753906 9.6875 -2.078125 C 10.5 -2.410156 11.191406 -2.859375 11.765625 -3.421875 C 12.347656 -3.992188 12.804688 -4.671875 13.140625 -5.453125 C 13.472656 -6.242188 13.640625 -7.085938 13.640625 -7.984375 C 13.640625 -8.878906 13.472656 -9.71875 13.140625 -10.5 C 12.804688 -11.289062 12.347656 -11.96875 11.765625 -12.53125 C 11.191406 -13.101562 10.5 -13.550781 9.6875 -13.875 C 8.882812 -14.207031 8.03125 -14.375 7.125 -14.375 Z M 7.125 -14.375 "/></g></g></g><g fill="#304732" fill-opacity="1"><g transform="translate(115.664686, 169.995343)"><g><path d="M 1.75 0 L 1.75 -15.96875 L 8.59375 -15.96875 C 10.144531 -15.96875 11.398438 -15.546875 12.359375 -14.703125 C 13.316406 -13.859375 13.796875 -12.753906 13.796875 -11.390625 C 13.796875 -10.335938 13.488281 -9.429688 12.875 -8.671875 C 12.257812 -7.910156 11.4375 -7.382812 10.40625 -7.09375 L 13.984375 0 L 12.046875 0 L 8.625 -6.859375 L 3.515625 -6.859375 L 3.515625 0 Z M 8.484375 -14.390625 L 3.515625 -14.390625 L 3.515625 -8.34375 L 8.484375 -8.34375 C 9.546875 -8.34375 10.40625 -8.617188 11.0625 -9.171875 C 11.71875 -9.734375 12.046875 -10.472656 12.046875 -11.390625 C 12.046875 -12.296875 11.71875 -13.019531 11.0625 -13.5625 C 10.40625 -14.113281 9.546875 -14.390625 8.484375 -14.390625 Z M 8.484375 -14.390625 "/></g></g></g><g fill="#304732" fill-opacity="1"><g transform="translate(135.389915, 169.995343)"><g><path d="M 1.75 0 L 1.75 -15.96875 L 13.1875 -15.96875 L 13.1875 -14.421875 L 3.515625 -14.421875 L 3.515625 -8.828125 L 9.828125 -8.828125 L 9.828125 -7.296875 L 3.515625 -7.296875 L 3.515625 -1.546875 L 13.28125 -1.546875 L 13.28125 0 Z M 1.75 0 "/></g></g></g><g fill="#304732" fill-opacity="1"><g transform="translate(154.453945, 169.995343)"><g><path d="M 1.75 -15.96875 L 3.515625 -15.96875 L 13.125 -3.015625 L 13.125 -15.96875 L 14.78125 -15.96875 L 14.78125 0 L 13.234375 0 L 3.421875 -13.296875 L 3.421875 0 L 1.75 0 Z M 1.75 -15.96875 "/></g></g></g><g fill="#304732" fill-opacity="1"><g transform="translate(176.003174, 169.995343)"><g/></g></g><g fill="#304732" fill-opacity="1"><g transform="translate(185.924388, 169.995343)"><g><path d="M 0.09375 0 L 6.734375 -15.96875 L 8.84375 -15.96875 L 15.40625 0 L 13.484375 0 L 11.46875 -5.015625 L 3.953125 -5.015625 L 1.921875 0 Z M 4.5625 -6.53125 L 10.859375 -6.53125 L 7.734375 -14.328125 Z M 4.5625 -6.53125 "/></g></g></g><g fill="#304732" fill-opacity="1"><g transform="translate(206.42482, 169.995343)"><g><path d="M 1.75 -15.96875 L 3.515625 -15.96875 L 13.125 -3.015625 L 13.125 -15.96875 L 14.78125 -15.96875 L 14.78125 0 L 13.234375 0 L 3.421875 -13.296875 L 3.421875 0 L 1.75 0 Z M 1.75 -15.96875 "/></g></g></g><g fill="#304732" fill-opacity="1"><g transform="translate(227.974048, 169.995343)"><g><path d="M 1.75 0 L 1.75 -15.96875 L 7.03125 -15.96875 C 8.226562 -15.96875 9.34375 -15.765625 10.375 -15.359375 C 11.414062 -14.960938 12.304688 -14.410156 13.046875 -13.703125 C 13.796875 -13.003906 14.378906 -12.164062 14.796875 -11.1875 C 15.210938 -10.207031 15.421875 -9.140625 15.421875 -7.984375 C 15.421875 -6.828125 15.210938 -5.757812 14.796875 -4.78125 C 14.378906 -3.800781 13.800781 -2.957031 13.0625 -2.25 C 12.320312 -1.550781 11.429688 -1 10.390625 -0.59375 C 9.359375 -0.195312 8.238281 0 7.03125 0 Z M 7.125 -14.375 L 3.515625 -14.375 L 3.515625 -1.59375 L 7.125 -1.59375 C 8.03125 -1.59375 8.882812 -1.753906 9.6875 -2.078125 C 10.5 -2.410156 11.191406 -2.859375 11.765625 -3.421875 C 12.347656 -3.992188 12.804688 -4.671875 13.140625 -5.453125 C 13.472656 -6.242188 13.640625 -7.085938 13.640625 -7.984375 C 13.640625 -8.878906 13.472656 -9.71875 13.140625 -10.5 C 12.804688 -11.289062 12.347656 -11.96875 11.765625 -12.53125 C 11.191406 -13.101562 10.5 -13.550781 9.6875 -13.875 C 8.882812 -14.207031 8.03125 -14.375 7.125 -14.375 Z M 7.125 -14.375 "/></g></g></g><g fill="#304732" fill-opacity="1"><g transform="translate(22.350941, 194.626352)"><g><path d="M 6.078125 0 L 6.078125 -6.15625 L 0.0625 -15.125 L 2.015625 -15.125 L 6.953125 -7.625 L 11.890625 -15.125 L 13.765625 -15.125 L 7.734375 -6.09375 L 7.734375 0 Z M 6.078125 0 "/></g></g></g><g fill="#304732" fill-opacity="1"><g transform="translate(40.906554, 194.626352)"><g><path d="M 16.53125 -7.5625 C 16.53125 -6.476562 16.328125 -5.457031 15.921875 -4.5 C 15.523438 -3.539062 14.972656 -2.710938 14.265625 -2.015625 C 13.566406 -1.316406 12.742188 -0.765625 11.796875 -0.359375 C 10.847656 0.0351562 9.832031 0.234375 8.75 0.234375 C 7.664062 0.234375 6.644531 0.0351562 5.6875 -0.359375 C 4.726562 -0.765625 3.898438 -1.316406 3.203125 -2.015625 C 2.503906 -2.710938 1.953125 -3.539062 1.546875 -4.5 C 1.148438 -5.457031 0.953125 -6.476562 0.953125 -7.5625 C 0.953125 -8.644531 1.148438 -9.664062 1.546875 -10.625 C 1.953125 -11.582031 2.503906 -12.410156 3.203125 -13.109375 C 3.898438 -13.804688 4.726562 -14.351562 5.6875 -14.75 C 6.644531 -15.15625 7.664062 -15.359375 8.75 -15.359375 C 9.832031 -15.359375 10.847656 -15.15625 11.796875 -14.75 C 12.742188 -14.351562 13.566406 -13.804688 14.265625 -13.109375 C 14.972656 -12.410156 15.523438 -11.582031 15.921875 -10.625 C 16.328125 -9.664062 16.53125 -8.644531 16.53125 -7.5625 Z M 14.84375 -7.5625 C 14.84375 -8.4375 14.679688 -9.257812 14.359375 -10.03125 C 14.046875 -10.800781 13.617188 -11.460938 13.078125 -12.015625 C 12.546875 -12.578125 11.90625 -13.019531 11.15625 -13.34375 C 10.40625 -13.664062 9.601562 -13.828125 8.75 -13.828125 C 7.882812 -13.828125 7.078125 -13.664062 6.328125 -13.34375 C 5.578125 -13.019531 4.929688 -12.578125 4.390625 -12.015625 C 3.859375 -11.460938 3.429688 -10.800781 3.109375 -10.03125 C 2.796875 -9.257812 2.640625 -8.4375 2.640625 -7.5625 C 2.640625 -6.6875 2.796875 -5.863281 3.109375 -5.09375 C 3.429688 -4.332031 3.859375 -3.671875 4.390625 -3.109375 C 4.929688 -2.546875 5.578125 -2.101562 6.328125 -1.78125 C 7.078125 -1.457031 7.882812 -1.296875 8.75 -1.296875 C 9.601562 -1.296875 10.40625 -1.457031 11.15625 -1.78125 C 11.90625 -2.101562 12.546875 -2.546875 13.078125 -3.109375 C 13.617188 -3.671875 14.046875 -4.332031 14.359375 -5.09375 C 14.679688 -5.863281 14.84375 -6.6875 14.84375 -7.5625 Z M 14.84375 -7.5625 "/></g></g></g><g fill="#304732" fill-opacity="1"><g transform="translate(63.133971, 194.626352)"><g><path d="M 13.859375 -6.390625 C 13.859375 -4.378906 13.289062 -2.769531 12.15625 -1.5625 C 11.019531 -0.363281 9.503906 0.234375 7.609375 0.234375 C 5.691406 0.234375 4.171875 -0.359375 3.046875 -1.546875 C 1.921875 -2.742188 1.359375 -4.359375 1.359375 -6.390625 L 1.359375 -15.125 L 3.03125 -15.125 L 3.03125 -6.390625 C 3.03125 -4.847656 3.445312 -3.613281 4.28125 -2.6875 C 5.113281 -1.757812 6.222656 -1.296875 7.609375 -1.296875 C 8.992188 -1.296875 10.101562 -1.757812 10.9375 -2.6875 C 11.769531 -3.613281 12.1875 -4.847656 12.1875 -6.390625 L 12.1875 -15.125 L 13.859375 -15.125 Z M 13.859375 -6.390625 "/></g></g></g><g fill="#304732" fill-opacity="1"><g transform="translate(83.093507, 194.626352)"><g><path d="M 1.65625 -15.125 L 3.328125 -15.125 L 12.421875 -2.859375 L 12.421875 -15.125 L 14 -15.125 L 14 0 L 12.53125 0 L 3.234375 -12.59375 L 3.234375 0 L 1.65625 0 Z M 1.65625 -15.125 "/></g></g></g><g fill="#304732" fill-opacity="1"><g transform="translate(103.506619, 194.626352)"><g><path d="M 16.125 -7.234375 C 16.125 -6.179688 15.9375 -5.195312 15.5625 -4.28125 C 15.1875 -3.375 14.664062 -2.585938 14 -1.921875 C 13.34375 -1.253906 12.566406 -0.726562 11.671875 -0.34375 C 10.773438 0.0390625 9.804688 0.234375 8.765625 0.234375 C 7.691406 0.234375 6.675781 0.03125 5.71875 -0.375 C 4.757812 -0.789062 3.929688 -1.347656 3.234375 -2.046875 C 2.535156 -2.742188 1.976562 -3.566406 1.5625 -4.515625 C 1.15625 -5.460938 0.953125 -6.476562 0.953125 -7.5625 C 0.953125 -8.644531 1.148438 -9.660156 1.546875 -10.609375 C 1.953125 -11.554688 2.503906 -12.378906 3.203125 -13.078125 C 3.898438 -13.773438 4.726562 -14.328125 5.6875 -14.734375 C 6.644531 -15.148438 7.664062 -15.359375 8.75 -15.359375 C 9.914062 -15.359375 11.015625 -15.140625 12.046875 -14.703125 C 13.085938 -14.265625 13.976562 -13.65625 14.71875 -12.875 L 13.59375 -11.734375 C 13.019531 -12.398438 12.300781 -12.914062 11.4375 -13.28125 C 10.570312 -13.644531 9.675781 -13.828125 8.75 -13.828125 C 7.882812 -13.828125 7.078125 -13.664062 6.328125 -13.34375 C 5.578125 -13.019531 4.929688 -12.578125 4.390625 -12.015625 C 3.859375 -11.460938 3.429688 -10.800781 3.109375 -10.03125 C 2.796875 -9.257812 2.640625 -8.4375 2.640625 -7.5625 C 2.640625 -6.6875 2.796875 -5.863281 3.109375 -5.09375 C 3.429688 -4.320312 3.859375 -3.65625 4.390625 -3.09375 C 4.929688 -2.539062 5.578125 -2.101562 6.328125 -1.78125 C 7.078125 -1.457031 7.882812 -1.296875 8.75 -1.296875 C 9.507812 -1.296875 10.222656 -1.425781 10.890625 -1.6875 C 11.566406 -1.945312 12.148438 -2.300781 12.640625 -2.75 C 13.140625 -3.207031 13.546875 -3.753906 13.859375 -4.390625 C 14.179688 -5.023438 14.375 -5.707031 14.4375 -6.4375 L 9.015625 -6.4375 L 9.015625 -7.90625 L 16.125 -7.90625 Z M 16.125 -7.234375 "/></g></g></g><g fill="#304732" fill-opacity="1"><g transform="translate(125.280452, 194.626352)"><g/></g></g><g fill="#304732" fill-opacity="1"><g transform="translate(134.678144, 194.626352)"><g><path d="M 0.09375 0 L 6.375 -15.125 L 8.390625 -15.125 L 14.59375 0 L 12.765625 0 L 10.875 -4.75 L 3.734375 -4.75 L 1.8125 0 Z M 4.328125 -6.1875 L 10.28125 -6.1875 L 7.328125 -13.578125 Z M 4.328125 -6.1875 "/></g></g></g><g fill="#304732" fill-opacity="1"><g transform="translate(154.097708, 194.626352)"><g><path d="M 1.65625 0 L 1.65625 -15.125 L 6.65625 -15.125 C 7.789062 -15.125 8.847656 -14.929688 9.828125 -14.546875 C 10.804688 -14.171875 11.648438 -13.648438 12.359375 -12.984375 C 13.066406 -12.328125 13.617188 -11.53125 14.015625 -10.59375 C 14.410156 -9.664062 14.609375 -8.65625 14.609375 -7.5625 C 14.609375 -6.46875 14.410156 -5.457031 14.015625 -4.53125 C 13.617188 -3.601562 13.070312 -2.804688 12.375 -2.140625 C 11.675781 -1.472656 10.835938 -0.945312 9.859375 -0.5625 C 8.878906 -0.1875 7.8125 0 6.65625 0 Z M 6.734375 -13.609375 L 3.328125 -13.609375 L 3.328125 -1.515625 L 6.734375 -1.515625 C 7.597656 -1.515625 8.410156 -1.664062 9.171875 -1.96875 C 9.941406 -2.28125 10.597656 -2.707031 11.140625 -3.25 C 11.691406 -3.789062 12.125 -4.429688 12.4375 -5.171875 C 12.757812 -5.910156 12.921875 -6.707031 12.921875 -7.5625 C 12.921875 -8.414062 12.757812 -9.210938 12.4375 -9.953125 C 12.125 -10.691406 11.691406 -11.332031 11.140625 -11.875 C 10.597656 -12.414062 9.941406 -12.835938 9.171875 -13.140625 C 8.410156 -13.453125 7.597656 -13.609375 6.734375 -13.609375 Z M 6.734375 -13.609375 "/></g></g></g><g fill="#304732" fill-opacity="1"><g transform="translate(174.402816, 194.626352)"><g><path d="M 13.859375 -6.390625 C 13.859375 -4.378906 13.289062 -2.769531 12.15625 -1.5625 C 11.019531 -0.363281 9.503906 0.234375 7.609375 0.234375 C 5.691406 0.234375 4.171875 -0.359375 3.046875 -1.546875 C 1.921875 -2.742188 1.359375 -4.359375 1.359375 -6.390625 L 1.359375 -15.125 L 3.03125 -15.125 L 3.03125 -6.390625 C 3.03125 -4.847656 3.445312 -3.613281 4.28125 -2.6875 C 5.113281 -1.757812 6.222656 -1.296875 7.609375 -1.296875 C 8.992188 -1.296875 10.101562 -1.757812 10.9375 -2.6875 C 11.769531 -3.613281 12.1875 -4.847656 12.1875 -6.390625 L 12.1875 -15.125 L 13.859375 -15.125 Z M 13.859375 -6.390625 "/></g></g></g><g fill="#304732" fill-opacity="1"><g transform="translate(194.362347, 194.626352)"><g><path d="M 1.65625 0 L 1.65625 -15.125 L 3.328125 -15.125 L 3.328125 -1.484375 L 12.34375 -1.484375 L 12.34375 0 Z M 1.65625 0 "/></g></g></g><g fill="#304732" fill-opacity="1"><g transform="translate(212.161997, 194.626352)"><g><path d="M 0.375 -13.640625 L 0.375 -15.125 L 12.96875 -15.125 L 12.96875 -13.640625 L 7.5 -13.640625 L 7.5 0 L 5.828125 0 L 5.828125 -13.640625 Z M 0.375 -13.640625 "/></g></g></g><g fill="#304732" fill-opacity="1"><g transform="translate(230.242433, 194.626352)"><g><path d="M 0.234375 -2.59375 L 1.34375 -3.734375 C 2.113281 -2.910156 2.941406 -2.285156 3.828125 -1.859375 C 4.722656 -1.441406 5.660156 -1.234375 6.640625 -1.234375 C 7.816406 -1.234375 8.785156 -1.515625 9.546875 -2.078125 C 10.316406 -2.640625 10.703125 -3.351562 10.703125 -4.21875 C 10.703125 -4.988281 10.429688 -5.582031 9.890625 -6 C 9.347656 -6.425781 8.457031 -6.738281 7.21875 -6.9375 L 5.03125 -7.28125 C 3.582031 -7.507812 2.507812 -7.9375 1.8125 -8.5625 C 1.125 -9.195312 0.78125 -10.046875 0.78125 -11.109375 C 0.78125 -12.359375 1.269531 -13.375 2.25 -14.15625 C 3.226562 -14.9375 4.507812 -15.328125 6.09375 -15.328125 C 7.144531 -15.328125 8.1875 -15.148438 9.21875 -14.796875 C 10.257812 -14.453125 11.207031 -13.957031 12.0625 -13.3125 L 11.109375 -12.015625 C 10.285156 -12.628906 9.445312 -13.09375 8.59375 -13.40625 C 7.75 -13.726562 6.894531 -13.890625 6.03125 -13.890625 C 4.945312 -13.890625 4.070312 -13.640625 3.40625 -13.140625 C 2.738281 -12.648438 2.40625 -12.015625 2.40625 -11.234375 C 2.40625 -10.523438 2.640625 -9.984375 3.109375 -9.609375 C 3.585938 -9.234375 4.375 -8.960938 5.46875 -8.796875 L 7.625 -8.453125 C 9.269531 -8.171875 10.46875 -7.695312 11.21875 -7.03125 C 11.976562 -6.375 12.359375 -5.460938 12.359375 -4.296875 C 12.359375 -3.640625 12.21875 -3.03125 11.9375 -2.46875 C 11.65625 -1.914062 11.257812 -1.441406 10.75 -1.046875 C 10.238281 -0.648438 9.625 -0.335938 8.90625 -0.109375 C 8.195312 0.109375 7.414062 0.21875 6.5625 0.21875 C 5.375 0.21875 4.226562 -0.0195312 3.125 -0.5 C 2.019531 -0.988281 1.054688 -1.6875 0.234375 -2.59375 Z M 0.234375 -2.59375 "/></g></g></g><g fill="#304732" fill-opacity="1"><g transform="translate(110.174635, 145.657614)"><g><path d="M 0.09375 -1 L 0.515625 -1.4375 C 0.816406 -1.125 1.132812 -0.882812 1.46875 -0.71875 C 1.8125 -0.550781 2.175781 -0.46875 2.5625 -0.46875 C 3.007812 -0.46875 3.378906 -0.578125 3.671875 -0.796875 C 3.972656 -1.015625 4.125 -1.289062 4.125 -1.625 C 4.125 -1.925781 4.019531 -2.15625 3.8125 -2.3125 C 3.601562 -2.476562 3.257812 -2.597656 2.78125 -2.671875 L 1.9375 -2.8125 C 1.375 -2.894531 0.957031 -3.054688 0.6875 -3.296875 C 0.425781 -3.546875 0.296875 -3.875 0.296875 -4.28125 C 0.296875 -4.757812 0.484375 -5.148438 0.859375 -5.453125 C 1.242188 -5.753906 1.738281 -5.90625 2.34375 -5.90625 C 2.75 -5.90625 3.148438 -5.835938 3.546875 -5.703125 C 3.953125 -5.566406 4.316406 -5.375 4.640625 -5.125 L 4.28125 -4.625 C 3.96875 -4.863281 3.644531 -5.046875 3.3125 -5.171875 C 2.988281 -5.296875 2.660156 -5.359375 2.328125 -5.359375 C 1.910156 -5.359375 1.570312 -5.257812 1.3125 -5.0625 C 1.050781 -4.875 0.921875 -4.628906 0.921875 -4.328125 C 0.921875 -4.054688 1.007812 -3.847656 1.1875 -3.703125 C 1.375 -3.554688 1.679688 -3.453125 2.109375 -3.390625 L 2.9375 -3.25 C 3.570312 -3.144531 4.035156 -2.960938 4.328125 -2.703125 C 4.617188 -2.453125 4.765625 -2.101562 4.765625 -1.65625 C 4.765625 -1.40625 4.707031 -1.171875 4.59375 -0.953125 C 4.488281 -0.742188 4.335938 -0.5625 4.140625 -0.40625 C 3.941406 -0.25 3.703125 -0.128906 3.421875 -0.046875 C 3.148438 0.0351562 2.851562 0.078125 2.53125 0.078125 C 2.070312 0.078125 1.628906 -0.0078125 1.203125 -0.1875 C 0.773438 -0.375 0.40625 -0.644531 0.09375 -1 Z M 0.09375 -1 "/></g></g></g><g fill="#304732" fill-opacity="1"><g transform="translate(116.681322, 145.657614)"><g><path d="M 0.640625 0 L 0.640625 -5.828125 L 3.171875 -5.828125 C 3.734375 -5.828125 4.1875 -5.671875 4.53125 -5.359375 C 4.882812 -5.054688 5.0625 -4.648438 5.0625 -4.140625 C 5.0625 -3.640625 4.882812 -3.234375 4.53125 -2.921875 C 4.1875 -2.609375 3.734375 -2.453125 3.171875 -2.453125 L 1.28125 -2.453125 L 1.28125 0 Z M 3.125 -5.25 L 1.28125 -5.25 L 1.28125 -3.015625 L 3.125 -3.015625 C 3.519531 -3.015625 3.832031 -3.113281 4.0625 -3.3125 C 4.289062 -3.519531 4.40625 -3.796875 4.40625 -4.140625 C 4.40625 -4.484375 4.289062 -4.753906 4.0625 -4.953125 C 3.832031 -5.148438 3.519531 -5.25 3.125 -5.25 Z M 3.125 -5.25 "/></g></g></g><g fill="#304732" fill-opacity="1"><g transform="translate(123.57907, 145.657614)"><g><path d="M 0.640625 0 L 0.640625 -5.828125 L 4.8125 -5.828125 L 4.8125 -5.265625 L 1.28125 -5.265625 L 1.28125 -3.21875 L 3.59375 -3.21875 L 3.59375 -2.671875 L 1.28125 -2.671875 L 1.28125 -0.5625 L 4.84375 -0.5625 L 4.84375 0 Z M 0.640625 0 "/></g></g></g><g fill="#304732" fill-opacity="1"><g transform="translate(130.218887, 145.657614)"><g><path d="M 3.40625 -0.5 C 3.769531 -0.5 4.113281 -0.566406 4.4375 -0.703125 C 4.769531 -0.847656 5.046875 -1.046875 5.265625 -1.296875 L 5.6875 -0.859375 C 5.394531 -0.566406 5.046875 -0.332031 4.640625 -0.15625 C 4.242188 0.0078125 3.828125 0.09375 3.390625 0.09375 C 2.960938 0.09375 2.566406 0.015625 2.203125 -0.140625 C 1.835938 -0.296875 1.515625 -0.507812 1.234375 -0.78125 C 0.960938 -1.050781 0.75 -1.367188 0.59375 -1.734375 C 0.4375 -2.109375 0.359375 -2.503906 0.359375 -2.921875 C 0.359375 -3.335938 0.4375 -3.726562 0.59375 -4.09375 C 0.75 -4.457031 0.960938 -4.773438 1.234375 -5.046875 C 1.515625 -5.316406 1.835938 -5.53125 2.203125 -5.6875 C 2.566406 -5.84375 2.960938 -5.921875 3.390625 -5.921875 C 3.835938 -5.921875 4.257812 -5.832031 4.65625 -5.65625 C 5.0625 -5.488281 5.410156 -5.257812 5.703125 -4.96875 L 5.265625 -4.515625 C 5.046875 -4.765625 4.765625 -4.960938 4.421875 -5.109375 C 4.085938 -5.253906 3.742188 -5.328125 3.390625 -5.328125 C 3.054688 -5.328125 2.742188 -5.265625 2.453125 -5.140625 C 2.160156 -5.015625 1.90625 -4.84375 1.6875 -4.625 C 1.476562 -4.414062 1.3125 -4.160156 1.1875 -3.859375 C 1.070312 -3.566406 1.015625 -3.253906 1.015625 -2.921875 C 1.015625 -2.578125 1.070312 -2.253906 1.1875 -1.953125 C 1.3125 -1.660156 1.484375 -1.40625 1.703125 -1.1875 C 1.921875 -0.976562 2.171875 -0.8125 2.453125 -0.6875 C 2.742188 -0.5625 3.0625 -0.5 3.40625 -0.5 Z M 3.40625 -0.5 "/></g></g></g><g fill="#304732" fill-opacity="1"><g transform="translate(137.740681, 145.657614)"><g><path d="M 0.640625 0 L 0.640625 -5.828125 L 1.28125 -5.828125 L 1.28125 0 Z M 0.640625 0 "/></g></g></g><g fill="#304732" fill-opacity="1"><g transform="translate(141.177067, 145.657614)"><g><path d="M 0.03125 0 L 2.453125 -5.828125 L 3.234375 -5.828125 L 5.625 0 L 4.921875 0 L 4.1875 -1.828125 L 1.4375 -1.828125 L 0.703125 0 Z M 1.671875 -2.375 L 3.96875 -2.375 L 2.828125 -5.234375 Z M 1.671875 -2.375 "/></g></g></g><g fill="#304732" fill-opacity="1"><g transform="translate(148.341073, 145.657614)"><g><path d="M 0.640625 0 L 0.640625 -5.828125 L 1.28125 -5.828125 L 1.28125 -0.578125 L 4.75 -0.578125 L 4.75 0 Z M 0.640625 0 "/></g></g></g><g fill="#304732" fill-opacity="1"><g transform="translate(154.881033, 145.657614)"><g><path d="M 0.140625 -5.25 L 0.140625 -5.828125 L 5 -5.828125 L 5 -5.25 L 2.890625 -5.25 L 2.890625 0 L 2.25 0 L 2.25 -5.25 Z M 0.140625 -5.25 "/></g></g></g><g fill="#304732" fill-opacity="1"><g transform="translate(161.529164, 145.657614)"><g><path d="M 2.34375 0 L 2.34375 -2.375 L 0.03125 -5.828125 L 0.78125 -5.828125 L 2.6875 -2.9375 L 4.578125 -5.828125 L 5.3125 -5.828125 L 2.984375 -2.34375 L 2.984375 0 Z M 2.34375 0 "/></g></g></g><g fill="#304732" fill-opacity="1"><g transform="translate(168.360352, 145.657614)"><g/></g></g><g fill="#304732" fill-opacity="1"><g transform="translate(171.663609, 145.657614)"><g><path d="M 0.640625 0 L 0.640625 -5.828125 L 4.8125 -5.828125 L 4.8125 -5.265625 L 1.28125 -5.265625 L 1.28125 -3.21875 L 3.59375 -3.21875 L 3.59375 -2.671875 L 1.28125 -2.671875 L 1.28125 -0.5625 L 4.84375 -0.5625 L 4.84375 0 Z M 0.640625 0 "/></g></g></g><g fill="#304732" fill-opacity="1"><g transform="translate(178.303425, 145.657614)"><g><path d="M 2.34375 0 L 2.34375 -2.375 L 0.03125 -5.828125 L 0.78125 -5.828125 L 2.6875 -2.9375 L 4.578125 -5.828125 L 5.3125 -5.828125 L 2.984375 -2.34375 L 2.984375 0 Z M 2.34375 0 "/></g></g></g><g fill="#304732" fill-opacity="1"><g transform="translate(185.134613, 145.657614)"><g><path d="M 0.640625 0 L 0.640625 -5.828125 L 4.8125 -5.828125 L 4.8125 -5.265625 L 1.28125 -5.265625 L 1.28125 -3.21875 L 3.59375 -3.21875 L 3.59375 -2.671875 L 1.28125 -2.671875 L 1.28125 -0.5625 L 4.84375 -0.5625 L 4.84375 0 Z M 0.640625 0 "/></g></g></g><g fill="#304732" fill-opacity="1"><g transform="translate(191.774428, 145.657614)"><g><path d="M 3.40625 -0.5 C 3.769531 -0.5 4.113281 -0.566406 4.4375 -0.703125 C 4.769531 -0.847656 5.046875 -1.046875 5.265625 -1.296875 L 5.6875 -0.859375 C 5.394531 -0.566406 5.046875 -0.332031 4.640625 -0.15625 C 4.242188 0.0078125 3.828125 0.09375 3.390625 0.09375 C 2.960938 0.09375 2.566406 0.015625 2.203125 -0.140625 C 1.835938 -0.296875 1.515625 -0.507812 1.234375 -0.78125 C 0.960938 -1.050781 0.75 -1.367188 0.59375 -1.734375 C 0.4375 -2.109375 0.359375 -2.503906 0.359375 -2.921875 C 0.359375 -3.335938 0.4375 -3.726562 0.59375 -4.09375 C 0.75 -4.457031 0.960938 -4.773438 1.234375 -5.046875 C 1.515625 -5.316406 1.835938 -5.53125 2.203125 -5.6875 C 2.566406 -5.84375 2.960938 -5.921875 3.390625 -5.921875 C 3.835938 -5.921875 4.257812 -5.832031 4.65625 -5.65625 C 5.0625 -5.488281 5.410156 -5.257812 5.703125 -4.96875 L 5.265625 -4.515625 C 5.046875 -4.765625 4.765625 -4.960938 4.421875 -5.109375 C 4.085938 -5.253906 3.742188 -5.328125 3.390625 -5.328125 C 3.054688 -5.328125 2.742188 -5.265625 2.453125 -5.140625 C 2.160156 -5.015625 1.90625 -4.84375 1.6875 -4.625 C 1.476562 -4.414062 1.3125 -4.160156 1.1875 -3.859375 C 1.070312 -3.566406 1.015625 -3.253906 1.015625 -2.921875 C 1.015625 -2.578125 1.070312 -2.253906 1.1875 -1.953125 C 1.3125 -1.660156 1.484375 -1.40625 1.703125 -1.1875 C 1.921875 -0.976562 2.171875 -0.8125 2.453125 -0.6875 C 2.742188 -0.5625 3.0625 -0.5 3.40625 -0.5 Z M 3.40625 -0.5 "/></g></g></g><g fill="#304732" fill-opacity="1"><g transform="translate(199.296226, 145.657614)"><g><path d="M 0.03125 0 L 2.453125 -5.828125 L 3.234375 -5.828125 L 5.625 0 L 4.921875 0 L 4.1875 -1.828125 L 1.4375 -1.828125 L 0.703125 0 Z M 1.671875 -2.375 L 3.96875 -2.375 L 2.828125 -5.234375 Z M 1.671875 -2.375 "/></g></g></g><g fill="#304732" fill-opacity="1"><g transform="translate(206.460237, 145.657614)"><g><path d="M 0.640625 0 L 0.640625 -5.828125 L 3.140625 -5.828125 C 3.703125 -5.828125 4.15625 -5.671875 4.5 -5.359375 C 4.851562 -5.054688 5.03125 -4.65625 5.03125 -4.15625 C 5.03125 -3.769531 4.914062 -3.4375 4.6875 -3.15625 C 4.46875 -2.882812 4.171875 -2.695312 3.796875 -2.59375 L 5.109375 0 L 4.390625 0 L 3.140625 -2.5 L 1.28125 -2.5 L 1.28125 0 Z M 3.09375 -5.25 L 1.28125 -5.25 L 1.28125 -3.046875 L 3.09375 -3.046875 C 3.488281 -3.046875 3.800781 -3.144531 4.03125 -3.34375 C 4.269531 -3.550781 4.390625 -3.820312 4.390625 -4.15625 C 4.390625 -4.488281 4.269531 -4.753906 4.03125 -4.953125 C 3.800781 -5.148438 3.488281 -5.25 3.09375 -5.25 Z M 3.09375 -5.25 "/></g></g></g><g fill="#304732" fill-opacity="1"><g transform="translate(213.341347, 145.657614)"><g><path d="M 0.640625 0 L 0.640625 -5.828125 L 4.8125 -5.828125 L 4.8125 -5.265625 L 1.28125 -5.265625 L 1.28125 -3.21875 L 3.59375 -3.21875 L 3.59375 -2.671875 L 1.28125 -2.671875 L 1.28125 -0.5625 L 4.84375 -0.5625 L 4.84375 0 Z M 0.640625 0 "/></g></g></g><g fill="#304732" fill-opacity="1"><g transform="translate(219.981167, 145.657614)"><g/></g></g><g fill="#304732" fill-opacity="1"><g transform="translate(223.28443, 145.657614)"><g><path d="M 0.640625 0 L 0.640625 -5.828125 L 4.8125 -5.828125 L 4.8125 -5.265625 L 1.28125 -5.265625 L 1.28125 -3.1875 L 3.59375 -3.1875 L 3.59375 -2.625 L 1.28125 -2.625 L 1.28125 0 Z M 0.640625 0 "/></g></g></g><g fill="#304732" fill-opacity="1"><g transform="translate(229.849364, 145.657614)"><g><path d="M 6.375 -2.921875 C 6.375 -2.503906 6.296875 -2.109375 6.140625 -1.734375 C 5.984375 -1.367188 5.769531 -1.050781 5.5 -0.78125 C 5.226562 -0.507812 4.910156 -0.296875 4.546875 -0.140625 C 4.179688 0.015625 3.789062 0.09375 3.375 0.09375 C 2.957031 0.09375 2.5625 0.015625 2.1875 -0.140625 C 1.820312 -0.296875 1.503906 -0.507812 1.234375 -0.78125 C 0.960938 -1.050781 0.75 -1.367188 0.59375 -1.734375 C 0.4375 -2.109375 0.359375 -2.503906 0.359375 -2.921875 C 0.359375 -3.335938 0.4375 -3.726562 0.59375 -4.09375 C 0.75 -4.457031 0.960938 -4.773438 1.234375 -5.046875 C 1.503906 -5.316406 1.820312 -5.53125 2.1875 -5.6875 C 2.5625 -5.84375 2.957031 -5.921875 3.375 -5.921875 C 3.789062 -5.921875 4.179688 -5.84375 4.546875 -5.6875 C 4.910156 -5.53125 5.226562 -5.316406 5.5 -5.046875 C 5.769531 -4.773438 5.984375 -4.457031 6.140625 -4.09375 C 6.296875 -3.726562 6.375 -3.335938 6.375 -2.921875 Z M 5.71875 -2.921875 C 5.71875 -3.253906 5.65625 -3.566406 5.53125 -3.859375 C 5.414062 -4.160156 5.253906 -4.414062 5.046875 -4.625 C 4.835938 -4.84375 4.585938 -5.015625 4.296875 -5.140625 C 4.003906 -5.265625 3.695312 -5.328125 3.375 -5.328125 C 3.039062 -5.328125 2.726562 -5.265625 2.4375 -5.140625 C 2.144531 -5.015625 1.894531 -4.84375 1.6875 -4.625 C 1.476562 -4.414062 1.3125 -4.160156 1.1875 -3.859375 C 1.070312 -3.566406 1.015625 -3.253906 1.015625 -2.921875 C 1.015625 -2.578125 1.070312 -2.257812 1.1875 -1.96875 C 1.3125 -1.675781 1.476562 -1.421875 1.6875 -1.203125 C 1.894531 -0.984375 2.144531 -0.8125 2.4375 -0.6875 C 2.726562 -0.5625 3.039062 -0.5 3.375 -0.5 C 3.695312 -0.5 4.003906 -0.5625 4.296875 -0.6875 C 4.585938 -0.8125 4.835938 -0.984375 5.046875 -1.203125 C 5.253906 -1.421875 5.414062 -1.675781 5.53125 -1.96875 C 5.65625 -2.257812 5.71875 -2.578125 5.71875 -2.921875 Z M 5.71875 -2.921875 "/></g></g></g><g fill="#304732" fill-opacity="1"><g transform="translate(238.095052, 145.657614)"><g><path d="M 0.640625 0 L 0.640625 -5.828125 L 3.140625 -5.828125 C 3.703125 -5.828125 4.15625 -5.671875 4.5 -5.359375 C 4.851562 -5.054688 5.03125 -4.65625 5.03125 -4.15625 C 5.03125 -3.769531 4.914062 -3.4375 4.6875 -3.15625 C 4.46875 -2.882812 4.171875 -2.695312 3.796875 -2.59375 L 5.109375 0 L 4.390625 0 L 3.140625 -2.5 L 1.28125 -2.5 L 1.28125 0 Z M 3.09375 -5.25 L 1.28125 -5.25 L 1.28125 -3.046875 L 3.09375 -3.046875 C 3.488281 -3.046875 3.800781 -3.144531 4.03125 -3.34375 C 4.269531 -3.550781 4.390625 -3.820312 4.390625 -4.15625 C 4.390625 -4.488281 4.269531 -4.753906 4.03125 -4.953125 C 3.800781 -5.148438 3.488281 -5.25 3.09375 -5.25 Z M 3.09375 -5.25 "/></g></g></g><g fill="#304732" fill-opacity="1"><g transform="translate(20.7995, 117.576384)"><g><path d="M 30.765625 -12.203125 C 30.765625 -10.648438 30.273438 -9.128906 29.296875 -7.640625 C 28.316406 -6.148438 27.082031 -4.820312 25.59375 -3.65625 C 24.113281 -2.5 22.523438 -1.566406 20.828125 -0.859375 C 19.140625 -0.148438 17.585938 0.203125 16.171875 0.203125 C 13.753906 0.203125 11.597656 -0.398438 9.703125 -1.609375 C 7.804688 -2.816406 6.21875 -4.359375 4.9375 -6.234375 C 3.65625 -8.109375 2.679688 -10.175781 2.015625 -12.4375 C 1.359375 -14.695312 1.03125 -16.898438 1.03125 -19.046875 C 1.03125 -21.335938 1.347656 -23.78125 1.984375 -26.375 C 2.628906 -28.976562 3.601562 -31.378906 4.90625 -33.578125 C 6.207031 -35.773438 7.847656 -37.601562 9.828125 -39.0625 C 11.816406 -40.519531 14.179688 -41.25 16.921875 -41.25 C 18.472656 -41.25 19.957031 -40.984375 21.375 -40.453125 C 22.789062 -39.929688 24.023438 -39.191406 25.078125 -38.234375 C 26.128906 -37.273438 26.972656 -36.132812 27.609375 -34.8125 C 28.253906 -33.488281 28.578125 -32.003906 28.578125 -30.359375 C 28.578125 -28.210938 28.117188 -26.203125 27.203125 -24.328125 C 26.285156 -22.453125 25.070312 -20.828125 23.5625 -19.453125 C 22.0625 -18.085938 20.328125 -16.984375 18.359375 -16.140625 C 16.398438 -15.296875 14.390625 -14.828125 12.328125 -14.734375 C 12.515625 -13.410156 13.050781 -12.453125 13.9375 -11.859375 C 14.832031 -11.265625 15.894531 -10.96875 17.125 -10.96875 C 18.039062 -10.96875 18.929688 -11.191406 19.796875 -11.640625 C 20.671875 -12.097656 21.519531 -12.613281 22.34375 -13.1875 C 23.164062 -13.757812 23.972656 -14.273438 24.765625 -14.734375 C 25.566406 -15.191406 26.378906 -15.421875 27.203125 -15.421875 C 28.117188 -15.421875 28.941406 -15.125 29.671875 -14.53125 C 30.398438 -13.9375 30.765625 -13.160156 30.765625 -12.203125 Z M 19.671875 -28.984375 C 19.671875 -29.578125 19.507812 -30.191406 19.1875 -30.828125 C 18.863281 -31.472656 18.363281 -31.796875 17.6875 -31.796875 C 16.675781 -31.796875 15.828125 -31.53125 15.140625 -31 C 14.453125 -30.476562 13.878906 -29.816406 13.421875 -29.015625 C 12.972656 -28.222656 12.625 -27.367188 12.375 -26.453125 C 12.125 -25.535156 11.972656 -24.691406 11.921875 -23.921875 C 12.566406 -24.054688 13.332031 -24.238281 14.21875 -24.46875 C 15.113281 -24.695312 15.957031 -25.003906 16.75 -25.390625 C 17.550781 -25.773438 18.238281 -26.265625 18.8125 -26.859375 C 19.382812 -27.453125 19.671875 -28.160156 19.671875 -28.984375 Z M 19.671875 -28.984375 "/></g></g></g><g fill="#304732" fill-opacity="1"><g transform="translate(52.253872, 117.576384)"><g><path d="M 16.921875 19.9375 C 15.828125 19.9375 14.582031 19.765625 13.1875 19.421875 C 11.789062 19.078125 10.476562 18.585938 9.25 17.953125 C 8.019531 17.316406 6.976562 16.539062 6.125 15.625 C 5.28125 14.707031 4.859375 13.65625 4.859375 12.46875 C 4.859375 12.007812 4.972656 11.550781 5.203125 11.09375 C 5.429688 10.644531 5.738281 10.25 6.125 9.90625 C 6.519531 9.5625 6.945312 9.285156 7.40625 9.078125 C 7.863281 8.867188 8.34375 8.765625 8.84375 8.765625 C 9.382812 8.765625 9.914062 8.84375 10.4375 9 C 10.96875 9.164062 11.507812 9.363281 12.0625 9.59375 C 12.65625 9.820312 13.238281 10.023438 13.8125 10.203125 C 14.382812 10.390625 14.988281 10.484375 15.625 10.484375 C 16.769531 10.484375 17.765625 10.09375 18.609375 9.3125 C 19.453125 8.539062 20.171875 7.523438 20.765625 6.265625 C 21.359375 5.015625 21.835938 3.625 22.203125 2.09375 C 22.566406 0.5625 22.851562 -0.957031 23.0625 -2.46875 C 23.269531 -3.976562 23.414062 -5.394531 23.5 -6.71875 C 23.59375 -8.039062 23.660156 -9.113281 23.703125 -9.9375 C 22.109375 -7.507812 20.519531 -5.644531 18.9375 -4.34375 C 17.363281 -3.050781 15.4375 -2.40625 13.15625 -2.40625 C 11.414062 -2.40625 9.894531 -2.769531 8.59375 -3.5 C 7.289062 -4.226562 6.179688 -5.1875 5.265625 -6.375 C 4.359375 -7.5625 3.609375 -8.921875 3.015625 -10.453125 C 2.421875 -11.984375 1.972656 -13.570312 1.671875 -15.21875 C 1.378906 -16.863281 1.1875 -18.472656 1.09375 -20.046875 C 1 -21.617188 1 -23.066406 1.09375 -24.390625 C 1.144531 -25.398438 1.269531 -26.710938 1.46875 -28.328125 C 1.675781 -29.953125 2.007812 -31.539062 2.46875 -33.09375 C 2.925781 -34.644531 3.566406 -35.957031 4.390625 -37.03125 C 5.210938 -38.113281 6.285156 -38.609375 7.609375 -38.515625 C 8.472656 -38.460938 9.175781 -38.082031 9.71875 -37.375 C 10.269531 -36.664062 10.71875 -35.785156 11.0625 -34.734375 C 11.40625 -33.691406 11.65625 -32.539062 11.8125 -31.28125 C 11.976562 -30.019531 12.082031 -28.773438 12.125 -27.546875 C 12.175781 -26.316406 12.1875 -25.1875 12.15625 -24.15625 C 12.132812 -23.125 12.125 -22.335938 12.125 -21.796875 C 12.125 -21.015625 12.144531 -20.234375 12.1875 -19.453125 C 12.238281 -18.679688 12.398438 -17.988281 12.671875 -17.375 C 12.953125 -16.757812 13.375 -16.265625 13.9375 -15.890625 C 14.507812 -15.523438 15.320312 -15.34375 16.375 -15.34375 C 17.5625 -15.34375 18.507812 -15.640625 19.21875 -16.234375 C 19.925781 -16.828125 20.453125 -17.566406 20.796875 -18.453125 C 21.140625 -19.347656 21.359375 -20.3125 21.453125 -21.34375 C 21.546875 -22.375 21.59375 -23.347656 21.59375 -24.265625 C 21.59375 -24.898438 21.59375 -25.671875 21.59375 -26.578125 C 21.59375 -27.492188 21.601562 -28.453125 21.625 -29.453125 C 21.644531 -30.460938 21.734375 -31.457031 21.890625 -32.4375 C 22.054688 -33.425781 22.304688 -34.316406 22.640625 -35.109375 C 22.984375 -35.910156 23.441406 -36.5625 24.015625 -37.0625 C 24.585938 -37.570312 25.332031 -37.828125 26.25 -37.828125 C 27.382812 -37.828125 28.363281 -37.378906 29.1875 -36.484375 C 30.007812 -35.597656 30.707031 -34.4375 31.28125 -33 C 31.851562 -31.5625 32.3125 -29.972656 32.65625 -28.234375 C 33 -26.492188 33.257812 -24.765625 33.4375 -23.046875 C 33.625 -21.335938 33.75 -19.765625 33.8125 -18.328125 C 33.882812 -16.890625 33.921875 -15.757812 33.921875 -14.9375 C 33.921875 -13.019531 33.851562 -10.835938 33.71875 -8.390625 C 33.582031 -5.953125 33.316406 -3.441406 32.921875 -0.859375 C 32.535156 1.722656 31.953125 4.257812 31.171875 6.75 C 30.398438 9.238281 29.382812 11.460938 28.125 13.421875 C 26.875 15.390625 25.332031 16.96875 23.5 18.15625 C 21.675781 19.34375 19.484375 19.9375 16.921875 19.9375 Z M 16.921875 19.9375 "/></g></g></g><g fill="#304732" fill-opacity="1"><g transform="translate(88.573735, 117.576384)"><g><path d="M 30.765625 -12.203125 C 30.765625 -10.648438 30.273438 -9.128906 29.296875 -7.640625 C 28.316406 -6.148438 27.082031 -4.820312 25.59375 -3.65625 C 24.113281 -2.5 22.523438 -1.566406 20.828125 -0.859375 C 19.140625 -0.148438 17.585938 0.203125 16.171875 0.203125 C 13.753906 0.203125 11.597656 -0.398438 9.703125 -1.609375 C 7.804688 -2.816406 6.21875 -4.359375 4.9375 -6.234375 C 3.65625 -8.109375 2.679688 -10.175781 2.015625 -12.4375 C 1.359375 -14.695312 1.03125 -16.898438 1.03125 -19.046875 C 1.03125 -21.335938 1.347656 -23.78125 1.984375 -26.375 C 2.628906 -28.976562 3.601562 -31.378906 4.90625 -33.578125 C 6.207031 -35.773438 7.847656 -37.601562 9.828125 -39.0625 C 11.816406 -40.519531 14.179688 -41.25 16.921875 -41.25 C 18.472656 -41.25 19.957031 -40.984375 21.375 -40.453125 C 22.789062 -39.929688 24.023438 -39.191406 25.078125 -38.234375 C 26.128906 -37.273438 26.972656 -36.132812 27.609375 -34.8125 C 28.253906 -33.488281 28.578125 -32.003906 28.578125 -30.359375 C 28.578125 -28.210938 28.117188 -26.203125 27.203125 -24.328125 C 26.285156 -22.453125 25.070312 -20.828125 23.5625 -19.453125 C 22.0625 -18.085938 20.328125 -16.984375 18.359375 -16.140625 C 16.398438 -15.296875 14.390625 -14.828125 12.328125 -14.734375 C 12.515625 -13.410156 13.050781 -12.453125 13.9375 -11.859375 C 14.832031 -11.265625 15.894531 -10.96875 17.125 -10.96875 C 18.039062 -10.96875 18.929688 -11.191406 19.796875 -11.640625 C 20.671875 -12.097656 21.519531 -12.613281 22.34375 -13.1875 C 23.164062 -13.757812 23.972656 -14.273438 24.765625 -14.734375 C 25.566406 -15.191406 26.378906 -15.421875 27.203125 -15.421875 C 28.117188 -15.421875 28.941406 -15.125 29.671875 -14.53125 C 30.398438 -13.9375 30.765625 -13.160156 30.765625 -12.203125 Z M 19.671875 -28.984375 C 19.671875 -29.578125 19.507812 -30.191406 19.1875 -30.828125 C 18.863281 -31.472656 18.363281 -31.796875 17.6875 -31.796875 C 16.675781 -31.796875 15.828125 -31.53125 15.140625 -31 C 14.453125 -30.476562 13.878906 -29.816406 13.421875 -29.015625 C 12.972656 -28.222656 12.625 -27.367188 12.375 -26.453125 C 12.125 -25.535156 11.972656 -24.691406 11.921875 -23.921875 C 12.566406 -24.054688 13.332031 -24.238281 14.21875 -24.46875 C 15.113281 -24.695312 15.957031 -25.003906 16.75 -25.390625 C 17.550781 -25.773438 18.238281 -26.265625 18.8125 -26.859375 C 19.382812 -27.453125 19.671875 -28.160156 19.671875 -28.984375 Z M 19.671875 -28.984375 "/></g></g></g><g fill="#304732" fill-opacity="1"><g transform="translate(120.028107, 117.576384)"><g><path d="M 27.484375 -26.3125 C 27.484375 -26.082031 27.457031 -25.84375 27.40625 -25.59375 C 27.363281 -25.34375 27.296875 -25.101562 27.203125 -24.875 C 26.796875 -23.820312 26.15625 -22.941406 25.28125 -22.234375 C 24.414062 -21.523438 23.390625 -21.171875 22.203125 -21.171875 C 20.421875 -21.171875 19.210938 -22.0625 18.578125 -23.84375 C 18.484375 -24.070312 18.4375 -24.332031 18.4375 -24.625 C 18.4375 -24.925781 18.410156 -25.238281 18.359375 -25.5625 L 18.359375 -27.546875 C 18.273438 -28.179688 18.117188 -28.679688 17.890625 -29.046875 C 17.660156 -29.421875 17.269531 -29.609375 16.71875 -29.609375 C 15.945312 -29.609375 15.207031 -29.113281 14.5 -28.125 C 13.789062 -27.144531 13.171875 -25.976562 12.640625 -24.625 C 12.117188 -23.28125 11.695312 -21.898438 11.375 -20.484375 C 11.050781 -19.066406 10.890625 -17.925781 10.890625 -17.0625 C 10.890625 -16.375 10.9375 -15.539062 11.03125 -14.5625 C 11.125 -13.582031 11.304688 -12.632812 11.578125 -11.71875 C 11.859375 -10.800781 12.238281 -10.007812 12.71875 -9.34375 C 13.195312 -8.6875 13.820312 -8.359375 14.59375 -8.359375 C 15.375 -8.359375 16.09375 -8.597656 16.75 -9.078125 C 17.414062 -9.554688 18.066406 -10.117188 18.703125 -10.765625 C 19.296875 -11.304688 19.945312 -11.875 20.65625 -12.46875 C 21.363281 -13.0625 22.175781 -13.359375 23.09375 -13.359375 C 24.238281 -13.359375 25.140625 -12.945312 25.796875 -12.125 C 26.460938 -11.300781 26.796875 -10.363281 26.796875 -9.3125 C 26.796875 -7.757812 26.382812 -6.3125 25.5625 -4.96875 C 24.738281 -3.625 23.707031 -2.457031 22.46875 -1.46875 C 21.238281 -0.488281 19.867188 0.285156 18.359375 0.859375 C 16.859375 1.429688 15.421875 1.71875 14.046875 1.71875 C 11.578125 1.71875 9.484375 1.101562 7.765625 -0.125 C 6.054688 -1.363281 4.675781 -2.929688 3.625 -4.828125 C 2.582031 -6.722656 1.832031 -8.789062 1.375 -11.03125 C 0.914062 -13.269531 0.6875 -15.394531 0.6875 -17.40625 C 0.6875 -19.738281 1.003906 -22.265625 1.640625 -24.984375 C 2.285156 -27.703125 3.269531 -30.222656 4.59375 -32.546875 C 5.914062 -34.878906 7.613281 -36.820312 9.6875 -38.375 C 11.769531 -39.925781 14.25 -40.703125 17.125 -40.703125 C 18.90625 -40.703125 20.445312 -40.3125 21.75 -39.53125 C 23.050781 -38.757812 24.125 -37.742188 24.96875 -36.484375 C 25.820312 -35.234375 26.460938 -33.832031 26.890625 -32.28125 C 27.328125 -30.726562 27.546875 -29.195312 27.546875 -27.6875 C 27.546875 -27.457031 27.546875 -27.226562 27.546875 -27 C 27.546875 -26.769531 27.523438 -26.539062 27.484375 -26.3125 Z M 27.484375 -26.3125 "/></g></g></g><g fill="#304732" fill-opacity="1"><g transform="translate(149.289582, 117.576384)"><g><path d="M 31.1875 -9.65625 C 31.1875 -8.832031 31.148438 -7.757812 31.078125 -6.4375 C 31.003906 -5.113281 30.804688 -3.820312 30.484375 -2.5625 C 30.171875 -1.3125 29.671875 -0.226562 28.984375 0.6875 C 28.296875 1.601562 27.335938 2.0625 26.109375 2.0625 C 24.421875 2.0625 23.117188 1.507812 22.203125 0.40625 C 21.285156 -0.6875 20.851562 -2.054688 20.90625 -3.703125 C 19.4375 -2.421875 17.773438 -1.414062 15.921875 -0.6875 C 14.078125 0.0390625 12.195312 0.40625 10.28125 0.40625 C 8.957031 0.40625 7.703125 0.0859375 6.515625 -0.546875 C 5.328125 -1.179688 4.273438 -2 3.359375 -3 C 2.441406 -4.007812 1.707031 -5.144531 1.15625 -6.40625 C 0.613281 -7.664062 0.34375 -8.910156 0.34375 -10.140625 C 0.34375 -12.335938 1.015625 -14.253906 2.359375 -15.890625 C 3.710938 -17.535156 5.367188 -18.941406 7.328125 -20.109375 C 9.296875 -21.273438 11.382812 -22.203125 13.59375 -22.890625 C 15.8125 -23.578125 17.789062 -24.035156 19.53125 -24.265625 C 19.53125 -24.484375 19.539062 -24.6875 19.5625 -24.875 C 19.582031 -25.0625 19.59375 -25.265625 19.59375 -25.484375 C 19.59375 -26.898438 19.203125 -28.039062 18.421875 -28.90625 C 17.648438 -29.78125 16.554688 -30.21875 15.140625 -30.21875 C 14.003906 -30.21875 13.023438 -30.023438 12.203125 -29.640625 C 11.378906 -29.253906 10.597656 -28.816406 9.859375 -28.328125 C 9.128906 -27.847656 8.398438 -27.414062 7.671875 -27.03125 C 6.941406 -26.644531 6.117188 -26.453125 5.203125 -26.453125 C 4.203125 -26.453125 3.347656 -26.769531 2.640625 -27.40625 C 1.929688 -28.050781 1.578125 -28.875 1.578125 -29.875 C 1.578125 -31.382812 2.019531 -32.753906 2.90625 -33.984375 C 3.800781 -35.222656 4.921875 -36.265625 6.265625 -37.109375 C 7.617188 -37.953125 9.082031 -38.613281 10.65625 -39.09375 C 12.226562 -39.570312 13.675781 -39.8125 15 -39.8125 C 16.238281 -39.8125 17.472656 -39.660156 18.703125 -39.359375 C 19.941406 -39.066406 21.109375 -38.613281 22.203125 -38 C 23.296875 -37.382812 24.285156 -36.628906 25.171875 -35.734375 C 26.066406 -34.847656 26.789062 -33.8125 27.34375 -32.625 C 28.164062 -30.925781 28.828125 -29.128906 29.328125 -27.234375 C 29.828125 -25.335938 30.210938 -23.394531 30.484375 -21.40625 C 30.765625 -19.425781 30.953125 -17.441406 31.046875 -15.453125 C 31.140625 -13.460938 31.1875 -11.53125 31.1875 -9.65625 Z M 20.21875 -11.859375 L 20.015625 -16.515625 C 19.921875 -16.515625 19.828125 -16.523438 19.734375 -16.546875 C 19.640625 -16.566406 19.550781 -16.578125 19.46875 -16.578125 C 18.875 -16.578125 18.128906 -16.425781 17.234375 -16.125 C 16.335938 -15.832031 15.476562 -15.421875 14.65625 -14.890625 C 13.84375 -14.367188 13.148438 -13.789062 12.578125 -13.15625 C 12.003906 -12.519531 11.71875 -11.859375 11.71875 -11.171875 C 11.71875 -10.523438 11.945312 -10.085938 12.40625 -9.859375 C 12.863281 -9.640625 13.390625 -9.53125 13.984375 -9.53125 C 14.984375 -9.53125 16.050781 -9.789062 17.1875 -10.3125 C 18.332031 -10.832031 19.34375 -11.347656 20.21875 -11.859375 Z M 20.21875 -11.859375 "/></g></g></g><g fill="#304732" fill-opacity="1"><g transform="translate(182.525684, 117.576384)"><g><path d="M 25.828125 -25.625 C 25.191406 -25.582031 24.644531 -25.640625 24.1875 -25.796875 C 23.726562 -25.960938 23.269531 -26.132812 22.8125 -26.3125 C 22.40625 -26.5 21.992188 -26.671875 21.578125 -26.828125 C 21.171875 -26.984375 20.71875 -27.039062 20.21875 -27 C 19.300781 -26.957031 18.488281 -26.707031 17.78125 -26.25 C 17.070312 -25.789062 16.429688 -25.21875 15.859375 -24.53125 C 15.285156 -23.84375 14.796875 -23.078125 14.390625 -22.234375 C 13.984375 -21.390625 13.664062 -20.554688 13.4375 -19.734375 C 13.289062 -19.179688 13.179688 -18.347656 13.109375 -17.234375 C 13.046875 -16.117188 13.015625 -14.921875 13.015625 -13.640625 C 12.972656 -12.316406 12.953125 -11.0625 12.953125 -9.875 C 12.953125 -8.6875 12.90625 -7.75 12.8125 -7.0625 C 12.769531 -6.332031 12.65625 -5.472656 12.46875 -4.484375 C 12.289062 -3.503906 12.003906 -2.578125 11.609375 -1.703125 C 11.222656 -0.835938 10.707031 -0.109375 10.0625 0.484375 C 9.425781 1.078125 8.609375 1.375 7.609375 1.375 C 6.828125 1.375 6.148438 1.144531 5.578125 0.6875 C 5.015625 0.226562 4.535156 -0.375 4.140625 -1.125 C 3.753906 -1.882812 3.4375 -2.765625 3.1875 -3.765625 C 2.9375 -4.773438 2.742188 -5.804688 2.609375 -6.859375 C 2.472656 -7.953125 2.367188 -9.046875 2.296875 -10.140625 C 2.222656 -11.234375 2.175781 -12.269531 2.15625 -13.25 C 2.132812 -14.238281 2.132812 -15.144531 2.15625 -15.96875 C 2.175781 -16.789062 2.1875 -17.453125 2.1875 -17.953125 C 2.144531 -19.554688 2.066406 -21.164062 1.953125 -22.78125 C 1.835938 -24.40625 1.78125 -26.015625 1.78125 -27.609375 C 1.78125 -28.617188 1.828125 -29.738281 1.921875 -30.96875 C 2.015625 -32.207031 2.265625 -33.363281 2.671875 -34.4375 C 3.085938 -35.507812 3.691406 -36.410156 4.484375 -37.140625 C 5.285156 -37.867188 6.394531 -38.234375 7.8125 -38.234375 C 8.59375 -38.234375 9.253906 -37.984375 9.796875 -37.484375 C 10.347656 -36.984375 10.796875 -36.363281 11.140625 -35.625 C 11.484375 -34.894531 11.742188 -34.117188 11.921875 -33.296875 C 12.109375 -32.484375 12.222656 -31.734375 12.265625 -31.046875 C 13.359375 -32.828125 14.585938 -34.273438 15.953125 -35.390625 C 17.328125 -36.515625 19.113281 -37.117188 21.3125 -37.203125 C 22.40625 -37.253906 23.488281 -37.15625 24.5625 -36.90625 C 25.632812 -36.65625 26.613281 -36.242188 27.5 -35.671875 C 28.394531 -35.097656 29.128906 -34.351562 29.703125 -33.4375 C 30.273438 -32.53125 30.582031 -31.457031 30.625 -30.21875 C 30.71875 -28.757812 30.285156 -27.640625 29.328125 -26.859375 C 28.367188 -26.085938 27.203125 -25.675781 25.828125 -25.625 Z M 25.828125 -25.625 "/></g></g></g><g fill="#304732" fill-opacity="1"><g transform="translate(212.129799, 117.576384)"><g><path d="M 30.765625 -12.203125 C 30.765625 -10.648438 30.273438 -9.128906 29.296875 -7.640625 C 28.316406 -6.148438 27.082031 -4.820312 25.59375 -3.65625 C 24.113281 -2.5 22.523438 -1.566406 20.828125 -0.859375 C 19.140625 -0.148438 17.585938 0.203125 16.171875 0.203125 C 13.753906 0.203125 11.597656 -0.398438 9.703125 -1.609375 C 7.804688 -2.816406 6.21875 -4.359375 4.9375 -6.234375 C 3.65625 -8.109375 2.679688 -10.175781 2.015625 -12.4375 C 1.359375 -14.695312 1.03125 -16.898438 1.03125 -19.046875 C 1.03125 -21.335938 1.347656 -23.78125 1.984375 -26.375 C 2.628906 -28.976562 3.601562 -31.378906 4.90625 -33.578125 C 6.207031 -35.773438 7.847656 -37.601562 9.828125 -39.0625 C 11.816406 -40.519531 14.179688 -41.25 16.921875 -41.25 C 18.472656 -41.25 19.957031 -40.984375 21.375 -40.453125 C 22.789062 -39.929688 24.023438 -39.191406 25.078125 -38.234375 C 26.128906 -37.273438 26.972656 -36.132812 27.609375 -34.8125 C 28.253906 -33.488281 28.578125 -32.003906 28.578125 -30.359375 C 28.578125 -28.210938 28.117188 -26.203125 27.203125 -24.328125 C 26.285156 -22.453125 25.070312 -20.828125 23.5625 -19.453125 C 22.0625 -18.085938 20.328125 -16.984375 18.359375 -16.140625 C 16.398438 -15.296875 14.390625 -14.828125 12.328125 -14.734375 C 12.515625 -13.410156 13.050781 -12.453125 13.9375 -11.859375 C 14.832031 -11.265625 15.894531 -10.96875 17.125 -10.96875 C 18.039062 -10.96875 18.929688 -11.191406 19.796875 -11.640625 C 20.671875 -12.097656 21.519531 -12.613281 22.34375 -13.1875 C 23.164062 -13.757812 23.972656 -14.273438 24.765625 -14.734375 C 25.566406 -15.191406 26.378906 -15.421875 27.203125 -15.421875 C 28.117188 -15.421875 28.941406 -15.125 29.671875 -14.53125 C 30.398438 -13.9375 30.765625 -13.160156 30.765625 -12.203125 Z M 19.671875 -28.984375 C 19.671875 -29.578125 19.507812 -30.191406 19.1875 -30.828125 C 18.863281 -31.472656 18.363281 -31.796875 17.6875 -31.796875 C 16.675781 -31.796875 15.828125 -31.53125 15.140625 -31 C 14.453125 -30.476562 13.878906 -29.816406 13.421875 -29.015625 C 12.972656 -28.222656 12.625 -27.367188 12.375 -26.453125 C 12.125 -25.535156 11.972656 -24.691406 11.921875 -23.921875 C 12.566406 -24.054688 13.332031 -24.238281 14.21875 -24.46875 C 15.113281 -24.695312 15.957031 -25.003906 16.75 -25.390625 C 17.550781 -25.773438 18.238281 -26.265625 18.8125 -26.859375 C 19.382812 -27.453125 19.671875 -28.160156 19.671875 -28.984375 Z M 19.671875 -28.984375 "/></g></g></g><g fill="#304732" fill-opacity="1"><g transform="translate(21.500082, 58.965152)"><g><path d="M 21.375 -8.484375 C 21.375 -7.398438 21.03125 -6.34375 20.34375 -5.3125 C 19.664062 -4.28125 18.8125 -3.359375 17.78125 -2.546875 C 16.75 -1.734375 15.644531 -1.082031 14.46875 -0.59375 C 13.300781 -0.101562 12.222656 0.140625 11.234375 0.140625 C 9.554688 0.140625 8.054688 -0.273438 6.734375 -1.109375 C 5.421875 -1.953125 4.316406 -3.023438 3.421875 -4.328125 C 2.535156 -5.628906 1.863281 -7.066406 1.40625 -8.640625 C 0.945312 -10.210938 0.71875 -11.742188 0.71875 -13.234375 C 0.71875 -14.828125 0.9375 -16.523438 1.375 -18.328125 C 1.820312 -20.140625 2.5 -21.804688 3.40625 -23.328125 C 4.3125 -24.859375 5.453125 -26.128906 6.828125 -27.140625 C 8.210938 -28.160156 9.859375 -28.671875 11.765625 -28.671875 C 12.835938 -28.671875 13.863281 -28.488281 14.84375 -28.125 C 15.832031 -27.757812 16.691406 -27.242188 17.421875 -26.578125 C 18.160156 -25.910156 18.75 -25.113281 19.1875 -24.1875 C 19.632812 -23.269531 19.859375 -22.238281 19.859375 -21.09375 C 19.859375 -19.601562 19.539062 -18.207031 18.90625 -16.90625 C 18.269531 -15.601562 17.425781 -14.472656 16.375 -13.515625 C 15.332031 -12.566406 14.128906 -11.796875 12.765625 -11.203125 C 11.398438 -10.617188 10.003906 -10.296875 8.578125 -10.234375 C 8.703125 -9.316406 9.070312 -8.648438 9.6875 -8.234375 C 10.3125 -7.828125 11.050781 -7.625 11.90625 -7.625 C 12.539062 -7.625 13.160156 -7.78125 13.765625 -8.09375 C 14.367188 -8.414062 14.953125 -8.773438 15.515625 -9.171875 C 16.085938 -9.566406 16.648438 -9.921875 17.203125 -10.234375 C 17.765625 -10.554688 18.332031 -10.71875 18.90625 -10.71875 C 19.539062 -10.71875 20.109375 -10.507812 20.609375 -10.09375 C 21.117188 -9.6875 21.375 -9.148438 21.375 -8.484375 Z M 13.671875 -20.140625 C 13.671875 -20.554688 13.554688 -20.984375 13.328125 -21.421875 C 13.109375 -21.867188 12.757812 -22.09375 12.28125 -22.09375 C 11.582031 -22.09375 10.992188 -21.910156 10.515625 -21.546875 C 10.046875 -21.179688 9.648438 -20.71875 9.328125 -20.15625 C 9.015625 -19.601562 8.769531 -19.007812 8.59375 -18.375 C 8.414062 -17.75 8.3125 -17.164062 8.28125 -16.625 C 8.726562 -16.71875 9.257812 -16.84375 9.875 -17 C 10.5 -17.15625 11.085938 -17.367188 11.640625 -17.640625 C 12.203125 -17.910156 12.679688 -18.25 13.078125 -18.65625 C 13.472656 -19.070312 13.671875 -19.566406 13.671875 -20.140625 Z M 13.671875 -20.140625 "/></g></g></g><g fill="#304732" fill-opacity="1"><g transform="translate(43.356611, 58.965152)"><g><path d="M 21.671875 -6.71875 C 21.671875 -6.144531 21.644531 -5.394531 21.59375 -4.46875 C 21.550781 -3.550781 21.414062 -2.65625 21.1875 -1.78125 C 20.96875 -0.90625 20.617188 -0.15625 20.140625 0.46875 C 19.671875 1.101562 19.003906 1.421875 18.140625 1.421875 C 16.960938 1.421875 16.054688 1.039062 15.421875 0.28125 C 14.796875 -0.476562 14.5 -1.429688 14.53125 -2.578125 C 13.507812 -1.679688 12.351562 -0.976562 11.0625 -0.46875 C 9.78125 0.03125 8.472656 0.28125 7.140625 0.28125 C 6.222656 0.28125 5.347656 0.0625 4.515625 -0.375 C 3.691406 -0.820312 2.960938 -1.394531 2.328125 -2.09375 C 1.691406 -2.789062 1.179688 -3.578125 0.796875 -4.453125 C 0.421875 -5.328125 0.234375 -6.191406 0.234375 -7.046875 C 0.234375 -8.566406 0.703125 -9.898438 1.640625 -11.046875 C 2.578125 -12.191406 3.726562 -13.164062 5.09375 -13.96875 C 6.457031 -14.78125 7.910156 -15.425781 9.453125 -15.90625 C 10.992188 -16.382812 12.367188 -16.703125 13.578125 -16.859375 C 13.578125 -17.015625 13.582031 -17.15625 13.59375 -17.28125 C 13.613281 -17.414062 13.625 -17.5625 13.625 -17.71875 C 13.625 -18.695312 13.351562 -19.488281 12.8125 -20.09375 C 12.269531 -20.695312 11.507812 -21 10.53125 -21 C 9.726562 -21 9.039062 -20.863281 8.46875 -20.59375 C 7.90625 -20.320312 7.367188 -20.019531 6.859375 -19.6875 C 6.347656 -19.351562 5.835938 -19.050781 5.328125 -18.78125 C 4.828125 -18.507812 4.257812 -18.375 3.625 -18.375 C 2.925781 -18.375 2.328125 -18.597656 1.828125 -19.046875 C 1.335938 -19.492188 1.09375 -20.066406 1.09375 -20.765625 C 1.09375 -21.804688 1.398438 -22.753906 2.015625 -23.609375 C 2.640625 -24.472656 3.421875 -25.195312 4.359375 -25.78125 C 5.296875 -26.375 6.3125 -26.835938 7.40625 -27.171875 C 8.5 -27.503906 9.503906 -27.671875 10.421875 -27.671875 C 11.285156 -27.671875 12.144531 -27.566406 13 -27.359375 C 13.851562 -27.148438 14.660156 -26.832031 15.421875 -26.40625 C 16.191406 -25.976562 16.882812 -25.453125 17.5 -24.828125 C 18.125 -24.210938 18.625 -23.492188 19 -22.671875 C 19.570312 -21.492188 20.03125 -20.242188 20.375 -18.921875 C 20.726562 -17.609375 21 -16.257812 21.1875 -14.875 C 21.382812 -13.5 21.515625 -12.117188 21.578125 -10.734375 C 21.640625 -9.359375 21.671875 -8.019531 21.671875 -6.71875 Z M 14.046875 -8.234375 L 13.90625 -11.484375 C 13.84375 -11.484375 13.78125 -11.488281 13.71875 -11.5 C 13.65625 -11.519531 13.59375 -11.53125 13.53125 -11.53125 C 13.113281 -11.53125 12.59375 -11.425781 11.96875 -11.21875 C 11.351562 -11.007812 10.757812 -10.722656 10.1875 -10.359375 C 9.613281 -9.992188 9.128906 -9.585938 8.734375 -9.140625 C 8.335938 -8.703125 8.140625 -8.242188 8.140625 -7.765625 C 8.140625 -7.316406 8.296875 -7.015625 8.609375 -6.859375 C 8.929688 -6.703125 9.300781 -6.625 9.71875 -6.625 C 10.414062 -6.625 11.160156 -6.804688 11.953125 -7.171875 C 12.742188 -7.535156 13.441406 -7.890625 14.046875 -8.234375 Z M 14.046875 -8.234375 "/></g></g></g><g fill="#304732" fill-opacity="1"><g transform="translate(66.4512, 58.965152)"><g><path d="M 17.953125 -17.8125 C 17.503906 -17.78125 17.117188 -17.816406 16.796875 -17.921875 C 16.484375 -18.035156 16.171875 -18.15625 15.859375 -18.28125 C 15.578125 -18.414062 15.289062 -18.535156 15 -18.640625 C 14.71875 -18.753906 14.398438 -18.796875 14.046875 -18.765625 C 13.410156 -18.734375 12.847656 -18.554688 12.359375 -18.234375 C 11.867188 -17.921875 11.421875 -17.523438 11.015625 -17.046875 C 10.617188 -16.566406 10.28125 -16.035156 10 -15.453125 C 9.71875 -14.867188 9.492188 -14.289062 9.328125 -13.71875 C 9.234375 -13.332031 9.160156 -12.75 9.109375 -11.96875 C 9.066406 -11.195312 9.046875 -10.367188 9.046875 -9.484375 C 9.015625 -8.554688 9 -7.679688 9 -6.859375 C 9 -6.035156 8.96875 -5.382812 8.90625 -4.90625 C 8.875 -4.394531 8.796875 -3.796875 8.671875 -3.109375 C 8.546875 -2.429688 8.347656 -1.789062 8.078125 -1.1875 C 7.804688 -0.582031 7.445312 -0.078125 7 0.328125 C 6.550781 0.742188 5.976562 0.953125 5.28125 0.953125 C 4.738281 0.953125 4.269531 0.789062 3.875 0.46875 C 3.476562 0.15625 3.144531 -0.257812 2.875 -0.78125 C 2.601562 -1.3125 2.378906 -1.925781 2.203125 -2.625 C 2.035156 -3.320312 1.90625 -4.035156 1.8125 -4.765625 C 1.71875 -5.523438 1.644531 -6.285156 1.59375 -7.046875 C 1.550781 -7.804688 1.519531 -8.523438 1.5 -9.203125 C 1.476562 -9.890625 1.476562 -10.519531 1.5 -11.09375 C 1.519531 -11.664062 1.53125 -12.128906 1.53125 -12.484375 C 1.488281 -13.585938 1.425781 -14.703125 1.34375 -15.828125 C 1.269531 -16.960938 1.234375 -18.082031 1.234375 -19.1875 C 1.234375 -19.882812 1.265625 -20.660156 1.328125 -21.515625 C 1.390625 -22.378906 1.5625 -23.179688 1.84375 -23.921875 C 2.132812 -24.671875 2.554688 -25.300781 3.109375 -25.8125 C 3.671875 -26.320312 4.441406 -26.578125 5.421875 -26.578125 C 5.960938 -26.578125 6.421875 -26.398438 6.796875 -26.046875 C 7.179688 -25.703125 7.492188 -25.273438 7.734375 -24.765625 C 7.972656 -24.253906 8.15625 -23.710938 8.28125 -23.140625 C 8.414062 -22.566406 8.5 -22.046875 8.53125 -21.578125 C 9.289062 -22.816406 10.144531 -23.820312 11.09375 -24.59375 C 12.050781 -25.375 13.289062 -25.796875 14.8125 -25.859375 C 15.570312 -25.890625 16.320312 -25.816406 17.0625 -25.640625 C 17.8125 -25.472656 18.492188 -25.1875 19.109375 -24.78125 C 19.734375 -24.382812 20.242188 -23.867188 20.640625 -23.234375 C 21.035156 -22.597656 21.25 -21.851562 21.28125 -21 C 21.34375 -19.988281 21.039062 -19.210938 20.375 -18.671875 C 19.707031 -18.128906 18.898438 -17.84375 17.953125 -17.8125 Z M 17.953125 -17.8125 "/></g></g></g><g fill="#304732" fill-opacity="1"><g transform="translate(87.02205, 58.965152)"><g><path d="M 10.328125 -28.859375 C 10.328125 -27.140625 10.253906 -25.414062 10.109375 -23.6875 C 9.972656 -21.957031 9.90625 -20.222656 9.90625 -18.484375 C 9.90625 -16.222656 9.972656 -13.960938 10.109375 -11.703125 C 10.253906 -9.453125 10.328125 -7.1875 10.328125 -4.90625 C 10.328125 -4.332031 10.296875 -3.6875 10.234375 -2.96875 C 10.171875 -2.257812 10.019531 -1.601562 9.78125 -1 C 9.539062 -0.394531 9.179688 0.109375 8.703125 0.515625 C 8.234375 0.929688 7.601562 1.140625 6.8125 1.140625 C 6.050781 1.140625 5.390625 0.765625 4.828125 0.015625 C 4.273438 -0.722656 3.816406 -1.671875 3.453125 -2.828125 C 3.085938 -3.992188 2.785156 -5.289062 2.546875 -6.71875 C 2.304688 -8.144531 2.128906 -9.53125 2.015625 -10.875 C 1.910156 -12.226562 1.832031 -13.46875 1.78125 -14.59375 C 1.738281 -15.71875 1.71875 -16.550781 1.71875 -17.09375 C 1.71875 -17.695312 1.738281 -18.570312 1.78125 -19.71875 C 1.832031 -20.863281 1.9375 -22.101562 2.09375 -23.4375 C 2.25 -24.769531 2.460938 -26.125 2.734375 -27.5 C 3.003906 -28.882812 3.359375 -30.140625 3.796875 -31.265625 C 4.242188 -32.390625 4.773438 -33.304688 5.390625 -34.015625 C 6.015625 -34.734375 6.757812 -35.09375 7.625 -35.09375 C 8.320312 -35.09375 8.851562 -34.863281 9.21875 -34.40625 C 9.582031 -33.945312 9.84375 -33.390625 10 -32.734375 C 10.15625 -32.085938 10.25 -31.40625 10.28125 -30.6875 C 10.3125 -29.976562 10.328125 -29.367188 10.328125 -28.859375 Z M 10.328125 -28.859375 "/></g></g></g><g fill="#304732" fill-opacity="1"><g transform="translate(99.545508, 58.965152)"><g><path d="M 11.765625 13.859375 C 11.003906 13.859375 10.140625 13.738281 9.171875 13.5 C 8.203125 13.257812 7.285156 12.914062 6.421875 12.46875 C 5.566406 12.03125 4.84375 11.492188 4.25 10.859375 C 3.664062 10.222656 3.375 9.492188 3.375 8.671875 C 3.375 8.347656 3.453125 8.023438 3.609375 7.703125 C 3.773438 7.390625 3.992188 7.113281 4.265625 6.875 C 4.535156 6.644531 4.828125 6.457031 5.140625 6.3125 C 5.460938 6.164062 5.796875 6.09375 6.140625 6.09375 C 6.523438 6.09375 6.898438 6.144531 7.265625 6.25 C 7.628906 6.363281 8 6.503906 8.375 6.671875 C 8.789062 6.828125 9.195312 6.96875 9.59375 7.09375 C 9.988281 7.21875 10.410156 7.28125 10.859375 7.28125 C 11.648438 7.28125 12.335938 7.007812 12.921875 6.46875 C 13.515625 5.9375 14.015625 5.234375 14.421875 4.359375 C 14.835938 3.484375 15.171875 2.515625 15.421875 1.453125 C 15.679688 0.390625 15.878906 -0.660156 16.015625 -1.703125 C 16.160156 -2.753906 16.265625 -3.738281 16.328125 -4.65625 C 16.398438 -5.582031 16.453125 -6.332031 16.484375 -6.90625 C 15.367188 -5.21875 14.265625 -3.921875 13.171875 -3.015625 C 12.078125 -2.117188 10.734375 -1.671875 9.140625 -1.671875 C 7.929688 -1.671875 6.875 -1.921875 5.96875 -2.421875 C 5.070312 -2.929688 4.304688 -3.597656 3.671875 -4.421875 C 3.035156 -5.253906 2.507812 -6.203125 2.09375 -7.265625 C 1.675781 -8.328125 1.363281 -9.425781 1.15625 -10.5625 C 0.957031 -11.707031 0.828125 -12.828125 0.765625 -13.921875 C 0.703125 -15.023438 0.703125 -16.035156 0.765625 -16.953125 C 0.796875 -17.648438 0.878906 -18.5625 1.015625 -19.6875 C 1.160156 -20.8125 1.390625 -21.914062 1.703125 -23 C 2.023438 -24.082031 2.472656 -24.992188 3.046875 -25.734375 C 3.617188 -26.484375 4.363281 -26.828125 5.28125 -26.765625 C 5.882812 -26.734375 6.375 -26.46875 6.75 -25.96875 C 7.132812 -25.476562 7.445312 -24.867188 7.6875 -24.140625 C 7.925781 -23.410156 8.097656 -22.609375 8.203125 -21.734375 C 8.316406 -20.867188 8.390625 -20.003906 8.421875 -19.140625 C 8.460938 -18.285156 8.472656 -17.5 8.453125 -16.78125 C 8.429688 -16.070312 8.421875 -15.523438 8.421875 -15.140625 C 8.421875 -14.597656 8.4375 -14.054688 8.46875 -13.515625 C 8.507812 -12.984375 8.625 -12.5 8.8125 -12.0625 C 9 -11.632812 9.289062 -11.296875 9.6875 -11.046875 C 10.082031 -10.796875 10.644531 -10.671875 11.375 -10.671875 C 12.207031 -10.671875 12.867188 -10.875 13.359375 -11.28125 C 13.847656 -11.695312 14.210938 -12.210938 14.453125 -12.828125 C 14.691406 -13.453125 14.84375 -14.117188 14.90625 -14.828125 C 14.96875 -15.546875 15 -16.222656 15 -16.859375 C 15 -17.304688 15 -17.847656 15 -18.484375 C 15 -19.117188 15.003906 -19.785156 15.015625 -20.484375 C 15.035156 -21.179688 15.097656 -21.867188 15.203125 -22.546875 C 15.316406 -23.234375 15.492188 -23.851562 15.734375 -24.40625 C 15.972656 -24.957031 16.289062 -25.40625 16.6875 -25.75 C 17.082031 -26.101562 17.597656 -26.28125 18.234375 -26.28125 C 19.035156 -26.28125 19.71875 -25.972656 20.28125 -25.359375 C 20.851562 -24.742188 21.335938 -23.9375 21.734375 -22.9375 C 22.128906 -21.9375 22.445312 -20.832031 22.6875 -19.625 C 22.925781 -18.414062 23.109375 -17.210938 23.234375 -16.015625 C 23.367188 -14.828125 23.457031 -13.734375 23.5 -12.734375 C 23.550781 -11.734375 23.578125 -10.945312 23.578125 -10.375 C 23.578125 -9.039062 23.523438 -7.523438 23.421875 -5.828125 C 23.328125 -4.128906 23.144531 -2.382812 22.875 -0.59375 C 22.613281 1.195312 22.210938 2.957031 21.671875 4.6875 C 21.128906 6.414062 20.421875 7.960938 19.546875 9.328125 C 18.671875 10.691406 17.597656 11.785156 16.328125 12.609375 C 15.054688 13.441406 13.535156 13.859375 11.765625 13.859375 Z M 11.765625 13.859375 "/></g></g></g><g fill="#304732" fill-opacity="1"><g transform="translate(124.782893, 58.965152)"><g/></g></g><g fill="#304732" fill-opacity="1"><g transform="translate(136.258761, 58.965152)"><g><path d="M 11.765625 13.859375 C 11.003906 13.859375 10.140625 13.738281 9.171875 13.5 C 8.203125 13.257812 7.285156 12.914062 6.421875 12.46875 C 5.566406 12.03125 4.84375 11.492188 4.25 10.859375 C 3.664062 10.222656 3.375 9.492188 3.375 8.671875 C 3.375 8.347656 3.453125 8.023438 3.609375 7.703125 C 3.773438 7.390625 3.992188 7.113281 4.265625 6.875 C 4.535156 6.644531 4.828125 6.457031 5.140625 6.3125 C 5.460938 6.164062 5.796875 6.09375 6.140625 6.09375 C 6.523438 6.09375 6.898438 6.144531 7.265625 6.25 C 7.628906 6.363281 8 6.503906 8.375 6.671875 C 8.789062 6.828125 9.195312 6.96875 9.59375 7.09375 C 9.988281 7.21875 10.410156 7.28125 10.859375 7.28125 C 11.648438 7.28125 12.335938 7.007812 12.921875 6.46875 C 13.515625 5.9375 14.015625 5.234375 14.421875 4.359375 C 14.835938 3.484375 15.171875 2.515625 15.421875 1.453125 C 15.679688 0.390625 15.878906 -0.660156 16.015625 -1.703125 C 16.160156 -2.753906 16.265625 -3.738281 16.328125 -4.65625 C 16.398438 -5.582031 16.453125 -6.332031 16.484375 -6.90625 C 15.367188 -5.21875 14.265625 -3.921875 13.171875 -3.015625 C 12.078125 -2.117188 10.734375 -1.671875 9.140625 -1.671875 C 7.929688 -1.671875 6.875 -1.921875 5.96875 -2.421875 C 5.070312 -2.929688 4.304688 -3.597656 3.671875 -4.421875 C 3.035156 -5.253906 2.507812 -6.203125 2.09375 -7.265625 C 1.675781 -8.328125 1.363281 -9.425781 1.15625 -10.5625 C 0.957031 -11.707031 0.828125 -12.828125 0.765625 -13.921875 C 0.703125 -15.023438 0.703125 -16.035156 0.765625 -16.953125 C 0.796875 -17.648438 0.878906 -18.5625 1.015625 -19.6875 C 1.160156 -20.8125 1.390625 -21.914062 1.703125 -23 C 2.023438 -24.082031 2.472656 -24.992188 3.046875 -25.734375 C 3.617188 -26.484375 4.363281 -26.828125 5.28125 -26.765625 C 5.882812 -26.734375 6.375 -26.46875 6.75 -25.96875 C 7.132812 -25.476562 7.445312 -24.867188 7.6875 -24.140625 C 7.925781 -23.410156 8.097656 -22.609375 8.203125 -21.734375 C 8.316406 -20.867188 8.390625 -20.003906 8.421875 -19.140625 C 8.460938 -18.285156 8.472656 -17.5 8.453125 -16.78125 C 8.429688 -16.070312 8.421875 -15.523438 8.421875 -15.140625 C 8.421875 -14.597656 8.4375 -14.054688 8.46875 -13.515625 C 8.507812 -12.984375 8.625 -12.5 8.8125 -12.0625 C 9 -11.632812 9.289062 -11.296875 9.6875 -11.046875 C 10.082031 -10.796875 10.644531 -10.671875 11.375 -10.671875 C 12.207031 -10.671875 12.867188 -10.875 13.359375 -11.28125 C 13.847656 -11.695312 14.210938 -12.210938 14.453125 -12.828125 C 14.691406 -13.453125 14.84375 -14.117188 14.90625 -14.828125 C 14.96875 -15.546875 15 -16.222656 15 -16.859375 C 15 -17.304688 15 -17.847656 15 -18.484375 C 15 -19.117188 15.003906 -19.785156 15.015625 -20.484375 C 15.035156 -21.179688 15.097656 -21.867188 15.203125 -22.546875 C 15.316406 -23.234375 15.492188 -23.851562 15.734375 -24.40625 C 15.972656 -24.957031 16.289062 -25.40625 16.6875 -25.75 C 17.082031 -26.101562 17.597656 -26.28125 18.234375 -26.28125 C 19.035156 -26.28125 19.71875 -25.972656 20.28125 -25.359375 C 20.851562 -24.742188 21.335938 -23.9375 21.734375 -22.9375 C 22.128906 -21.9375 22.445312 -20.832031 22.6875 -19.625 C 22.925781 -18.414062 23.109375 -17.210938 23.234375 -16.015625 C 23.367188 -14.828125 23.457031 -13.734375 23.5 -12.734375 C 23.550781 -11.734375 23.578125 -10.945312 23.578125 -10.375 C 23.578125 -9.039062 23.523438 -7.523438 23.421875 -5.828125 C 23.328125 -4.128906 23.144531 -2.382812 22.875 -0.59375 C 22.613281 1.195312 22.210938 2.957031 21.671875 4.6875 C 21.128906 6.414062 20.421875 7.960938 19.546875 9.328125 C 18.671875 10.691406 17.597656 11.785156 16.328125 12.609375 C 15.054688 13.441406 13.535156 13.859375 11.765625 13.859375 Z M 11.765625 13.859375 "/></g></g></g><g fill="#304732" fill-opacity="1"><g transform="translate(161.496146, 58.965152)"><g><path d="M 21.375 -8.484375 C 21.375 -7.398438 21.03125 -6.34375 20.34375 -5.3125 C 19.664062 -4.28125 18.8125 -3.359375 17.78125 -2.546875 C 16.75 -1.734375 15.644531 -1.082031 14.46875 -0.59375 C 13.300781 -0.101562 12.222656 0.140625 11.234375 0.140625 C 9.554688 0.140625 8.054688 -0.273438 6.734375 -1.109375 C 5.421875 -1.953125 4.316406 -3.023438 3.421875 -4.328125 C 2.535156 -5.628906 1.863281 -7.066406 1.40625 -8.640625 C 0.945312 -10.210938 0.71875 -11.742188 0.71875 -13.234375 C 0.71875 -14.828125 0.9375 -16.523438 1.375 -18.328125 C 1.820312 -20.140625 2.5 -21.804688 3.40625 -23.328125 C 4.3125 -24.859375 5.453125 -26.128906 6.828125 -27.140625 C 8.210938 -28.160156 9.859375 -28.671875 11.765625 -28.671875 C 12.835938 -28.671875 13.863281 -28.488281 14.84375 -28.125 C 15.832031 -27.757812 16.691406 -27.242188 17.421875 -26.578125 C 18.160156 -25.910156 18.75 -25.113281 19.1875 -24.1875 C 19.632812 -23.269531 19.859375 -22.238281 19.859375 -21.09375 C 19.859375 -19.601562 19.539062 -18.207031 18.90625 -16.90625 C 18.269531 -15.601562 17.425781 -14.472656 16.375 -13.515625 C 15.332031 -12.566406 14.128906 -11.796875 12.765625 -11.203125 C 11.398438 -10.617188 10.003906 -10.296875 8.578125 -10.234375 C 8.703125 -9.316406 9.070312 -8.648438 9.6875 -8.234375 C 10.3125 -7.828125 11.050781 -7.625 11.90625 -7.625 C 12.539062 -7.625 13.160156 -7.78125 13.765625 -8.09375 C 14.367188 -8.414062 14.953125 -8.773438 15.515625 -9.171875 C 16.085938 -9.566406 16.648438 -9.921875 17.203125 -10.234375 C 17.765625 -10.554688 18.332031 -10.71875 18.90625 -10.71875 C 19.539062 -10.71875 20.109375 -10.507812 20.609375 -10.09375 C 21.117188 -9.6875 21.375 -9.148438 21.375 -8.484375 Z M 13.671875 -20.140625 C 13.671875 -20.554688 13.554688 -20.984375 13.328125 -21.421875 C 13.109375 -21.867188 12.757812 -22.09375 12.28125 -22.09375 C 11.582031 -22.09375 10.992188 -21.910156 10.515625 -21.546875 C 10.046875 -21.179688 9.648438 -20.71875 9.328125 -20.15625 C 9.015625 -19.601562 8.769531 -19.007812 8.59375 -18.375 C 8.414062 -17.75 8.3125 -17.164062 8.28125 -16.625 C 8.726562 -16.71875 9.257812 -16.84375 9.875 -17 C 10.5 -17.15625 11.085938 -17.367188 11.640625 -17.640625 C 12.203125 -17.910156 12.679688 -18.25 13.078125 -18.65625 C 13.472656 -19.070312 13.671875 -19.566406 13.671875 -20.140625 Z M 13.671875 -20.140625 "/></g></g></g><g fill="#304732" fill-opacity="1"><g transform="translate(183.352675, 58.965152)"><g><path d="M 21.671875 -6.71875 C 21.671875 -6.144531 21.644531 -5.394531 21.59375 -4.46875 C 21.550781 -3.550781 21.414062 -2.65625 21.1875 -1.78125 C 20.96875 -0.90625 20.617188 -0.15625 20.140625 0.46875 C 19.671875 1.101562 19.003906 1.421875 18.140625 1.421875 C 16.960938 1.421875 16.054688 1.039062 15.421875 0.28125 C 14.796875 -0.476562 14.5 -1.429688 14.53125 -2.578125 C 13.507812 -1.679688 12.351562 -0.976562 11.0625 -0.46875 C 9.78125 0.03125 8.472656 0.28125 7.140625 0.28125 C 6.222656 0.28125 5.347656 0.0625 4.515625 -0.375 C 3.691406 -0.820312 2.960938 -1.394531 2.328125 -2.09375 C 1.691406 -2.789062 1.179688 -3.578125 0.796875 -4.453125 C 0.421875 -5.328125 0.234375 -6.191406 0.234375 -7.046875 C 0.234375 -8.566406 0.703125 -9.898438 1.640625 -11.046875 C 2.578125 -12.191406 3.726562 -13.164062 5.09375 -13.96875 C 6.457031 -14.78125 7.910156 -15.425781 9.453125 -15.90625 C 10.992188 -16.382812 12.367188 -16.703125 13.578125 -16.859375 C 13.578125 -17.015625 13.582031 -17.15625 13.59375 -17.28125 C 13.613281 -17.414062 13.625 -17.5625 13.625 -17.71875 C 13.625 -18.695312 13.351562 -19.488281 12.8125 -20.09375 C 12.269531 -20.695312 11.507812 -21 10.53125 -21 C 9.726562 -21 9.039062 -20.863281 8.46875 -20.59375 C 7.90625 -20.320312 7.367188 -20.019531 6.859375 -19.6875 C 6.347656 -19.351562 5.835938 -19.050781 5.328125 -18.78125 C 4.828125 -18.507812 4.257812 -18.375 3.625 -18.375 C 2.925781 -18.375 2.328125 -18.597656 1.828125 -19.046875 C 1.335938 -19.492188 1.09375 -20.066406 1.09375 -20.765625 C 1.09375 -21.804688 1.398438 -22.753906 2.015625 -23.609375 C 2.640625 -24.472656 3.421875 -25.195312 4.359375 -25.78125 C 5.296875 -26.375 6.3125 -26.835938 7.40625 -27.171875 C 8.5 -27.503906 9.503906 -27.671875 10.421875 -27.671875 C 11.285156 -27.671875 12.144531 -27.566406 13 -27.359375 C 13.851562 -27.148438 14.660156 -26.832031 15.421875 -26.40625 C 16.191406 -25.976562 16.882812 -25.453125 17.5 -24.828125 C 18.125 -24.210938 18.625 -23.492188 19 -22.671875 C 19.570312 -21.492188 20.03125 -20.242188 20.375 -18.921875 C 20.726562 -17.609375 21 -16.257812 21.1875 -14.875 C 21.382812 -13.5 21.515625 -12.117188 21.578125 -10.734375 C 21.640625 -9.359375 21.671875 -8.019531 21.671875 -6.71875 Z M 14.046875 -8.234375 L 13.90625 -11.484375 C 13.84375 -11.484375 13.78125 -11.488281 13.71875 -11.5 C 13.65625 -11.519531 13.59375 -11.53125 13.53125 -11.53125 C 13.113281 -11.53125 12.59375 -11.425781 11.96875 -11.21875 C 11.351562 -11.007812 10.757812 -10.722656 10.1875 -10.359375 C 9.613281 -9.992188 9.128906 -9.585938 8.734375 -9.140625 C 8.335938 -8.703125 8.140625 -8.242188 8.140625 -7.765625 C 8.140625 -7.316406 8.296875 -7.015625 8.609375 -6.859375 C 8.929688 -6.703125 9.300781 -6.625 9.71875 -6.625 C 10.414062 -6.625 11.160156 -6.804688 11.953125 -7.171875 C 12.742188 -7.535156 13.441406 -7.890625 14.046875 -8.234375 Z M 14.046875 -8.234375 "/></g></g></g><g fill="#304732" fill-opacity="1"><g transform="translate(206.447264, 58.965152)"><g><path d="M 17.953125 -17.8125 C 17.503906 -17.78125 17.117188 -17.816406 16.796875 -17.921875 C 16.484375 -18.035156 16.171875 -18.15625 15.859375 -18.28125 C 15.578125 -18.414062 15.289062 -18.535156 15 -18.640625 C 14.71875 -18.753906 14.398438 -18.796875 14.046875 -18.765625 C 13.410156 -18.734375 12.847656 -18.554688 12.359375 -18.234375 C 11.867188 -17.921875 11.421875 -17.523438 11.015625 -17.046875 C 10.617188 -16.566406 10.28125 -16.035156 10 -15.453125 C 9.71875 -14.867188 9.492188 -14.289062 9.328125 -13.71875 C 9.234375 -13.332031 9.160156 -12.75 9.109375 -11.96875 C 9.066406 -11.195312 9.046875 -10.367188 9.046875 -9.484375 C 9.015625 -8.554688 9 -7.679688 9 -6.859375 C 9 -6.035156 8.96875 -5.382812 8.90625 -4.90625 C 8.875 -4.394531 8.796875 -3.796875 8.671875 -3.109375 C 8.546875 -2.429688 8.347656 -1.789062 8.078125 -1.1875 C 7.804688 -0.582031 7.445312 -0.078125 7 0.328125 C 6.550781 0.742188 5.976562 0.953125 5.28125 0.953125 C 4.738281 0.953125 4.269531 0.789062 3.875 0.46875 C 3.476562 0.15625 3.144531 -0.257812 2.875 -0.78125 C 2.601562 -1.3125 2.378906 -1.925781 2.203125 -2.625 C 2.035156 -3.320312 1.90625 -4.035156 1.8125 -4.765625 C 1.71875 -5.523438 1.644531 -6.285156 1.59375 -7.046875 C 1.550781 -7.804688 1.519531 -8.523438 1.5 -9.203125 C 1.476562 -9.890625 1.476562 -10.519531 1.5 -11.09375 C 1.519531 -11.664062 1.53125 -12.128906 1.53125 -12.484375 C 1.488281 -13.585938 1.425781 -14.703125 1.34375 -15.828125 C 1.269531 -16.960938 1.234375 -18.082031 1.234375 -19.1875 C 1.234375 -19.882812 1.265625 -20.660156 1.328125 -21.515625 C 1.390625 -22.378906 1.5625 -23.179688 1.84375 -23.921875 C 2.132812 -24.671875 2.554688 -25.300781 3.109375 -25.8125 C 3.671875 -26.320312 4.441406 -26.578125 5.421875 -26.578125 C 5.960938 -26.578125 6.421875 -26.398438 6.796875 -26.046875 C 7.179688 -25.703125 7.492188 -25.273438 7.734375 -24.765625 C 7.972656 -24.253906 8.15625 -23.710938 8.28125 -23.140625 C 8.414062 -22.566406 8.5 -22.046875 8.53125 -21.578125 C 9.289062 -22.816406 10.144531 -23.820312 11.09375 -24.59375 C 12.050781 -25.375 13.289062 -25.796875 14.8125 -25.859375 C 15.570312 -25.890625 16.320312 -25.816406 17.0625 -25.640625 C 17.8125 -25.472656 18.492188 -25.1875 19.109375 -24.78125 C 19.734375 -24.382812 20.242188 -23.867188 20.640625 -23.234375 C 21.035156 -22.597656 21.25 -21.851562 21.28125 -21 C 21.34375 -19.988281 21.039062 -19.210938 20.375 -18.671875 C 19.707031 -18.128906 18.898438 -17.84375 17.953125 -17.8125 Z M 17.953125 -17.8125 "/></g></g></g><g fill="#304732" fill-opacity="1"><g transform="translate(227.018114, 58.965152)"><g><path d="M 15.375 -26.1875 C 15.375 -25.269531 15.066406 -24.585938 14.453125 -24.140625 C 13.835938 -23.703125 13.144531 -23.28125 12.375 -22.875 C 11.613281 -22.476562 10.921875 -22.007812 10.296875 -21.46875 C 9.679688 -20.9375 9.375 -20.128906 9.375 -19.046875 C 9.375 -18.472656 9.507812 -17.976562 9.78125 -17.5625 C 10.050781 -17.15625 10.382812 -16.785156 10.78125 -16.453125 C 11.175781 -16.117188 11.613281 -15.773438 12.09375 -15.421875 C 12.570312 -15.078125 13.007812 -14.679688 13.40625 -14.234375 C 13.800781 -13.796875 14.132812 -13.257812 14.40625 -12.625 C 14.675781 -11.988281 14.8125 -11.207031 14.8125 -10.28125 C 14.8125 -8.945312 14.46875 -7.632812 13.78125 -6.34375 C 13.101562 -5.0625 12.234375 -3.921875 11.171875 -2.921875 C 10.109375 -1.921875 8.910156 -1.117188 7.578125 -0.515625 C 6.242188 0.078125 4.925781 0.375 3.625 0.375 C 3.082031 0.375 2.539062 0.332031 2 0.25 C 1.457031 0.175781 0.972656 0.03125 0.546875 -0.1875 C 0.117188 -0.414062 -0.234375 -0.726562 -0.515625 -1.125 C -0.804688 -1.519531 -0.953125 -2.035156 -0.953125 -2.671875 C -0.953125 -3.554688 -0.773438 -4.242188 -0.421875 -4.734375 C -0.078125 -5.234375 0.363281 -5.625 0.90625 -5.90625 C 1.445312 -6.1875 2.023438 -6.40625 2.640625 -6.5625 C 3.265625 -6.726562 3.84375 -6.929688 4.375 -7.171875 C 4.914062 -7.410156 5.359375 -7.71875 5.703125 -8.09375 C 6.054688 -8.476562 6.234375 -9.019531 6.234375 -9.71875 C 6.234375 -10.382812 5.972656 -11.070312 5.453125 -11.78125 C 4.929688 -12.5 4.351562 -13.257812 3.71875 -14.0625 C 3.082031 -14.875 2.5 -15.738281 1.96875 -16.65625 C 1.445312 -17.582031 1.1875 -18.601562 1.1875 -19.71875 C 1.1875 -21.082031 1.460938 -22.34375 2.015625 -23.5 C 2.578125 -24.65625 3.328125 -25.660156 4.265625 -26.515625 C 5.203125 -27.378906 6.269531 -28.054688 7.46875 -28.546875 C 8.675781 -29.035156 9.945312 -29.28125 11.28125 -29.28125 C 11.789062 -29.28125 12.289062 -29.234375 12.78125 -29.140625 C 13.28125 -29.046875 13.71875 -28.878906 14.09375 -28.640625 C 14.476562 -28.398438 14.785156 -28.082031 15.015625 -27.6875 C 15.253906 -27.289062 15.375 -26.789062 15.375 -26.1875 Z M 15.375 -26.1875 "/></g></g></g></svg>