<svg xmlns="http://www.w3.org/2000/svg" xmlns:xlink="http://www.w3.org/1999/xlink" width="324" zoomAndPan="magnify" viewBox="0 0 242.87999 70.499998" height="94" preserveAspectRatio="xMidYMid meet" version="1.0"><defs><g/></defs><g fill="#304732" fill-opacity="1"><g transform="translate(6.946435, 34.074901)"><g><path d="M 9.3125 -1.359375 C 10.300781 -1.359375 11.242188 -1.550781 12.140625 -1.9375 C 13.035156 -2.332031 13.785156 -2.867188 14.390625 -3.546875 L 15.53125 -2.375 C 14.738281 -1.550781 13.796875 -0.90625 12.703125 -0.4375 C 11.609375 0.0195312 10.460938 0.25 9.265625 0.25 C 8.109375 0.25 7.023438 0.0351562 6.015625 -0.390625 C 5.003906 -0.816406 4.128906 -1.394531 3.390625 -2.125 C 2.648438 -2.863281 2.066406 -3.738281 1.640625 -4.75 C 1.210938 -5.757812 1 -6.832031 1 -7.96875 C 1 -9.101562 1.210938 -10.175781 1.640625 -11.1875 C 2.066406 -12.195312 2.648438 -13.066406 3.390625 -13.796875 C 4.128906 -14.535156 5.003906 -15.117188 6.015625 -15.546875 C 7.023438 -15.972656 8.109375 -16.1875 9.265625 -16.1875 C 10.492188 -16.1875 11.65625 -15.953125 12.75 -15.484375 C 13.851562 -15.023438 14.796875 -14.382812 15.578125 -13.5625 L 14.40625 -12.34375 C 13.789062 -13.039062 13.019531 -13.582031 12.09375 -13.96875 C 11.175781 -14.363281 10.234375 -14.5625 9.265625 -14.5625 C 8.359375 -14.5625 7.503906 -14.390625 6.703125 -14.046875 C 5.910156 -13.710938 5.222656 -13.253906 4.640625 -12.671875 C 4.066406 -12.085938 3.613281 -11.390625 3.28125 -10.578125 C 2.945312 -9.765625 2.78125 -8.894531 2.78125 -7.96875 C 2.78125 -7.039062 2.945312 -6.171875 3.28125 -5.359375 C 3.613281 -4.546875 4.070312 -3.847656 4.65625 -3.265625 C 5.238281 -2.679688 5.925781 -2.21875 6.71875 -1.875 C 7.519531 -1.53125 8.382812 -1.359375 9.3125 -1.359375 Z M 9.3125 -1.359375 "/></g></g></g><g fill="#304732" fill-opacity="1"><g transform="translate(28.379038, 34.074901)"><g><path d="M 1.75 0 L 1.75 -15.9375 L 3.5 -15.9375 L 3.5 -8.8125 L 12.765625 -8.8125 L 12.765625 -15.9375 L 14.53125 -15.9375 L 14.53125 0 L 12.765625 0 L 12.765625 -7.234375 L 3.5 -7.234375 L 3.5 0 Z M 1.75 0 "/></g></g></g><g fill="#304732" fill-opacity="1"><g transform="translate(49.652392, 34.074901)"><g><path d="M 1.75 0 L 1.75 -15.9375 L 3.5 -15.9375 L 3.5 0 Z M 1.75 0 "/></g></g></g><g fill="#304732" fill-opacity="1"><g transform="translate(59.91531, 34.074901)"><g><path d="M 1.75 0 L 1.75 -15.9375 L 3.5 -15.9375 L 3.5 -1.578125 L 13 -1.578125 L 13 0 Z M 1.75 0 "/></g></g></g><g fill="#304732" fill-opacity="1"><g transform="translate(78.663549, 34.074901)"><g><path d="M 1.75 0 L 1.75 -15.9375 L 7.015625 -15.9375 C 8.210938 -15.9375 9.328125 -15.734375 10.359375 -15.328125 C 11.390625 -14.929688 12.273438 -14.382812 13.015625 -13.6875 C 13.765625 -12.988281 14.347656 -12.148438 14.765625 -11.171875 C 15.179688 -10.191406 15.390625 -9.125 15.390625 -7.96875 C 15.390625 -6.8125 15.179688 -5.742188 14.765625 -4.765625 C 14.347656 -3.785156 13.769531 -2.945312 13.03125 -2.25 C 12.289062 -1.550781 11.40625 -1 10.375 -0.59375 C 9.34375 -0.195312 8.222656 0 7.015625 0 Z M 7.109375 -14.34375 L 3.5 -14.34375 L 3.5 -1.59375 L 7.109375 -1.59375 C 8.015625 -1.59375 8.867188 -1.753906 9.671875 -2.078125 C 10.472656 -2.410156 11.160156 -2.859375 11.734375 -3.421875 C 12.316406 -3.992188 12.773438 -4.671875 13.109375 -5.453125 C 13.441406 -6.234375 13.609375 -7.070312 13.609375 -7.96875 C 13.609375 -8.863281 13.441406 -9.703125 13.109375 -10.484375 C 12.773438 -11.265625 12.316406 -11.9375 11.734375 -12.5 C 11.160156 -13.070312 10.472656 -13.519531 9.671875 -13.84375 C 8.867188 -14.175781 8.015625 -14.34375 7.109375 -14.34375 Z M 7.109375 -14.34375 "/></g></g></g><g fill="#304732" fill-opacity="1"><g transform="translate(100.050654, 34.074901)"><g><path d="M 1.75 0 L 1.75 -15.9375 L 8.578125 -15.9375 C 10.128906 -15.9375 11.378906 -15.515625 12.328125 -14.671875 C 13.285156 -13.828125 13.765625 -12.722656 13.765625 -11.359375 C 13.765625 -10.316406 13.457031 -9.414062 12.84375 -8.65625 C 12.226562 -7.894531 11.40625 -7.367188 10.375 -7.078125 L 13.953125 0 L 12.015625 0 L 8.609375 -6.859375 L 3.5 -6.859375 L 3.5 0 Z M 8.46875 -14.359375 L 3.5 -14.359375 L 3.5 -8.328125 L 8.46875 -8.328125 C 9.53125 -8.328125 10.382812 -8.601562 11.03125 -9.15625 C 11.6875 -9.71875 12.015625 -10.453125 12.015625 -11.359375 C 12.015625 -12.265625 11.6875 -12.988281 11.03125 -13.53125 C 10.382812 -14.082031 9.53125 -14.359375 8.46875 -14.359375 Z M 8.46875 -14.359375 "/></g></g></g><g fill="#304732" fill-opacity="1"><g transform="translate(119.731593, 34.074901)"><g><path d="M 1.75 0 L 1.75 -15.9375 L 13.15625 -15.9375 L 13.15625 -14.390625 L 3.5 -14.390625 L 3.5 -8.8125 L 9.8125 -8.8125 L 9.8125 -7.28125 L 3.5 -7.28125 L 3.5 -1.546875 L 13.25 -1.546875 L 13.25 0 Z M 1.75 0 "/></g></g></g><g fill="#304732" fill-opacity="1"><g transform="translate(138.752817, 34.074901)"><g><path d="M 1.75 -15.9375 L 3.5 -15.9375 L 13.09375 -3 L 13.09375 -15.9375 L 14.75 -15.9375 L 14.75 0 L 13.203125 0 L 3.421875 -13.265625 L 3.421875 0 L 1.75 0 Z M 1.75 -15.9375 "/></g></g></g><g fill="#304732" fill-opacity="1"><g transform="translate(160.253659, 34.074901)"><g/></g></g><g fill="#304732" fill-opacity="1"><g transform="translate(170.152596, 34.074901)"><g><path d="M 0.09375 0 L 6.71875 -15.9375 L 8.828125 -15.9375 L 15.359375 0 L 13.453125 0 L 11.453125 -5.015625 L 3.9375 -5.015625 L 1.90625 0 Z M 4.546875 -6.515625 L 10.84375 -6.515625 L 7.71875 -14.296875 Z M 4.546875 -6.515625 "/></g></g></g><g fill="#304732" fill-opacity="1"><g transform="translate(190.606996, 34.074901)"><g><path d="M 1.75 -15.9375 L 3.5 -15.9375 L 13.09375 -3 L 13.09375 -15.9375 L 14.75 -15.9375 L 14.75 0 L 13.203125 0 L 3.421875 -13.265625 L 3.421875 0 L 1.75 0 Z M 1.75 -15.9375 "/></g></g></g><g fill="#304732" fill-opacity="1"><g transform="translate(212.107838, 34.074901)"><g><path d="M 1.75 0 L 1.75 -15.9375 L 7.015625 -15.9375 C 8.210938 -15.9375 9.328125 -15.734375 10.359375 -15.328125 C 11.390625 -14.929688 12.273438 -14.382812 13.015625 -13.6875 C 13.765625 -12.988281 14.347656 -12.148438 14.765625 -11.171875 C 15.179688 -10.191406 15.390625 -9.125 15.390625 -7.96875 C 15.390625 -6.8125 15.179688 -5.742188 14.765625 -4.765625 C 14.347656 -3.785156 13.769531 -2.945312 13.03125 -2.25 C 12.289062 -1.550781 11.40625 -1 10.375 -0.59375 C 9.34375 -0.195312 8.222656 0 7.015625 0 Z M 7.109375 -14.34375 L 3.5 -14.34375 L 3.5 -1.59375 L 7.109375 -1.59375 C 8.015625 -1.59375 8.867188 -1.753906 9.671875 -2.078125 C 10.472656 -2.410156 11.160156 -2.859375 11.734375 -3.421875 C 12.316406 -3.992188 12.773438 -4.671875 13.109375 -5.453125 C 13.441406 -6.234375 13.609375 -7.070312 13.609375 -7.96875 C 13.609375 -8.863281 13.441406 -9.703125 13.109375 -10.484375 C 12.773438 -11.265625 12.316406 -11.9375 11.734375 -12.5 C 11.160156 -13.070312 10.472656 -13.519531 9.671875 -13.84375 C 8.867188 -14.175781 8.015625 -14.34375 7.109375 -14.34375 Z M 7.109375 -14.34375 "/></g></g></g><g fill="#304732" fill-opacity="1"><g transform="translate(6.946435, 58.650604)"><g><path d="M 6.0625 0 L 6.0625 -6.140625 L 0.0625 -15.09375 L 2 -15.09375 L 6.9375 -7.609375 L 11.859375 -15.09375 L 13.734375 -15.09375 L 7.71875 -6.078125 L 7.71875 0 Z M 6.0625 0 "/></g></g></g><g fill="#304732" fill-opacity="1"><g transform="translate(25.460384, 58.650604)"><g><path d="M 16.5 -7.546875 C 16.5 -6.472656 16.296875 -5.457031 15.890625 -4.5 C 15.484375 -3.539062 14.929688 -2.710938 14.234375 -2.015625 C 13.546875 -1.316406 12.722656 -0.765625 11.765625 -0.359375 C 10.816406 0.0351562 9.804688 0.234375 8.734375 0.234375 C 7.648438 0.234375 6.628906 0.0351562 5.671875 -0.359375 C 4.722656 -0.765625 3.898438 -1.316406 3.203125 -2.015625 C 2.503906 -2.710938 1.953125 -3.539062 1.546875 -4.5 C 1.148438 -5.457031 0.953125 -6.472656 0.953125 -7.546875 C 0.953125 -8.628906 1.148438 -9.644531 1.546875 -10.59375 C 1.953125 -11.550781 2.503906 -12.378906 3.203125 -13.078125 C 3.898438 -13.773438 4.722656 -14.320312 5.671875 -14.71875 C 6.628906 -15.125 7.648438 -15.328125 8.734375 -15.328125 C 9.804688 -15.328125 10.816406 -15.125 11.765625 -14.71875 C 12.722656 -14.320312 13.546875 -13.773438 14.234375 -13.078125 C 14.929688 -12.378906 15.484375 -11.550781 15.890625 -10.59375 C 16.296875 -9.644531 16.5 -8.628906 16.5 -7.546875 Z M 14.8125 -7.546875 C 14.8125 -8.421875 14.648438 -9.242188 14.328125 -10.015625 C 14.015625 -10.785156 13.585938 -11.445312 13.046875 -12 C 12.515625 -12.550781 11.875 -12.988281 11.125 -13.3125 C 10.375 -13.632812 9.578125 -13.796875 8.734375 -13.796875 C 7.867188 -13.796875 7.0625 -13.632812 6.3125 -13.3125 C 5.570312 -12.988281 4.929688 -12.550781 4.390625 -12 C 3.847656 -11.445312 3.414062 -10.785156 3.09375 -10.015625 C 2.78125 -9.242188 2.625 -8.421875 2.625 -7.546875 C 2.625 -6.671875 2.78125 -5.851562 3.09375 -5.09375 C 3.414062 -4.332031 3.847656 -3.671875 4.390625 -3.109375 C 4.929688 -2.546875 5.570312 -2.101562 6.3125 -1.78125 C 7.0625 -1.457031 7.867188 -1.296875 8.734375 -1.296875 C 9.578125 -1.296875 10.375 -1.457031 11.125 -1.78125 C 11.875 -2.101562 12.515625 -2.546875 13.046875 -3.109375 C 13.585938 -3.671875 14.015625 -4.332031 14.328125 -5.09375 C 14.648438 -5.851562 14.8125 -6.671875 14.8125 -7.546875 Z M 14.8125 -7.546875 "/></g></g></g><g fill="#304732" fill-opacity="1"><g transform="translate(47.637891, 58.650604)"><g><path d="M 13.828125 -6.375 C 13.828125 -4.363281 13.257812 -2.757812 12.125 -1.5625 C 11 -0.363281 9.488281 0.234375 7.59375 0.234375 C 5.675781 0.234375 4.15625 -0.359375 3.03125 -1.546875 C 1.914062 -2.742188 1.359375 -4.351562 1.359375 -6.375 L 1.359375 -15.09375 L 3.015625 -15.09375 L 3.015625 -6.375 C 3.015625 -4.84375 3.429688 -3.613281 4.265625 -2.6875 C 5.097656 -1.757812 6.207031 -1.296875 7.59375 -1.296875 C 8.96875 -1.296875 10.070312 -1.757812 10.90625 -2.6875 C 11.738281 -3.613281 12.15625 -4.84375 12.15625 -6.375 L 12.15625 -15.09375 L 13.828125 -15.09375 Z M 13.828125 -6.375 "/></g></g></g><g fill="#304732" fill-opacity="1"><g transform="translate(67.552611, 58.650604)"><g><path d="M 1.65625 -15.09375 L 3.328125 -15.09375 L 12.40625 -2.84375 L 12.40625 -15.09375 L 13.96875 -15.09375 L 13.96875 0 L 12.5 0 L 3.234375 -12.578125 L 3.234375 0 L 1.65625 0 Z M 1.65625 -15.09375 "/></g></g></g><g fill="#304732" fill-opacity="1"><g transform="translate(87.919887, 58.650604)"><g><path d="M 16.078125 -7.21875 C 16.078125 -6.175781 15.890625 -5.195312 15.515625 -4.28125 C 15.148438 -3.363281 14.632812 -2.570312 13.96875 -1.90625 C 13.3125 -1.25 12.535156 -0.726562 11.640625 -0.34375 C 10.753906 0.0390625 9.789062 0.234375 8.75 0.234375 C 7.675781 0.234375 6.660156 0.03125 5.703125 -0.375 C 4.742188 -0.78125 3.914062 -1.332031 3.21875 -2.03125 C 2.519531 -2.726562 1.96875 -3.550781 1.5625 -4.5 C 1.15625 -5.457031 0.953125 -6.472656 0.953125 -7.546875 C 0.953125 -8.628906 1.148438 -9.644531 1.546875 -10.59375 C 1.953125 -11.539062 2.503906 -12.363281 3.203125 -13.0625 C 3.898438 -13.757812 4.722656 -14.3125 5.671875 -14.71875 C 6.628906 -15.125 7.648438 -15.328125 8.734375 -15.328125 C 9.898438 -15.328125 11 -15.109375 12.03125 -14.671875 C 13.0625 -14.234375 13.945312 -13.625 14.6875 -12.84375 L 13.5625 -11.703125 C 12.988281 -12.367188 12.269531 -12.882812 11.40625 -13.25 C 10.539062 -13.613281 9.648438 -13.796875 8.734375 -13.796875 C 7.867188 -13.796875 7.0625 -13.632812 6.3125 -13.3125 C 5.570312 -12.988281 4.929688 -12.550781 4.390625 -12 C 3.847656 -11.445312 3.414062 -10.785156 3.09375 -10.015625 C 2.78125 -9.242188 2.625 -8.421875 2.625 -7.546875 C 2.625 -6.671875 2.78125 -5.847656 3.09375 -5.078125 C 3.414062 -4.304688 3.847656 -3.644531 4.390625 -3.09375 C 4.929688 -2.539062 5.570312 -2.101562 6.3125 -1.78125 C 7.0625 -1.457031 7.867188 -1.296875 8.734375 -1.296875 C 9.492188 -1.296875 10.207031 -1.421875 10.875 -1.671875 C 11.539062 -1.929688 12.125 -2.285156 12.625 -2.734375 C 13.125 -3.191406 13.53125 -3.738281 13.84375 -4.375 C 14.15625 -5.007812 14.34375 -5.691406 14.40625 -6.421875 L 8.984375 -6.421875 L 8.984375 -7.890625 L 16.078125 -7.890625 Z M 16.078125 -7.21875 "/></g></g></g><g fill="#304732" fill-opacity="1"><g transform="translate(109.644829, 58.650604)"><g/></g></g><g fill="#304732" fill-opacity="1"><g transform="translate(119.02142, 58.650604)"><g><path d="M 0.09375 0 L 6.359375 -15.09375 L 8.359375 -15.09375 L 14.5625 0 L 12.75 0 L 10.84375 -4.75 L 3.734375 -4.75 L 1.8125 0 Z M 4.3125 -6.171875 L 10.265625 -6.171875 L 7.3125 -13.546875 Z M 4.3125 -6.171875 "/></g></g></g><g fill="#304732" fill-opacity="1"><g transform="translate(138.397379, 58.650604)"><g><path d="M 1.65625 0 L 1.65625 -15.09375 L 6.640625 -15.09375 C 7.773438 -15.09375 8.832031 -14.898438 9.8125 -14.515625 C 10.789062 -14.140625 11.628906 -13.617188 12.328125 -12.953125 C 13.035156 -12.296875 13.585938 -11.503906 13.984375 -10.578125 C 14.378906 -9.648438 14.578125 -8.640625 14.578125 -7.546875 C 14.578125 -6.453125 14.378906 -5.441406 13.984375 -4.515625 C 13.585938 -3.585938 13.039062 -2.789062 12.34375 -2.125 C 11.644531 -1.46875 10.804688 -0.945312 9.828125 -0.5625 C 8.847656 -0.1875 7.785156 0 6.640625 0 Z M 6.734375 -13.578125 L 3.328125 -13.578125 L 3.328125 -1.515625 L 6.734375 -1.515625 C 7.585938 -1.515625 8.394531 -1.664062 9.15625 -1.96875 C 9.925781 -2.28125 10.582031 -2.703125 11.125 -3.234375 C 11.675781 -3.773438 12.109375 -4.414062 12.421875 -5.15625 C 12.734375 -5.90625 12.890625 -6.703125 12.890625 -7.546875 C 12.890625 -8.390625 12.734375 -9.179688 12.421875 -9.921875 C 12.109375 -10.671875 11.675781 -11.3125 11.125 -11.84375 C 10.582031 -12.382812 9.925781 -12.804688 9.15625 -13.109375 C 8.394531 -13.421875 7.585938 -13.578125 6.734375 -13.578125 Z M 6.734375 -13.578125 "/></g></g></g><g fill="#304732" fill-opacity="1"><g transform="translate(158.656895, 58.650604)"><g><path d="M 13.828125 -6.375 C 13.828125 -4.363281 13.257812 -2.757812 12.125 -1.5625 C 11 -0.363281 9.488281 0.234375 7.59375 0.234375 C 5.675781 0.234375 4.15625 -0.359375 3.03125 -1.546875 C 1.914062 -2.742188 1.359375 -4.351562 1.359375 -6.375 L 1.359375 -15.09375 L 3.015625 -15.09375 L 3.015625 -6.375 C 3.015625 -4.84375 3.429688 -3.613281 4.265625 -2.6875 C 5.097656 -1.757812 6.207031 -1.296875 7.59375 -1.296875 C 8.96875 -1.296875 10.070312 -1.757812 10.90625 -2.6875 C 11.738281 -3.613281 12.15625 -4.84375 12.15625 -6.375 L 12.15625 -15.09375 L 13.828125 -15.09375 Z M 13.828125 -6.375 "/></g></g></g><g fill="#304732" fill-opacity="1"><g transform="translate(178.571608, 58.650604)"><g><path d="M 1.65625 0 L 1.65625 -15.09375 L 3.328125 -15.09375 L 3.328125 -1.484375 L 12.3125 -1.484375 L 12.3125 0 Z M 1.65625 0 "/></g></g></g><g fill="#304732" fill-opacity="1"><g transform="translate(196.331291, 58.650604)"><g><path d="M 0.359375 -13.609375 L 0.359375 -15.09375 L 12.9375 -15.09375 L 12.9375 -13.609375 L 7.484375 -13.609375 L 7.484375 0 L 5.828125 0 L 5.828125 -13.609375 Z M 0.359375 -13.609375 "/></g></g></g><g fill="#304732" fill-opacity="1"><g transform="translate(214.37113, 58.650604)"><g><path d="M 0.234375 -2.59375 L 1.34375 -3.734375 C 2.113281 -2.910156 2.941406 -2.285156 3.828125 -1.859375 C 4.710938 -1.441406 5.644531 -1.234375 6.625 -1.234375 C 7.800781 -1.234375 8.769531 -1.507812 9.53125 -2.0625 C 10.289062 -2.625 10.671875 -3.335938 10.671875 -4.203125 C 10.671875 -4.984375 10.398438 -5.582031 9.859375 -6 C 9.328125 -6.414062 8.441406 -6.722656 7.203125 -6.921875 L 5.03125 -7.265625 C 3.570312 -7.492188 2.5 -7.921875 1.8125 -8.546875 C 1.125 -9.171875 0.78125 -10.015625 0.78125 -11.078125 C 0.78125 -12.328125 1.265625 -13.335938 2.234375 -14.109375 C 3.210938 -14.890625 4.492188 -15.28125 6.078125 -15.28125 C 7.128906 -15.28125 8.171875 -15.109375 9.203125 -14.765625 C 10.242188 -14.421875 11.1875 -13.925781 12.03125 -13.28125 L 11.078125 -11.984375 C 10.265625 -12.609375 9.429688 -13.078125 8.578125 -13.390625 C 7.734375 -13.703125 6.878906 -13.859375 6.015625 -13.859375 C 4.941406 -13.859375 4.066406 -13.609375 3.390625 -13.109375 C 2.722656 -12.617188 2.390625 -11.988281 2.390625 -11.21875 C 2.390625 -10.507812 2.625 -9.96875 3.09375 -9.59375 C 3.570312 -9.21875 4.359375 -8.945312 5.453125 -8.78125 L 7.609375 -8.4375 C 9.242188 -8.15625 10.4375 -7.679688 11.1875 -7.015625 C 11.945312 -6.359375 12.328125 -5.453125 12.328125 -4.296875 C 12.328125 -3.628906 12.1875 -3.019531 11.90625 -2.46875 C 11.632812 -1.914062 11.242188 -1.441406 10.734375 -1.046875 C 10.222656 -0.648438 9.609375 -0.335938 8.890625 -0.109375 C 8.179688 0.109375 7.40625 0.21875 6.5625 0.21875 C 5.363281 0.21875 4.210938 -0.0195312 3.109375 -0.5 C 2.015625 -0.988281 1.054688 -1.6875 0.234375 -2.59375 Z M 0.234375 -2.59375 "/></g></g></g><g fill="#304732" fill-opacity="1"><g transform="translate(7.989041, 9.791816)"><g><path d="M 0.09375 -1 L 0.515625 -1.4375 C 0.816406 -1.125 1.132812 -0.882812 1.46875 -0.71875 C 1.8125 -0.550781 2.171875 -0.46875 2.546875 -0.46875 C 3.003906 -0.46875 3.378906 -0.578125 3.671875 -0.796875 C 3.960938 -1.015625 4.109375 -1.289062 4.109375 -1.625 C 4.109375 -1.914062 4.003906 -2.140625 3.796875 -2.296875 C 3.585938 -2.460938 3.242188 -2.582031 2.765625 -2.65625 L 1.9375 -2.796875 C 1.375 -2.878906 0.957031 -3.039062 0.6875 -3.28125 C 0.425781 -3.53125 0.296875 -3.859375 0.296875 -4.265625 C 0.296875 -4.742188 0.484375 -5.128906 0.859375 -5.421875 C 1.234375 -5.722656 1.726562 -5.875 2.34375 -5.875 C 2.75 -5.875 3.148438 -5.804688 3.546875 -5.671875 C 3.941406 -5.546875 4.300781 -5.359375 4.625 -5.109375 L 4.265625 -4.609375 C 3.953125 -4.847656 3.628906 -5.023438 3.296875 -5.140625 C 2.972656 -5.265625 2.644531 -5.328125 2.3125 -5.328125 C 1.894531 -5.328125 1.554688 -5.234375 1.296875 -5.046875 C 1.046875 -4.859375 0.921875 -4.613281 0.921875 -4.3125 C 0.921875 -4.039062 1.007812 -3.832031 1.1875 -3.6875 C 1.375 -3.539062 1.675781 -3.4375 2.09375 -3.375 L 2.921875 -3.25 C 3.554688 -3.144531 4.019531 -2.960938 4.3125 -2.703125 C 4.601562 -2.453125 4.75 -2.101562 4.75 -1.65625 C 4.75 -1.394531 4.691406 -1.15625 4.578125 -0.9375 C 4.472656 -0.726562 4.320312 -0.546875 4.125 -0.390625 C 3.925781 -0.242188 3.691406 -0.128906 3.421875 -0.046875 C 3.148438 0.0351562 2.847656 0.078125 2.515625 0.078125 C 2.054688 0.078125 1.613281 -0.0078125 1.1875 -0.1875 C 0.769531 -0.375 0.40625 -0.644531 0.09375 -1 Z M 0.09375 -1 "/></g></g></g><g fill="#304732" fill-opacity="1"><g transform="translate(14.481118, 9.791816)"><g><path d="M 0.640625 0 L 0.640625 -5.8125 L 3.15625 -5.8125 C 3.71875 -5.8125 4.171875 -5.65625 4.515625 -5.34375 C 4.859375 -5.039062 5.03125 -4.632812 5.03125 -4.125 C 5.03125 -3.625 4.859375 -3.21875 4.515625 -2.90625 C 4.171875 -2.601562 3.71875 -2.453125 3.15625 -2.453125 L 1.28125 -2.453125 L 1.28125 0 Z M 3.109375 -5.234375 L 1.28125 -5.234375 L 1.28125 -3 L 3.109375 -3 C 3.503906 -3 3.816406 -3.097656 4.046875 -3.296875 C 4.273438 -3.503906 4.390625 -3.78125 4.390625 -4.125 C 4.390625 -4.46875 4.273438 -4.738281 4.046875 -4.9375 C 3.816406 -5.132812 3.503906 -5.234375 3.109375 -5.234375 Z M 3.109375 -5.234375 "/></g></g></g><g fill="#304732" fill-opacity="1"><g transform="translate(21.363379, 9.791816)"><g><path d="M 0.640625 0 L 0.640625 -5.8125 L 4.796875 -5.8125 L 4.796875 -5.25 L 1.28125 -5.25 L 1.28125 -3.203125 L 3.578125 -3.203125 L 3.578125 -2.65625 L 1.28125 -2.65625 L 1.28125 -0.5625 L 4.828125 -0.5625 L 4.828125 0 Z M 0.640625 0 "/></g></g></g><g fill="#304732" fill-opacity="1"><g transform="translate(27.988286, 9.791816)"><g><path d="M 3.390625 -0.5 C 3.753906 -0.5 4.097656 -0.566406 4.421875 -0.703125 C 4.742188 -0.847656 5.019531 -1.046875 5.25 -1.296875 L 5.65625 -0.859375 C 5.375 -0.566406 5.03125 -0.332031 4.625 -0.15625 C 4.226562 0.0078125 3.8125 0.09375 3.375 0.09375 C 2.957031 0.09375 2.5625 0.015625 2.1875 -0.140625 C 1.820312 -0.296875 1.503906 -0.503906 1.234375 -0.765625 C 0.960938 -1.035156 0.75 -1.351562 0.59375 -1.71875 C 0.4375 -2.09375 0.359375 -2.488281 0.359375 -2.90625 C 0.359375 -3.320312 0.4375 -3.710938 0.59375 -4.078125 C 0.75 -4.441406 0.960938 -4.757812 1.234375 -5.03125 C 1.503906 -5.300781 1.820312 -5.515625 2.1875 -5.671875 C 2.5625 -5.828125 2.957031 -5.90625 3.375 -5.90625 C 3.820312 -5.90625 4.242188 -5.816406 4.640625 -5.640625 C 5.046875 -5.472656 5.390625 -5.238281 5.671875 -4.9375 L 5.25 -4.5 C 5.019531 -4.75 4.738281 -4.945312 4.40625 -5.09375 C 4.070312 -5.238281 3.726562 -5.3125 3.375 -5.3125 C 3.039062 -5.3125 2.726562 -5.25 2.4375 -5.125 C 2.15625 -5 1.90625 -4.828125 1.6875 -4.609375 C 1.476562 -4.398438 1.3125 -4.144531 1.1875 -3.84375 C 1.070312 -3.550781 1.015625 -3.238281 1.015625 -2.90625 C 1.015625 -2.5625 1.070312 -2.242188 1.1875 -1.953125 C 1.3125 -1.660156 1.476562 -1.40625 1.6875 -1.1875 C 1.90625 -0.976562 2.160156 -0.8125 2.453125 -0.6875 C 2.742188 -0.5625 3.054688 -0.5 3.390625 -0.5 Z M 3.390625 -0.5 "/></g></g></g><g fill="#304732" fill-opacity="1"><g transform="translate(35.493191, 9.791816)"><g><path d="M 0.640625 0 L 0.640625 -5.8125 L 1.28125 -5.8125 L 1.28125 0 Z M 0.640625 0 "/></g></g></g><g fill="#304732" fill-opacity="1"><g transform="translate(38.921861, 9.791816)"><g><path d="M 0.03125 0 L 2.453125 -5.8125 L 3.21875 -5.8125 L 5.59375 0 L 4.90625 0 L 4.171875 -1.828125 L 1.4375 -1.828125 L 0.703125 0 Z M 1.65625 -2.375 L 3.953125 -2.375 L 2.8125 -5.203125 Z M 1.65625 -2.375 "/></g></g></g><g fill="#304732" fill-opacity="1"><g transform="translate(46.069781, 9.791816)"><g><path d="M 0.640625 0 L 0.640625 -5.8125 L 1.28125 -5.8125 L 1.28125 -0.578125 L 4.734375 -0.578125 L 4.734375 0 Z M 0.640625 0 "/></g></g></g><g fill="#304732" fill-opacity="1"><g transform="translate(52.595057, 9.791816)"><g><path d="M 0.140625 -5.234375 L 0.140625 -5.8125 L 4.984375 -5.8125 L 4.984375 -5.234375 L 2.875 -5.234375 L 2.875 0 L 2.234375 0 L 2.234375 -5.234375 Z M 0.140625 -5.234375 "/></g></g></g><g fill="#304732" fill-opacity="1"><g transform="translate(59.22826, 9.791816)"><g><path d="M 2.328125 0 L 2.328125 -2.359375 L 0.03125 -5.8125 L 0.765625 -5.8125 L 2.671875 -2.921875 L 4.5625 -5.8125 L 5.28125 -5.8125 L 2.96875 -2.34375 L 2.96875 0 Z M 2.328125 0 "/></g></g></g><g fill="#304732" fill-opacity="1"><g transform="translate(66.044109, 9.791816)"><g/></g></g><g fill="#304732" fill-opacity="1"><g transform="translate(69.339949, 9.791816)"><g><path d="M 0.640625 0 L 0.640625 -5.8125 L 4.796875 -5.8125 L 4.796875 -5.25 L 1.28125 -5.25 L 1.28125 -3.203125 L 3.578125 -3.203125 L 3.578125 -2.65625 L 1.28125 -2.65625 L 1.28125 -0.5625 L 4.828125 -0.5625 L 4.828125 0 Z M 0.640625 0 "/></g></g></g><g fill="#304732" fill-opacity="1"><g transform="translate(75.964856, 9.791816)"><g><path d="M 2.328125 0 L 2.328125 -2.359375 L 0.03125 -5.8125 L 0.765625 -5.8125 L 2.671875 -2.921875 L 4.5625 -5.8125 L 5.28125 -5.8125 L 2.96875 -2.34375 L 2.96875 0 Z M 2.328125 0 "/></g></g></g><g fill="#304732" fill-opacity="1"><g transform="translate(82.780705, 9.791816)"><g><path d="M 0.640625 0 L 0.640625 -5.8125 L 4.796875 -5.8125 L 4.796875 -5.25 L 1.28125 -5.25 L 1.28125 -3.203125 L 3.578125 -3.203125 L 3.578125 -2.65625 L 1.28125 -2.65625 L 1.28125 -0.5625 L 4.828125 -0.5625 L 4.828125 0 Z M 0.640625 0 "/></g></g></g><g fill="#304732" fill-opacity="1"><g transform="translate(89.405611, 9.791816)"><g><path d="M 3.390625 -0.5 C 3.753906 -0.5 4.097656 -0.566406 4.421875 -0.703125 C 4.742188 -0.847656 5.019531 -1.046875 5.25 -1.296875 L 5.65625 -0.859375 C 5.375 -0.566406 5.03125 -0.332031 4.625 -0.15625 C 4.226562 0.0078125 3.8125 0.09375 3.375 0.09375 C 2.957031 0.09375 2.5625 0.015625 2.1875 -0.140625 C 1.820312 -0.296875 1.503906 -0.503906 1.234375 -0.765625 C 0.960938 -1.035156 0.75 -1.351562 0.59375 -1.71875 C 0.4375 -2.09375 0.359375 -2.488281 0.359375 -2.90625 C 0.359375 -3.320312 0.4375 -3.710938 0.59375 -4.078125 C 0.75 -4.441406 0.960938 -4.757812 1.234375 -5.03125 C 1.503906 -5.300781 1.820312 -5.515625 2.1875 -5.671875 C 2.5625 -5.828125 2.957031 -5.90625 3.375 -5.90625 C 3.820312 -5.90625 4.242188 -5.816406 4.640625 -5.640625 C 5.046875 -5.472656 5.390625 -5.238281 5.671875 -4.9375 L 5.25 -4.5 C 5.019531 -4.75 4.738281 -4.945312 4.40625 -5.09375 C 4.070312 -5.238281 3.726562 -5.3125 3.375 -5.3125 C 3.039062 -5.3125 2.726562 -5.25 2.4375 -5.125 C 2.15625 -5 1.90625 -4.828125 1.6875 -4.609375 C 1.476562 -4.398438 1.3125 -4.144531 1.1875 -3.84375 C 1.070312 -3.550781 1.015625 -3.238281 1.015625 -2.90625 C 1.015625 -2.5625 1.070312 -2.242188 1.1875 -1.953125 C 1.3125 -1.660156 1.476562 -1.40625 1.6875 -1.1875 C 1.90625 -0.976562 2.160156 -0.8125 2.453125 -0.6875 C 2.742188 -0.5625 3.054688 -0.5 3.390625 -0.5 Z M 3.390625 -0.5 "/></g></g></g><g fill="#304732" fill-opacity="1"><g transform="translate(96.910519, 9.791816)"><g><path d="M 0.03125 0 L 2.453125 -5.8125 L 3.21875 -5.8125 L 5.59375 0 L 4.90625 0 L 4.171875 -1.828125 L 1.4375 -1.828125 L 0.703125 0 Z M 1.65625 -2.375 L 3.953125 -2.375 L 2.8125 -5.203125 Z M 1.65625 -2.375 "/></g></g></g><g fill="#304732" fill-opacity="1"><g transform="translate(104.058444, 9.791816)"><g><path d="M 0.640625 0 L 0.640625 -5.8125 L 3.125 -5.8125 C 3.6875 -5.8125 4.140625 -5.65625 4.484375 -5.34375 C 4.835938 -5.039062 5.015625 -4.640625 5.015625 -4.140625 C 5.015625 -3.753906 4.898438 -3.421875 4.671875 -3.140625 C 4.453125 -2.867188 4.15625 -2.679688 3.78125 -2.578125 L 5.09375 0 L 4.375 0 L 3.140625 -2.5 L 1.28125 -2.5 L 1.28125 0 Z M 3.09375 -5.234375 L 1.28125 -5.234375 L 1.28125 -3.03125 L 3.09375 -3.03125 C 3.476562 -3.03125 3.785156 -3.128906 4.015625 -3.328125 C 4.253906 -3.535156 4.375 -3.804688 4.375 -4.140625 C 4.375 -4.472656 4.253906 -4.738281 4.015625 -4.9375 C 3.785156 -5.132812 3.476562 -5.234375 3.09375 -5.234375 Z M 3.09375 -5.234375 "/></g></g></g><g fill="#304732" fill-opacity="1"><g transform="translate(110.924104, 9.791816)"><g><path d="M 0.640625 0 L 0.640625 -5.8125 L 4.796875 -5.8125 L 4.796875 -5.25 L 1.28125 -5.25 L 1.28125 -3.203125 L 3.578125 -3.203125 L 3.578125 -2.65625 L 1.28125 -2.65625 L 1.28125 -0.5625 L 4.828125 -0.5625 L 4.828125 0 Z M 0.640625 0 "/></g></g></g><g fill="#304732" fill-opacity="1"><g transform="translate(117.549015, 9.791816)"><g/></g></g><g fill="#304732" fill-opacity="1"><g transform="translate(120.844861, 9.791816)"><g><path d="M 0.640625 0 L 0.640625 -5.8125 L 4.796875 -5.8125 L 4.796875 -5.25 L 1.28125 -5.25 L 1.28125 -3.171875 L 3.578125 -3.171875 L 3.578125 -2.609375 L 1.28125 -2.609375 L 1.28125 0 Z M 0.640625 0 "/></g></g></g><g fill="#304732" fill-opacity="1"><g transform="translate(127.395054, 9.791816)"><g><path d="M 6.34375 -2.90625 C 6.34375 -2.488281 6.265625 -2.09375 6.109375 -1.71875 C 5.953125 -1.351562 5.738281 -1.035156 5.46875 -0.765625 C 5.207031 -0.503906 4.894531 -0.296875 4.53125 -0.140625 C 4.164062 0.015625 3.773438 0.09375 3.359375 0.09375 C 2.941406 0.09375 2.550781 0.015625 2.1875 -0.140625 C 1.820312 -0.296875 1.503906 -0.503906 1.234375 -0.765625 C 0.960938 -1.035156 0.75 -1.351562 0.59375 -1.71875 C 0.4375 -2.09375 0.359375 -2.488281 0.359375 -2.90625 C 0.359375 -3.320312 0.4375 -3.710938 0.59375 -4.078125 C 0.75 -4.441406 0.960938 -4.757812 1.234375 -5.03125 C 1.503906 -5.300781 1.820312 -5.515625 2.1875 -5.671875 C 2.550781 -5.828125 2.941406 -5.90625 3.359375 -5.90625 C 3.773438 -5.90625 4.164062 -5.828125 4.53125 -5.671875 C 4.894531 -5.515625 5.207031 -5.300781 5.46875 -5.03125 C 5.738281 -4.757812 5.953125 -4.441406 6.109375 -4.078125 C 6.265625 -3.710938 6.34375 -3.320312 6.34375 -2.90625 Z M 5.703125 -2.90625 C 5.703125 -3.238281 5.640625 -3.550781 5.515625 -3.84375 C 5.390625 -4.144531 5.222656 -4.398438 5.015625 -4.609375 C 4.816406 -4.828125 4.570312 -5 4.28125 -5.125 C 3.988281 -5.25 3.679688 -5.3125 3.359375 -5.3125 C 3.023438 -5.3125 2.710938 -5.25 2.421875 -5.125 C 2.140625 -5 1.894531 -4.828125 1.6875 -4.609375 C 1.476562 -4.398438 1.3125 -4.144531 1.1875 -3.84375 C 1.070312 -3.550781 1.015625 -3.238281 1.015625 -2.90625 C 1.015625 -2.5625 1.070312 -2.242188 1.1875 -1.953125 C 1.3125 -1.660156 1.476562 -1.40625 1.6875 -1.1875 C 1.894531 -0.976562 2.140625 -0.8125 2.421875 -0.6875 C 2.710938 -0.5625 3.023438 -0.5 3.359375 -0.5 C 3.679688 -0.5 3.988281 -0.5625 4.28125 -0.6875 C 4.570312 -0.8125 4.816406 -0.976562 5.015625 -1.1875 C 5.222656 -1.40625 5.390625 -1.660156 5.515625 -1.953125 C 5.640625 -2.242188 5.703125 -2.5625 5.703125 -2.90625 Z M 5.703125 -2.90625 "/></g></g></g><g fill="#304732" fill-opacity="1"><g transform="translate(135.622227, 9.791816)"><g><path d="M 0.640625 0 L 0.640625 -5.8125 L 3.125 -5.8125 C 3.6875 -5.8125 4.140625 -5.65625 4.484375 -5.34375 C 4.835938 -5.039062 5.015625 -4.640625 5.015625 -4.140625 C 5.015625 -3.753906 4.898438 -3.421875 4.671875 -3.140625 C 4.453125 -2.867188 4.15625 -2.679688 3.78125 -2.578125 L 5.09375 0 L 4.375 0 L 3.140625 -2.5 L 1.28125 -2.5 L 1.28125 0 Z M 3.09375 -5.234375 L 1.28125 -5.234375 L 1.28125 -3.03125 L 3.09375 -3.03125 C 3.476562 -3.03125 3.785156 -3.128906 4.015625 -3.328125 C 4.253906 -3.535156 4.375 -3.804688 4.375 -4.140625 C 4.375 -4.472656 4.253906 -4.738281 4.015625 -4.9375 C 3.785156 -5.132812 3.476562 -5.234375 3.09375 -5.234375 Z M 3.09375 -5.234375 "/></g></g></g></svg>