<svg xmlns="http://www.w3.org/2000/svg" xmlns:xlink="http://www.w3.org/1999/xlink" width="967" zoomAndPan="magnify" viewBox="0 0 725.25 88.499997" height="118" preserveAspectRatio="xMidYMid meet" version="1.0"><defs><g/></defs><g fill="#304732" fill-opacity="1"><g transform="translate(10.656222, 69.83611)"><g><path d="M 14.9375 -2.1875 C 16.519531 -2.1875 18.03125 -2.5 19.46875 -3.125 C 20.90625 -3.75 22.113281 -4.609375 23.09375 -5.703125 L 24.921875 -3.796875 C 23.648438 -2.484375 22.132812 -1.453125 20.375 -0.703125 C 18.625 0.0351562 16.789062 0.40625 14.875 0.40625 C 13.019531 0.40625 11.28125 0.0664062 9.65625 -0.609375 C 8.039062 -1.296875 6.632812 -2.226562 5.4375 -3.40625 C 4.25 -4.59375 3.3125 -5.992188 2.625 -7.609375 C 1.945312 -9.234375 1.609375 -10.957031 1.609375 -12.78125 C 1.609375 -14.613281 1.945312 -16.335938 2.625 -17.953125 C 3.3125 -19.578125 4.25 -20.976562 5.4375 -22.15625 C 6.632812 -23.332031 8.039062 -24.257812 9.65625 -24.9375 C 11.28125 -25.625 13.019531 -25.96875 14.875 -25.96875 C 16.84375 -25.96875 18.707031 -25.597656 20.46875 -24.859375 C 22.238281 -24.117188 23.742188 -23.085938 24.984375 -21.765625 L 23.125 -19.796875 C 22.125 -20.921875 20.882812 -21.796875 19.40625 -22.421875 C 17.9375 -23.054688 16.425781 -23.375 14.875 -23.375 C 13.40625 -23.375 12.03125 -23.097656 10.75 -22.546875 C 9.476562 -22.003906 8.378906 -21.265625 7.453125 -20.328125 C 6.523438 -19.390625 5.789062 -18.269531 5.25 -16.96875 C 4.71875 -15.664062 4.453125 -14.269531 4.453125 -12.78125 C 4.453125 -11.300781 4.71875 -9.910156 5.25 -8.609375 C 5.789062 -7.304688 6.53125 -6.179688 7.46875 -5.234375 C 8.40625 -4.296875 9.515625 -3.550781 10.796875 -3 C 12.078125 -2.457031 13.457031 -2.1875 14.9375 -2.1875 Z M 14.9375 -2.1875 "/></g></g></g><g fill="#304732" fill-opacity="1"><g transform="translate(41.919467, 69.83611)"><g><path d="M 2.8125 0 L 2.8125 -25.578125 L 5.625 -25.578125 L 5.625 -14.140625 L 20.5 -14.140625 L 20.5 -25.578125 L 23.3125 -25.578125 L 23.3125 0 L 20.5 0 L 20.5 -11.609375 L 5.625 -11.609375 L 5.625 0 Z M 2.8125 0 "/></g></g></g><g fill="#304732" fill-opacity="1"><g transform="translate(72.927064, 69.83611)"><g><path d="M 2.8125 0 L 2.8125 -25.578125 L 5.625 -25.578125 L 5.625 0 Z M 2.8125 0 "/></g></g></g><g fill="#304732" fill-opacity="1"><g transform="translate(86.258867, 69.83611)"><g><path d="M 2.8125 0 L 2.8125 -25.578125 L 5.625 -25.578125 L 5.625 -2.515625 L 20.859375 -2.515625 L 20.859375 0 Z M 2.8125 0 "/></g></g></g><g fill="#304732" fill-opacity="1"><g transform="translate(113.212716, 69.83611)"><g><path d="M 2.8125 0 L 2.8125 -25.578125 L 11.25 -25.578125 C 13.175781 -25.578125 14.96875 -25.253906 16.625 -24.609375 C 18.28125 -23.960938 19.703125 -23.078125 20.890625 -21.953125 C 22.085938 -20.835938 23.019531 -19.492188 23.6875 -17.921875 C 24.351562 -16.347656 24.6875 -14.632812 24.6875 -12.78125 C 24.6875 -10.9375 24.351562 -9.226562 23.6875 -7.65625 C 23.019531 -6.082031 22.09375 -4.734375 20.90625 -3.609375 C 19.726562 -2.492188 18.3125 -1.613281 16.65625 -0.96875 C 15 -0.320312 13.195312 0 11.25 0 Z M 11.390625 -23.015625 L 5.625 -23.015625 L 5.625 -2.5625 L 11.390625 -2.5625 C 12.859375 -2.5625 14.238281 -2.820312 15.53125 -3.34375 C 16.820312 -3.863281 17.925781 -4.582031 18.84375 -5.5 C 19.769531 -6.414062 20.5 -7.5 21.03125 -8.75 C 21.570312 -10 21.84375 -11.34375 21.84375 -12.78125 C 21.84375 -14.21875 21.570312 -15.5625 21.03125 -16.8125 C 20.5 -18.070312 19.769531 -19.15625 18.84375 -20.0625 C 17.925781 -20.976562 16.820312 -21.695312 15.53125 -22.21875 C 14.238281 -22.75 12.859375 -23.015625 11.390625 -23.015625 Z M 11.390625 -23.015625 "/></g></g></g><g fill="#304732" fill-opacity="1"><g transform="translate(144.402922, 69.83611)"><g><path d="M 2.8125 0 L 2.8125 -25.578125 L 13.765625 -25.578125 C 16.253906 -25.578125 18.265625 -24.898438 19.796875 -23.546875 C 21.328125 -22.191406 22.09375 -20.421875 22.09375 -18.234375 C 22.09375 -16.546875 21.597656 -15.09375 20.609375 -13.875 C 19.628906 -12.664062 18.3125 -11.828125 16.65625 -11.359375 L 22.390625 0 L 19.28125 0 L 13.8125 -11 L 5.625 -11 L 5.625 0 Z M 13.59375 -23.046875 L 5.625 -23.046875 L 5.625 -13.375 L 13.59375 -13.375 C 15.289062 -13.375 16.660156 -13.816406 17.703125 -14.703125 C 18.753906 -15.585938 19.28125 -16.765625 19.28125 -18.234375 C 19.28125 -19.691406 18.753906 -20.859375 17.703125 -21.734375 C 16.660156 -22.609375 15.289062 -23.046875 13.59375 -23.046875 Z M 13.59375 -23.046875 "/></g></g></g><g fill="#304732" fill-opacity="1"><g transform="translate(172.854102, 69.83611)"><g><path d="M 2.8125 0 L 2.8125 -25.578125 L 21.109375 -25.578125 L 21.109375 -23.09375 L 5.625 -23.09375 L 5.625 -14.140625 L 15.75 -14.140625 L 15.75 -11.6875 L 5.625 -11.6875 L 5.625 -2.484375 L 21.265625 -2.484375 L 21.265625 0 Z M 2.8125 0 "/></g></g></g><g fill="#304732" fill-opacity="1"><g transform="translate(200.246198, 69.83611)"><g><path d="M 2.8125 -25.578125 L 5.625 -25.578125 L 21 -4.828125 L 21 -25.578125 L 23.671875 -25.578125 L 23.671875 0 L 21.1875 0 L 5.484375 -21.296875 L 5.484375 0 L 2.8125 0 Z M 2.8125 -25.578125 "/></g></g></g><g fill="#304732" fill-opacity="1"><g transform="translate(231.619016, 69.83611)"><g/></g></g><g fill="#304732" fill-opacity="1"><g transform="translate(244.366484, 69.83611)"><g><path d="M 0.140625 0 L 10.78125 -25.578125 L 14.171875 -25.578125 L 24.65625 0 L 21.59375 0 L 18.375 -8.03125 L 6.3125 -8.03125 L 3.0625 0 Z M 7.3125 -10.453125 L 17.390625 -10.453125 L 12.390625 -22.9375 Z M 7.3125 -10.453125 "/></g></g></g><g fill="#304732" fill-opacity="1"><g transform="translate(274.059359, 69.83611)"><g><path d="M 2.8125 -25.578125 L 5.625 -25.578125 L 21 -4.828125 L 21 -25.578125 L 23.671875 -25.578125 L 23.671875 0 L 21.1875 0 L 5.484375 -21.296875 L 5.484375 0 L 2.8125 0 Z M 2.8125 -25.578125 "/></g></g></g><g fill="#304732" fill-opacity="1"><g transform="translate(305.432165, 69.83611)"><g><path d="M 2.8125 0 L 2.8125 -25.578125 L 11.25 -25.578125 C 13.175781 -25.578125 14.96875 -25.253906 16.625 -24.609375 C 18.28125 -23.960938 19.703125 -23.078125 20.890625 -21.953125 C 22.085938 -20.835938 23.019531 -19.492188 23.6875 -17.921875 C 24.351562 -16.347656 24.6875 -14.632812 24.6875 -12.78125 C 24.6875 -10.9375 24.351562 -9.226562 23.6875 -7.65625 C 23.019531 -6.082031 22.09375 -4.734375 20.90625 -3.609375 C 19.726562 -2.492188 18.3125 -1.613281 16.65625 -0.96875 C 15 -0.320312 13.195312 0 11.25 0 Z M 11.390625 -23.015625 L 5.625 -23.015625 L 5.625 -2.5625 L 11.390625 -2.5625 C 12.859375 -2.5625 14.238281 -2.820312 15.53125 -3.34375 C 16.820312 -3.863281 17.925781 -4.582031 18.84375 -5.5 C 19.769531 -6.414062 20.5 -7.5 21.03125 -8.75 C 21.570312 -10 21.84375 -11.34375 21.84375 -12.78125 C 21.84375 -14.21875 21.570312 -15.5625 21.03125 -16.8125 C 20.5 -18.070312 19.769531 -19.15625 18.84375 -20.0625 C 17.925781 -20.976562 16.820312 -21.695312 15.53125 -22.21875 C 14.238281 -22.75 12.859375 -23.015625 11.390625 -23.015625 Z M 11.390625 -23.015625 "/></g></g></g><g fill="#304732" fill-opacity="1"><g transform="translate(336.622371, 69.83611)"><g/></g></g><g fill="#304732" fill-opacity="1"><g transform="translate(349.369839, 69.83611)"><g><path d="M 10.265625 0 L 10.265625 -10.40625 L 0.109375 -25.578125 L 3.390625 -25.578125 L 11.765625 -12.890625 L 20.09375 -25.578125 L 23.265625 -25.578125 L 13.078125 -10.296875 L 13.078125 0 Z M 10.265625 0 "/></g></g></g><g fill="#304732" fill-opacity="1"><g transform="translate(377.601912, 69.83611)"><g><path d="M 27.953125 -12.78125 C 27.953125 -10.957031 27.609375 -9.234375 26.921875 -7.609375 C 26.242188 -5.992188 25.3125 -4.59375 24.125 -3.40625 C 22.945312 -2.226562 21.550781 -1.296875 19.9375 -0.609375 C 18.332031 0.0664062 16.617188 0.40625 14.796875 0.40625 C 12.972656 0.40625 11.25 0.0664062 9.625 -0.609375 C 8.007812 -1.296875 6.609375 -2.226562 5.421875 -3.40625 C 4.242188 -4.59375 3.3125 -5.992188 2.625 -7.609375 C 1.945312 -9.234375 1.609375 -10.957031 1.609375 -12.78125 C 1.609375 -14.613281 1.945312 -16.335938 2.625 -17.953125 C 3.3125 -19.578125 4.242188 -20.976562 5.421875 -22.15625 C 6.609375 -23.332031 8.007812 -24.257812 9.625 -24.9375 C 11.25 -25.625 12.972656 -25.96875 14.796875 -25.96875 C 16.617188 -25.96875 18.332031 -25.625 19.9375 -24.9375 C 21.550781 -24.257812 22.945312 -23.332031 24.125 -22.15625 C 25.3125 -20.976562 26.242188 -19.578125 26.921875 -17.953125 C 27.609375 -16.335938 27.953125 -14.613281 27.953125 -12.78125 Z M 25.09375 -12.78125 C 25.09375 -14.269531 24.820312 -15.664062 24.28125 -16.96875 C 23.75 -18.269531 23.023438 -19.390625 22.109375 -20.328125 C 21.203125 -21.265625 20.113281 -22.003906 18.84375 -22.546875 C 17.582031 -23.097656 16.234375 -23.375 14.796875 -23.375 C 13.335938 -23.375 11.972656 -23.097656 10.703125 -22.546875 C 9.429688 -22.003906 8.335938 -21.265625 7.421875 -20.328125 C 6.515625 -19.390625 5.789062 -18.269531 5.25 -16.96875 C 4.71875 -15.664062 4.453125 -14.269531 4.453125 -12.78125 C 4.453125 -11.300781 4.71875 -9.914062 5.25 -8.625 C 5.789062 -7.332031 6.515625 -6.207031 7.421875 -5.25 C 8.335938 -4.300781 9.429688 -3.550781 10.703125 -3 C 11.972656 -2.457031 13.335938 -2.1875 14.796875 -2.1875 C 16.234375 -2.1875 17.582031 -2.457031 18.84375 -3 C 20.113281 -3.550781 21.203125 -4.300781 22.109375 -5.25 C 23.023438 -6.207031 23.75 -7.332031 24.28125 -8.625 C 24.820312 -9.914062 25.09375 -11.300781 25.09375 -12.78125 Z M 25.09375 -12.78125 "/></g></g></g><g fill="#304732" fill-opacity="1"><g transform="translate(412.042417, 69.83611)"><g><path d="M 23.421875 -10.8125 C 23.421875 -7.40625 22.460938 -4.679688 20.546875 -2.640625 C 18.640625 -0.609375 16.078125 0.40625 12.859375 0.40625 C 9.617188 0.40625 7.046875 -0.601562 5.140625 -2.625 C 3.242188 -4.644531 2.296875 -7.375 2.296875 -10.8125 L 2.296875 -25.578125 L 5.109375 -25.578125 L 5.109375 -10.8125 C 5.109375 -8.207031 5.816406 -6.117188 7.234375 -4.546875 C 8.648438 -2.972656 10.523438 -2.1875 12.859375 -2.1875 C 15.191406 -2.1875 17.066406 -2.972656 18.484375 -4.546875 C 19.898438 -6.117188 20.609375 -8.207031 20.609375 -10.8125 L 20.609375 -25.578125 L 23.421875 -25.578125 Z M 23.421875 -10.8125 "/></g></g></g><g fill="#304732" fill-opacity="1"><g transform="translate(442.648293, 69.83611)"><g><path d="M 2.8125 -25.578125 L 5.625 -25.578125 L 21 -4.828125 L 21 -25.578125 L 23.671875 -25.578125 L 23.671875 0 L 21.1875 0 L 5.484375 -21.296875 L 5.484375 0 L 2.8125 0 Z M 2.8125 -25.578125 "/></g></g></g><g fill="#304732" fill-opacity="1"><g transform="translate(474.021122, 69.83611)"><g><path d="M 27.25 -12.234375 C 27.25 -10.460938 26.929688 -8.800781 26.296875 -7.25 C 25.671875 -5.707031 24.796875 -4.375 23.671875 -3.25 C 22.546875 -2.132812 21.226562 -1.242188 19.71875 -0.578125 C 18.21875 0.078125 16.585938 0.40625 14.828125 0.40625 C 13.003906 0.40625 11.28125 0.0546875 9.65625 -0.640625 C 8.039062 -1.335938 6.640625 -2.273438 5.453125 -3.453125 C 4.273438 -4.628906 3.335938 -6.019531 2.640625 -7.625 C 1.953125 -9.238281 1.609375 -10.957031 1.609375 -12.78125 C 1.609375 -14.613281 1.945312 -16.332031 2.625 -17.9375 C 3.3125 -19.539062 4.242188 -20.929688 5.421875 -22.109375 C 6.609375 -23.296875 8.007812 -24.234375 9.625 -24.921875 C 11.25 -25.617188 12.972656 -25.96875 14.796875 -25.96875 C 16.765625 -25.96875 18.625 -25.597656 20.375 -24.859375 C 22.132812 -24.117188 23.632812 -23.085938 24.875 -21.765625 L 22.984375 -19.84375 C 22.003906 -20.957031 20.785156 -21.820312 19.328125 -22.4375 C 17.867188 -23.0625 16.359375 -23.375 14.796875 -23.375 C 13.335938 -23.375 11.972656 -23.097656 10.703125 -22.546875 C 9.429688 -22.003906 8.335938 -21.265625 7.421875 -20.328125 C 6.515625 -19.390625 5.789062 -18.269531 5.25 -16.96875 C 4.71875 -15.664062 4.453125 -14.269531 4.453125 -12.78125 C 4.453125 -11.300781 4.71875 -9.910156 5.25 -8.609375 C 5.789062 -7.304688 6.515625 -6.179688 7.421875 -5.234375 C 8.335938 -4.296875 9.429688 -3.550781 10.703125 -3 C 11.972656 -2.457031 13.335938 -2.1875 14.796875 -2.1875 C 16.085938 -2.1875 17.296875 -2.40625 18.421875 -2.84375 C 19.554688 -3.28125 20.546875 -3.882812 21.390625 -4.65625 C 22.234375 -5.425781 22.921875 -6.34375 23.453125 -7.40625 C 23.984375 -8.476562 24.300781 -9.640625 24.40625 -10.890625 L 15.234375 -10.890625 L 15.234375 -13.375 L 27.25 -13.375 Z M 27.25 -12.234375 "/></g></g></g><g fill="#304732" fill-opacity="1"><g transform="translate(507.694719, 69.83611)"><g/></g></g><g fill="#304732" fill-opacity="1"><g transform="translate(520.442186, 69.83611)"><g><path d="M 0.140625 0 L 10.78125 -25.578125 L 14.171875 -25.578125 L 24.65625 0 L 21.59375 0 L 18.375 -8.03125 L 6.3125 -8.03125 L 3.0625 0 Z M 7.3125 -10.453125 L 17.390625 -10.453125 L 12.390625 -22.9375 Z M 7.3125 -10.453125 "/></g></g></g><g fill="#304732" fill-opacity="1"><g transform="translate(550.135084, 69.83611)"><g><path d="M 2.8125 0 L 2.8125 -25.578125 L 11.25 -25.578125 C 13.175781 -25.578125 14.96875 -25.253906 16.625 -24.609375 C 18.28125 -23.960938 19.703125 -23.078125 20.890625 -21.953125 C 22.085938 -20.835938 23.019531 -19.492188 23.6875 -17.921875 C 24.351562 -16.347656 24.6875 -14.632812 24.6875 -12.78125 C 24.6875 -10.9375 24.351562 -9.226562 23.6875 -7.65625 C 23.019531 -6.082031 22.09375 -4.734375 20.90625 -3.609375 C 19.726562 -2.492188 18.3125 -1.613281 16.65625 -0.96875 C 15 -0.320312 13.195312 0 11.25 0 Z M 11.390625 -23.015625 L 5.625 -23.015625 L 5.625 -2.5625 L 11.390625 -2.5625 C 12.859375 -2.5625 14.238281 -2.820312 15.53125 -3.34375 C 16.820312 -3.863281 17.925781 -4.582031 18.84375 -5.5 C 19.769531 -6.414062 20.5 -7.5 21.03125 -8.75 C 21.570312 -10 21.84375 -11.34375 21.84375 -12.78125 C 21.84375 -14.21875 21.570312 -15.5625 21.03125 -16.8125 C 20.5 -18.070312 19.769531 -19.15625 18.84375 -20.0625 C 17.925781 -20.976562 16.820312 -21.695312 15.53125 -22.21875 C 14.238281 -22.75 12.859375 -23.015625 11.390625 -23.015625 Z M 11.390625 -23.015625 "/></g></g></g><g fill="#304732" fill-opacity="1"><g transform="translate(581.32529, 69.83611)"><g><path d="M 23.421875 -10.8125 C 23.421875 -7.40625 22.460938 -4.679688 20.546875 -2.640625 C 18.640625 -0.609375 16.078125 0.40625 12.859375 0.40625 C 9.617188 0.40625 7.046875 -0.601562 5.140625 -2.625 C 3.242188 -4.644531 2.296875 -7.375 2.296875 -10.8125 L 2.296875 -25.578125 L 5.109375 -25.578125 L 5.109375 -10.8125 C 5.109375 -8.207031 5.816406 -6.117188 7.234375 -4.546875 C 8.648438 -2.972656 10.523438 -2.1875 12.859375 -2.1875 C 15.191406 -2.1875 17.066406 -2.972656 18.484375 -4.546875 C 19.898438 -6.117188 20.609375 -8.207031 20.609375 -10.8125 L 20.609375 -25.578125 L 23.421875 -25.578125 Z M 23.421875 -10.8125 "/></g></g></g><g fill="#304732" fill-opacity="1"><g transform="translate(611.931167, 69.83611)"><g><path d="M 2.8125 0 L 2.8125 -25.578125 L 5.625 -25.578125 L 5.625 -2.515625 L 20.859375 -2.515625 L 20.859375 0 Z M 2.8125 0 "/></g></g></g><g fill="#304732" fill-opacity="1"><g transform="translate(638.885039, 69.83611)"><g><path d="M 0.625 -23.046875 L 0.625 -25.578125 L 21.921875 -25.578125 L 21.921875 -23.046875 L 12.671875 -23.046875 L 12.671875 0 L 9.859375 0 L 9.859375 -23.046875 Z M 0.625 -23.046875 "/></g></g></g><g fill="#304732" fill-opacity="1"><g transform="translate(666.313675, 69.83611)"><g><path d="M 0.40625 -4.390625 L 2.265625 -6.3125 C 3.578125 -4.925781 4.984375 -3.875 6.484375 -3.15625 C 7.984375 -2.4375 9.5625 -2.078125 11.21875 -2.078125 C 13.207031 -2.078125 14.847656 -2.550781 16.140625 -3.5 C 17.429688 -4.457031 18.078125 -5.664062 18.078125 -7.125 C 18.078125 -8.4375 17.617188 -9.445312 16.703125 -10.15625 C 15.796875 -10.863281 14.296875 -11.382812 12.203125 -11.71875 L 8.515625 -12.3125 C 6.054688 -12.695312 4.238281 -13.421875 3.0625 -14.484375 C 1.894531 -15.546875 1.3125 -16.976562 1.3125 -18.78125 C 1.3125 -20.894531 2.140625 -22.609375 3.796875 -23.921875 C 5.453125 -25.242188 7.617188 -25.90625 10.296875 -25.90625 C 12.078125 -25.90625 13.84375 -25.609375 15.59375 -25.015625 C 17.351562 -24.429688 18.953125 -23.59375 20.390625 -22.5 L 18.78125 -20.3125 C 17.382812 -21.351562 15.96875 -22.140625 14.53125 -22.671875 C 13.101562 -23.210938 11.65625 -23.484375 10.1875 -23.484375 C 8.363281 -23.484375 6.882812 -23.0625 5.75 -22.21875 C 4.625 -21.382812 4.0625 -20.3125 4.0625 -19 C 4.0625 -17.800781 4.460938 -16.882812 5.265625 -16.25 C 6.066406 -15.625 7.394531 -15.164062 9.25 -14.875 L 12.890625 -14.28125 C 15.671875 -13.820312 17.695312 -13.03125 18.96875 -11.90625 C 20.25 -10.789062 20.890625 -9.242188 20.890625 -7.265625 C 20.890625 -6.148438 20.648438 -5.125 20.171875 -4.1875 C 19.703125 -3.25 19.035156 -2.441406 18.171875 -1.765625 C 17.304688 -1.097656 16.269531 -0.578125 15.0625 -0.203125 C 13.863281 0.171875 12.546875 0.359375 11.109375 0.359375 C 9.085938 0.359375 7.144531 -0.046875 5.28125 -0.859375 C 3.414062 -1.671875 1.789062 -2.847656 0.40625 -4.390625 Z M 0.40625 -4.390625 "/></g></g></g><g fill="#304732" fill-opacity="1"><g transform="translate(383.138133, 22.164229)"><g><path d="M 0.203125 -2.265625 L 1.171875 -3.265625 C 1.847656 -2.546875 2.570312 -2 3.34375 -1.625 C 4.125 -1.257812 4.941406 -1.078125 5.796875 -1.078125 C 6.828125 -1.078125 7.675781 -1.320312 8.34375 -1.8125 C 9.007812 -2.300781 9.34375 -2.925781 9.34375 -3.6875 C 9.34375 -4.363281 9.109375 -4.882812 8.640625 -5.25 C 8.171875 -5.613281 7.394531 -5.882812 6.3125 -6.0625 L 4.40625 -6.359375 C 3.132812 -6.566406 2.195312 -6.941406 1.59375 -7.484375 C 0.988281 -8.035156 0.6875 -8.773438 0.6875 -9.703125 C 0.6875 -10.804688 1.113281 -11.695312 1.96875 -12.375 C 2.820312 -13.050781 3.941406 -13.390625 5.328125 -13.390625 C 6.242188 -13.390625 7.15625 -13.238281 8.0625 -12.9375 C 8.96875 -12.632812 9.796875 -12.203125 10.546875 -11.640625 L 9.703125 -10.5 C 8.992188 -11.039062 8.265625 -11.445312 7.515625 -11.71875 C 6.773438 -12 6.023438 -12.140625 5.265625 -12.140625 C 4.328125 -12.140625 3.5625 -11.921875 2.96875 -11.484375 C 2.382812 -11.054688 2.09375 -10.503906 2.09375 -9.828125 C 2.09375 -9.203125 2.300781 -8.726562 2.71875 -8.40625 C 3.132812 -8.082031 3.820312 -7.84375 4.78125 -7.6875 L 6.671875 -7.390625 C 8.109375 -7.148438 9.15625 -6.738281 9.8125 -6.15625 C 10.476562 -5.582031 10.8125 -4.785156 10.8125 -3.765625 C 10.8125 -3.179688 10.6875 -2.644531 10.4375 -2.15625 C 10.1875 -1.675781 9.835938 -1.257812 9.390625 -0.90625 C 8.953125 -0.5625 8.421875 -0.289062 7.796875 -0.09375 C 7.171875 0.09375 6.488281 0.1875 5.75 0.1875 C 4.695312 0.1875 3.6875 -0.0195312 2.71875 -0.4375 C 1.757812 -0.863281 0.921875 -1.472656 0.203125 -2.265625 Z M 0.203125 -2.265625 "/></g></g></g><g fill="#304732" fill-opacity="1"><g transform="translate(397.910397, 22.164229)"><g><path d="M 1.453125 0 L 1.453125 -13.21875 L 7.203125 -13.21875 C 8.484375 -13.21875 9.515625 -12.867188 10.296875 -12.171875 C 11.078125 -11.472656 11.46875 -10.550781 11.46875 -9.40625 C 11.46875 -8.257812 11.070312 -7.332031 10.28125 -6.625 C 9.5 -5.925781 8.472656 -5.578125 7.203125 -5.578125 L 2.90625 -5.578125 L 2.90625 0 Z M 7.078125 -11.921875 L 2.90625 -11.921875 L 2.90625 -6.84375 L 7.078125 -6.84375 C 7.972656 -6.84375 8.6875 -7.070312 9.21875 -7.53125 C 9.75 -7.988281 10.015625 -8.609375 10.015625 -9.390625 C 10.015625 -10.171875 9.75 -10.785156 9.21875 -11.234375 C 8.6875 -11.691406 7.972656 -11.921875 7.078125 -11.921875 Z M 7.078125 -11.921875 "/></g></g></g><g fill="#304732" fill-opacity="1"><g transform="translate(413.570456, 22.164229)"><g><path d="M 1.453125 0 L 1.453125 -13.21875 L 10.921875 -13.21875 L 10.921875 -11.9375 L 2.90625 -11.9375 L 2.90625 -7.3125 L 8.140625 -7.3125 L 8.140625 -6.046875 L 2.90625 -6.046875 L 2.90625 -1.28125 L 11 -1.28125 L 11 0 Z M 1.453125 0 "/></g></g></g><g fill="#304732" fill-opacity="1"><g transform="translate(428.644945, 22.164229)"><g><path d="M 7.71875 -1.140625 C 8.539062 -1.140625 9.320312 -1.296875 10.0625 -1.609375 C 10.8125 -1.929688 11.4375 -2.378906 11.9375 -2.953125 L 12.890625 -1.96875 C 12.234375 -1.28125 11.453125 -0.742188 10.546875 -0.359375 C 9.640625 0.015625 8.6875 0.203125 7.6875 0.203125 C 6.726562 0.203125 5.828125 0.03125 4.984375 -0.3125 C 4.148438 -0.664062 3.425781 -1.148438 2.8125 -1.765625 C 2.195312 -2.378906 1.710938 -3.101562 1.359375 -3.9375 C 1.003906 -4.769531 0.828125 -5.660156 0.828125 -6.609375 C 0.828125 -7.554688 1.003906 -8.445312 1.359375 -9.28125 C 1.710938 -10.125 2.195312 -10.847656 2.8125 -11.453125 C 3.425781 -12.066406 4.148438 -12.550781 4.984375 -12.90625 C 5.828125 -13.257812 6.726562 -13.4375 7.6875 -13.4375 C 8.707031 -13.4375 9.671875 -13.242188 10.578125 -12.859375 C 11.492188 -12.472656 12.273438 -11.941406 12.921875 -11.265625 L 11.953125 -10.234375 C 11.441406 -10.816406 10.800781 -11.269531 10.03125 -11.59375 C 9.269531 -11.925781 8.488281 -12.09375 7.6875 -12.09375 C 6.9375 -12.09375 6.226562 -11.945312 5.5625 -11.65625 C 4.90625 -11.375 4.335938 -10.988281 3.859375 -10.5 C 3.378906 -10.019531 3 -9.441406 2.71875 -8.765625 C 2.4375 -8.097656 2.296875 -7.378906 2.296875 -6.609375 C 2.296875 -5.835938 2.4375 -5.113281 2.71875 -4.4375 C 3 -3.769531 3.378906 -3.191406 3.859375 -2.703125 C 4.347656 -2.222656 4.921875 -1.84375 5.578125 -1.5625 C 6.242188 -1.28125 6.957031 -1.140625 7.71875 -1.140625 Z M 7.71875 -1.140625 "/></g></g></g><g fill="#304732" fill-opacity="1"><g transform="translate(445.721709, 22.164229)"><g><path d="M 1.453125 0 L 1.453125 -13.21875 L 2.90625 -13.21875 L 2.90625 0 Z M 1.453125 0 "/></g></g></g><g fill="#304732" fill-opacity="1"><g transform="translate(453.523778, 22.164229)"><g><path d="M 0.078125 0 L 5.578125 -13.21875 L 7.328125 -13.21875 L 12.75 0 L 11.171875 0 L 9.5 -4.15625 L 3.265625 -4.15625 L 1.59375 0 Z M 3.78125 -5.40625 L 8.984375 -5.40625 L 6.40625 -11.859375 Z M 3.78125 -5.40625 "/></g></g></g><g fill="#304732" fill-opacity="1"><g transform="translate(469.788298, 22.164229)"><g><path d="M 1.453125 0 L 1.453125 -13.21875 L 2.90625 -13.21875 L 2.90625 -1.296875 L 10.78125 -1.296875 L 10.78125 0 Z M 1.453125 0 "/></g></g></g><g fill="#304732" fill-opacity="1"><g transform="translate(484.636113, 22.164229)"><g><path d="M 0.328125 -11.921875 L 0.328125 -13.21875 L 11.328125 -13.21875 L 11.328125 -11.921875 L 6.5625 -11.921875 L 6.5625 0 L 5.09375 0 L 5.09375 -11.921875 Z M 0.328125 -11.921875 "/></g></g></g><g fill="#304732" fill-opacity="1"><g transform="translate(499.729492, 22.164229)"><g><path d="M 5.3125 0 L 5.3125 -5.390625 L 0.0625 -13.21875 L 1.75 -13.21875 L 6.078125 -6.671875 L 10.390625 -13.21875 L 12.03125 -13.21875 L 6.765625 -5.328125 L 6.765625 0 Z M 5.3125 0 "/></g></g></g><g fill="#304732" fill-opacity="1"><g transform="translate(515.238438, 22.164229)"><g/></g></g><g fill="#304732" fill-opacity="1"><g transform="translate(522.738283, 22.164229)"><g><path d="M 1.453125 0 L 1.453125 -13.21875 L 10.921875 -13.21875 L 10.921875 -11.9375 L 2.90625 -11.9375 L 2.90625 -7.3125 L 8.140625 -7.3125 L 8.140625 -6.046875 L 2.90625 -6.046875 L 2.90625 -1.28125 L 11 -1.28125 L 11 0 Z M 1.453125 0 "/></g></g></g><g fill="#304732" fill-opacity="1"><g transform="translate(537.812772, 22.164229)"><g><path d="M 5.3125 0 L 5.3125 -5.390625 L 0.0625 -13.21875 L 1.75 -13.21875 L 6.078125 -6.671875 L 10.390625 -13.21875 L 12.03125 -13.21875 L 6.765625 -5.328125 L 6.765625 0 Z M 5.3125 0 "/></g></g></g><g fill="#304732" fill-opacity="1"><g transform="translate(553.321718, 22.164229)"><g><path d="M 1.453125 0 L 1.453125 -13.21875 L 10.921875 -13.21875 L 10.921875 -11.9375 L 2.90625 -11.9375 L 2.90625 -7.3125 L 8.140625 -7.3125 L 8.140625 -6.046875 L 2.90625 -6.046875 L 2.90625 -1.28125 L 11 -1.28125 L 11 0 Z M 1.453125 0 "/></g></g></g><g fill="#304732" fill-opacity="1"><g transform="translate(568.396207, 22.164229)"><g><path d="M 7.71875 -1.140625 C 8.539062 -1.140625 9.320312 -1.296875 10.0625 -1.609375 C 10.8125 -1.929688 11.4375 -2.378906 11.9375 -2.953125 L 12.890625 -1.96875 C 12.234375 -1.28125 11.453125 -0.742188 10.546875 -0.359375 C 9.640625 0.015625 8.6875 0.203125 7.6875 0.203125 C 6.726562 0.203125 5.828125 0.03125 4.984375 -0.3125 C 4.148438 -0.664062 3.425781 -1.148438 2.8125 -1.765625 C 2.195312 -2.378906 1.710938 -3.101562 1.359375 -3.9375 C 1.003906 -4.769531 0.828125 -5.660156 0.828125 -6.609375 C 0.828125 -7.554688 1.003906 -8.445312 1.359375 -9.28125 C 1.710938 -10.125 2.195312 -10.847656 2.8125 -11.453125 C 3.425781 -12.066406 4.148438 -12.550781 4.984375 -12.90625 C 5.828125 -13.257812 6.726562 -13.4375 7.6875 -13.4375 C 8.707031 -13.4375 9.671875 -13.242188 10.578125 -12.859375 C 11.492188 -12.472656 12.273438 -11.941406 12.921875 -11.265625 L 11.953125 -10.234375 C 11.441406 -10.816406 10.800781 -11.269531 10.03125 -11.59375 C 9.269531 -11.925781 8.488281 -12.09375 7.6875 -12.09375 C 6.9375 -12.09375 6.226562 -11.945312 5.5625 -11.65625 C 4.90625 -11.375 4.335938 -10.988281 3.859375 -10.5 C 3.378906 -10.019531 3 -9.441406 2.71875 -8.765625 C 2.4375 -8.097656 2.296875 -7.378906 2.296875 -6.609375 C 2.296875 -5.835938 2.4375 -5.113281 2.71875 -4.4375 C 3 -3.769531 3.378906 -3.191406 3.859375 -2.703125 C 4.347656 -2.222656 4.921875 -1.84375 5.578125 -1.5625 C 6.242188 -1.28125 6.957031 -1.140625 7.71875 -1.140625 Z M 7.71875 -1.140625 "/></g></g></g><g fill="#304732" fill-opacity="1"><g transform="translate(585.472971, 22.164229)"><g><path d="M 0.078125 0 L 5.578125 -13.21875 L 7.328125 -13.21875 L 12.75 0 L 11.171875 0 L 9.5 -4.15625 L 3.265625 -4.15625 L 1.59375 0 Z M 3.78125 -5.40625 L 8.984375 -5.40625 L 6.40625 -11.859375 Z M 3.78125 -5.40625 "/></g></g></g><g fill="#304732" fill-opacity="1"><g transform="translate(601.737502, 22.164229)"><g><path d="M 1.453125 0 L 1.453125 -13.21875 L 7.125 -13.21875 C 8.40625 -13.21875 9.441406 -12.867188 10.234375 -12.171875 C 11.023438 -11.472656 11.421875 -10.554688 11.421875 -9.421875 C 11.421875 -8.554688 11.164062 -7.804688 10.65625 -7.171875 C 10.15625 -6.546875 9.472656 -6.113281 8.609375 -5.875 L 11.578125 0 L 9.96875 0 L 7.140625 -5.6875 L 2.90625 -5.6875 L 2.90625 0 Z M 7.03125 -11.921875 L 2.90625 -11.921875 L 2.90625 -6.90625 L 7.03125 -6.90625 C 7.90625 -6.90625 8.613281 -7.132812 9.15625 -7.59375 C 9.695312 -8.0625 9.96875 -8.671875 9.96875 -9.421875 C 9.96875 -10.179688 9.695312 -10.785156 9.15625 -11.234375 C 8.613281 -11.691406 7.90625 -11.921875 7.03125 -11.921875 Z M 7.03125 -11.921875 "/></g></g></g><g fill="#304732" fill-opacity="1"><g transform="translate(617.35978, 22.164229)"><g><path d="M 1.453125 0 L 1.453125 -13.21875 L 10.921875 -13.21875 L 10.921875 -11.9375 L 2.90625 -11.9375 L 2.90625 -7.3125 L 8.140625 -7.3125 L 8.140625 -6.046875 L 2.90625 -6.046875 L 2.90625 -1.28125 L 11 -1.28125 L 11 0 Z M 1.453125 0 "/></g></g></g><g fill="#304732" fill-opacity="1"><g transform="translate(632.43428, 22.164229)"><g/></g></g><g fill="#304732" fill-opacity="1"><g transform="translate(639.934114, 22.164229)"><g><path d="M 1.453125 0 L 1.453125 -13.21875 L 10.921875 -13.21875 L 10.921875 -11.9375 L 2.90625 -11.9375 L 2.90625 -7.21875 L 8.15625 -7.21875 L 8.15625 -5.953125 L 2.90625 -5.953125 L 2.90625 0 Z M 1.453125 0 "/></g></g></g><g fill="#304732" fill-opacity="1"><g transform="translate(654.838599, 22.164229)"><g><path d="M 14.453125 -6.609375 C 14.453125 -5.660156 14.273438 -4.769531 13.921875 -3.9375 C 13.566406 -3.101562 13.082031 -2.378906 12.46875 -1.765625 C 11.863281 -1.148438 11.144531 -0.664062 10.3125 -0.3125 C 9.476562 0.03125 8.59375 0.203125 7.65625 0.203125 C 6.707031 0.203125 5.8125 0.03125 4.96875 -0.3125 C 4.132812 -0.664062 3.410156 -1.148438 2.796875 -1.765625 C 2.191406 -2.378906 1.710938 -3.101562 1.359375 -3.9375 C 1.003906 -4.769531 0.828125 -5.660156 0.828125 -6.609375 C 0.828125 -7.554688 1.003906 -8.445312 1.359375 -9.28125 C 1.710938 -10.125 2.191406 -10.847656 2.796875 -11.453125 C 3.410156 -12.066406 4.132812 -12.550781 4.96875 -12.90625 C 5.8125 -13.257812 6.707031 -13.4375 7.65625 -13.4375 C 8.59375 -13.4375 9.476562 -13.257812 10.3125 -12.90625 C 11.144531 -12.550781 11.863281 -12.066406 12.46875 -11.453125 C 13.082031 -10.847656 13.566406 -10.125 13.921875 -9.28125 C 14.273438 -8.445312 14.453125 -7.554688 14.453125 -6.609375 Z M 12.984375 -6.609375 C 12.984375 -7.378906 12.84375 -8.097656 12.5625 -8.765625 C 12.28125 -9.441406 11.90625 -10.019531 11.4375 -10.5 C 10.96875 -10.988281 10.40625 -11.375 9.75 -11.65625 C 9.09375 -11.945312 8.394531 -12.09375 7.65625 -12.09375 C 6.894531 -12.09375 6.1875 -11.945312 5.53125 -11.65625 C 4.875 -11.375 4.3125 -10.988281 3.84375 -10.5 C 3.375 -10.019531 3 -9.441406 2.71875 -8.765625 C 2.4375 -8.097656 2.296875 -7.378906 2.296875 -6.609375 C 2.296875 -5.835938 2.4375 -5.117188 2.71875 -4.453125 C 3 -3.785156 3.375 -3.207031 3.84375 -2.71875 C 4.3125 -2.226562 4.875 -1.84375 5.53125 -1.5625 C 6.1875 -1.28125 6.894531 -1.140625 7.65625 -1.140625 C 8.394531 -1.140625 9.09375 -1.28125 9.75 -1.5625 C 10.40625 -1.84375 10.96875 -2.226562 11.4375 -2.71875 C 11.90625 -3.207031 12.28125 -3.785156 12.5625 -4.453125 C 12.84375 -5.117188 12.984375 -5.835938 12.984375 -6.609375 Z M 12.984375 -6.609375 "/></g></g></g><g fill="#304732" fill-opacity="1"><g transform="translate(673.558732, 22.164229)"><g><path d="M 1.453125 0 L 1.453125 -13.21875 L 7.125 -13.21875 C 8.40625 -13.21875 9.441406 -12.867188 10.234375 -12.171875 C 11.023438 -11.472656 11.421875 -10.554688 11.421875 -9.421875 C 11.421875 -8.554688 11.164062 -7.804688 10.65625 -7.171875 C 10.15625 -6.546875 9.472656 -6.113281 8.609375 -5.875 L 11.578125 0 L 9.96875 0 L 7.140625 -5.6875 L 2.90625 -5.6875 L 2.90625 0 Z M 7.03125 -11.921875 L 2.90625 -11.921875 L 2.90625 -6.90625 L 7.03125 -6.90625 C 7.90625 -6.90625 8.613281 -7.132812 9.15625 -7.59375 C 9.695312 -8.0625 9.96875 -8.671875 9.96875 -9.421875 C 9.96875 -10.179688 9.695312 -10.785156 9.15625 -11.234375 C 8.613281 -11.691406 7.90625 -11.921875 7.03125 -11.921875 Z M 7.03125 -11.921875 "/></g></g></g></svg>