<svg xmlns="http://www.w3.org/2000/svg" xmlns:xlink="http://www.w3.org/1999/xlink" width="353" zoomAndPan="magnify" viewBox="0 0 264.75 155.999997" height="208" preserveAspectRatio="xMidYMid meet" version="1.0"><defs><g/></defs><g fill="#304732" fill-opacity="1"><g transform="translate(20.366256, 118.106504)"><g><path d="M 30.890625 -12.25 C 30.890625 -10.6875 30.394531 -9.160156 29.40625 -7.671875 C 28.425781 -6.179688 27.191406 -4.847656 25.703125 -3.671875 C 24.210938 -2.503906 22.617188 -1.566406 20.921875 -0.859375 C 19.222656 -0.148438 17.660156 0.203125 16.234375 0.203125 C 13.804688 0.203125 11.640625 -0.398438 9.734375 -1.609375 C 7.828125 -2.828125 6.234375 -4.375 4.953125 -6.25 C 3.671875 -8.132812 2.695312 -10.210938 2.03125 -12.484375 C 1.363281 -14.753906 1.03125 -16.96875 1.03125 -19.125 C 1.03125 -21.414062 1.347656 -23.867188 1.984375 -26.484375 C 2.628906 -29.097656 3.601562 -31.503906 4.90625 -33.703125 C 6.21875 -35.910156 7.867188 -37.75 9.859375 -39.21875 C 11.859375 -40.6875 14.238281 -41.421875 17 -41.421875 C 18.550781 -41.421875 20.035156 -41.15625 21.453125 -40.625 C 22.878906 -40.101562 24.117188 -39.359375 25.171875 -38.390625 C 26.234375 -37.429688 27.082031 -36.285156 27.71875 -34.953125 C 28.363281 -33.617188 28.6875 -32.128906 28.6875 -30.484375 C 28.6875 -28.328125 28.226562 -26.304688 27.3125 -24.421875 C 26.394531 -22.546875 25.175781 -20.914062 23.65625 -19.53125 C 22.144531 -18.15625 20.40625 -17.046875 18.4375 -16.203125 C 16.46875 -15.359375 14.453125 -14.890625 12.390625 -14.796875 C 12.566406 -13.460938 13.101562 -12.5 14 -11.90625 C 14.894531 -11.3125 15.960938 -11.015625 17.203125 -11.015625 C 18.117188 -11.015625 19.007812 -11.242188 19.875 -11.703125 C 20.75 -12.160156 21.597656 -12.675781 22.421875 -13.25 C 23.253906 -13.820312 24.070312 -14.335938 24.875 -14.796875 C 25.675781 -15.253906 26.488281 -15.484375 27.3125 -15.484375 C 28.226562 -15.484375 29.050781 -15.179688 29.78125 -14.578125 C 30.519531 -13.984375 30.890625 -13.207031 30.890625 -12.25 Z M 19.75 -29.109375 C 19.75 -29.703125 19.585938 -30.316406 19.265625 -30.953125 C 18.941406 -31.597656 18.4375 -31.921875 17.75 -31.921875 C 16.738281 -31.921875 15.890625 -31.65625 15.203125 -31.125 C 14.515625 -30.601562 13.941406 -29.941406 13.484375 -29.140625 C 13.023438 -28.335938 12.671875 -27.476562 12.421875 -26.5625 C 12.171875 -25.644531 12.019531 -24.796875 11.96875 -24.015625 C 12.613281 -24.148438 13.382812 -24.332031 14.28125 -24.5625 C 15.175781 -24.789062 16.023438 -25.097656 16.828125 -25.484375 C 17.628906 -25.878906 18.316406 -26.375 18.890625 -26.96875 C 19.460938 -27.5625 19.75 -28.273438 19.75 -29.109375 Z M 19.75 -29.109375 "/></g></g></g><g fill="#304732" fill-opacity="1"><g transform="translate(51.942765, 118.106504)"><g><path d="M 17 20.015625 C 15.894531 20.015625 14.640625 19.84375 13.234375 19.5 C 11.835938 19.15625 10.519531 18.660156 9.28125 18.015625 C 8.050781 17.378906 7.007812 16.601562 6.15625 15.6875 C 5.3125 14.769531 4.890625 13.710938 4.890625 12.515625 C 4.890625 12.054688 5.003906 11.597656 5.234375 11.140625 C 5.460938 10.679688 5.769531 10.28125 6.15625 9.9375 C 6.550781 9.59375 6.976562 9.316406 7.4375 9.109375 C 7.894531 8.910156 8.375 8.8125 8.875 8.8125 C 9.425781 8.8125 9.960938 8.890625 10.484375 9.046875 C 11.015625 9.203125 11.554688 9.394531 12.109375 9.625 C 12.703125 9.851562 13.285156 10.0625 13.859375 10.25 C 14.429688 10.4375 15.039062 10.53125 15.6875 10.53125 C 16.832031 10.53125 17.828125 10.140625 18.671875 9.359375 C 19.523438 8.578125 20.25 7.554688 20.84375 6.296875 C 21.4375 5.035156 21.914062 3.632812 22.28125 2.09375 C 22.65625 0.5625 22.945312 -0.957031 23.15625 -2.46875 C 23.363281 -3.988281 23.507812 -5.410156 23.59375 -6.734375 C 23.6875 -8.066406 23.757812 -9.144531 23.8125 -9.96875 C 22.195312 -7.539062 20.597656 -5.671875 19.015625 -4.359375 C 17.441406 -3.054688 15.503906 -2.40625 13.203125 -2.40625 C 11.460938 -2.40625 9.9375 -2.769531 8.625 -3.5 C 7.320312 -4.238281 6.210938 -5.203125 5.296875 -6.390625 C 4.378906 -7.585938 3.625 -8.953125 3.03125 -10.484375 C 2.4375 -12.023438 1.988281 -13.617188 1.6875 -15.265625 C 1.382812 -16.921875 1.1875 -18.539062 1.09375 -20.125 C 1.007812 -21.707031 1.007812 -23.164062 1.09375 -24.5 C 1.144531 -25.5 1.269531 -26.8125 1.46875 -28.4375 C 1.675781 -30.070312 2.007812 -31.671875 2.46875 -33.234375 C 2.9375 -34.796875 3.582031 -36.113281 4.40625 -37.1875 C 5.226562 -38.257812 6.304688 -38.753906 7.640625 -38.671875 C 8.503906 -38.617188 9.210938 -38.238281 9.765625 -37.53125 C 10.316406 -36.820312 10.765625 -35.9375 11.109375 -34.875 C 11.453125 -33.820312 11.703125 -32.664062 11.859375 -31.40625 C 12.023438 -30.144531 12.128906 -28.894531 12.171875 -27.65625 C 12.222656 -26.414062 12.234375 -25.28125 12.203125 -24.25 C 12.179688 -23.21875 12.171875 -22.425781 12.171875 -21.875 C 12.171875 -21.09375 12.191406 -20.3125 12.234375 -19.53125 C 12.285156 -18.757812 12.445312 -18.0625 12.71875 -17.4375 C 13 -16.820312 13.425781 -16.328125 14 -15.953125 C 14.570312 -15.585938 15.382812 -15.40625 16.4375 -15.40625 C 17.632812 -15.40625 18.585938 -15.703125 19.296875 -16.296875 C 20.003906 -16.898438 20.53125 -17.648438 20.875 -18.546875 C 21.21875 -19.441406 21.4375 -20.40625 21.53125 -21.4375 C 21.625 -22.46875 21.671875 -23.441406 21.671875 -24.359375 C 21.671875 -24.992188 21.671875 -25.769531 21.671875 -26.6875 C 21.671875 -27.613281 21.679688 -28.578125 21.703125 -29.578125 C 21.722656 -30.585938 21.8125 -31.585938 21.96875 -32.578125 C 22.132812 -33.566406 22.390625 -34.460938 22.734375 -35.265625 C 23.078125 -36.066406 23.535156 -36.71875 24.109375 -37.21875 C 24.679688 -37.726562 25.425781 -37.984375 26.34375 -37.984375 C 27.5 -37.984375 28.488281 -37.535156 29.3125 -36.640625 C 30.132812 -35.742188 30.832031 -34.570312 31.40625 -33.125 C 31.976562 -31.675781 32.4375 -30.082031 32.78125 -28.34375 C 33.125 -26.601562 33.382812 -24.875 33.5625 -23.15625 C 33.75 -21.4375 33.878906 -19.851562 33.953125 -18.40625 C 34.023438 -16.957031 34.0625 -15.820312 34.0625 -15 C 34.0625 -13.070312 33.988281 -10.878906 33.84375 -8.421875 C 33.707031 -5.972656 33.441406 -3.453125 33.046875 -0.859375 C 32.660156 1.734375 32.078125 4.28125 31.296875 6.78125 C 30.523438 9.28125 29.503906 11.515625 28.234375 13.484375 C 26.972656 15.453125 25.425781 17.03125 23.59375 18.21875 C 21.757812 19.414062 19.5625 20.015625 17 20.015625 Z M 17 20.015625 "/></g></g></g><g fill="#304732" fill-opacity="1"><g transform="translate(88.403657, 118.106504)"><g><path d="M 30.890625 -12.25 C 30.890625 -10.6875 30.394531 -9.160156 29.40625 -7.671875 C 28.425781 -6.179688 27.191406 -4.847656 25.703125 -3.671875 C 24.210938 -2.503906 22.617188 -1.566406 20.921875 -0.859375 C 19.222656 -0.148438 17.660156 0.203125 16.234375 0.203125 C 13.804688 0.203125 11.640625 -0.398438 9.734375 -1.609375 C 7.828125 -2.828125 6.234375 -4.375 4.953125 -6.25 C 3.671875 -8.132812 2.695312 -10.210938 2.03125 -12.484375 C 1.363281 -14.753906 1.03125 -16.96875 1.03125 -19.125 C 1.03125 -21.414062 1.347656 -23.867188 1.984375 -26.484375 C 2.628906 -29.097656 3.601562 -31.503906 4.90625 -33.703125 C 6.21875 -35.910156 7.867188 -37.75 9.859375 -39.21875 C 11.859375 -40.6875 14.238281 -41.421875 17 -41.421875 C 18.550781 -41.421875 20.035156 -41.15625 21.453125 -40.625 C 22.878906 -40.101562 24.117188 -39.359375 25.171875 -38.390625 C 26.234375 -37.429688 27.082031 -36.285156 27.71875 -34.953125 C 28.363281 -33.617188 28.6875 -32.128906 28.6875 -30.484375 C 28.6875 -28.328125 28.226562 -26.304688 27.3125 -24.421875 C 26.394531 -22.546875 25.175781 -20.914062 23.65625 -19.53125 C 22.144531 -18.15625 20.40625 -17.046875 18.4375 -16.203125 C 16.46875 -15.359375 14.453125 -14.890625 12.390625 -14.796875 C 12.566406 -13.460938 13.101562 -12.5 14 -11.90625 C 14.894531 -11.3125 15.960938 -11.015625 17.203125 -11.015625 C 18.117188 -11.015625 19.007812 -11.242188 19.875 -11.703125 C 20.75 -12.160156 21.597656 -12.675781 22.421875 -13.25 C 23.253906 -13.820312 24.070312 -14.335938 24.875 -14.796875 C 25.675781 -15.253906 26.488281 -15.484375 27.3125 -15.484375 C 28.226562 -15.484375 29.050781 -15.179688 29.78125 -14.578125 C 30.519531 -13.984375 30.890625 -13.207031 30.890625 -12.25 Z M 19.75 -29.109375 C 19.75 -29.703125 19.585938 -30.316406 19.265625 -30.953125 C 18.941406 -31.597656 18.4375 -31.921875 17.75 -31.921875 C 16.738281 -31.921875 15.890625 -31.65625 15.203125 -31.125 C 14.515625 -30.601562 13.941406 -29.941406 13.484375 -29.140625 C 13.023438 -28.335938 12.671875 -27.476562 12.421875 -26.5625 C 12.171875 -25.644531 12.019531 -24.796875 11.96875 -24.015625 C 12.613281 -24.148438 13.382812 -24.332031 14.28125 -24.5625 C 15.175781 -24.789062 16.023438 -25.097656 16.828125 -25.484375 C 17.628906 -25.878906 18.316406 -26.375 18.890625 -26.96875 C 19.460938 -27.5625 19.75 -28.273438 19.75 -29.109375 Z M 19.75 -29.109375 "/></g></g></g><g fill="#304732" fill-opacity="1"><g transform="translate(119.980165, 118.106504)"><g><path d="M 27.59375 -26.421875 C 27.59375 -26.191406 27.566406 -25.945312 27.515625 -25.6875 C 27.472656 -25.4375 27.40625 -25.195312 27.3125 -24.96875 C 26.894531 -23.914062 26.25 -23.035156 25.375 -22.328125 C 24.507812 -21.617188 23.484375 -21.265625 22.296875 -21.265625 C 20.503906 -21.265625 19.285156 -22.15625 18.640625 -23.9375 C 18.546875 -24.164062 18.5 -24.429688 18.5 -24.734375 C 18.5 -25.035156 18.476562 -25.34375 18.4375 -25.65625 L 18.4375 -27.65625 C 18.34375 -28.300781 18.179688 -28.804688 17.953125 -29.171875 C 17.722656 -29.535156 17.332031 -29.71875 16.78125 -29.71875 C 16.007812 -29.71875 15.265625 -29.222656 14.546875 -28.234375 C 13.835938 -27.253906 13.21875 -26.085938 12.6875 -24.734375 C 12.164062 -23.378906 11.742188 -21.988281 11.421875 -20.5625 C 11.097656 -19.144531 10.9375 -18 10.9375 -17.125 C 10.9375 -16.4375 10.984375 -15.597656 11.078125 -14.609375 C 11.171875 -13.628906 11.351562 -12.679688 11.625 -11.765625 C 11.90625 -10.847656 12.285156 -10.054688 12.765625 -9.390625 C 13.242188 -8.722656 13.875 -8.390625 14.65625 -8.390625 C 15.4375 -8.390625 16.15625 -8.628906 16.8125 -9.109375 C 17.476562 -9.597656 18.132812 -10.160156 18.78125 -10.796875 C 19.375 -11.347656 20.023438 -11.921875 20.734375 -12.515625 C 21.453125 -13.117188 22.269531 -13.421875 23.1875 -13.421875 C 24.332031 -13.421875 25.238281 -13.003906 25.90625 -12.171875 C 26.570312 -11.347656 26.90625 -10.410156 26.90625 -9.359375 C 26.90625 -7.796875 26.488281 -6.335938 25.65625 -4.984375 C 24.832031 -3.628906 23.800781 -2.457031 22.5625 -1.46875 C 21.320312 -0.488281 19.945312 0.285156 18.4375 0.859375 C 16.925781 1.429688 15.484375 1.71875 14.109375 1.71875 C 11.628906 1.71875 9.53125 1.097656 7.8125 -0.140625 C 6.09375 -1.378906 4.703125 -2.945312 3.640625 -4.84375 C 2.585938 -6.75 1.832031 -8.828125 1.375 -11.078125 C 0.914062 -13.328125 0.6875 -15.457031 0.6875 -17.46875 C 0.6875 -19.8125 1.003906 -22.347656 1.640625 -25.078125 C 2.285156 -27.804688 3.273438 -30.335938 4.609375 -32.671875 C 5.941406 -35.015625 7.648438 -36.96875 9.734375 -38.53125 C 11.816406 -40.09375 14.304688 -40.875 17.203125 -40.875 C 18.992188 -40.875 20.539062 -40.484375 21.84375 -39.703125 C 23.15625 -38.921875 24.234375 -37.898438 25.078125 -36.640625 C 25.921875 -35.378906 26.5625 -33.96875 27 -32.40625 C 27.4375 -30.84375 27.65625 -29.304688 27.65625 -27.796875 C 27.65625 -27.566406 27.65625 -27.335938 27.65625 -27.109375 C 27.65625 -26.878906 27.632812 -26.648438 27.59375 -26.421875 Z M 27.59375 -26.421875 "/></g></g></g><g fill="#304732" fill-opacity="1"><g transform="translate(149.355261, 118.106504)"><g><path d="M 31.3125 -9.703125 C 31.3125 -8.878906 31.273438 -7.800781 31.203125 -6.46875 C 31.128906 -5.132812 30.929688 -3.835938 30.609375 -2.578125 C 30.296875 -1.316406 29.796875 -0.226562 29.109375 0.6875 C 28.421875 1.601562 27.457031 2.0625 26.21875 2.0625 C 24.519531 2.0625 23.210938 1.507812 22.296875 0.40625 C 21.378906 -0.6875 20.941406 -2.0625 20.984375 -3.71875 C 19.515625 -2.425781 17.847656 -1.414062 15.984375 -0.6875 C 14.128906 0.0390625 12.238281 0.40625 10.3125 0.40625 C 8.988281 0.40625 7.726562 0.0859375 6.53125 -0.546875 C 5.34375 -1.191406 4.289062 -2.019531 3.375 -3.03125 C 2.457031 -4.039062 1.722656 -5.175781 1.171875 -6.4375 C 0.617188 -7.695312 0.34375 -8.945312 0.34375 -10.1875 C 0.34375 -12.382812 1.019531 -14.304688 2.375 -15.953125 C 3.726562 -17.609375 5.390625 -19.019531 7.359375 -20.1875 C 9.328125 -21.363281 11.425781 -22.296875 13.65625 -22.984375 C 15.882812 -23.671875 17.867188 -24.128906 19.609375 -24.359375 C 19.609375 -24.585938 19.617188 -24.789062 19.640625 -24.96875 C 19.660156 -25.15625 19.671875 -25.363281 19.671875 -25.59375 C 19.671875 -27.019531 19.28125 -28.164062 18.5 -29.03125 C 17.726562 -29.90625 16.628906 -30.34375 15.203125 -30.34375 C 14.054688 -30.34375 13.070312 -30.144531 12.25 -29.75 C 11.425781 -29.363281 10.644531 -28.929688 9.90625 -28.453125 C 9.175781 -27.972656 8.441406 -27.535156 7.703125 -27.140625 C 6.972656 -26.753906 6.148438 -26.5625 5.234375 -26.5625 C 4.222656 -26.5625 3.359375 -26.878906 2.640625 -27.515625 C 1.929688 -28.160156 1.578125 -28.988281 1.578125 -30 C 1.578125 -31.507812 2.023438 -32.882812 2.921875 -34.125 C 3.816406 -35.363281 4.941406 -36.40625 6.296875 -37.25 C 7.648438 -38.101562 9.117188 -38.769531 10.703125 -39.25 C 12.285156 -39.726562 13.738281 -39.96875 15.0625 -39.96875 C 16.300781 -39.96875 17.539062 -39.816406 18.78125 -39.515625 C 20.019531 -39.222656 21.1875 -38.765625 22.28125 -38.140625 C 23.382812 -37.523438 24.382812 -36.769531 25.28125 -35.875 C 26.175781 -34.976562 26.898438 -33.9375 27.453125 -32.75 C 28.273438 -31.050781 28.9375 -29.25 29.4375 -27.34375 C 29.945312 -25.445312 30.335938 -23.5 30.609375 -21.5 C 30.890625 -19.5 31.078125 -17.5 31.171875 -15.5 C 31.265625 -13.507812 31.3125 -11.578125 31.3125 -9.703125 Z M 20.296875 -11.90625 L 20.09375 -16.578125 C 20 -16.578125 19.90625 -16.585938 19.8125 -16.609375 C 19.71875 -16.640625 19.628906 -16.65625 19.546875 -16.65625 C 18.941406 -16.65625 18.191406 -16.503906 17.296875 -16.203125 C 16.410156 -15.898438 15.550781 -15.484375 14.71875 -14.953125 C 13.894531 -14.429688 13.195312 -13.847656 12.625 -13.203125 C 12.050781 -12.566406 11.765625 -11.90625 11.765625 -11.21875 C 11.765625 -10.570312 11.992188 -10.132812 12.453125 -9.90625 C 12.910156 -9.675781 13.4375 -9.5625 14.03125 -9.5625 C 15.039062 -9.5625 16.117188 -9.820312 17.265625 -10.34375 C 18.410156 -10.875 19.421875 -11.394531 20.296875 -11.90625 Z M 20.296875 -11.90625 "/></g></g></g><g fill="#304732" fill-opacity="1"><g transform="translate(182.720417, 118.106504)"><g><path d="M 25.9375 -25.734375 C 25.289062 -25.679688 24.738281 -25.734375 24.28125 -25.890625 C 23.820312 -26.054688 23.363281 -26.234375 22.90625 -26.421875 C 22.5 -26.597656 22.085938 -26.765625 21.671875 -26.921875 C 21.253906 -27.085938 20.796875 -27.148438 20.296875 -27.109375 C 19.378906 -27.066406 18.5625 -26.8125 17.84375 -26.34375 C 17.132812 -25.882812 16.492188 -25.3125 15.921875 -24.625 C 15.347656 -23.9375 14.851562 -23.164062 14.4375 -22.3125 C 14.03125 -21.46875 13.710938 -20.632812 13.484375 -19.8125 C 13.347656 -19.257812 13.242188 -18.421875 13.171875 -17.296875 C 13.109375 -16.179688 13.078125 -14.976562 13.078125 -13.6875 C 13.023438 -12.363281 13 -11.101562 13 -9.90625 C 13 -8.71875 12.953125 -7.78125 12.859375 -7.09375 C 12.816406 -6.351562 12.703125 -5.488281 12.515625 -4.5 C 12.335938 -3.519531 12.050781 -2.59375 11.65625 -1.71875 C 11.269531 -0.84375 10.753906 -0.109375 10.109375 0.484375 C 9.472656 1.078125 8.648438 1.375 7.640625 1.375 C 6.859375 1.375 6.179688 1.144531 5.609375 0.6875 C 5.035156 0.226562 4.550781 -0.375 4.15625 -1.125 C 3.769531 -1.882812 3.453125 -2.769531 3.203125 -3.78125 C 2.953125 -4.789062 2.753906 -5.820312 2.609375 -6.875 C 2.472656 -7.976562 2.367188 -9.078125 2.296875 -10.171875 C 2.234375 -11.273438 2.191406 -12.320312 2.171875 -13.3125 C 2.148438 -14.300781 2.148438 -15.207031 2.171875 -16.03125 C 2.191406 -16.851562 2.203125 -17.519531 2.203125 -18.03125 C 2.160156 -19.632812 2.078125 -21.25 1.953125 -22.875 C 1.835938 -24.5 1.78125 -26.117188 1.78125 -27.734375 C 1.78125 -28.734375 1.828125 -29.851562 1.921875 -31.09375 C 2.015625 -32.332031 2.265625 -33.488281 2.671875 -34.5625 C 3.085938 -35.644531 3.695312 -36.550781 4.5 -37.28125 C 5.300781 -38.019531 6.414062 -38.390625 7.84375 -38.390625 C 8.625 -38.390625 9.289062 -38.132812 9.84375 -37.625 C 10.394531 -37.125 10.84375 -36.503906 11.1875 -35.765625 C 11.53125 -35.035156 11.789062 -34.257812 11.96875 -33.4375 C 12.15625 -32.613281 12.269531 -31.859375 12.3125 -31.171875 C 13.414062 -32.953125 14.65625 -34.40625 16.03125 -35.53125 C 17.40625 -36.65625 19.191406 -37.265625 21.390625 -37.359375 C 22.492188 -37.398438 23.582031 -37.296875 24.65625 -37.046875 C 25.738281 -36.796875 26.726562 -36.382812 27.625 -35.8125 C 28.519531 -35.238281 29.253906 -34.492188 29.828125 -33.578125 C 30.398438 -32.660156 30.707031 -31.582031 30.75 -30.34375 C 30.84375 -28.875 30.40625 -27.75 29.4375 -26.96875 C 28.476562 -26.1875 27.3125 -25.773438 25.9375 -25.734375 Z M 25.9375 -25.734375 "/></g></g></g><g fill="#304732" fill-opacity="1"><g transform="translate(212.439484, 118.106504)"><g><path d="M 30.890625 -12.25 C 30.890625 -10.6875 30.394531 -9.160156 29.40625 -7.671875 C 28.425781 -6.179688 27.191406 -4.847656 25.703125 -3.671875 C 24.210938 -2.503906 22.617188 -1.566406 20.921875 -0.859375 C 19.222656 -0.148438 17.660156 0.203125 16.234375 0.203125 C 13.804688 0.203125 11.640625 -0.398438 9.734375 -1.609375 C 7.828125 -2.828125 6.234375 -4.375 4.953125 -6.25 C 3.671875 -8.132812 2.695312 -10.210938 2.03125 -12.484375 C 1.363281 -14.753906 1.03125 -16.96875 1.03125 -19.125 C 1.03125 -21.414062 1.347656 -23.867188 1.984375 -26.484375 C 2.628906 -29.097656 3.601562 -31.503906 4.90625 -33.703125 C 6.21875 -35.910156 7.867188 -37.75 9.859375 -39.21875 C 11.859375 -40.6875 14.238281 -41.421875 17 -41.421875 C 18.550781 -41.421875 20.035156 -41.15625 21.453125 -40.625 C 22.878906 -40.101562 24.117188 -39.359375 25.171875 -38.390625 C 26.234375 -37.429688 27.082031 -36.285156 27.71875 -34.953125 C 28.363281 -33.617188 28.6875 -32.128906 28.6875 -30.484375 C 28.6875 -28.328125 28.226562 -26.304688 27.3125 -24.421875 C 26.394531 -22.546875 25.175781 -20.914062 23.65625 -19.53125 C 22.144531 -18.15625 20.40625 -17.046875 18.4375 -16.203125 C 16.46875 -15.359375 14.453125 -14.890625 12.390625 -14.796875 C 12.566406 -13.460938 13.101562 -12.5 14 -11.90625 C 14.894531 -11.3125 15.960938 -11.015625 17.203125 -11.015625 C 18.117188 -11.015625 19.007812 -11.242188 19.875 -11.703125 C 20.75 -12.160156 21.597656 -12.675781 22.421875 -13.25 C 23.253906 -13.820312 24.070312 -14.335938 24.875 -14.796875 C 25.675781 -15.253906 26.488281 -15.484375 27.3125 -15.484375 C 28.226562 -15.484375 29.050781 -15.179688 29.78125 -14.578125 C 30.519531 -13.984375 30.890625 -13.207031 30.890625 -12.25 Z M 19.75 -29.109375 C 19.75 -29.703125 19.585938 -30.316406 19.265625 -30.953125 C 18.941406 -31.597656 18.4375 -31.921875 17.75 -31.921875 C 16.738281 -31.921875 15.890625 -31.65625 15.203125 -31.125 C 14.515625 -30.601562 13.941406 -29.941406 13.484375 -29.140625 C 13.023438 -28.335938 12.671875 -27.476562 12.421875 -26.5625 C 12.171875 -25.644531 12.019531 -24.796875 11.96875 -24.015625 C 12.613281 -24.148438 13.382812 -24.332031 14.28125 -24.5625 C 15.175781 -24.789062 16.023438 -25.097656 16.828125 -25.484375 C 17.628906 -25.878906 18.316406 -26.375 18.890625 -26.96875 C 19.460938 -27.5625 19.75 -28.273438 19.75 -29.109375 Z M 19.75 -29.109375 "/></g></g></g><g fill="#304732" fill-opacity="1"><g transform="translate(21.06956, 59.267687)"><g><path d="M 21.46875 -8.515625 C 21.46875 -7.429688 21.125 -6.367188 20.4375 -5.328125 C 19.75 -4.296875 18.882812 -3.375 17.84375 -2.5625 C 16.8125 -1.75 15.707031 -1.09375 14.53125 -0.59375 C 13.351562 -0.101562 12.269531 0.140625 11.28125 0.140625 C 9.59375 0.140625 8.085938 -0.28125 6.765625 -1.125 C 5.441406 -1.96875 4.332031 -3.039062 3.4375 -4.34375 C 2.550781 -5.65625 1.875 -7.097656 1.40625 -8.671875 C 0.945312 -10.253906 0.71875 -11.796875 0.71875 -13.296875 C 0.71875 -14.890625 0.941406 -16.59375 1.390625 -18.40625 C 1.835938 -20.21875 2.515625 -21.890625 3.421875 -23.421875 C 4.328125 -24.953125 5.472656 -26.226562 6.859375 -27.25 C 8.242188 -28.269531 9.894531 -28.78125 11.8125 -28.78125 C 12.894531 -28.78125 13.925781 -28.59375 14.90625 -28.21875 C 15.894531 -27.851562 16.753906 -27.335938 17.484375 -26.671875 C 18.222656 -26.003906 18.816406 -25.207031 19.265625 -24.28125 C 19.710938 -23.363281 19.9375 -22.328125 19.9375 -21.171875 C 19.9375 -19.679688 19.613281 -18.28125 18.96875 -16.96875 C 18.332031 -15.664062 17.488281 -14.535156 16.4375 -13.578125 C 15.394531 -12.617188 14.1875 -11.84375 12.8125 -11.25 C 11.4375 -10.664062 10.035156 -10.34375 8.609375 -10.28125 C 8.734375 -9.351562 9.101562 -8.679688 9.71875 -8.265625 C 10.34375 -7.859375 11.085938 -7.65625 11.953125 -7.65625 C 12.585938 -7.65625 13.207031 -7.8125 13.8125 -8.125 C 14.414062 -8.445312 15.003906 -8.804688 15.578125 -9.203125 C 16.148438 -9.597656 16.71875 -9.953125 17.28125 -10.265625 C 17.84375 -10.585938 18.410156 -10.75 18.984375 -10.75 C 19.617188 -10.75 20.191406 -10.539062 20.703125 -10.125 C 21.210938 -9.71875 21.46875 -9.179688 21.46875 -8.515625 Z M 13.71875 -20.21875 C 13.71875 -20.632812 13.601562 -21.066406 13.375 -21.515625 C 13.15625 -21.960938 12.804688 -22.1875 12.328125 -22.1875 C 11.628906 -22.1875 11.039062 -22 10.5625 -21.625 C 10.082031 -21.257812 9.679688 -20.796875 9.359375 -20.234375 C 9.046875 -19.679688 8.800781 -19.085938 8.625 -18.453125 C 8.445312 -17.816406 8.34375 -17.226562 8.3125 -16.6875 C 8.757812 -16.78125 9.296875 -16.90625 9.921875 -17.0625 C 10.546875 -17.226562 11.132812 -17.445312 11.6875 -17.71875 C 12.25 -17.988281 12.726562 -18.328125 13.125 -18.734375 C 13.519531 -19.148438 13.71875 -19.644531 13.71875 -20.21875 Z M 13.71875 -20.21875 "/></g></g></g><g fill="#304732" fill-opacity="1"><g transform="translate(43.010956, 59.267687)"><g><path d="M 21.75 -6.734375 C 21.75 -6.160156 21.722656 -5.410156 21.671875 -4.484375 C 21.628906 -3.566406 21.492188 -2.671875 21.265625 -1.796875 C 21.046875 -0.921875 20.695312 -0.164062 20.21875 0.46875 C 19.738281 1.113281 19.070312 1.4375 18.21875 1.4375 C 17.03125 1.4375 16.117188 1.050781 15.484375 0.28125 C 14.847656 -0.476562 14.546875 -1.429688 14.578125 -2.578125 C 13.554688 -1.691406 12.398438 -0.992188 11.109375 -0.484375 C 9.816406 0.0234375 8.503906 0.28125 7.171875 0.28125 C 6.242188 0.28125 5.363281 0.0625 4.53125 -0.375 C 3.707031 -0.820312 2.976562 -1.394531 2.34375 -2.09375 C 1.707031 -2.800781 1.195312 -3.59375 0.8125 -4.46875 C 0.425781 -5.34375 0.234375 -6.210938 0.234375 -7.078125 C 0.234375 -8.609375 0.703125 -9.945312 1.640625 -11.09375 C 2.585938 -12.238281 3.742188 -13.21875 5.109375 -14.03125 C 6.484375 -14.84375 7.941406 -15.488281 9.484375 -15.96875 C 11.035156 -16.445312 12.414062 -16.765625 13.625 -16.921875 C 13.625 -17.078125 13.628906 -17.21875 13.640625 -17.34375 C 13.660156 -17.476562 13.671875 -17.625 13.671875 -17.78125 C 13.671875 -18.769531 13.398438 -19.566406 12.859375 -20.171875 C 12.316406 -20.773438 11.550781 -21.078125 10.5625 -21.078125 C 9.769531 -21.078125 9.085938 -20.941406 8.515625 -20.671875 C 7.941406 -20.398438 7.398438 -20.097656 6.890625 -19.765625 C 6.378906 -19.429688 5.867188 -19.128906 5.359375 -18.859375 C 4.847656 -18.585938 4.273438 -18.453125 3.640625 -18.453125 C 2.929688 -18.453125 2.328125 -18.675781 1.828125 -19.125 C 1.335938 -19.570312 1.09375 -20.144531 1.09375 -20.84375 C 1.09375 -21.894531 1.40625 -22.847656 2.03125 -23.703125 C 2.65625 -24.566406 3.4375 -25.289062 4.375 -25.875 C 5.3125 -26.46875 6.328125 -26.929688 7.421875 -27.265625 C 8.523438 -27.609375 9.539062 -27.78125 10.46875 -27.78125 C 11.332031 -27.78125 12.191406 -27.675781 13.046875 -27.46875 C 13.910156 -27.257812 14.722656 -26.9375 15.484375 -26.5 C 16.253906 -26.070312 16.945312 -25.546875 17.5625 -24.921875 C 18.1875 -24.304688 18.691406 -23.582031 19.078125 -22.75 C 19.648438 -21.570312 20.109375 -20.320312 20.453125 -19 C 20.804688 -17.675781 21.078125 -16.320312 21.265625 -14.9375 C 21.460938 -13.550781 21.59375 -12.164062 21.65625 -10.78125 C 21.71875 -9.394531 21.75 -8.046875 21.75 -6.734375 Z M 14.109375 -8.265625 L 13.953125 -11.515625 C 13.890625 -11.515625 13.828125 -11.519531 13.765625 -11.53125 C 13.703125 -11.550781 13.640625 -11.5625 13.578125 -11.5625 C 13.160156 -11.5625 12.640625 -11.457031 12.015625 -11.25 C 11.398438 -11.050781 10.804688 -10.765625 10.234375 -10.390625 C 9.660156 -10.023438 9.171875 -9.617188 8.765625 -9.171875 C 8.367188 -8.734375 8.171875 -8.273438 8.171875 -7.796875 C 8.171875 -7.347656 8.328125 -7.039062 8.640625 -6.875 C 8.960938 -6.71875 9.332031 -6.640625 9.75 -6.640625 C 10.445312 -6.640625 11.191406 -6.820312 11.984375 -7.1875 C 12.785156 -7.5625 13.492188 -7.921875 14.109375 -8.265625 Z M 14.109375 -8.265625 "/></g></g></g><g fill="#304732" fill-opacity="1"><g transform="translate(66.195221, 59.267687)"><g><path d="M 18.015625 -17.875 C 17.578125 -17.84375 17.195312 -17.882812 16.875 -18 C 16.550781 -18.113281 16.234375 -18.234375 15.921875 -18.359375 C 15.628906 -18.484375 15.335938 -18.601562 15.046875 -18.71875 C 14.765625 -18.832031 14.453125 -18.867188 14.109375 -18.828125 C 13.460938 -18.796875 12.894531 -18.617188 12.40625 -18.296875 C 11.914062 -17.984375 11.46875 -17.585938 11.0625 -17.109375 C 10.664062 -16.628906 10.320312 -16.09375 10.03125 -15.5 C 9.75 -14.914062 9.53125 -14.335938 9.375 -13.765625 C 9.269531 -13.378906 9.191406 -12.796875 9.140625 -12.015625 C 9.097656 -11.242188 9.078125 -10.410156 9.078125 -9.515625 C 9.046875 -8.585938 9.03125 -7.707031 9.03125 -6.875 C 9.03125 -6.050781 9 -5.398438 8.9375 -4.921875 C 8.90625 -4.410156 8.828125 -3.8125 8.703125 -3.125 C 8.578125 -2.445312 8.378906 -1.800781 8.109375 -1.1875 C 7.835938 -0.582031 7.476562 -0.078125 7.03125 0.328125 C 6.582031 0.742188 6.007812 0.953125 5.3125 0.953125 C 4.769531 0.953125 4.296875 0.789062 3.890625 0.46875 C 3.492188 0.15625 3.160156 -0.257812 2.890625 -0.78125 C 2.617188 -1.3125 2.394531 -1.925781 2.21875 -2.625 C 2.039062 -3.332031 1.90625 -4.050781 1.8125 -4.78125 C 1.71875 -5.539062 1.644531 -6.300781 1.59375 -7.0625 C 1.550781 -7.832031 1.519531 -8.5625 1.5 -9.25 C 1.488281 -9.9375 1.488281 -10.566406 1.5 -11.140625 C 1.519531 -11.710938 1.53125 -12.175781 1.53125 -12.53125 C 1.5 -13.644531 1.441406 -14.765625 1.359375 -15.890625 C 1.285156 -17.023438 1.25 -18.148438 1.25 -19.265625 C 1.25 -19.960938 1.28125 -20.742188 1.34375 -21.609375 C 1.40625 -22.472656 1.578125 -23.273438 1.859375 -24.015625 C 2.148438 -24.765625 2.570312 -25.394531 3.125 -25.90625 C 3.6875 -26.414062 4.460938 -26.671875 5.453125 -26.671875 C 5.992188 -26.671875 6.453125 -26.492188 6.828125 -26.140625 C 7.210938 -25.796875 7.523438 -25.367188 7.765625 -24.859375 C 8.003906 -24.347656 8.1875 -23.804688 8.3125 -23.234375 C 8.445312 -22.660156 8.53125 -22.132812 8.5625 -21.65625 C 9.320312 -22.894531 10.179688 -23.90625 11.140625 -24.6875 C 12.097656 -25.46875 13.34375 -25.890625 14.875 -25.953125 C 15.632812 -25.984375 16.390625 -25.910156 17.140625 -25.734375 C 17.890625 -25.566406 18.570312 -25.28125 19.1875 -24.875 C 19.8125 -24.476562 20.320312 -23.960938 20.71875 -23.328125 C 21.125 -22.691406 21.34375 -21.941406 21.375 -21.078125 C 21.4375 -20.054688 21.128906 -19.273438 20.453125 -18.734375 C 19.785156 -18.191406 18.972656 -17.90625 18.015625 -17.875 Z M 18.015625 -17.875 "/></g></g></g><g fill="#304732" fill-opacity="1"><g transform="translate(86.845947, 59.267687)"><g><path d="M 10.375 -28.96875 C 10.375 -27.25 10.300781 -25.519531 10.15625 -23.78125 C 10.007812 -22.039062 9.9375 -20.296875 9.9375 -18.546875 C 9.9375 -16.285156 10.007812 -14.019531 10.15625 -11.75 C 10.300781 -9.488281 10.375 -7.210938 10.375 -4.921875 C 10.375 -4.347656 10.34375 -3.703125 10.28125 -2.984375 C 10.21875 -2.265625 10.066406 -1.601562 9.828125 -1 C 9.585938 -0.394531 9.226562 0.109375 8.75 0.515625 C 8.269531 0.929688 7.632812 1.140625 6.84375 1.140625 C 6.070312 1.140625 5.40625 0.765625 4.84375 0.015625 C 4.289062 -0.722656 3.832031 -1.675781 3.46875 -2.84375 C 3.101562 -4.007812 2.800781 -5.304688 2.5625 -6.734375 C 2.320312 -8.171875 2.144531 -9.566406 2.03125 -10.921875 C 1.914062 -12.273438 1.832031 -13.515625 1.78125 -14.640625 C 1.738281 -15.773438 1.71875 -16.613281 1.71875 -17.15625 C 1.71875 -17.769531 1.738281 -18.648438 1.78125 -19.796875 C 1.832031 -20.941406 1.9375 -22.179688 2.09375 -23.515625 C 2.257812 -24.859375 2.476562 -26.222656 2.75 -27.609375 C 3.019531 -28.992188 3.378906 -30.25 3.828125 -31.375 C 4.273438 -32.507812 4.804688 -33.4375 5.421875 -34.15625 C 6.046875 -34.875 6.789062 -35.234375 7.65625 -35.234375 C 8.351562 -35.234375 8.882812 -35 9.25 -34.53125 C 9.613281 -34.070312 9.875 -33.515625 10.03125 -32.859375 C 10.195312 -32.210938 10.296875 -31.53125 10.328125 -30.8125 C 10.359375 -30.09375 10.375 -29.476562 10.375 -28.96875 Z M 10.375 -28.96875 "/></g></g></g><g fill="#304732" fill-opacity="1"><g transform="translate(99.418032, 59.267687)"><g><path d="M 11.8125 13.90625 C 11.039062 13.90625 10.171875 13.785156 9.203125 13.546875 C 8.234375 13.304688 7.316406 12.960938 6.453125 12.515625 C 5.585938 12.078125 4.859375 11.535156 4.265625 10.890625 C 3.679688 10.253906 3.390625 9.523438 3.390625 8.703125 C 3.390625 8.378906 3.46875 8.054688 3.625 7.734375 C 3.789062 7.421875 4.007812 7.144531 4.28125 6.90625 C 4.550781 6.664062 4.84375 6.472656 5.15625 6.328125 C 5.476562 6.191406 5.816406 6.125 6.171875 6.125 C 6.546875 6.125 6.914062 6.175781 7.28125 6.28125 C 7.65625 6.394531 8.03125 6.53125 8.40625 6.6875 C 8.820312 6.851562 9.226562 7 9.625 7.125 C 10.03125 7.25 10.457031 7.3125 10.90625 7.3125 C 11.695312 7.3125 12.382812 7.039062 12.96875 6.5 C 13.5625 5.957031 14.066406 5.25 14.484375 4.375 C 14.898438 3.5 15.234375 2.523438 15.484375 1.453125 C 15.742188 0.390625 15.941406 -0.664062 16.078125 -1.71875 C 16.222656 -2.769531 16.328125 -3.757812 16.390625 -4.6875 C 16.460938 -5.613281 16.515625 -6.363281 16.546875 -6.9375 C 15.429688 -5.238281 14.320312 -3.9375 13.21875 -3.03125 C 12.113281 -2.125 10.765625 -1.671875 9.171875 -1.671875 C 7.960938 -1.671875 6.90625 -1.925781 6 -2.4375 C 5.09375 -2.945312 4.316406 -3.613281 3.671875 -4.4375 C 3.035156 -5.269531 2.507812 -6.21875 2.09375 -7.28125 C 1.6875 -8.351562 1.378906 -9.460938 1.171875 -10.609375 C 0.960938 -11.753906 0.828125 -12.875 0.765625 -13.96875 C 0.703125 -15.070312 0.703125 -16.085938 0.765625 -17.015625 C 0.796875 -17.722656 0.882812 -18.640625 1.03125 -19.765625 C 1.175781 -20.898438 1.40625 -22.007812 1.71875 -23.09375 C 2.039062 -24.175781 2.488281 -25.09375 3.0625 -25.84375 C 3.632812 -26.59375 4.382812 -26.929688 5.3125 -26.859375 C 5.914062 -26.828125 6.40625 -26.566406 6.78125 -26.078125 C 7.164062 -25.585938 7.476562 -24.972656 7.71875 -24.234375 C 7.957031 -23.503906 8.128906 -22.703125 8.234375 -21.828125 C 8.347656 -20.953125 8.421875 -20.082031 8.453125 -19.21875 C 8.492188 -18.351562 8.503906 -17.5625 8.484375 -16.84375 C 8.472656 -16.132812 8.46875 -15.585938 8.46875 -15.203125 C 8.46875 -14.660156 8.484375 -14.117188 8.515625 -13.578125 C 8.546875 -13.035156 8.65625 -12.546875 8.84375 -12.109375 C 9.03125 -11.679688 9.320312 -11.335938 9.71875 -11.078125 C 10.125 -10.828125 10.691406 -10.703125 11.421875 -10.703125 C 12.253906 -10.703125 12.914062 -10.910156 13.40625 -11.328125 C 13.90625 -11.742188 14.273438 -12.257812 14.515625 -12.875 C 14.753906 -13.5 14.90625 -14.171875 14.96875 -14.890625 C 15.03125 -15.609375 15.0625 -16.285156 15.0625 -16.921875 C 15.0625 -17.367188 15.0625 -17.910156 15.0625 -18.546875 C 15.0625 -19.179688 15.066406 -19.847656 15.078125 -20.546875 C 15.097656 -21.253906 15.160156 -21.945312 15.265625 -22.625 C 15.378906 -23.3125 15.554688 -23.9375 15.796875 -24.5 C 16.035156 -25.0625 16.351562 -25.515625 16.75 -25.859375 C 17.15625 -26.210938 17.675781 -26.390625 18.3125 -26.390625 C 19.101562 -26.390625 19.785156 -26.078125 20.359375 -25.453125 C 20.929688 -24.835938 21.414062 -24.023438 21.8125 -23.015625 C 22.21875 -22.015625 22.539062 -20.90625 22.78125 -19.6875 C 23.019531 -18.476562 23.203125 -17.273438 23.328125 -16.078125 C 23.453125 -14.890625 23.535156 -13.789062 23.578125 -12.78125 C 23.628906 -11.78125 23.65625 -10.992188 23.65625 -10.421875 C 23.65625 -9.078125 23.609375 -7.550781 23.515625 -5.84375 C 23.421875 -4.144531 23.238281 -2.394531 22.96875 -0.59375 C 22.695312 1.207031 22.289062 2.972656 21.75 4.703125 C 21.207031 6.441406 20.5 7.992188 19.625 9.359375 C 18.75 10.734375 17.671875 11.832031 16.390625 12.65625 C 15.117188 13.488281 13.59375 13.90625 11.8125 13.90625 Z M 11.8125 13.90625 "/></g></g></g><g fill="#304732" fill-opacity="1"><g transform="translate(124.753413, 59.267687)"><g/></g></g><g fill="#304732" fill-opacity="1"><g transform="translate(136.273841, 59.267687)"><g><path d="M 11.8125 13.90625 C 11.039062 13.90625 10.171875 13.785156 9.203125 13.546875 C 8.234375 13.304688 7.316406 12.960938 6.453125 12.515625 C 5.585938 12.078125 4.859375 11.535156 4.265625 10.890625 C 3.679688 10.253906 3.390625 9.523438 3.390625 8.703125 C 3.390625 8.378906 3.46875 8.054688 3.625 7.734375 C 3.789062 7.421875 4.007812 7.144531 4.28125 6.90625 C 4.550781 6.664062 4.84375 6.472656 5.15625 6.328125 C 5.476562 6.191406 5.816406 6.125 6.171875 6.125 C 6.546875 6.125 6.914062 6.175781 7.28125 6.28125 C 7.65625 6.394531 8.03125 6.53125 8.40625 6.6875 C 8.820312 6.851562 9.226562 7 9.625 7.125 C 10.03125 7.25 10.457031 7.3125 10.90625 7.3125 C 11.695312 7.3125 12.382812 7.039062 12.96875 6.5 C 13.5625 5.957031 14.066406 5.25 14.484375 4.375 C 14.898438 3.5 15.234375 2.523438 15.484375 1.453125 C 15.742188 0.390625 15.941406 -0.664062 16.078125 -1.71875 C 16.222656 -2.769531 16.328125 -3.757812 16.390625 -4.6875 C 16.460938 -5.613281 16.515625 -6.363281 16.546875 -6.9375 C 15.429688 -5.238281 14.320312 -3.9375 13.21875 -3.03125 C 12.113281 -2.125 10.765625 -1.671875 9.171875 -1.671875 C 7.960938 -1.671875 6.90625 -1.925781 6 -2.4375 C 5.09375 -2.945312 4.316406 -3.613281 3.671875 -4.4375 C 3.035156 -5.269531 2.507812 -6.21875 2.09375 -7.28125 C 1.6875 -8.351562 1.378906 -9.460938 1.171875 -10.609375 C 0.960938 -11.753906 0.828125 -12.875 0.765625 -13.96875 C 0.703125 -15.070312 0.703125 -16.085938 0.765625 -17.015625 C 0.796875 -17.722656 0.882812 -18.640625 1.03125 -19.765625 C 1.175781 -20.898438 1.40625 -22.007812 1.71875 -23.09375 C 2.039062 -24.175781 2.488281 -25.09375 3.0625 -25.84375 C 3.632812 -26.59375 4.382812 -26.929688 5.3125 -26.859375 C 5.914062 -26.828125 6.40625 -26.566406 6.78125 -26.078125 C 7.164062 -25.585938 7.476562 -24.972656 7.71875 -24.234375 C 7.957031 -23.503906 8.128906 -22.703125 8.234375 -21.828125 C 8.347656 -20.953125 8.421875 -20.082031 8.453125 -19.21875 C 8.492188 -18.351562 8.503906 -17.5625 8.484375 -16.84375 C 8.472656 -16.132812 8.46875 -15.585938 8.46875 -15.203125 C 8.46875 -14.660156 8.484375 -14.117188 8.515625 -13.578125 C 8.546875 -13.035156 8.65625 -12.546875 8.84375 -12.109375 C 9.03125 -11.679688 9.320312 -11.335938 9.71875 -11.078125 C 10.125 -10.828125 10.691406 -10.703125 11.421875 -10.703125 C 12.253906 -10.703125 12.914062 -10.910156 13.40625 -11.328125 C 13.90625 -11.742188 14.273438 -12.257812 14.515625 -12.875 C 14.753906 -13.5 14.90625 -14.171875 14.96875 -14.890625 C 15.03125 -15.609375 15.0625 -16.285156 15.0625 -16.921875 C 15.0625 -17.367188 15.0625 -17.910156 15.0625 -18.546875 C 15.0625 -19.179688 15.066406 -19.847656 15.078125 -20.546875 C 15.097656 -21.253906 15.160156 -21.945312 15.265625 -22.625 C 15.378906 -23.3125 15.554688 -23.9375 15.796875 -24.5 C 16.035156 -25.0625 16.351562 -25.515625 16.75 -25.859375 C 17.15625 -26.210938 17.675781 -26.390625 18.3125 -26.390625 C 19.101562 -26.390625 19.785156 -26.078125 20.359375 -25.453125 C 20.929688 -24.835938 21.414062 -24.023438 21.8125 -23.015625 C 22.21875 -22.015625 22.539062 -20.90625 22.78125 -19.6875 C 23.019531 -18.476562 23.203125 -17.273438 23.328125 -16.078125 C 23.453125 -14.890625 23.535156 -13.789062 23.578125 -12.78125 C 23.628906 -11.78125 23.65625 -10.992188 23.65625 -10.421875 C 23.65625 -9.078125 23.609375 -7.550781 23.515625 -5.84375 C 23.421875 -4.144531 23.238281 -2.394531 22.96875 -0.59375 C 22.695312 1.207031 22.289062 2.972656 21.75 4.703125 C 21.207031 6.441406 20.5 7.992188 19.625 9.359375 C 18.75 10.734375 17.671875 11.832031 16.390625 12.65625 C 15.117188 13.488281 13.59375 13.90625 11.8125 13.90625 Z M 11.8125 13.90625 "/></g></g></g><g fill="#304732" fill-opacity="1"><g transform="translate(161.609222, 59.267687)"><g><path d="M 21.46875 -8.515625 C 21.46875 -7.429688 21.125 -6.367188 20.4375 -5.328125 C 19.75 -4.296875 18.882812 -3.375 17.84375 -2.5625 C 16.8125 -1.75 15.707031 -1.09375 14.53125 -0.59375 C 13.351562 -0.101562 12.269531 0.140625 11.28125 0.140625 C 9.59375 0.140625 8.085938 -0.28125 6.765625 -1.125 C 5.441406 -1.96875 4.332031 -3.039062 3.4375 -4.34375 C 2.550781 -5.65625 1.875 -7.097656 1.40625 -8.671875 C 0.945312 -10.253906 0.71875 -11.796875 0.71875 -13.296875 C 0.71875 -14.890625 0.941406 -16.59375 1.390625 -18.40625 C 1.835938 -20.21875 2.515625 -21.890625 3.421875 -23.421875 C 4.328125 -24.953125 5.472656 -26.226562 6.859375 -27.25 C 8.242188 -28.269531 9.894531 -28.78125 11.8125 -28.78125 C 12.894531 -28.78125 13.925781 -28.59375 14.90625 -28.21875 C 15.894531 -27.851562 16.753906 -27.335938 17.484375 -26.671875 C 18.222656 -26.003906 18.816406 -25.207031 19.265625 -24.28125 C 19.710938 -23.363281 19.9375 -22.328125 19.9375 -21.171875 C 19.9375 -19.679688 19.613281 -18.28125 18.96875 -16.96875 C 18.332031 -15.664062 17.488281 -14.535156 16.4375 -13.578125 C 15.394531 -12.617188 14.1875 -11.84375 12.8125 -11.25 C 11.4375 -10.664062 10.035156 -10.34375 8.609375 -10.28125 C 8.734375 -9.351562 9.101562 -8.679688 9.71875 -8.265625 C 10.34375 -7.859375 11.085938 -7.65625 11.953125 -7.65625 C 12.585938 -7.65625 13.207031 -7.8125 13.8125 -8.125 C 14.414062 -8.445312 15.003906 -8.804688 15.578125 -9.203125 C 16.148438 -9.597656 16.71875 -9.953125 17.28125 -10.265625 C 17.84375 -10.585938 18.410156 -10.75 18.984375 -10.75 C 19.617188 -10.75 20.191406 -10.539062 20.703125 -10.125 C 21.210938 -9.71875 21.46875 -9.179688 21.46875 -8.515625 Z M 13.71875 -20.21875 C 13.71875 -20.632812 13.601562 -21.066406 13.375 -21.515625 C 13.15625 -21.960938 12.804688 -22.1875 12.328125 -22.1875 C 11.628906 -22.1875 11.039062 -22 10.5625 -21.625 C 10.082031 -21.257812 9.679688 -20.796875 9.359375 -20.234375 C 9.046875 -19.679688 8.800781 -19.085938 8.625 -18.453125 C 8.445312 -17.816406 8.34375 -17.226562 8.3125 -16.6875 C 8.757812 -16.78125 9.296875 -16.90625 9.921875 -17.0625 C 10.546875 -17.226562 11.132812 -17.445312 11.6875 -17.71875 C 12.25 -17.988281 12.726562 -18.328125 13.125 -18.734375 C 13.519531 -19.148438 13.71875 -19.644531 13.71875 -20.21875 Z M 13.71875 -20.21875 "/></g></g></g><g fill="#304732" fill-opacity="1"><g transform="translate(183.550619, 59.267687)"><g><path d="M 21.75 -6.734375 C 21.75 -6.160156 21.722656 -5.410156 21.671875 -4.484375 C 21.628906 -3.566406 21.492188 -2.671875 21.265625 -1.796875 C 21.046875 -0.921875 20.695312 -0.164062 20.21875 0.46875 C 19.738281 1.113281 19.070312 1.4375 18.21875 1.4375 C 17.03125 1.4375 16.117188 1.050781 15.484375 0.28125 C 14.847656 -0.476562 14.546875 -1.429688 14.578125 -2.578125 C 13.554688 -1.691406 12.398438 -0.992188 11.109375 -0.484375 C 9.816406 0.0234375 8.503906 0.28125 7.171875 0.28125 C 6.242188 0.28125 5.363281 0.0625 4.53125 -0.375 C 3.707031 -0.820312 2.976562 -1.394531 2.34375 -2.09375 C 1.707031 -2.800781 1.195312 -3.59375 0.8125 -4.46875 C 0.425781 -5.34375 0.234375 -6.210938 0.234375 -7.078125 C 0.234375 -8.609375 0.703125 -9.945312 1.640625 -11.09375 C 2.585938 -12.238281 3.742188 -13.21875 5.109375 -14.03125 C 6.484375 -14.84375 7.941406 -15.488281 9.484375 -15.96875 C 11.035156 -16.445312 12.414062 -16.765625 13.625 -16.921875 C 13.625 -17.078125 13.628906 -17.21875 13.640625 -17.34375 C 13.660156 -17.476562 13.671875 -17.625 13.671875 -17.78125 C 13.671875 -18.769531 13.398438 -19.566406 12.859375 -20.171875 C 12.316406 -20.773438 11.550781 -21.078125 10.5625 -21.078125 C 9.769531 -21.078125 9.085938 -20.941406 8.515625 -20.671875 C 7.941406 -20.398438 7.398438 -20.097656 6.890625 -19.765625 C 6.378906 -19.429688 5.867188 -19.128906 5.359375 -18.859375 C 4.847656 -18.585938 4.273438 -18.453125 3.640625 -18.453125 C 2.929688 -18.453125 2.328125 -18.675781 1.828125 -19.125 C 1.335938 -19.570312 1.09375 -20.144531 1.09375 -20.84375 C 1.09375 -21.894531 1.40625 -22.847656 2.03125 -23.703125 C 2.65625 -24.566406 3.4375 -25.289062 4.375 -25.875 C 5.3125 -26.46875 6.328125 -26.929688 7.421875 -27.265625 C 8.523438 -27.609375 9.539062 -27.78125 10.46875 -27.78125 C 11.332031 -27.78125 12.191406 -27.675781 13.046875 -27.46875 C 13.910156 -27.257812 14.722656 -26.9375 15.484375 -26.5 C 16.253906 -26.070312 16.945312 -25.546875 17.5625 -24.921875 C 18.1875 -24.304688 18.691406 -23.582031 19.078125 -22.75 C 19.648438 -21.570312 20.109375 -20.320312 20.453125 -19 C 20.804688 -17.675781 21.078125 -16.320312 21.265625 -14.9375 C 21.460938 -13.550781 21.59375 -12.164062 21.65625 -10.78125 C 21.71875 -9.394531 21.75 -8.046875 21.75 -6.734375 Z M 14.109375 -8.265625 L 13.953125 -11.515625 C 13.890625 -11.515625 13.828125 -11.519531 13.765625 -11.53125 C 13.703125 -11.550781 13.640625 -11.5625 13.578125 -11.5625 C 13.160156 -11.5625 12.640625 -11.457031 12.015625 -11.25 C 11.398438 -11.050781 10.804688 -10.765625 10.234375 -10.390625 C 9.660156 -10.023438 9.171875 -9.617188 8.765625 -9.171875 C 8.367188 -8.734375 8.171875 -8.273438 8.171875 -7.796875 C 8.171875 -7.347656 8.328125 -7.039062 8.640625 -6.875 C 8.960938 -6.71875 9.332031 -6.640625 9.75 -6.640625 C 10.445312 -6.640625 11.191406 -6.820312 11.984375 -7.1875 C 12.785156 -7.5625 13.492188 -7.921875 14.109375 -8.265625 Z M 14.109375 -8.265625 "/></g></g></g><g fill="#304732" fill-opacity="1"><g transform="translate(206.734883, 59.267687)"><g><path d="M 18.015625 -17.875 C 17.578125 -17.84375 17.195312 -17.882812 16.875 -18 C 16.550781 -18.113281 16.234375 -18.234375 15.921875 -18.359375 C 15.628906 -18.484375 15.335938 -18.601562 15.046875 -18.71875 C 14.765625 -18.832031 14.453125 -18.867188 14.109375 -18.828125 C 13.460938 -18.796875 12.894531 -18.617188 12.40625 -18.296875 C 11.914062 -17.984375 11.46875 -17.585938 11.0625 -17.109375 C 10.664062 -16.628906 10.320312 -16.09375 10.03125 -15.5 C 9.75 -14.914062 9.53125 -14.335938 9.375 -13.765625 C 9.269531 -13.378906 9.191406 -12.796875 9.140625 -12.015625 C 9.097656 -11.242188 9.078125 -10.410156 9.078125 -9.515625 C 9.046875 -8.585938 9.03125 -7.707031 9.03125 -6.875 C 9.03125 -6.050781 9 -5.398438 8.9375 -4.921875 C 8.90625 -4.410156 8.828125 -3.8125 8.703125 -3.125 C 8.578125 -2.445312 8.378906 -1.800781 8.109375 -1.1875 C 7.835938 -0.582031 7.476562 -0.078125 7.03125 0.328125 C 6.582031 0.742188 6.007812 0.953125 5.3125 0.953125 C 4.769531 0.953125 4.296875 0.789062 3.890625 0.46875 C 3.492188 0.15625 3.160156 -0.257812 2.890625 -0.78125 C 2.617188 -1.3125 2.394531 -1.925781 2.21875 -2.625 C 2.039062 -3.332031 1.90625 -4.050781 1.8125 -4.78125 C 1.71875 -5.539062 1.644531 -6.300781 1.59375 -7.0625 C 1.550781 -7.832031 1.519531 -8.5625 1.5 -9.25 C 1.488281 -9.9375 1.488281 -10.566406 1.5 -11.140625 C 1.519531 -11.710938 1.53125 -12.175781 1.53125 -12.53125 C 1.5 -13.644531 1.441406 -14.765625 1.359375 -15.890625 C 1.285156 -17.023438 1.25 -18.148438 1.25 -19.265625 C 1.25 -19.960938 1.28125 -20.742188 1.34375 -21.609375 C 1.40625 -22.472656 1.578125 -23.273438 1.859375 -24.015625 C 2.148438 -24.765625 2.570312 -25.394531 3.125 -25.90625 C 3.6875 -26.414062 4.460938 -26.671875 5.453125 -26.671875 C 5.992188 -26.671875 6.453125 -26.492188 6.828125 -26.140625 C 7.210938 -25.796875 7.523438 -25.367188 7.765625 -24.859375 C 8.003906 -24.347656 8.1875 -23.804688 8.3125 -23.234375 C 8.445312 -22.660156 8.53125 -22.132812 8.5625 -21.65625 C 9.320312 -22.894531 10.179688 -23.90625 11.140625 -24.6875 C 12.097656 -25.46875 13.34375 -25.890625 14.875 -25.953125 C 15.632812 -25.984375 16.390625 -25.910156 17.140625 -25.734375 C 17.890625 -25.566406 18.570312 -25.28125 19.1875 -24.875 C 19.8125 -24.476562 20.320312 -23.960938 20.71875 -23.328125 C 21.125 -22.691406 21.34375 -21.941406 21.375 -21.078125 C 21.4375 -20.054688 21.128906 -19.273438 20.453125 -18.734375 C 19.785156 -18.191406 18.972656 -17.90625 18.015625 -17.875 Z M 18.015625 -17.875 "/></g></g></g><g fill="#304732" fill-opacity="1"><g transform="translate(227.38561, 59.267687)"><g><path d="M 15.4375 -26.296875 C 15.4375 -25.367188 15.125 -24.679688 14.5 -24.234375 C 13.882812 -23.785156 13.191406 -23.363281 12.421875 -22.96875 C 11.660156 -22.570312 10.96875 -22.101562 10.34375 -21.5625 C 9.726562 -21.019531 9.421875 -20.207031 9.421875 -19.125 C 9.421875 -18.550781 9.554688 -18.054688 9.828125 -17.640625 C 10.097656 -17.222656 10.429688 -16.847656 10.828125 -16.515625 C 11.222656 -16.179688 11.660156 -15.835938 12.140625 -15.484375 C 12.617188 -15.140625 13.054688 -14.742188 13.453125 -14.296875 C 13.859375 -13.847656 14.195312 -13.304688 14.46875 -12.671875 C 14.738281 -12.035156 14.875 -11.253906 14.875 -10.328125 C 14.875 -8.984375 14.53125 -7.664062 13.84375 -6.375 C 13.15625 -5.09375 12.273438 -3.945312 11.203125 -2.9375 C 10.140625 -1.9375 8.9375 -1.132812 7.59375 -0.53125 C 6.257812 0.0703125 4.941406 0.375 3.640625 0.375 C 3.097656 0.375 2.550781 0.332031 2 0.25 C 1.457031 0.175781 0.972656 0.03125 0.546875 -0.1875 C 0.117188 -0.414062 -0.234375 -0.726562 -0.515625 -1.125 C -0.804688 -1.519531 -0.953125 -2.035156 -0.953125 -2.671875 C -0.953125 -3.566406 -0.773438 -4.257812 -0.421875 -4.75 C -0.078125 -5.25 0.363281 -5.640625 0.90625 -5.921875 C 1.445312 -6.210938 2.023438 -6.4375 2.640625 -6.59375 C 3.265625 -6.757812 3.847656 -6.957031 4.390625 -7.1875 C 4.929688 -7.425781 5.378906 -7.738281 5.734375 -8.125 C 6.085938 -8.507812 6.265625 -9.050781 6.265625 -9.75 C 6.265625 -10.414062 6 -11.109375 5.46875 -11.828125 C 4.945312 -12.546875 4.363281 -13.3125 3.71875 -14.125 C 3.082031 -14.9375 2.5 -15.804688 1.96875 -16.734375 C 1.445312 -17.660156 1.1875 -18.679688 1.1875 -19.796875 C 1.1875 -21.160156 1.46875 -22.425781 2.03125 -23.59375 C 2.59375 -24.757812 3.34375 -25.769531 4.28125 -26.625 C 5.21875 -27.488281 6.289062 -28.164062 7.5 -28.65625 C 8.71875 -29.15625 9.992188 -29.40625 11.328125 -29.40625 C 11.835938 -29.40625 12.335938 -29.351562 12.828125 -29.25 C 13.328125 -29.15625 13.765625 -28.988281 14.140625 -28.75 C 14.523438 -28.507812 14.835938 -28.191406 15.078125 -27.796875 C 15.316406 -27.398438 15.4375 -26.898438 15.4375 -26.296875 Z M 15.4375 -26.296875 "/></g></g></g></svg>