<svg xmlns="http://www.w3.org/2000/svg" xmlns:xlink="http://www.w3.org/1999/xlink" width="1095" zoomAndPan="magnify" viewBox="0 0 821.25 517.49999" height="690" preserveAspectRatio="xMidYMid meet" version="1.0"><defs><g/></defs><path fill="#304732" d="M 160.203125 327.542969 C 160.203125 332.367188 158.671875 337.085938 155.621094 341.679688 C 152.597656 346.289062 148.785156 350.402344 144.195312 354.035156 C 139.589844 357.640625 134.671875 360.535156 129.441406 362.71875 C 124.195312 364.914062 119.375 366 114.976562 366 C 107.476562 366 100.800781 364.144531 94.917969 360.402344 C 89.035156 356.640625 84.117188 351.863281 80.164062 346.070312 C 76.210938 340.257812 73.195312 333.839844 71.148438 326.816406 C 69.085938 319.808594 68.0625 312.96875 68.0625 306.308594 C 68.0625 299.238281 69.039062 291.664062 71.003906 283.582031 C 72.992188 275.511719 75.992188 268.078125 80.019531 261.285156 C 84.070312 254.472656 89.15625 248.789062 95.304688 244.253906 C 101.476562 239.714844 108.816406 237.449219 117.339844 237.449219 C 122.125 237.449219 126.703125 238.269531 131.078125 239.910156 C 135.480469 241.527344 139.300781 243.816406 142.554688 246.808594 C 145.832031 249.777344 148.449219 253.3125 150.414062 257.425781 C 152.402344 261.550781 153.402344 266.148438 153.402344 271.226562 C 153.402344 277.886719 151.980469 284.136719 149.160156 289.949219 C 146.328125 295.742188 142.566406 300.785156 137.878906 305.054688 C 133.214844 309.300781 127.847656 312.726562 121.773438 315.332031 C 115.699219 317.9375 109.480469 319.386719 103.113281 319.675781 C 103.65625 323.800781 105.308594 326.769531 108.082031 328.605469 C 110.839844 330.4375 114.132812 331.355469 117.964844 331.355469 C 120.785156 331.355469 123.535156 330.65625 126.210938 329.230469 C 128.910156 327.820312 131.527344 326.226562 134.070312 324.453125 C 136.636719 322.691406 139.15625 321.101562 141.640625 319.675781 C 144.109375 318.265625 146.617188 317.554688 149.160156 317.554688 C 151.980469 317.554688 154.523438 318.492188 156.777344 320.351562 C 159.058594 322.183594 160.203125 324.585938 160.203125 327.542969 Z M 125.824219 275.472656 C 125.824219 273.640625 125.316406 271.746094 124.328125 269.78125 C 123.328125 267.789062 121.773438 266.789062 119.652344 266.789062 C 116.53125 266.789062 113.914062 267.609375 111.792969 269.25 C 109.671875 270.867188 107.898438 272.90625 106.488281 275.378906 C 105.066406 277.863281 103.984375 280.515625 103.210938 283.339844 C 102.441406 286.175781 101.96875 288.792969 101.8125 291.207031 C 103.800781 290.796875 106.175781 290.226562 108.949219 289.515625 C 111.710938 288.816406 114.324219 287.863281 116.808594 286.667969 C 119.277344 285.449219 121.402344 283.917969 123.171875 282.085938 C 124.933594 280.25 125.824219 278.054688 125.824219 275.472656 Z M 125.824219 275.472656 " fill-opacity="1" fill-rule="nonzero"/><path fill="#304732" d="M 214.777344 427.191406 C 211.367188 427.191406 207.5 426.660156 203.160156 425.597656 C 198.84375 424.535156 194.78125 423.003906 190.960938 421.011719 C 187.164062 419.046875 183.945312 416.644531 181.316406 413.824219 C 178.714844 410.988281 177.410156 407.71875 177.410156 404.027344 C 177.410156 402.605469 177.761719 401.191406 178.472656 399.78125 C 179.171875 398.355469 180.125 397.125 181.316406 396.066406 C 182.535156 395.003906 183.847656 394.148438 185.269531 393.507812 C 186.679688 392.890625 188.164062 392.589844 189.707031 392.589844 C 191.40625 392.589844 193.058594 392.832031 194.671875 393.3125 C 196.3125 393.796875 197.976562 394.386719 199.6875 395.101562 C 201.519531 395.800781 203.316406 396.449219 205.085938 397.03125 C 206.847656 397.609375 208.726562 397.898438 210.730469 397.898438 C 214.261719 397.898438 217.335938 396.691406 219.9375 394.28125 C 222.566406 391.867188 224.808594 388.707031 226.640625 384.820312 C 228.472656 380.925781 229.941406 376.59375 231.074219 371.839844 C 232.234375 367.113281 233.125 362.417969 233.777344 357.75 C 234.414062 353.058594 234.859375 348.664062 235.125 344.574219 C 235.414062 340.460938 235.632812 337.132812 235.800781 334.585938 C 230.8125 342.089844 225.878906 347.859375 221 351.910156 C 216.140625 355.941406 210.164062 357.941406 203.0625 357.941406 C 197.6875 357.941406 192.984375 356.820312 188.933594 354.566406 C 184.910156 352.285156 181.484375 349.304688 178.664062 345.636719 C 175.832031 341.945312 173.507812 337.722656 171.675781 332.996094 C 169.84375 328.242188 168.457031 323.320312 167.527344 318.230469 C 166.585938 313.113281 165.984375 308.117188 165.695312 303.222656 C 165.429688 298.335938 165.429688 293.835938 165.695312 289.710938 C 165.851562 286.621094 166.238281 282.566406 166.851562 277.550781 C 167.492188 272.507812 168.515625 267.558594 169.9375 262.734375 C 171.382812 257.910156 173.375 253.84375 175.917969 250.527344 C 178.449219 247.21875 181.773438 245.6875 185.898438 245.941406 C 188.5625 246.109375 190.742188 247.28125 192.457031 249.464844 C 194.15625 251.660156 195.539062 254.386719 196.601562 257.667969 C 197.664062 260.925781 198.433594 264.496094 198.917969 268.378906 C 199.421875 272.277344 199.746094 276.136719 199.878906 279.960938 C 200.035156 283.796875 200.074219 287.296875 199.976562 290.480469 C 199.90625 293.667969 199.878906 296.117188 199.878906 297.816406 C 199.878906 300.230469 199.941406 302.640625 200.074219 305.054688 C 200.230469 307.445312 200.722656 309.589844 201.566406 311.519531 C 202.4375 313.425781 203.75 314.945312 205.523438 316.105469 C 207.28125 317.238281 209.789062 317.792969 213.042969 317.792969 C 216.730469 317.792969 219.671875 316.878906 221.867188 315.042969 C 224.046875 313.1875 225.675781 310.871094 226.738281 308.09375 C 227.796875 305.332031 228.472656 302.351562 228.761719 299.167969 C 229.050781 295.984375 229.195312 292.980469 229.195312 290.144531 C 229.195312 288.1875 229.195312 285.789062 229.195312 282.953125 C 229.195312 280.09375 229.21875 277.113281 229.292969 274.027344 C 229.351562 270.914062 229.628906 267.824219 230.113281 264.761719 C 230.617188 261.710938 231.414062 258.945312 232.472656 256.460938 C 233.535156 253.988281 234.945312 251.972656 236.71875 250.429688 C 238.476562 248.859375 240.78125 248.066406 243.613281 248.066406 C 247.179688 248.066406 250.230469 249.453125 252.773438 252.214844 C 255.304688 254.988281 257.460938 258.609375 259.234375 263.074219 C 260.992188 267.546875 262.417969 272.46875 263.476562 277.839844 C 264.539062 283.21875 265.332031 288.550781 265.886719 293.859375 C 266.464844 299.167969 266.863281 304.066406 267.09375 308.527344 C 267.308594 313.003906 267.429688 316.515625 267.429688 319.050781 C 267.429688 325.007812 267.203125 331.777344 266.753906 339.363281 C 266.332031 346.929688 265.515625 354.710938 264.296875 362.71875 C 263.101562 370.730469 261.308594 378.597656 258.898438 386.316406 C 256.511719 394.039062 253.363281 400.9375 249.445312 407.019531 C 245.554688 413.097656 240.78125 417.972656 235.125 421.640625 C 229.460938 425.332031 222.6875 427.191406 214.777344 427.191406 Z M 214.777344 427.191406 " fill-opacity="1" fill-rule="nonzero"/><path fill="#304732" d="M 370.15625 327.542969 C 370.15625 332.367188 368.625 337.085938 365.574219 341.679688 C 362.546875 346.289062 358.738281 350.402344 354.148438 354.035156 C 349.542969 357.640625 344.625 360.535156 339.394531 362.71875 C 334.148438 364.914062 329.328125 366 324.929688 366 C 317.429688 366 310.753906 364.144531 304.871094 360.402344 C 298.988281 356.640625 294.070312 351.863281 290.117188 346.070312 C 286.164062 340.257812 283.148438 333.839844 281.101562 326.816406 C 279.039062 319.808594 278.015625 312.96875 278.015625 306.308594 C 278.015625 299.238281 278.992188 291.664062 280.957031 283.582031 C 282.945312 275.511719 285.945312 268.078125 289.972656 261.285156 C 294.023438 254.472656 299.109375 248.789062 305.257812 244.253906 C 311.429688 239.714844 318.769531 237.449219 327.289062 237.449219 C 332.078125 237.449219 336.65625 238.269531 341.03125 239.910156 C 345.433594 241.527344 349.253906 243.816406 352.507812 246.808594 C 355.785156 249.777344 358.402344 253.3125 360.367188 257.425781 C 362.355469 261.550781 363.355469 266.148438 363.355469 271.226562 C 363.355469 277.886719 361.933594 284.136719 359.113281 289.949219 C 356.28125 295.742188 352.519531 300.785156 347.832031 305.054688 C 343.164062 309.300781 337.800781 312.726562 331.726562 315.332031 C 325.652344 317.9375 319.433594 319.386719 313.066406 319.675781 C 313.609375 323.800781 315.261719 326.769531 318.035156 328.605469 C 320.792969 330.4375 324.085938 331.355469 327.917969 331.355469 C 330.738281 331.355469 333.488281 330.65625 336.164062 329.230469 C 338.863281 327.820312 341.476562 326.226562 344.023438 324.453125 C 346.589844 322.691406 349.109375 321.101562 351.589844 319.675781 C 354.0625 318.265625 356.570312 317.554688 359.113281 317.554688 C 361.933594 317.554688 364.476562 318.492188 366.730469 320.351562 C 369.007812 322.183594 370.15625 324.585938 370.15625 327.542969 Z M 335.777344 275.472656 C 335.777344 273.640625 335.269531 271.746094 334.28125 269.78125 C 333.28125 267.789062 331.726562 266.789062 329.605469 266.789062 C 326.484375 266.789062 323.867188 267.609375 321.746094 269.25 C 319.625 270.867188 317.851562 272.90625 316.441406 275.378906 C 315.019531 277.863281 313.933594 280.515625 313.164062 283.339844 C 312.390625 286.175781 311.921875 288.792969 311.765625 291.207031 C 313.753906 290.796875 316.128906 290.226562 318.902344 289.515625 C 321.660156 288.816406 324.277344 287.863281 326.761719 286.667969 C 329.230469 285.449219 331.351562 283.917969 333.125 282.085938 C 334.886719 280.25 335.777344 278.054688 335.777344 275.472656 Z M 335.777344 275.472656 " fill-opacity="1" fill-rule="nonzero"/><path fill="#304732" d="M 457.417969 283.773438 C 457.417969 284.484375 457.335938 285.246094 457.179688 286.042969 C 457.046875 286.8125 456.839844 287.5625 456.550781 288.261719 C 455.261719 291.519531 453.273438 294.234375 450.574219 296.417969 C 447.894531 298.613281 444.738281 299.699219 441.074219 299.699219 C 435.542969 299.699219 431.78125 296.949219 429.792969 291.445312 C 429.503906 290.746094 429.355469 289.925781 429.355469 288.984375 C 429.355469 288.058594 429.285156 287.105469 429.164062 286.136719 L 429.164062 279.960938 C 428.875 277.972656 428.367188 276.414062 427.667969 275.28125 C 426.957031 274.160156 425.753906 273.59375 424.054688 273.59375 C 421.667969 273.59375 419.375 275.125 417.160156 278.175781 C 414.964844 281.203125 413.058594 284.8125 411.421875 288.984375 C 409.804688 293.171875 408.503906 297.464844 407.515625 301.871094 C 406.515625 306.25 406.019531 309.785156 406.019531 312.484375 C 406.019531 314.609375 406.164062 317.203125 406.453125 320.253906 C 406.746094 323.285156 407.296875 326.214844 408.140625 329.039062 C 409.011719 331.871094 410.179688 334.320312 411.664062 336.371094 C 413.132812 338.4375 415.085938 339.460938 417.496094 339.460938 C 419.90625 339.460938 422.125 338.726562 424.148438 337.242188 C 426.199219 335.734375 428.222656 333.996094 430.226562 332.03125 C 432.058594 330.328125 434.058594 328.554688 436.253906 326.722656 C 438.46875 324.863281 440.988281 323.921875 443.820312 323.921875 C 447.355469 323.921875 450.152344 325.214844 452.210938 327.78125 C 454.261719 330.328125 455.296875 333.222656 455.296875 336.46875 C 455.296875 341.292969 454.007812 345.808594 451.441406 349.980469 C 448.898438 354.167969 445.714844 357.785156 441.894531 360.839844 C 438.058594 363.867188 433.816406 366.253906 429.164062 368.027344 C 424.5 369.789062 420.050781 370.683594 415.808594 370.683594 C 408.15625 370.683594 401.679688 368.765625 396.378906 364.941406 C 391.074219 361.117188 386.78125 356.277344 383.503906 350.414062 C 380.25 344.527344 377.921875 338.109375 376.511719 331.160156 C 375.089844 324.210938 374.390625 317.636719 374.390625 311.425781 C 374.390625 304.1875 375.367188 296.355469 377.332031 287.925781 C 379.320312 279.503906 382.371094 271.6875 386.492188 264.472656 C 390.605469 257.234375 395.871094 251.203125 402.308594 246.375 C 408.734375 241.550781 416.410156 239.136719 425.355469 239.136719 C 430.875 239.136719 435.648438 240.34375 439.675781 242.757812 C 443.726562 245.167969 447.050781 248.332031 449.65625 252.214844 C 452.261719 256.113281 454.238281 260.464844 455.585938 265.292969 C 456.9375 270.117188 457.613281 274.871094 457.613281 279.527344 C 457.613281 280.238281 457.613281 280.949219 457.613281 281.652344 C 457.613281 282.363281 457.539062 283.074219 457.417969 283.773438 Z M 457.417969 283.773438 " fill-opacity="1" fill-rule="nonzero"/><path fill="#304732" d="M 559.539062 335.40625 C 559.539062 337.953125 559.417969 341.28125 559.203125 345.398438 C 558.972656 349.523438 558.359375 353.527344 557.371094 357.414062 C 556.40625 361.308594 554.863281 364.675781 552.742188 367.496094 C 550.621094 370.320312 547.644531 371.742188 543.820312 371.742188 C 538.578125 371.742188 534.539062 370.03125 531.71875 366.628906 C 528.886719 363.25 527.535156 359.003906 527.667969 353.890625 C 523.136719 357.882812 517.988281 361.007812 512.242188 363.25 C 506.515625 365.496094 500.679688 366.628906 494.738281 366.628906 C 490.652344 366.628906 486.757812 365.640625 483.070312 363.683594 C 479.40625 361.695312 476.152344 359.136719 473.332031 356.011719 C 470.496094 352.898438 468.230469 349.390625 466.53125 345.492188 C 464.820312 341.609375 463.976562 337.746094 463.976562 333.910156 C 463.976562 327.132812 466.0625 321.195312 470.246094 316.105469 C 474.414062 310.988281 479.550781 306.636719 485.625 303.027344 C 491.699219 299.398438 498.171875 296.511719 505.054688 294.390625 C 511.925781 292.265625 518.050781 290.855469 523.425781 290.144531 C 523.425781 289.445312 523.449219 288.816406 523.523438 288.261719 C 523.582031 287.683594 523.621094 287.042969 523.621094 286.332031 C 523.621094 281.929688 522.414062 278.394531 520.003906 275.714844 C 517.617188 273.011719 514.230469 271.660156 509.828125 271.660156 C 506.285156 271.660156 503.25 272.277344 500.71875 273.496094 C 498.171875 274.691406 495.761719 276.027344 493.484375 277.5 C 491.230469 278.984375 488.964844 280.335938 486.6875 281.554688 C 484.433594 282.75 481.886719 283.339844 479.066406 283.339844 C 475.945312 283.339844 473.28125 282.363281 471.0625 280.394531 C 468.871094 278.40625 467.785156 275.847656 467.785156 272.722656 C 467.785156 268.066406 469.160156 263.820312 471.933594 259.984375 C 474.691406 256.160156 478.164062 252.9375 482.347656 250.332031 C 486.515625 247.703125 491.050781 245.640625 495.945312 244.15625 C 500.824219 242.683594 505.308594 241.9375 509.394531 241.9375 C 513.21875 241.9375 517.039062 242.40625 520.871094 243.335938 C 524.691406 244.242188 528.296875 245.652344 531.671875 247.582031 C 535.070312 249.488281 538.15625 251.816406 540.929688 254.578125 C 543.6875 257.355469 545.917969 260.5625 547.632812 264.230469 C 550.164062 269.476562 552.210938 275.039062 553.753906 280.925781 C 555.320312 286.789062 556.527344 292.796875 557.371094 298.972656 C 558.238281 305.152344 558.816406 311.328125 559.105469 317.503906 C 559.394531 323.65625 559.539062 329.617188 559.539062 335.40625 Z M 525.546875 328.605469 L 524.921875 314.175781 C 524.632812 314.175781 524.34375 314.152344 524.054688 314.078125 C 523.765625 313.980469 523.488281 313.933594 523.234375 313.933594 C 521.367188 313.933594 519.050781 314.40625 516.289062 315.332031 C 513.554688 316.273438 510.902344 317.554688 508.335938 319.195312 C 505.792969 320.808594 503.632812 322.609375 501.875 324.597656 C 500.101562 326.566406 499.222656 328.605469 499.222656 330.726562 C 499.222656 332.730469 499.921875 334.082031 501.34375 334.78125 C 502.753906 335.492188 504.382812 335.84375 506.214844 335.84375 C 509.324219 335.84375 512.648438 335.046875 516.195312 333.429688 C 519.726562 331.789062 522.847656 330.183594 525.546875 328.605469 Z M 525.546875 328.605469 " fill-opacity="1" fill-rule="nonzero"/><path fill="#304732" d="M 645.914062 285.898438 C 643.910156 286.066406 642.210938 285.898438 640.800781 285.414062 C 639.378906 284.90625 637.96875 284.351562 636.558594 283.773438 C 635.304688 283.230469 634.027344 282.710938 632.75 282.230469 C 631.460938 281.722656 630.050781 281.53125 628.507812 281.652344 C 625.671875 281.785156 623.152344 282.566406 620.9375 284.015625 C 618.742188 285.4375 616.765625 287.199219 615.003906 289.324219 C 613.234375 291.445312 611.703125 293.835938 610.425781 296.464844 C 609.171875 299.070312 608.183594 301.652344 607.484375 304.1875 C 607.0625 305.898438 606.738281 308.480469 606.519531 311.957031 C 606.328125 315.40625 606.230469 319.121094 606.230469 323.101562 C 606.0625 327.191406 605.988281 331.089844 605.988281 334.78125 C 605.988281 338.449219 605.84375 341.34375 605.554688 343.464844 C 605.421875 345.757812 605.074219 348.425781 604.496094 351.476562 C 603.941406 354.503906 603.058594 357.363281 601.84375 360.066406 C 600.648438 362.769531 599.058594 365.035156 597.070312 366.871094 C 595.105469 368.703125 592.5625 369.621094 589.453125 369.621094 C 587.039062 369.621094 584.941406 368.910156 583.183594 367.496094 C 581.410156 366.074219 579.917969 364.214844 578.699219 361.898438 C 577.507812 359.558594 576.53125 356.820312 575.757812 353.695312 C 574.988281 350.585938 574.371094 347.398438 573.925781 344.140625 C 573.503906 340.738281 573.179688 337.335938 572.960938 333.960938 C 572.769531 330.558594 572.636719 327.324219 572.574219 324.261719 C 572.503906 321.207031 572.503906 318.410156 572.574219 315.863281 C 572.636719 313.332031 572.671875 311.269531 572.671875 309.6875 C 572.539062 304.742188 572.285156 299.746094 571.902344 294.726562 C 571.539062 289.710938 571.371094 284.714844 571.371094 279.71875 C 571.371094 276.632812 571.515625 273.183594 571.804688 269.34375 C 572.09375 265.519531 572.863281 261.949219 574.117188 258.632812 C 575.394531 255.292969 577.277344 252.492188 579.761719 250.238281 C 582.230469 247.957031 585.667969 246.808594 590.078125 246.808594 C 592.488281 246.808594 594.539062 247.605469 596.25 249.175781 C 597.949219 250.71875 599.335938 252.636719 600.394531 254.917969 C 601.457031 257.171875 602.253906 259.574219 602.808594 262.105469 C 603.386719 264.652344 603.734375 266.980469 603.867188 269.105469 C 607.265625 263.601562 611.101562 259.117188 615.34375 255.640625 C 619.585938 252.167969 625.09375 250.285156 631.882812 249.996094 C 635.28125 249.875 638.644531 250.1875 641.957031 250.960938 C 645.296875 251.730469 648.347656 253.011719 651.121094 254.773438 C 653.878906 256.546875 656.144531 258.851562 657.917969 261.671875 C 659.679688 264.507812 660.628906 267.835938 660.761719 271.660156 C 661.050781 276.199219 659.703125 279.671875 656.710938 282.085938 C 653.746094 284.496094 650.15625 285.777344 645.914062 285.898438 Z M 645.914062 285.898438 " fill-opacity="1" fill-rule="nonzero"/><path fill="#304732" d="M 752.90625 327.542969 C 752.90625 332.367188 751.375 337.085938 748.328125 341.679688 C 745.300781 346.289062 741.492188 350.402344 736.898438 354.035156 C 732.292969 357.640625 727.375 360.535156 722.144531 362.71875 C 716.902344 364.914062 712.082031 366 707.679688 366 C 700.183594 366 693.503906 364.144531 687.621094 360.402344 C 681.742188 356.640625 676.824219 351.863281 672.867188 346.070312 C 668.914062 340.257812 665.902344 333.839844 663.851562 326.816406 C 661.792969 319.808594 660.765625 312.96875 660.765625 306.308594 C 660.765625 299.238281 661.742188 291.664062 663.707031 283.582031 C 665.695312 275.511719 668.699219 268.078125 672.722656 261.285156 C 676.773438 254.472656 681.859375 248.789062 688.007812 244.253906 C 694.179688 239.714844 701.519531 237.449219 710.042969 237.449219 C 714.828125 237.449219 719.410156 238.269531 723.785156 239.910156 C 728.183594 241.527344 732.003906 243.816406 735.261719 246.808594 C 738.539062 249.777344 741.15625 253.3125 743.121094 257.425781 C 745.109375 261.550781 746.109375 266.148438 746.109375 271.226562 C 746.109375 277.886719 744.6875 284.136719 741.867188 289.949219 C 739.03125 295.742188 735.273438 300.785156 730.582031 305.054688 C 725.917969 309.300781 720.554688 312.726562 714.480469 315.332031 C 708.402344 317.9375 702.183594 319.386719 695.820312 319.675781 C 696.363281 323.800781 698.011719 326.769531 700.785156 328.605469 C 703.546875 330.4375 706.835938 331.355469 710.667969 331.355469 C 713.492188 331.355469 716.238281 330.65625 718.914062 329.230469 C 721.613281 327.820312 724.230469 326.226562 726.773438 324.453125 C 729.339844 322.691406 731.859375 321.101562 734.34375 319.675781 C 736.816406 318.265625 739.320312 317.554688 741.867188 317.554688 C 744.6875 317.554688 747.230469 318.492188 749.484375 320.351562 C 751.761719 322.183594 752.90625 324.585938 752.90625 327.542969 Z M 718.527344 275.472656 C 718.527344 273.640625 718.023438 271.746094 717.035156 269.78125 C 716.035156 267.789062 714.480469 266.789062 712.359375 266.789062 C 709.234375 266.789062 706.621094 267.609375 704.5 269.25 C 702.375 270.867188 700.605469 272.90625 699.195312 275.378906 C 697.773438 277.863281 696.6875 280.515625 695.914062 283.339844 C 695.144531 286.175781 694.675781 288.792969 694.519531 291.207031 C 696.507812 290.796875 698.882812 290.226562 701.652344 289.515625 C 704.414062 288.816406 707.03125 287.863281 709.511719 286.667969 C 711.984375 285.449219 714.105469 283.917969 715.878906 282.085938 C 717.636719 280.25 718.527344 278.054688 718.527344 275.472656 Z M 718.527344 275.472656 " fill-opacity="1" fill-rule="nonzero"/><path fill="#304732" d="M 133.300781 157.359375 C 133.300781 160.710938 132.238281 163.992188 130.117188 167.203125 C 127.996094 170.386719 125.320312 173.234375 122.113281 175.746094 C 118.933594 178.253906 115.519531 180.28125 111.890625 181.824219 C 108.253906 183.34375 104.914062 184.09375 101.863281 184.09375 C 96.65625 184.09375 92.003906 182.789062 87.929688 180.183594 C 83.84375 177.578125 80.417969 174.273438 77.660156 170.242188 C 74.921875 166.191406 72.835938 161.738281 71.390625 156.875 C 69.96875 151.992188 69.269531 147.226562 69.269531 142.59375 C 69.269531 137.671875 69.957031 132.410156 71.34375 126.8125 C 72.71875 121.214844 74.816406 116.050781 77.609375 111.324219 C 80.40625 106.59375 83.9375 102.660156 88.21875 99.5 C 92.484375 96.351562 97.585938 94.769531 103.503906 94.769531 C 106.84375 94.769531 110.023438 95.351562 113.050781 96.507812 C 116.097656 97.640625 118.75 99.234375 121.003906 101.285156 C 123.285156 103.347656 125.117188 105.808594 126.503906 108.667969 C 127.875 111.503906 128.574219 114.699219 128.574219 118.273438 C 128.574219 122.878906 127.574219 127.199219 125.585938 131.253906 C 123.621094 135.28125 121.015625 138.769531 117.773438 141.722656 C 114.554688 144.691406 110.832031 147.082031 106.589844 148.914062 C 102.347656 150.722656 98.019531 151.714844 93.617188 151.90625 C 94.003906 154.777344 95.136719 156.851562 97.042969 158.132812 C 98.972656 159.386719 101.261719 160.011719 103.9375 160.011719 C 105.890625 160.011719 107.804688 159.53125 109.675781 158.566406 C 111.53125 157.574219 113.351562 156.464844 115.121094 155.234375 C 116.882812 154.015625 118.644531 152.917969 120.378906 151.953125 C 122.113281 150.964844 123.863281 150.457031 125.632812 150.457031 C 127.585938 150.457031 129.359375 151.109375 130.9375 152.386719 C 132.503906 153.644531 133.300781 155.308594 133.300781 157.359375 Z M 109.386719 121.214844 C 109.386719 119.9375 109.023438 118.597656 108.324219 117.210938 C 107.648438 115.835938 106.566406 115.136719 105.09375 115.136719 C 102.9375 115.136719 101.117188 115.714844 99.644531 116.871094 C 98.164062 118.007812 96.921875 119.429688 95.933594 121.167969 C 94.96875 122.878906 94.210938 124.714844 93.667969 126.667969 C 93.113281 128.632812 92.800781 130.457031 92.703125 132.121094 C 94.078125 131.832031 95.742188 131.445312 97.667969 130.964844 C 99.597656 130.457031 101.40625 129.78125 103.117188 128.9375 C 104.851562 128.105469 106.324219 127.054688 107.554688 125.800781 C 108.769531 124.519531 109.386719 122.988281 109.386719 121.214844 Z M 109.386719 121.214844 " fill-opacity="1" fill-rule="nonzero"/><path fill="#304732" d="M 201.875 162.859375 C 201.875 164.632812 201.789062 166.949219 201.632812 169.808594 C 201.5 172.644531 201.078125 175.40625 200.378906 178.109375 C 199.703125 180.8125 198.621094 183.152344 197.148438 185.105469 C 195.667969 187.097656 193.605469 188.097656 190.976562 188.097656 C 187.3125 188.097656 184.492188 186.902344 182.539062 184.527344 C 180.574219 182.1875 179.648438 179.242188 179.742188 175.695312 C 176.585938 178.433594 173.015625 180.59375 169.039062 182.164062 C 165.050781 183.730469 161 184.527344 156.890625 184.527344 C 154.019531 184.527344 151.308594 183.851562 148.742188 182.5 C 146.195312 181.125 143.941406 179.351562 141.988281 177.191406 C 140.023438 175.007812 138.445312 172.558594 137.265625 169.855469 C 136.070312 167.15625 135.480469 164.476562 135.480469 161.796875 C 135.480469 157.070312 136.925781 152.945312 139.820312 149.398438 C 142.738281 145.863281 146.304688 142.832031 150.523438 140.324219 C 154.765625 137.816406 159.261719 135.824219 164.023438 134.339844 C 168.808594 132.867188 173.066406 131.878906 176.800781 131.398438 C 176.800781 130.914062 176.8125 130.480469 176.851562 130.09375 C 176.910156 129.683594 176.945312 129.226562 176.945312 128.742188 C 176.945312 125.691406 176.101562 123.230469 174.4375 121.359375 C 172.765625 119.503906 170.402344 118.5625 167.351562 118.5625 C 164.90625 118.5625 162.796875 118.984375 161.035156 119.816406 C 159.261719 120.660156 157.589844 121.589844 156.019531 122.613281 C 154.441406 123.652344 152.863281 124.582031 151.296875 125.414062 C 149.714844 126.257812 147.945312 126.667969 145.992188 126.667969 C 143.796875 126.667969 141.941406 125.980469 140.398438 124.59375 C 138.878906 123.21875 138.132812 121.445312 138.132812 119.285156 C 138.132812 116.039062 139.097656 113.097656 141.027344 110.453125 C 142.953125 107.789062 145.363281 105.554688 148.257812 103.746094 C 151.152344 101.914062 154.285156 100.488281 157.660156 99.453125 C 161.058594 98.390625 164.195312 97.859375 167.0625 97.859375 C 169.726562 97.859375 172.378906 98.183594 175.019531 98.824219 C 177.683594 99.476562 180.1875 100.464844 182.539062 101.816406 C 184.914062 103.144531 187.046875 104.761719 188.953125 106.691406 C 190.882812 108.597656 192.4375 110.828125 193.628906 113.398438 C 195.390625 117.042969 196.8125 120.902344 197.871094 124.980469 C 198.957031 129.070312 199.800781 133.253906 200.378906 137.527344 C 200.980469 141.808594 201.390625 146.089844 201.585938 150.363281 C 201.777344 154.644531 201.875 158.804688 201.875 162.859375 Z M 178.296875 158.132812 L 177.8125 148.09375 C 177.621094 148.09375 177.429688 148.082031 177.234375 148.046875 C 177.042969 147.984375 176.851562 147.949219 176.65625 147.949219 C 175.367188 147.949219 173.765625 148.273438 171.835938 148.914062 C 169.929688 149.53125 168.097656 150.410156 166.339844 151.566406 C 164.566406 152.703125 163.058594 153.957031 161.808594 155.332031 C 160.578125 156.683594 159.972656 158.105469 159.972656 159.578125 C 159.972656 160.964844 160.457031 161.917969 161.421875 162.425781 C 162.410156 162.910156 163.554688 163.148438 164.84375 163.148438 C 166.988281 163.148438 169.292969 162.59375 171.738281 161.460938 C 174.210938 160.300781 176.390625 159.191406 178.296875 158.132812 Z M 178.296875 158.132812 " fill-opacity="1" fill-rule="nonzero"/><path fill="#304732" d="M 261.890625 128.453125 C 260.542969 128.550781 259.359375 128.429688 258.371094 128.066406 C 257.371094 127.71875 256.394531 127.34375 255.429688 126.957031 C 254.527344 126.570312 253.625 126.210938 252.730469 125.847656 C 251.863281 125.5 250.898438 125.390625 249.839844 125.511719 C 247.835938 125.605469 246.089844 126.160156 244.582031 127.152344 C 243.0625 128.117188 241.691406 129.347656 240.4375 130.816406 C 239.207031 132.300781 238.144531 133.953125 237.253906 135.789062 C 236.386719 137.597656 235.710938 139.382812 235.230469 141.144531 C 234.902344 142.339844 234.664062 144.136719 234.503906 146.550781 C 234.371094 148.9375 234.3125 151.507812 234.3125 154.269531 C 234.214844 157.140625 234.167969 159.855469 234.167969 162.425781 C 234.167969 164.972656 234.070312 166.984375 233.878906 168.457031 C 233.78125 170.039062 233.542969 171.882812 233.15625 174.007812 C 232.769531 176.105469 232.15625 178.097656 231.324219 179.992188 C 230.480469 181.859375 229.371094 183.417969 227.996094 184.671875 C 226.609375 185.949219 224.839844 186.601562 222.691406 186.601562 C 221.015625 186.601562 219.558594 186.09375 218.304688 185.105469 C 217.074219 184.140625 216.050781 182.863281 215.21875 181.246094 C 214.375 179.605469 213.6875 177.710938 213.144531 175.550781 C 212.589844 173.367188 212.179688 171.148438 211.890625 168.890625 C 211.601562 166.550781 211.375 164.199219 211.21875 161.847656 C 211.085938 159.46875 210.988281 157.214844 210.929688 155.089844 C 210.890625 152.96875 210.890625 151.023438 210.929688 149.25 C 210.988281 147.492188 211.023438 146.054688 211.023438 144.957031 C 210.929688 141.519531 210.746094 138.054688 210.492188 134.582031 C 210.265625 131.082031 210.15625 127.609375 210.15625 124.160156 C 210.15625 122.011719 210.253906 119.597656 210.445312 116.921875 C 210.636719 114.253906 211.167969 111.78125 212.035156 109.488281 C 212.929688 107.171875 214.230469 105.230469 215.941406 103.648438 C 217.679688 102.082031 220.066406 101.285156 223.125 101.285156 C 224.789062 101.285156 226.210938 101.839844 227.371094 102.925781 C 228.550781 103.988281 229.515625 105.316406 230.261719 106.882812 C 230.996094 108.464844 231.5625 110.140625 231.949219 111.902344 C 232.359375 113.675781 232.625 115.304688 232.722656 116.777344 C 235.058594 112.953125 237.710938 109.828125 240.675781 107.414062 C 243.628906 105 247.476562 103.699219 252.199219 103.503906 C 254.539062 103.410156 256.878906 103.636719 259.191406 104.179688 C 261.507812 104.699219 263.605469 105.582031 265.507812 106.835938 C 267.4375 108.066406 269.003906 109.65625 270.234375 111.613281 C 271.488281 113.578125 272.160156 115.894531 272.257812 118.5625 C 272.453125 121.722656 271.5 124.136719 269.414062 125.800781 C 267.351562 127.476562 264.84375 128.355469 261.890625 128.453125 Z M 261.890625 128.453125 " fill-opacity="1" fill-rule="nonzero"/><path fill="#304732" d="M 302.039062 94.191406 C 302.039062 99.5 301.8125 104.84375 301.363281 110.214844 C 300.90625 115.59375 300.691406 120.972656 300.691406 126.378906 C 300.691406 133.363281 300.90625 140.359375 301.363281 147.371094 C 301.8125 154.355469 302.039062 161.386719 302.039062 168.457031 C 302.039062 170.230469 301.941406 172.222656 301.75 174.441406 C 301.558594 176.660156 301.085938 178.710938 300.351562 180.570312 C 299.605469 182.441406 298.496094 183.996094 297.023438 185.25 C 295.542969 186.53125 293.578125 187.179688 291.144531 187.179688 C 288.757812 187.179688 286.707031 186.023438 284.972656 183.707031 C 283.257812 181.425781 281.847656 178.484375 280.726562 174.875 C 279.59375 171.28125 278.667969 167.277344 277.933594 162.859375 C 277.183594 158.421875 276.640625 154.113281 276.292969 149.925781 C 275.929688 145.753906 275.675781 141.917969 275.519531 138.441406 C 275.386719 134.945312 275.328125 132.351562 275.328125 130.671875 C 275.328125 128.78125 275.386719 126.066406 275.519531 122.519531 C 275.675781 118.984375 276.003906 115.160156 276.484375 111.035156 C 276.992188 106.882812 277.667969 102.671875 278.511719 98.390625 C 279.34375 94.121094 280.449219 90.234375 281.835938 86.761719 C 283.210938 83.261719 284.851562 80.390625 286.753906 78.171875 C 288.683594 75.953125 290.972656 74.839844 293.648438 74.839844 C 295.796875 74.839844 297.433594 75.566406 298.566406 77.011719 C 299.6875 78.4375 300.496094 80.148438 300.980469 82.175781 C 301.484375 84.179688 301.796875 86.277344 301.894531 88.496094 C 301.992188 90.71875 302.039062 92.625 302.039062 94.191406 Z M 302.039062 94.191406 " fill-opacity="1" fill-rule="nonzero"/><path fill="#304732" d="M 345.269531 226.605469 C 342.882812 226.605469 340.207031 226.230469 337.21875 225.496094 C 334.230469 224.746094 331.394531 223.6875 328.730469 222.3125 C 326.054688 220.960938 323.8125 219.28125 321.980469 217.292969 C 320.175781 215.324219 319.28125 213.070312 319.28125 210.535156 C 319.28125 209.535156 319.523438 208.535156 320.003906 207.542969 C 320.511719 206.578125 321.1875 205.722656 322.03125 204.988281 C 322.863281 204.238281 323.765625 203.648438 324.730469 203.203125 C 325.71875 202.78125 326.769531 202.574219 327.863281 202.574219 C 329.023438 202.574219 330.15625 202.730469 331.289062 203.058594 C 332.445312 203.40625 333.601562 203.828125 334.757812 204.3125 C 336.035156 204.816406 337.289062 205.277344 338.519531 205.664062 C 339.773438 206.046875 341.085938 206.242188 342.472656 206.242188 C 344.910156 206.242188 347.03125 205.398438 348.839844 203.734375 C 350.671875 202.054688 352.226562 199.871094 353.515625 197.167969 C 354.792969 194.46875 355.828125 191.453125 356.601562 188.144531 C 357.398438 184.863281 358.011719 181.605469 358.433594 178.351562 C 358.878906 175.105469 359.203125 172.050781 359.398438 169.179688 C 359.613281 166.324219 359.785156 164.007812 359.878906 162.234375 C 356.433594 167.480469 353.007812 171.496094 349.609375 174.296875 C 346.199219 177.09375 342.039062 178.496094 337.121094 178.496094 C 333.386719 178.496094 330.128906 177.710938 327.335938 176.128906 C 324.539062 174.5625 322.140625 172.5 320.148438 169.953125 C 318.183594 167.382812 316.558594 164.453125 315.28125 161.171875 C 314.027344 157.867188 313.074219 154.4375 312.433594 150.894531 C 311.785156 147.359375 311.375 143.894531 311.183594 140.519531 C 310.988281 137.117188 310.988281 133.980469 311.183594 131.109375 C 311.277344 128.925781 311.542969 126.089844 312 122.613281 C 312.449219 119.117188 313.160156 115.691406 314.121094 112.335938 C 315.113281 108.996094 316.496094 106.160156 318.269531 103.84375 C 320.03125 101.527344 322.34375 100.488281 325.210938 100.707031 C 327.070312 100.804688 328.585938 101.613281 329.746094 103.121094 C 330.925781 104.640625 331.890625 106.535156 332.636719 108.8125 C 333.375 111.070312 333.902344 113.542969 334.230469 116.246094 C 334.578125 118.949219 334.808594 121.636719 334.902344 124.304688 C 335.023438 126.980469 335.0625 129.417969 335 131.636719 C 334.964844 133.835938 334.953125 135.523438 334.953125 136.707031 C 334.953125 138.382812 335 140.058594 335.097656 141.722656 C 335.191406 143.402344 335.53125 144.910156 336.109375 146.261719 C 336.6875 147.585938 337.578125 148.648438 338.808594 149.445312 C 340.0625 150.21875 341.8125 150.601562 344.066406 150.601562 C 346.632812 150.601562 348.667969 149.964844 350.1875 148.671875 C 351.730469 147.394531 352.863281 145.800781 353.613281 143.894531 C 354.347656 141.964844 354.816406 139.890625 355.011719 137.671875 C 355.203125 135.449219 355.300781 133.363281 355.300781 131.398438 C 355.300781 130.023438 355.300781 128.34375 355.300781 126.378906 C 355.300781 124.425781 355.3125 122.363281 355.347656 120.203125 C 355.40625 118.019531 355.601562 115.882812 355.925781 113.785156 C 356.277344 111.660156 356.816406 109.730469 357.566406 107.992188 C 358.300781 106.257812 359.277344 104.855469 360.507812 103.796875 C 361.761719 102.710938 363.363281 102.15625 365.328125 102.15625 C 367.761719 102.15625 369.871094 103.121094 371.644531 105.050781 C 373.40625 106.957031 374.898438 109.464844 376.128906 112.578125 C 377.382812 115.664062 378.371094 119.09375 379.117188 122.855469 C 379.851562 126.597656 380.417969 130.3125 380.804688 134.003906 C 381.191406 137.671875 381.445312 141.074219 381.578125 144.183594 C 381.734375 147.273438 381.816406 149.710938 381.816406 151.472656 C 381.816406 155.621094 381.671875 160.339844 381.382812 165.609375 C 381.09375 170.859375 380.527344 176.261719 379.695312 181.824219 C 378.851562 187.386719 377.597656 192.839844 375.9375 198.183594 C 374.261719 203.550781 372.078125 208.339844 369.378906 212.5625 C 366.679688 216.808594 363.351562 220.199219 359.398438 222.746094 C 355.46875 225.316406 350.765625 226.605469 345.269531 226.605469 Z M 345.269531 226.605469 " fill-opacity="1" fill-rule="nonzero"/><path fill="#304732" d="M 459 226.605469 C 456.613281 226.605469 453.9375 226.230469 450.949219 225.496094 C 447.960938 224.746094 445.128906 223.6875 442.464844 222.3125 C 439.789062 220.960938 437.546875 219.28125 435.714844 217.292969 C 433.90625 215.324219 433.011719 213.070312 433.011719 210.535156 C 433.011719 209.535156 433.253906 208.535156 433.734375 207.542969 C 434.242188 206.578125 434.917969 205.722656 435.761719 204.988281 C 436.59375 204.238281 437.496094 203.648438 438.460938 203.203125 C 439.449219 202.78125 440.5 202.574219 441.59375 202.574219 C 442.753906 202.574219 443.886719 202.730469 445.019531 203.058594 C 446.175781 203.40625 447.332031 203.828125 448.488281 204.3125 C 449.769531 204.816406 451.023438 205.277344 452.25 205.664062 C 453.503906 206.046875 454.820312 206.242188 456.203125 206.242188 C 458.640625 206.242188 460.761719 205.398438 462.570312 203.734375 C 464.402344 202.054688 465.957031 199.871094 467.246094 197.167969 C 468.523438 194.46875 469.558594 191.453125 470.332031 188.144531 C 471.128906 184.863281 471.742188 181.605469 472.164062 178.351562 C 472.609375 175.105469 472.9375 172.050781 473.128906 169.179688 C 473.34375 166.324219 473.515625 164.007812 473.609375 162.234375 C 470.164062 167.480469 466.738281 171.496094 463.339844 174.296875 C 459.929688 177.09375 455.769531 178.496094 450.851562 178.496094 C 447.117188 178.496094 443.863281 177.710938 441.066406 176.128906 C 438.269531 174.5625 435.871094 172.5 433.878906 169.953125 C 431.914062 167.382812 430.289062 164.453125 429.011719 161.171875 C 427.757812 157.867188 426.804688 154.4375 426.167969 150.894531 C 425.515625 147.359375 425.105469 143.894531 424.914062 140.519531 C 424.71875 137.117188 424.71875 133.980469 424.914062 131.109375 C 425.007812 128.925781 425.273438 126.089844 425.730469 122.613281 C 426.179688 119.117188 426.890625 115.691406 427.855469 112.335938 C 428.84375 108.996094 430.226562 106.160156 432 103.84375 C 433.761719 101.527344 436.074219 100.488281 438.945312 100.707031 C 440.800781 100.804688 442.320312 101.613281 443.476562 103.121094 C 444.65625 104.640625 445.621094 106.535156 446.367188 108.8125 C 447.105469 111.070312 447.632812 113.542969 447.960938 116.246094 C 448.308594 118.949219 448.539062 121.636719 448.636719 124.304688 C 448.753906 126.980469 448.792969 129.417969 448.730469 131.636719 C 448.695312 133.835938 448.683594 135.523438 448.683594 136.707031 C 448.683594 138.382812 448.730469 140.058594 448.828125 141.722656 C 448.925781 143.402344 449.261719 144.910156 449.839844 146.261719 C 450.417969 147.585938 451.3125 148.648438 452.539062 149.445312 C 453.792969 150.21875 455.542969 150.601562 457.796875 150.601562 C 460.363281 150.601562 462.402344 149.964844 463.917969 148.671875 C 465.460938 147.394531 466.59375 145.800781 467.34375 143.894531 C 468.078125 141.964844 468.546875 139.890625 468.742188 137.671875 C 468.933594 135.449219 469.03125 133.363281 469.03125 131.398438 C 469.03125 130.023438 469.03125 128.34375 469.03125 126.378906 C 469.03125 124.425781 469.042969 122.363281 469.078125 120.203125 C 469.136719 118.019531 469.332031 115.882812 469.65625 113.785156 C 470.007812 111.660156 470.550781 109.730469 471.296875 107.992188 C 472.03125 106.257812 473.007812 104.855469 474.238281 103.796875 C 475.492188 102.710938 477.09375 102.15625 479.058594 102.15625 C 481.492188 102.15625 483.601562 103.121094 485.375 105.050781 C 487.136719 106.957031 488.628906 109.464844 489.859375 112.578125 C 491.113281 115.664062 492.101562 119.09375 492.847656 122.855469 C 493.585938 126.597656 494.152344 130.3125 494.535156 134.003906 C 494.921875 137.671875 495.175781 141.074219 495.308594 144.183594 C 495.464844 147.273438 495.550781 149.710938 495.550781 151.472656 C 495.550781 155.621094 495.402344 160.339844 495.113281 165.609375 C 494.824219 170.859375 494.257812 176.261719 493.425781 181.824219 C 492.582031 187.386719 491.328125 192.839844 489.667969 198.183594 C 487.992188 203.550781 485.808594 208.339844 483.109375 212.5625 C 480.410156 216.808594 477.082031 220.199219 473.128906 222.746094 C 469.199219 225.316406 464.496094 226.605469 459 226.605469 Z M 459 226.605469 " fill-opacity="1" fill-rule="nonzero"/><path fill="#304732" d="M 566.980469 157.359375 C 566.980469 160.710938 565.921875 163.992188 563.796875 167.203125 C 561.675781 170.386719 559 173.234375 555.792969 175.746094 C 552.613281 178.253906 549.203125 180.28125 545.574219 181.824219 C 541.933594 183.34375 538.59375 184.09375 535.542969 184.09375 C 530.335938 184.09375 525.683594 182.789062 521.609375 180.183594 C 517.523438 177.578125 514.101562 174.273438 511.339844 170.242188 C 508.601562 166.191406 506.519531 161.738281 505.070312 156.875 C 503.648438 151.992188 502.949219 147.226562 502.949219 142.59375 C 502.949219 137.671875 503.636719 132.410156 505.023438 126.8125 C 506.398438 121.214844 508.496094 116.050781 511.292969 111.324219 C 514.089844 106.59375 517.621094 102.660156 521.898438 99.5 C 526.167969 96.351562 531.265625 94.769531 537.183594 94.769531 C 540.523438 94.769531 543.703125 95.351562 546.730469 96.507812 C 549.78125 97.640625 552.433594 99.234375 554.6875 101.285156 C 556.964844 103.347656 558.796875 105.808594 560.183594 108.667969 C 561.554688 111.503906 562.253906 114.699219 562.253906 118.273438 C 562.253906 122.878906 561.253906 127.199219 559.265625 131.253906 C 557.300781 135.28125 554.699219 138.769531 551.457031 141.722656 C 548.238281 144.691406 544.511719 147.082031 540.269531 148.914062 C 536.027344 150.722656 531.699219 151.714844 527.300781 151.90625 C 527.683594 154.777344 528.816406 156.851562 530.722656 158.132812 C 532.652344 159.386719 534.941406 160.011719 537.617188 160.011719 C 539.570312 160.011719 541.488281 159.53125 543.355469 158.566406 C 545.210938 157.574219 547.03125 156.464844 548.804688 155.234375 C 550.5625 154.015625 552.324219 152.917969 554.058594 151.953125 C 555.792969 150.964844 557.542969 150.457031 559.316406 150.457031 C 561.265625 150.457031 563.039062 151.109375 564.617188 152.386719 C 566.183594 153.644531 566.980469 155.308594 566.980469 157.359375 Z M 543.066406 121.214844 C 543.066406 119.9375 542.703125 118.597656 542.003906 117.210938 C 541.328125 115.835938 540.246094 115.136719 538.773438 115.136719 C 536.617188 115.136719 534.796875 115.714844 533.328125 116.871094 C 531.84375 118.007812 530.601562 119.429688 529.613281 121.167969 C 528.648438 122.878906 527.890625 124.714844 527.347656 126.667969 C 526.792969 128.632812 526.480469 130.457031 526.382812 132.121094 C 527.757812 131.832031 529.421875 131.445312 531.347656 130.964844 C 533.277344 130.457031 535.085938 129.78125 536.796875 128.9375 C 538.535156 128.105469 540.003906 127.054688 541.234375 125.800781 C 542.449219 124.519531 543.066406 122.988281 543.066406 121.214844 Z M 543.066406 121.214844 " fill-opacity="1" fill-rule="nonzero"/><path fill="#304732" d="M 635.550781 162.859375 C 635.550781 164.632812 635.46875 166.949219 635.308594 169.808594 C 635.179688 172.644531 634.757812 175.40625 634.058594 178.109375 C 633.382812 180.8125 632.296875 183.152344 630.828125 185.105469 C 629.34375 187.097656 627.28125 188.097656 624.65625 188.097656 C 620.992188 188.097656 618.167969 186.902344 616.21875 184.527344 C 614.253906 182.1875 613.324219 179.242188 613.421875 175.695312 C 610.261719 178.433594 606.695312 180.59375 602.714844 182.164062 C 598.726562 183.730469 594.675781 184.527344 590.566406 184.527344 C 587.699219 184.527344 584.984375 183.851562 582.417969 182.5 C 579.875 181.125 577.621094 179.351562 575.667969 177.191406 C 573.703125 175.007812 572.125 172.558594 570.941406 169.855469 C 569.75 167.15625 569.160156 164.476562 569.160156 161.796875 C 569.160156 157.070312 570.605469 152.945312 573.496094 149.398438 C 576.414062 145.863281 579.984375 142.832031 584.203125 140.324219 C 588.445312 137.816406 592.941406 135.824219 597.703125 134.339844 C 602.488281 132.867188 606.742188 131.878906 610.480469 131.398438 C 610.480469 130.914062 610.492188 130.480469 610.527344 130.09375 C 610.585938 129.683594 610.625 129.226562 610.625 128.742188 C 610.625 125.691406 609.78125 123.230469 608.117188 121.359375 C 606.441406 119.503906 604.078125 118.5625 601.027344 118.5625 C 598.582031 118.5625 596.472656 118.984375 594.710938 119.816406 C 592.941406 120.660156 591.265625 121.589844 589.699219 122.613281 C 588.121094 123.652344 586.539062 124.582031 584.972656 125.414062 C 583.394531 126.257812 581.621094 126.667969 579.667969 126.667969 C 577.476562 126.667969 575.621094 125.980469 574.078125 124.59375 C 572.558594 123.21875 571.808594 121.445312 571.808594 119.285156 C 571.808594 116.039062 572.773438 113.097656 574.703125 110.453125 C 576.632812 107.789062 579.042969 105.554688 581.933594 103.746094 C 584.828125 101.914062 587.960938 100.488281 591.335938 99.453125 C 594.738281 98.390625 597.871094 97.859375 600.738281 97.859375 C 603.402344 97.859375 606.054688 98.183594 608.695312 98.824219 C 611.359375 99.476562 613.867188 100.464844 616.21875 101.816406 C 618.589844 103.144531 620.726562 104.761719 622.628906 106.691406 C 624.558594 108.597656 626.113281 110.828125 627.304688 113.398438 C 629.066406 117.042969 630.488281 120.902344 631.550781 124.980469 C 632.632812 129.070312 633.476562 133.253906 634.058594 137.527344 C 634.660156 141.808594 635.070312 146.089844 635.261719 150.363281 C 635.453125 154.644531 635.550781 158.804688 635.550781 162.859375 Z M 611.972656 158.132812 L 611.492188 148.09375 C 611.300781 148.09375 611.105469 148.082031 610.914062 148.046875 C 610.71875 147.984375 610.527344 147.949219 610.335938 147.949219 C 609.042969 147.949219 607.441406 148.273438 605.511719 148.914062 C 603.609375 149.53125 601.777344 150.410156 600.015625 151.566406 C 598.246094 152.703125 596.738281 153.957031 595.484375 155.332031 C 594.253906 156.683594 593.652344 158.105469 593.652344 159.578125 C 593.652344 160.964844 594.132812 161.917969 595.097656 162.425781 C 596.085938 162.910156 597.230469 163.148438 598.523438 163.148438 C 600.667969 163.148438 602.96875 162.59375 605.417969 161.460938 C 607.886719 160.300781 610.070312 159.191406 611.972656 158.132812 Z M 611.972656 158.132812 " fill-opacity="1" fill-rule="nonzero"/><path fill="#304732" d="M 695.574219 128.453125 C 694.222656 128.550781 693.042969 128.429688 692.054688 128.066406 C 691.050781 127.71875 690.074219 127.34375 689.113281 126.957031 C 688.207031 126.570312 687.304688 126.210938 686.410156 125.847656 C 685.542969 125.5 684.578125 125.390625 683.519531 125.511719 C 681.519531 125.605469 679.769531 126.160156 678.261719 127.152344 C 676.746094 128.117188 675.371094 129.347656 674.117188 130.816406 C 672.886719 132.300781 671.828125 133.953125 670.933594 135.789062 C 670.066406 137.597656 669.390625 139.382812 668.910156 141.144531 C 668.582031 142.339844 668.34375 144.136719 668.1875 146.550781 C 668.054688 148.9375 667.992188 151.507812 667.992188 154.269531 C 667.898438 157.140625 667.847656 159.855469 667.847656 162.425781 C 667.847656 164.972656 667.753906 166.984375 667.558594 168.457031 C 667.460938 170.039062 667.222656 171.882812 666.835938 174.007812 C 666.449219 176.105469 665.835938 178.097656 665.003906 179.992188 C 664.160156 181.859375 663.050781 183.417969 661.675781 184.671875 C 660.289062 185.949219 658.519531 186.601562 656.375 186.601562 C 654.699219 186.601562 653.238281 186.09375 651.984375 185.105469 C 650.757812 184.140625 649.730469 182.863281 648.898438 181.246094 C 648.054688 179.605469 647.367188 177.710938 646.828125 175.550781 C 646.273438 173.367188 645.863281 171.148438 645.574219 168.890625 C 645.285156 166.550781 645.054688 164.199219 644.898438 161.847656 C 644.765625 159.46875 644.667969 157.214844 644.609375 155.089844 C 644.570312 152.96875 644.570312 151.023438 644.609375 149.25 C 644.667969 147.492188 644.703125 146.054688 644.703125 144.957031 C 644.609375 141.519531 644.425781 138.054688 644.175781 134.582031 C 643.945312 131.082031 643.835938 127.609375 643.835938 124.160156 C 643.835938 122.011719 643.933594 119.597656 644.125 116.921875 C 644.320312 114.253906 644.847656 111.78125 645.71875 109.488281 C 646.609375 107.171875 647.910156 105.230469 649.621094 103.648438 C 651.359375 102.082031 653.746094 101.285156 656.808594 101.285156 C 658.46875 101.285156 659.894531 101.839844 661.050781 102.925781 C 662.230469 103.988281 663.195312 105.316406 663.941406 106.882812 C 664.679688 108.464844 665.246094 110.140625 665.628906 111.902344 C 666.039062 113.675781 666.304688 115.304688 666.402344 116.777344 C 668.742188 112.953125 671.390625 109.828125 674.359375 107.414062 C 677.3125 105 681.15625 103.699219 685.882812 103.503906 C 688.21875 103.410156 690.558594 103.636719 692.871094 104.179688 C 695.1875 104.699219 697.285156 105.582031 699.1875 106.835938 C 701.117188 108.066406 702.683594 109.65625 703.914062 111.613281 C 705.167969 113.578125 705.84375 115.894531 705.9375 118.5625 C 706.132812 121.722656 705.179688 124.136719 703.09375 125.800781 C 701.03125 127.476562 698.527344 128.355469 695.574219 128.453125 Z M 695.574219 128.453125 " fill-opacity="1" fill-rule="nonzero"/><path fill="#304732" d="M 751.34375 102.445312 C 751.34375 105.316406 750.378906 107.4375 748.449219 108.8125 C 746.542969 110.199219 744.410156 111.503906 742.035156 112.722656 C 739.6875 113.953125 737.550781 115.402344 735.625 117.066406 C 733.71875 118.742188 732.777344 121.25 732.777344 124.59375 C 732.777344 126.367188 733.1875 127.898438 734.03125 129.175781 C 734.863281 130.46875 735.890625 131.625 737.117188 132.652344 C 738.335938 133.691406 739.6875 134.75 741.167969 135.835938 C 742.640625 136.898438 743.988281 138.128906 745.21875 139.503906 C 746.472656 140.890625 747.507812 142.570312 748.351562 144.523438 C 749.183594 146.488281 749.605469 148.902344 749.605469 151.761719 C 749.605469 155.910156 748.546875 159.988281 746.425781 163.96875 C 744.300781 167.925781 741.578125 171.472656 738.277344 174.585938 C 734.996094 177.675781 731.285156 180.160156 727.136719 182.015625 C 723.015625 183.875 718.953125 184.816406 714.9375 184.816406 C 713.261719 184.816406 711.574219 184.683594 709.875 184.429688 C 708.199219 184.199219 706.707031 183.753906 705.390625 183.078125 C 704.066406 182.378906 702.980469 181.414062 702.113281 180.183594 C 701.222656 178.964844 700.761719 177.371094 700.761719 175.40625 C 700.761719 172.644531 701.316406 170.507812 702.402344 168.988281 C 703.464844 167.445312 704.824219 166.238281 706.5 165.371094 C 708.164062 164.476562 709.949219 163.777344 711.851562 163.292969 C 713.78125 162.789062 715.578125 162.171875 717.253906 161.460938 C 718.917969 160.726562 720.304688 159.757812 721.398438 158.566406 C 722.484375 157.382812 723.039062 155.707031 723.039062 153.546875 C 723.039062 151.496094 722.21875 149.347656 720.582031 147.128906 C 718.964844 144.910156 717.167969 142.542969 715.179688 140.035156 C 713.214844 137.527344 711.417969 134.847656 709.78125 131.976562 C 708.164062 129.117188 707.371094 125.96875 707.371094 122.519531 C 707.371094 118.308594 708.238281 114.398438 709.972656 110.792969 C 711.707031 107.195312 714.023438 104.074219 716.914062 101.429688 C 719.808594 98.765625 723.113281 96.675781 726.847656 95.15625 C 730.609375 93.613281 734.539062 92.839844 738.660156 92.839844 C 740.226562 92.839844 741.769531 93.011719 743.289062 93.324219 C 744.832031 93.613281 746.183594 94.132812 747.339844 94.867188 C 748.519531 95.617188 749.484375 96.59375 750.234375 97.8125 C 750.96875 99.042969 751.34375 100.585938 751.34375 102.445312 Z M 751.34375 102.445312 " fill-opacity="1" fill-rule="nonzero"/><g fill="#304732" fill-opacity="1"><g transform="translate(69.747041, 498.748734)"><g><path d="M 15.015625 -2.203125 C 16.597656 -2.203125 18.113281 -2.515625 19.5625 -3.140625 C 21.007812 -3.765625 22.222656 -4.625 23.203125 -5.71875 L 25.03125 -3.8125 C 23.757812 -2.488281 22.242188 -1.453125 20.484375 -0.703125 C 18.722656 0.0351562 16.875 0.40625 14.9375 0.40625 C 13.082031 0.40625 11.335938 0.0625 9.703125 -0.625 C 8.078125 -1.3125 6.664062 -2.25 5.46875 -3.4375 C 4.269531 -4.625 3.328125 -6.03125 2.640625 -7.65625 C 1.953125 -9.28125 1.609375 -11.007812 1.609375 -12.84375 C 1.609375 -14.675781 1.953125 -16.40625 2.640625 -18.03125 C 3.328125 -19.664062 4.269531 -21.078125 5.46875 -22.265625 C 6.664062 -23.453125 8.078125 -24.382812 9.703125 -25.0625 C 11.335938 -25.75 13.082031 -26.09375 14.9375 -26.09375 C 16.914062 -26.09375 18.789062 -25.71875 20.5625 -24.96875 C 22.34375 -24.226562 23.859375 -23.195312 25.109375 -21.875 L 23.234375 -19.890625 C 22.234375 -21.015625 20.988281 -21.894531 19.5 -22.53125 C 18.019531 -23.164062 16.5 -23.484375 14.9375 -23.484375 C 13.46875 -23.484375 12.085938 -23.207031 10.796875 -22.65625 C 9.515625 -22.113281 8.410156 -21.367188 7.484375 -20.421875 C 6.554688 -19.484375 5.820312 -18.359375 5.28125 -17.046875 C 4.75 -15.734375 4.484375 -14.332031 4.484375 -12.84375 C 4.484375 -11.351562 4.75 -9.953125 5.28125 -8.640625 C 5.820312 -7.335938 6.5625 -6.210938 7.5 -5.265625 C 8.445312 -4.328125 9.5625 -3.582031 10.84375 -3.03125 C 12.125 -2.476562 13.515625 -2.203125 15.015625 -2.203125 Z M 15.015625 -2.203125 "/></g></g></g><g fill="#304732" fill-opacity="1"><g transform="translate(101.156567, 498.748734)"><g><path d="M 2.828125 0 L 2.828125 -25.6875 L 5.65625 -25.6875 L 5.65625 -14.203125 L 20.59375 -14.203125 L 20.59375 -25.6875 L 23.421875 -25.6875 L 23.421875 0 L 20.59375 0 L 20.59375 -11.671875 L 5.65625 -11.671875 L 5.65625 0 Z M 2.828125 0 "/></g></g></g><g fill="#304732" fill-opacity="1"><g transform="translate(132.30925, 498.748734)"><g><path d="M 2.828125 0 L 2.828125 -25.6875 L 5.65625 -25.6875 L 5.65625 0 Z M 2.828125 0 "/></g></g></g><g fill="#304732" fill-opacity="1"><g transform="translate(145.703433, 498.748734)"><g><path d="M 2.828125 0 L 2.828125 -25.6875 L 5.65625 -25.6875 L 5.65625 -2.53125 L 20.953125 -2.53125 L 20.953125 0 Z M 2.828125 0 "/></g></g></g><g fill="#304732" fill-opacity="1"><g transform="translate(172.7834, 498.748734)"><g><path d="M 2.828125 0 L 2.828125 -25.6875 L 11.296875 -25.6875 C 13.234375 -25.6875 15.035156 -25.363281 16.703125 -24.71875 C 18.367188 -24.070312 19.800781 -23.1875 21 -22.0625 C 22.195312 -20.9375 23.128906 -19.582031 23.796875 -18 C 24.472656 -16.425781 24.8125 -14.707031 24.8125 -12.84375 C 24.8125 -10.988281 24.472656 -9.269531 23.796875 -7.6875 C 23.128906 -6.113281 22.203125 -4.757812 21.015625 -3.625 C 19.828125 -2.5 18.398438 -1.613281 16.734375 -0.96875 C 15.066406 -0.320312 13.253906 0 11.296875 0 Z M 11.453125 -23.125 L 5.65625 -23.125 L 5.65625 -2.5625 L 11.453125 -2.5625 C 12.921875 -2.5625 14.300781 -2.820312 15.59375 -3.34375 C 16.894531 -3.875 18.007812 -4.597656 18.9375 -5.515625 C 19.863281 -6.441406 20.597656 -7.535156 21.140625 -8.796875 C 21.679688 -10.054688 21.953125 -11.40625 21.953125 -12.84375 C 21.953125 -14.289062 21.679688 -15.644531 21.140625 -16.90625 C 20.597656 -18.164062 19.863281 -19.253906 18.9375 -20.171875 C 18.007812 -21.085938 16.894531 -21.804688 15.59375 -22.328125 C 14.300781 -22.859375 12.921875 -23.125 11.453125 -23.125 Z M 11.453125 -23.125 "/></g></g></g><g fill="#304732" fill-opacity="1"><g transform="translate(204.119545, 498.748734)"><g><path d="M 2.828125 0 L 2.828125 -25.6875 L 13.84375 -25.6875 C 16.332031 -25.6875 18.347656 -25.007812 19.890625 -23.65625 C 21.429688 -22.300781 22.203125 -20.519531 22.203125 -18.3125 C 22.203125 -16.625 21.707031 -15.164062 20.71875 -13.9375 C 19.726562 -12.71875 18.398438 -11.878906 16.734375 -11.421875 L 22.5 0 L 19.375 0 L 13.875 -11.046875 L 5.65625 -11.046875 L 5.65625 0 Z M 13.65625 -23.15625 L 5.65625 -23.15625 L 5.65625 -13.4375 L 13.65625 -13.4375 C 15.363281 -13.4375 16.742188 -13.878906 17.796875 -14.765625 C 18.847656 -15.660156 19.375 -16.84375 19.375 -18.3125 C 19.375 -19.78125 18.847656 -20.953125 17.796875 -21.828125 C 16.742188 -22.710938 15.363281 -23.15625 13.65625 -23.15625 Z M 13.65625 -23.15625 "/></g></g></g><g fill="#304732" fill-opacity="1"><g transform="translate(232.703849, 498.748734)"><g><path d="M 2.828125 0 L 2.828125 -25.6875 L 21.21875 -25.6875 L 21.21875 -23.203125 L 5.65625 -23.203125 L 5.65625 -14.203125 L 15.8125 -14.203125 L 15.8125 -11.75 L 5.65625 -11.75 L 5.65625 -2.5 L 21.359375 -2.5 L 21.359375 0 Z M 2.828125 0 "/></g></g></g><g fill="#304732" fill-opacity="1"><g transform="translate(260.224114, 498.748734)"><g><path d="M 2.828125 -25.6875 L 5.65625 -25.6875 L 21.109375 -4.84375 L 21.109375 -25.6875 L 23.78125 -25.6875 L 23.78125 0 L 21.28125 0 L 5.5 -21.390625 L 5.5 0 L 2.828125 0 Z M 2.828125 -25.6875 "/></g></g></g><g fill="#304732" fill-opacity="1"><g transform="translate(291.743726, 498.748734)"><g/></g></g><g fill="#304732" fill-opacity="1"><g transform="translate(304.550839, 498.748734)"><g><path d="M 0.140625 0 L 10.828125 -25.6875 L 14.234375 -25.6875 L 24.78125 0 L 21.6875 0 L 18.46875 -8.078125 L 6.34375 -8.078125 L 3.078125 0 Z M 7.34375 -10.5 L 17.46875 -10.5 L 12.4375 -23.046875 Z M 7.34375 -10.5 "/></g></g></g><g fill="#304732" fill-opacity="1"><g transform="translate(334.382648, 498.748734)"><g><path d="M 2.828125 -25.6875 L 5.65625 -25.6875 L 21.109375 -4.84375 L 21.109375 -25.6875 L 23.78125 -25.6875 L 23.78125 0 L 21.28125 0 L 5.5 -21.390625 L 5.5 0 L 2.828125 0 Z M 2.828125 -25.6875 "/></g></g></g><g fill="#304732" fill-opacity="1"><g transform="translate(365.902249, 498.748734)"><g><path d="M 2.828125 0 L 2.828125 -25.6875 L 11.296875 -25.6875 C 13.234375 -25.6875 15.035156 -25.363281 16.703125 -24.71875 C 18.367188 -24.070312 19.800781 -23.1875 21 -22.0625 C 22.195312 -20.9375 23.128906 -19.582031 23.796875 -18 C 24.472656 -16.425781 24.8125 -14.707031 24.8125 -12.84375 C 24.8125 -10.988281 24.472656 -9.269531 23.796875 -7.6875 C 23.128906 -6.113281 22.203125 -4.757812 21.015625 -3.625 C 19.828125 -2.5 18.398438 -1.613281 16.734375 -0.96875 C 15.066406 -0.320312 13.253906 0 11.296875 0 Z M 11.453125 -23.125 L 5.65625 -23.125 L 5.65625 -2.5625 L 11.453125 -2.5625 C 12.921875 -2.5625 14.300781 -2.820312 15.59375 -3.34375 C 16.894531 -3.875 18.007812 -4.597656 18.9375 -5.515625 C 19.863281 -6.441406 20.597656 -7.535156 21.140625 -8.796875 C 21.679688 -10.054688 21.953125 -11.40625 21.953125 -12.84375 C 21.953125 -14.289062 21.679688 -15.644531 21.140625 -16.90625 C 20.597656 -18.164062 19.863281 -19.253906 18.9375 -20.171875 C 18.007812 -21.085938 16.894531 -21.804688 15.59375 -22.328125 C 14.300781 -22.859375 12.921875 -23.125 11.453125 -23.125 Z M 11.453125 -23.125 "/></g></g></g><g fill="#304732" fill-opacity="1"><g transform="translate(397.238395, 498.748734)"><g/></g></g><g fill="#304732" fill-opacity="1"><g transform="translate(410.045508, 498.748734)"><g><path d="M 10.3125 0 L 10.3125 -10.453125 L 0.109375 -25.6875 L 3.40625 -25.6875 L 11.8125 -12.953125 L 20.1875 -25.6875 L 23.375 -25.6875 L 13.140625 -10.34375 L 13.140625 0 Z M 10.3125 0 "/></g></g></g><g fill="#304732" fill-opacity="1"><g transform="translate(438.40968, 498.748734)"><g><path d="M 28.078125 -12.84375 C 28.078125 -11.007812 27.734375 -9.28125 27.046875 -7.65625 C 26.359375 -6.03125 25.421875 -4.625 24.234375 -3.4375 C 23.054688 -2.25 21.660156 -1.3125 20.046875 -0.625 C 18.429688 0.0625 16.703125 0.40625 14.859375 0.40625 C 13.023438 0.40625 11.296875 0.0625 9.671875 -0.625 C 8.046875 -1.3125 6.640625 -2.25 5.453125 -3.4375 C 4.265625 -4.625 3.328125 -6.03125 2.640625 -7.65625 C 1.953125 -9.28125 1.609375 -11.007812 1.609375 -12.84375 C 1.609375 -14.675781 1.953125 -16.40625 2.640625 -18.03125 C 3.328125 -19.664062 4.265625 -21.078125 5.453125 -22.265625 C 6.640625 -23.453125 8.046875 -24.382812 9.671875 -25.0625 C 11.296875 -25.75 13.023438 -26.09375 14.859375 -26.09375 C 16.703125 -26.09375 18.429688 -25.75 20.046875 -25.0625 C 21.660156 -24.382812 23.054688 -23.453125 24.234375 -22.265625 C 25.421875 -21.078125 26.359375 -19.664062 27.046875 -18.03125 C 27.734375 -16.40625 28.078125 -14.675781 28.078125 -12.84375 Z M 25.21875 -12.84375 C 25.21875 -14.332031 24.945312 -15.734375 24.40625 -17.046875 C 23.863281 -18.359375 23.132812 -19.484375 22.21875 -20.421875 C 21.300781 -21.367188 20.207031 -22.113281 18.9375 -22.65625 C 17.664062 -23.207031 16.304688 -23.484375 14.859375 -23.484375 C 13.390625 -23.484375 12.019531 -23.207031 10.75 -22.65625 C 9.476562 -22.113281 8.382812 -21.367188 7.46875 -20.421875 C 6.550781 -19.484375 5.820312 -18.359375 5.28125 -17.046875 C 4.75 -15.734375 4.484375 -14.332031 4.484375 -12.84375 C 4.484375 -11.351562 4.75 -9.957031 5.28125 -8.65625 C 5.820312 -7.363281 6.550781 -6.238281 7.46875 -5.28125 C 8.382812 -4.332031 9.476562 -3.582031 10.75 -3.03125 C 12.019531 -2.476562 13.390625 -2.203125 14.859375 -2.203125 C 16.304688 -2.203125 17.664062 -2.476562 18.9375 -3.03125 C 20.207031 -3.582031 21.300781 -4.332031 22.21875 -5.28125 C 23.132812 -6.238281 23.863281 -7.363281 24.40625 -8.65625 C 24.945312 -9.957031 25.21875 -11.351562 25.21875 -12.84375 Z M 25.21875 -12.84375 "/></g></g></g><g fill="#304732" fill-opacity="1"><g transform="translate(473.011332, 498.748734)"><g><path d="M 23.53125 -10.859375 C 23.53125 -7.429688 22.566406 -4.695312 20.640625 -2.65625 C 18.722656 -0.613281 16.148438 0.40625 12.921875 0.40625 C 9.660156 0.40625 7.078125 -0.609375 5.171875 -2.640625 C 3.265625 -4.671875 2.3125 -7.410156 2.3125 -10.859375 L 2.3125 -25.6875 L 5.140625 -25.6875 L 5.140625 -10.859375 C 5.140625 -8.242188 5.847656 -6.144531 7.265625 -4.5625 C 8.679688 -2.988281 10.566406 -2.203125 12.921875 -2.203125 C 15.265625 -2.203125 17.144531 -2.988281 18.5625 -4.5625 C 19.988281 -6.144531 20.703125 -8.242188 20.703125 -10.859375 L 20.703125 -25.6875 L 23.53125 -25.6875 Z M 23.53125 -10.859375 "/></g></g></g><g fill="#304732" fill-opacity="1"><g transform="translate(503.760414, 498.748734)"><g><path d="M 2.828125 -25.6875 L 5.65625 -25.6875 L 21.109375 -4.84375 L 21.109375 -25.6875 L 23.78125 -25.6875 L 23.78125 0 L 21.28125 0 L 5.5 -21.390625 L 5.5 0 L 2.828125 0 Z M 2.828125 -25.6875 "/></g></g></g><g fill="#304732" fill-opacity="1"><g transform="translate(535.280038, 498.748734)"><g><path d="M 27.375 -12.296875 C 27.375 -10.503906 27.054688 -8.832031 26.421875 -7.28125 C 25.785156 -5.726562 24.90625 -4.390625 23.78125 -3.265625 C 22.65625 -2.140625 21.332031 -1.242188 19.8125 -0.578125 C 18.300781 0.078125 16.664062 0.40625 14.90625 0.40625 C 13.070312 0.40625 11.335938 0.0546875 9.703125 -0.640625 C 8.078125 -1.335938 6.671875 -2.28125 5.484375 -3.46875 C 4.296875 -4.65625 3.351562 -6.054688 2.65625 -7.671875 C 1.957031 -9.285156 1.609375 -11.007812 1.609375 -12.84375 C 1.609375 -14.675781 1.953125 -16.398438 2.640625 -18.015625 C 3.328125 -19.628906 4.265625 -21.03125 5.453125 -22.21875 C 6.640625 -23.40625 8.046875 -24.347656 9.671875 -25.046875 C 11.296875 -25.742188 13.023438 -26.09375 14.859375 -26.09375 C 16.847656 -26.09375 18.722656 -25.71875 20.484375 -24.96875 C 22.242188 -24.226562 23.75 -23.195312 25 -21.875 L 23.09375 -19.9375 C 22.113281 -21.0625 20.890625 -21.929688 19.421875 -22.546875 C 17.953125 -23.171875 16.429688 -23.484375 14.859375 -23.484375 C 13.390625 -23.484375 12.019531 -23.207031 10.75 -22.65625 C 9.476562 -22.113281 8.382812 -21.367188 7.46875 -20.421875 C 6.550781 -19.484375 5.820312 -18.359375 5.28125 -17.046875 C 4.75 -15.734375 4.484375 -14.332031 4.484375 -12.84375 C 4.484375 -11.351562 4.75 -9.953125 5.28125 -8.640625 C 5.820312 -7.335938 6.550781 -6.210938 7.46875 -5.265625 C 8.382812 -4.328125 9.476562 -3.582031 10.75 -3.03125 C 12.019531 -2.476562 13.390625 -2.203125 14.859375 -2.203125 C 16.160156 -2.203125 17.378906 -2.421875 18.515625 -2.859375 C 19.648438 -3.304688 20.640625 -3.910156 21.484375 -4.671875 C 22.328125 -5.441406 23.019531 -6.363281 23.5625 -7.4375 C 24.101562 -8.519531 24.421875 -9.6875 24.515625 -10.9375 L 15.3125 -10.9375 L 15.3125 -13.4375 L 27.375 -13.4375 Z M 27.375 -12.296875 "/></g></g></g><g fill="#304732" fill-opacity="1"><g transform="translate(569.111194, 498.748734)"><g/></g></g><g fill="#304732" fill-opacity="1"><g transform="translate(581.918307, 498.748734)"><g><path d="M 0.140625 0 L 10.828125 -25.6875 L 14.234375 -25.6875 L 24.78125 0 L 21.6875 0 L 18.46875 -8.078125 L 6.34375 -8.078125 L 3.078125 0 Z M 7.34375 -10.5 L 17.46875 -10.5 L 12.4375 -23.046875 Z M 7.34375 -10.5 "/></g></g></g><g fill="#304732" fill-opacity="1"><g transform="translate(611.750139, 498.748734)"><g><path d="M 2.828125 0 L 2.828125 -25.6875 L 11.296875 -25.6875 C 13.234375 -25.6875 15.035156 -25.363281 16.703125 -24.71875 C 18.367188 -24.070312 19.800781 -23.1875 21 -22.0625 C 22.195312 -20.9375 23.128906 -19.582031 23.796875 -18 C 24.472656 -16.425781 24.8125 -14.707031 24.8125 -12.84375 C 24.8125 -10.988281 24.472656 -9.269531 23.796875 -7.6875 C 23.128906 -6.113281 22.203125 -4.757812 21.015625 -3.625 C 19.828125 -2.5 18.398438 -1.613281 16.734375 -0.96875 C 15.066406 -0.320312 13.253906 0 11.296875 0 Z M 11.453125 -23.125 L 5.65625 -23.125 L 5.65625 -2.5625 L 11.453125 -2.5625 C 12.921875 -2.5625 14.300781 -2.820312 15.59375 -3.34375 C 16.894531 -3.875 18.007812 -4.597656 18.9375 -5.515625 C 19.863281 -6.441406 20.597656 -7.535156 21.140625 -8.796875 C 21.679688 -10.054688 21.953125 -11.40625 21.953125 -12.84375 C 21.953125 -14.289062 21.679688 -15.644531 21.140625 -16.90625 C 20.597656 -18.164062 19.863281 -19.253906 18.9375 -20.171875 C 18.007812 -21.085938 16.894531 -21.804688 15.59375 -22.328125 C 14.300781 -22.859375 12.921875 -23.125 11.453125 -23.125 Z M 11.453125 -23.125 "/></g></g></g><g fill="#304732" fill-opacity="1"><g transform="translate(643.086285, 498.748734)"><g><path d="M 23.53125 -10.859375 C 23.53125 -7.429688 22.566406 -4.695312 20.640625 -2.65625 C 18.722656 -0.613281 16.148438 0.40625 12.921875 0.40625 C 9.660156 0.40625 7.078125 -0.609375 5.171875 -2.640625 C 3.265625 -4.671875 2.3125 -7.410156 2.3125 -10.859375 L 2.3125 -25.6875 L 5.140625 -25.6875 L 5.140625 -10.859375 C 5.140625 -8.242188 5.847656 -6.144531 7.265625 -4.5625 C 8.679688 -2.988281 10.566406 -2.203125 12.921875 -2.203125 C 15.265625 -2.203125 17.144531 -2.988281 18.5625 -4.5625 C 19.988281 -6.144531 20.703125 -8.242188 20.703125 -10.859375 L 20.703125 -25.6875 L 23.53125 -25.6875 Z M 23.53125 -10.859375 "/></g></g></g><g fill="#304732" fill-opacity="1"><g transform="translate(673.835367, 498.748734)"><g><path d="M 2.828125 0 L 2.828125 -25.6875 L 5.65625 -25.6875 L 5.65625 -2.53125 L 20.953125 -2.53125 L 20.953125 0 Z M 2.828125 0 "/></g></g></g><g fill="#304732" fill-opacity="1"><g transform="translate(700.915357, 498.748734)"><g><path d="M 0.625 -23.15625 L 0.625 -25.6875 L 22.015625 -25.6875 L 22.015625 -23.15625 L 12.734375 -23.15625 L 12.734375 0 L 9.90625 0 L 9.90625 -23.15625 Z M 0.625 -23.15625 "/></g></g></g><g fill="#304732" fill-opacity="1"><g transform="translate(728.472333, 498.748734)"><g><path d="M 0.40625 -4.40625 L 2.28125 -6.34375 C 3.59375 -4.945312 5 -3.890625 6.5 -3.171875 C 8.007812 -2.453125 9.597656 -2.09375 11.265625 -2.09375 C 13.273438 -2.09375 14.925781 -2.566406 16.21875 -3.515625 C 17.519531 -4.472656 18.171875 -5.6875 18.171875 -7.15625 C 18.171875 -8.476562 17.710938 -9.492188 16.796875 -10.203125 C 15.878906 -10.910156 14.367188 -11.4375 12.265625 -11.78125 L 8.546875 -12.375 C 6.078125 -12.757812 4.253906 -13.484375 3.078125 -14.546875 C 1.910156 -15.617188 1.328125 -17.054688 1.328125 -18.859375 C 1.328125 -20.992188 2.15625 -22.71875 3.8125 -24.03125 C 5.476562 -25.351562 7.65625 -26.015625 10.34375 -26.015625 C 12.132812 -26.015625 13.910156 -25.722656 15.671875 -25.140625 C 17.429688 -24.554688 19.035156 -23.710938 20.484375 -22.609375 L 18.859375 -20.40625 C 17.460938 -21.457031 16.039062 -22.25 14.59375 -22.78125 C 13.15625 -23.320312 11.703125 -23.59375 10.234375 -23.59375 C 8.398438 -23.59375 6.914062 -23.171875 5.78125 -22.328125 C 4.644531 -21.484375 4.078125 -20.398438 4.078125 -19.078125 C 4.078125 -17.878906 4.476562 -16.960938 5.28125 -16.328125 C 6.09375 -15.691406 7.425781 -15.226562 9.28125 -14.9375 L 12.953125 -14.34375 C 15.742188 -13.882812 17.78125 -13.09375 19.0625 -11.96875 C 20.351562 -10.84375 21 -9.285156 21 -7.296875 C 21 -6.171875 20.757812 -5.140625 20.28125 -4.203125 C 19.800781 -3.265625 19.125 -2.457031 18.25 -1.78125 C 17.382812 -1.101562 16.347656 -0.578125 15.140625 -0.203125 C 13.929688 0.171875 12.601562 0.359375 11.15625 0.359375 C 9.125 0.359375 7.171875 -0.046875 5.296875 -0.859375 C 3.429688 -1.679688 1.800781 -2.863281 0.40625 -4.40625 Z M 0.40625 -4.40625 "/></g></g></g><g fill="#304732" fill-opacity="1"><g transform="translate(443.971805, 450.853837)"><g><path d="M 0.203125 -2.28125 L 1.171875 -3.28125 C 1.859375 -2.5625 2.585938 -2.015625 3.359375 -1.640625 C 4.140625 -1.265625 4.960938 -1.078125 5.828125 -1.078125 C 6.867188 -1.078125 7.722656 -1.320312 8.390625 -1.8125 C 9.054688 -2.3125 9.390625 -2.941406 9.390625 -3.703125 C 9.390625 -4.390625 9.148438 -4.914062 8.671875 -5.28125 C 8.203125 -5.644531 7.425781 -5.914062 6.34375 -6.09375 L 4.421875 -6.390625 C 3.140625 -6.597656 2.195312 -6.976562 1.59375 -7.53125 C 0.988281 -8.082031 0.6875 -8.828125 0.6875 -9.765625 C 0.6875 -10.859375 1.113281 -11.742188 1.96875 -12.421875 C 2.832031 -13.109375 3.960938 -13.453125 5.359375 -13.453125 C 6.273438 -13.453125 7.1875 -13.300781 8.09375 -13 C 9.007812 -12.695312 9.84375 -12.257812 10.59375 -11.6875 L 9.765625 -10.5625 C 9.035156 -11.101562 8.296875 -11.507812 7.546875 -11.78125 C 6.804688 -12.0625 6.054688 -12.203125 5.296875 -12.203125 C 4.347656 -12.203125 3.578125 -11.984375 2.984375 -11.546875 C 2.398438 -11.109375 2.109375 -10.550781 2.109375 -9.875 C 2.109375 -9.25 2.316406 -8.769531 2.734375 -8.4375 C 3.148438 -8.113281 3.835938 -7.878906 4.796875 -7.734375 L 6.703125 -7.421875 C 8.140625 -7.179688 9.191406 -6.769531 9.859375 -6.1875 C 10.523438 -5.601562 10.859375 -4.800781 10.859375 -3.78125 C 10.859375 -3.195312 10.734375 -2.660156 10.484375 -2.171875 C 10.242188 -1.679688 9.894531 -1.265625 9.4375 -0.921875 C 8.988281 -0.578125 8.453125 -0.304688 7.828125 -0.109375 C 7.203125 0.0859375 6.515625 0.1875 5.765625 0.1875 C 4.722656 0.1875 3.71875 -0.0195312 2.75 -0.4375 C 1.78125 -0.863281 0.929688 -1.476562 0.203125 -2.28125 Z M 0.203125 -2.28125 "/></g></g></g><g fill="#304732" fill-opacity="1"><g transform="translate(458.813189, 450.853837)"><g><path d="M 1.46875 0 L 1.46875 -13.28125 L 7.234375 -13.28125 C 8.523438 -13.28125 9.5625 -12.929688 10.34375 -12.234375 C 11.132812 -11.535156 11.53125 -10.609375 11.53125 -9.453125 C 11.53125 -8.304688 11.132812 -7.375 10.34375 -6.65625 C 9.550781 -5.945312 8.515625 -5.59375 7.234375 -5.59375 L 2.921875 -5.59375 L 2.921875 0 Z M 7.125 -11.984375 L 2.921875 -11.984375 L 2.921875 -6.875 L 7.125 -6.875 C 8.019531 -6.875 8.734375 -7.101562 9.265625 -7.5625 C 9.796875 -8.03125 10.0625 -8.65625 10.0625 -9.4375 C 10.0625 -10.21875 9.796875 -10.835938 9.265625 -11.296875 C 8.734375 -11.753906 8.019531 -11.984375 7.125 -11.984375 Z M 7.125 -11.984375 "/></g></g></g><g fill="#304732" fill-opacity="1"><g transform="translate(474.546521, 450.853837)"><g><path d="M 1.46875 0 L 1.46875 -13.28125 L 10.96875 -13.28125 L 10.96875 -12 L 2.921875 -12 L 2.921875 -7.34375 L 8.1875 -7.34375 L 8.1875 -6.078125 L 2.921875 -6.078125 L 2.921875 -1.296875 L 11.046875 -1.296875 L 11.046875 0 Z M 1.46875 0 "/></g></g></g><g fill="#304732" fill-opacity="1"><g transform="translate(489.691544, 450.853837)"><g><path d="M 7.765625 -1.140625 C 8.585938 -1.140625 9.367188 -1.300781 10.109375 -1.625 C 10.859375 -1.945312 11.488281 -2.394531 12 -2.96875 L 12.953125 -1.96875 C 12.285156 -1.289062 11.492188 -0.757812 10.578125 -0.375 C 9.671875 0.0078125 8.722656 0.203125 7.734375 0.203125 C 6.765625 0.203125 5.859375 0.0234375 5.015625 -0.328125 C 4.179688 -0.679688 3.453125 -1.164062 2.828125 -1.78125 C 2.203125 -2.394531 1.710938 -3.117188 1.359375 -3.953125 C 1.003906 -4.796875 0.828125 -5.691406 0.828125 -6.640625 C 0.828125 -7.585938 1.003906 -8.484375 1.359375 -9.328125 C 1.710938 -10.171875 2.203125 -10.898438 2.828125 -11.515625 C 3.453125 -12.128906 4.179688 -12.613281 5.015625 -12.96875 C 5.859375 -13.320312 6.765625 -13.5 7.734375 -13.5 C 8.753906 -13.5 9.722656 -13.304688 10.640625 -12.921875 C 11.554688 -12.535156 12.335938 -12 12.984375 -11.3125 L 12.015625 -10.296875 C 11.492188 -10.867188 10.847656 -11.320312 10.078125 -11.65625 C 9.316406 -11.988281 8.535156 -12.15625 7.734375 -12.15625 C 6.972656 -12.15625 6.257812 -12.007812 5.59375 -11.71875 C 4.925781 -11.4375 4.351562 -11.050781 3.875 -10.5625 C 3.394531 -10.070312 3.015625 -9.488281 2.734375 -8.8125 C 2.453125 -8.132812 2.3125 -7.410156 2.3125 -6.640625 C 2.3125 -5.867188 2.453125 -5.144531 2.734375 -4.46875 C 3.015625 -3.789062 3.394531 -3.207031 3.875 -2.71875 C 4.363281 -2.238281 4.941406 -1.851562 5.609375 -1.5625 C 6.273438 -1.28125 6.992188 -1.140625 7.765625 -1.140625 Z M 7.765625 -1.140625 "/></g></g></g><g fill="#304732" fill-opacity="1"><g transform="translate(506.848211, 450.853837)"><g><path d="M 1.46875 0 L 1.46875 -13.28125 L 2.921875 -13.28125 L 2.921875 0 Z M 1.46875 0 "/></g></g></g><g fill="#304732" fill-opacity="1"><g transform="translate(514.686786, 450.853837)"><g><path d="M 0.078125 0 L 5.59375 -13.28125 L 7.359375 -13.28125 L 12.8125 0 L 11.21875 0 L 9.546875 -4.171875 L 3.28125 -4.171875 L 1.59375 0 Z M 3.796875 -5.421875 L 9.03125 -5.421875 L 6.4375 -11.921875 Z M 3.796875 -5.421875 "/></g></g></g><g fill="#304732" fill-opacity="1"><g transform="translate(531.027408, 450.853837)"><g><path d="M 1.46875 0 L 1.46875 -13.28125 L 2.921875 -13.28125 L 2.921875 -1.3125 L 10.84375 -1.3125 L 10.84375 0 Z M 1.46875 0 "/></g></g></g><g fill="#304732" fill-opacity="1"><g transform="translate(545.944696, 450.853837)"><g><path d="M 0.328125 -11.984375 L 0.328125 -13.28125 L 11.390625 -13.28125 L 11.390625 -11.984375 L 6.59375 -11.984375 L 6.59375 0 L 5.125 0 L 5.125 -11.984375 Z M 0.328125 -11.984375 "/></g></g></g><g fill="#304732" fill-opacity="1"><g transform="translate(561.108698, 450.853837)"><g><path d="M 5.328125 0 L 5.328125 -5.40625 L 0.0625 -13.28125 L 1.765625 -13.28125 L 6.109375 -6.703125 L 10.4375 -13.28125 L 12.09375 -13.28125 L 6.796875 -5.359375 L 6.796875 0 Z M 5.328125 0 "/></g></g></g><g fill="#304732" fill-opacity="1"><g transform="translate(576.690211, 450.853837)"><g/></g></g><g fill="#304732" fill-opacity="1"><g transform="translate(584.225148, 450.853837)"><g><path d="M 1.46875 0 L 1.46875 -13.28125 L 10.96875 -13.28125 L 10.96875 -12 L 2.921875 -12 L 2.921875 -7.34375 L 8.1875 -7.34375 L 8.1875 -6.078125 L 2.921875 -6.078125 L 2.921875 -1.296875 L 11.046875 -1.296875 L 11.046875 0 Z M 1.46875 0 "/></g></g></g><g fill="#304732" fill-opacity="1"><g transform="translate(599.37017, 450.853837)"><g><path d="M 5.328125 0 L 5.328125 -5.40625 L 0.0625 -13.28125 L 1.765625 -13.28125 L 6.109375 -6.703125 L 10.4375 -13.28125 L 12.09375 -13.28125 L 6.796875 -5.359375 L 6.796875 0 Z M 5.328125 0 "/></g></g></g><g fill="#304732" fill-opacity="1"><g transform="translate(614.951683, 450.853837)"><g><path d="M 1.46875 0 L 1.46875 -13.28125 L 10.96875 -13.28125 L 10.96875 -12 L 2.921875 -12 L 2.921875 -7.34375 L 8.1875 -7.34375 L 8.1875 -6.078125 L 2.921875 -6.078125 L 2.921875 -1.296875 L 11.046875 -1.296875 L 11.046875 0 Z M 1.46875 0 "/></g></g></g><g fill="#304732" fill-opacity="1"><g transform="translate(630.096706, 450.853837)"><g><path d="M 7.765625 -1.140625 C 8.585938 -1.140625 9.367188 -1.300781 10.109375 -1.625 C 10.859375 -1.945312 11.488281 -2.394531 12 -2.96875 L 12.953125 -1.96875 C 12.285156 -1.289062 11.492188 -0.757812 10.578125 -0.375 C 9.671875 0.0078125 8.722656 0.203125 7.734375 0.203125 C 6.765625 0.203125 5.859375 0.0234375 5.015625 -0.328125 C 4.179688 -0.679688 3.453125 -1.164062 2.828125 -1.78125 C 2.203125 -2.394531 1.710938 -3.117188 1.359375 -3.953125 C 1.003906 -4.796875 0.828125 -5.691406 0.828125 -6.640625 C 0.828125 -7.585938 1.003906 -8.484375 1.359375 -9.328125 C 1.710938 -10.171875 2.203125 -10.898438 2.828125 -11.515625 C 3.453125 -12.128906 4.179688 -12.613281 5.015625 -12.96875 C 5.859375 -13.320312 6.765625 -13.5 7.734375 -13.5 C 8.753906 -13.5 9.722656 -13.304688 10.640625 -12.921875 C 11.554688 -12.535156 12.335938 -12 12.984375 -11.3125 L 12.015625 -10.296875 C 11.492188 -10.867188 10.847656 -11.320312 10.078125 -11.65625 C 9.316406 -11.988281 8.535156 -12.15625 7.734375 -12.15625 C 6.972656 -12.15625 6.257812 -12.007812 5.59375 -11.71875 C 4.925781 -11.4375 4.351562 -11.050781 3.875 -10.5625 C 3.394531 -10.070312 3.015625 -9.488281 2.734375 -8.8125 C 2.453125 -8.132812 2.3125 -7.410156 2.3125 -6.640625 C 2.3125 -5.867188 2.453125 -5.144531 2.734375 -4.46875 C 3.015625 -3.789062 3.394531 -3.207031 3.875 -2.71875 C 4.363281 -2.238281 4.941406 -1.851562 5.609375 -1.5625 C 6.273438 -1.28125 6.992188 -1.140625 7.765625 -1.140625 Z M 7.765625 -1.140625 "/></g></g></g><g fill="#304732" fill-opacity="1"><g transform="translate(647.253373, 450.853837)"><g><path d="M 0.078125 0 L 5.59375 -13.28125 L 7.359375 -13.28125 L 12.8125 0 L 11.21875 0 L 9.546875 -4.171875 L 3.28125 -4.171875 L 1.59375 0 Z M 3.796875 -5.421875 L 9.03125 -5.421875 L 6.4375 -11.921875 Z M 3.796875 -5.421875 "/></g></g></g><g fill="#304732" fill-opacity="1"><g transform="translate(663.594006, 450.853837)"><g><path d="M 1.46875 0 L 1.46875 -13.28125 L 7.15625 -13.28125 C 8.445312 -13.28125 9.488281 -12.929688 10.28125 -12.234375 C 11.082031 -11.535156 11.484375 -10.613281 11.484375 -9.46875 C 11.484375 -8.59375 11.226562 -7.835938 10.71875 -7.203125 C 10.207031 -6.578125 9.519531 -6.144531 8.65625 -5.90625 L 11.640625 0 L 10.03125 0 L 7.171875 -5.71875 L 2.921875 -5.71875 L 2.921875 0 Z M 7.0625 -11.984375 L 2.921875 -11.984375 L 2.921875 -6.953125 L 7.0625 -6.953125 C 7.945312 -6.953125 8.660156 -7.179688 9.203125 -7.640625 C 9.753906 -8.097656 10.03125 -8.707031 10.03125 -9.46875 C 10.03125 -10.226562 9.753906 -10.835938 9.203125 -11.296875 C 8.660156 -11.753906 7.945312 -11.984375 7.0625 -11.984375 Z M 7.0625 -11.984375 "/></g></g></g><g fill="#304732" fill-opacity="1"><g transform="translate(679.289381, 450.853837)"><g><path d="M 1.46875 0 L 1.46875 -13.28125 L 10.96875 -13.28125 L 10.96875 -12 L 2.921875 -12 L 2.921875 -7.34375 L 8.1875 -7.34375 L 8.1875 -6.078125 L 2.921875 -6.078125 L 2.921875 -1.296875 L 11.046875 -1.296875 L 11.046875 0 Z M 1.46875 0 "/></g></g></g><g fill="#304732" fill-opacity="1"><g transform="translate(694.434416, 450.853837)"><g/></g></g><g fill="#304732" fill-opacity="1"><g transform="translate(701.969341, 450.853837)"><g><path d="M 1.46875 0 L 1.46875 -13.28125 L 10.96875 -13.28125 L 10.96875 -12 L 2.921875 -12 L 2.921875 -7.25 L 8.203125 -7.25 L 8.203125 -5.984375 L 2.921875 -5.984375 L 2.921875 0 Z M 1.46875 0 "/></g></g></g><g fill="#304732" fill-opacity="1"><g transform="translate(716.943565, 450.853837)"><g><path d="M 14.515625 -6.640625 C 14.515625 -5.691406 14.335938 -4.796875 13.984375 -3.953125 C 13.628906 -3.117188 13.144531 -2.394531 12.53125 -1.78125 C 11.925781 -1.164062 11.203125 -0.679688 10.359375 -0.328125 C 9.523438 0.0234375 8.632812 0.203125 7.6875 0.203125 C 6.738281 0.203125 5.84375 0.0234375 5 -0.328125 C 4.15625 -0.679688 3.425781 -1.164062 2.8125 -1.78125 C 2.195312 -2.394531 1.710938 -3.117188 1.359375 -3.953125 C 1.003906 -4.796875 0.828125 -5.691406 0.828125 -6.640625 C 0.828125 -7.585938 1.003906 -8.484375 1.359375 -9.328125 C 1.710938 -10.171875 2.195312 -10.898438 2.8125 -11.515625 C 3.425781 -12.128906 4.15625 -12.613281 5 -12.96875 C 5.84375 -13.320312 6.738281 -13.5 7.6875 -13.5 C 8.632812 -13.5 9.523438 -13.320312 10.359375 -12.96875 C 11.203125 -12.613281 11.925781 -12.128906 12.53125 -11.515625 C 13.144531 -10.898438 13.628906 -10.171875 13.984375 -9.328125 C 14.335938 -8.484375 14.515625 -7.585938 14.515625 -6.640625 Z M 13.046875 -6.640625 C 13.046875 -7.410156 12.90625 -8.132812 12.625 -8.8125 C 12.34375 -9.488281 11.960938 -10.070312 11.484375 -10.5625 C 11.015625 -11.050781 10.453125 -11.4375 9.796875 -11.71875 C 9.140625 -12.007812 8.4375 -12.15625 7.6875 -12.15625 C 6.925781 -12.15625 6.21875 -12.007812 5.5625 -11.71875 C 4.90625 -11.4375 4.335938 -11.050781 3.859375 -10.5625 C 3.390625 -10.070312 3.015625 -9.488281 2.734375 -8.8125 C 2.453125 -8.132812 2.3125 -7.410156 2.3125 -6.640625 C 2.3125 -5.867188 2.453125 -5.144531 2.734375 -4.46875 C 3.015625 -3.800781 3.390625 -3.222656 3.859375 -2.734375 C 4.335938 -2.242188 4.90625 -1.851562 5.5625 -1.5625 C 6.21875 -1.28125 6.925781 -1.140625 7.6875 -1.140625 C 8.4375 -1.140625 9.140625 -1.28125 9.796875 -1.5625 C 10.453125 -1.851562 11.015625 -2.242188 11.484375 -2.734375 C 11.960938 -3.222656 12.34375 -3.800781 12.625 -4.46875 C 12.90625 -5.144531 13.046875 -5.867188 13.046875 -6.640625 Z M 13.046875 -6.640625 "/></g></g></g><g fill="#304732" fill-opacity="1"><g transform="translate(735.751289, 450.853837)"><g><path d="M 1.46875 0 L 1.46875 -13.28125 L 7.15625 -13.28125 C 8.445312 -13.28125 9.488281 -12.929688 10.28125 -12.234375 C 11.082031 -11.535156 11.484375 -10.613281 11.484375 -9.46875 C 11.484375 -8.59375 11.226562 -7.835938 10.71875 -7.203125 C 10.207031 -6.578125 9.519531 -6.144531 8.65625 -5.90625 L 11.640625 0 L 10.03125 0 L 7.171875 -5.71875 L 2.921875 -5.71875 L 2.921875 0 Z M 7.0625 -11.984375 L 2.921875 -11.984375 L 2.921875 -6.953125 L 7.0625 -6.953125 C 7.945312 -6.953125 8.660156 -7.179688 9.203125 -7.640625 C 9.753906 -8.097656 10.03125 -8.707031 10.03125 -9.46875 C 10.03125 -10.226562 9.753906 -10.835938 9.203125 -11.296875 C 8.660156 -11.753906 7.945312 -11.984375 7.0625 -11.984375 Z M 7.0625 -11.984375 "/></g></g></g></svg>